<svg><defs><font horiz-adv-x="637"><font-face font-family="VerbBold" font-weight="700" panose-1="2 0 8 0 3 0 0 2 0 4" ascent="800" descent="-200" x-height="525" cap-height="700" bbox="-121 -296 1416 956" underline-thickness="50" underline-position="-50" unicode-range="U+0020-FB06"/><glyph glyph-name="f_f" unicode="ff" horiz-adv-x="762" d="M401 419v106h72v27q0 91 37.5 134t114.5 43q81 0 177-41l-48-103q-68 20-93 20-20 0-32.5-10t-12.5-39v-31h131v-106h-131v-419h-143v419h-72zm-379 0v106h72v27q0 91 37.5 134t114.5 43q81 0 177-41l-48-103q-68 20-93 20-20 0-32.5-10t-12.5-39v-31h118v-106h-118v-419h-143v419h-72z"/><glyph glyph-name="f_i" unicode="fi" horiz-adv-x="651" d="M22 419v106h72v27q0 177 150 177 68 0 142-33l-34-105q-45 14-70 14-20 0-32.5-10t-12.5-39v-31h131v-106h-131v-419h-143v419h-72zm567-419h-144v525h144v-525zm-147 601v125h152v-125h-152z"/><glyph glyph-name="f_l" unicode="fl" horiz-adv-x="656" d="M22 419v106h72v27q0 177 150 177 68 0 142-33l-34-105q-45 14-70 14-20 0-32.5-10t-12.5-39v-31h131v-106h-131v-419h-143v419h-72zm569-419h-143v729h143v-729z"/><glyph glyph-name="f_f_i" unicode="ffi" horiz-adv-x="1030" d="M22 419v106h72v27q0 91 37.5 134t114.5 43q81 0 177-41l-38-103q-76 20-103 20-20 0-32.5-10t-12.5-39v-31h118v-106h-118v-419h-143v419h-72zm379 0v106h72v27q0 177 150 177 68 0 142-33l-34-105q-48 14-70 14-20 0-32.5-10t-12.5-39v-31h131v-106h-131v-419h-143v419h-72zm567-419h-144v525h144v-525zm-147 601v125h152v-125h-152z"/><glyph glyph-name="f_f_l" unicode="ffl" horiz-adv-x="1035" d="M22 419v106h72v27q0 91 37.5 134t114.5 43q81 0 177-41l-38-103q-76 20-103 20-20 0-32.5-10t-12.5-39v-31h118v-106h-118v-419h-143v419h-72zm379 0v106h72v27q0 177 150 177 68 0 142-33l-34-105q-48 14-70 14-20 0-32.5-10t-12.5-39v-31h131v-106h-131v-419h-143v419h-72zm569-419h-144v729h144v-729z"/><glyph glyph-name="f_f_b" unicode="ffb" horiz-adv-x="1386" d="M824 0v729h144v-263q81 70 176 70 93 0 148.5-70t55.5-204q0-133-55.5-203t-148.5-70q-95 0-176 68v-57h-144zm-802 419v106h72v27q0 91 37.5 134t114.5 43q81 0 177-41l-38-103q-76 20-103 20-20 0-32.5-10t-12.5-39v-31h118v-106h-118v-419h-143v419h-72zm379 0v106h72v27q0 177 150 177 68 0 142-33l-34-105q-48 14-70 14-20 0-32.5-10t-12.5-39v-31h131v-106h-131v-419h-143v419h-72zm700 1q-76 0-133-68v-180q58-67 133-67 101 0 101 158 0 157-101 157z"/><glyph glyph-name="f_f_h" unicode="ffh" horiz-adv-x="1387" d="M968 729v-267q106 74 204 74 157 0 157-165v-371h-144v338q0 86-69 86-37 0-78.5-21t-69.5-47v-356h-144v729h144zm-946-310v106h72v27q0 91 37.5 134t114.5 43q81 0 177-41l-38-103q-76 20-103 20-20 0-32.5-10t-12.5-39v-31h118v-106h-118v-419h-143v419h-72zm379 0v106h72v27q0 177 150 177 68 0 142-33l-34-105q-48 14-70 14-20 0-32.5-10t-12.5-39v-31h131v-106h-131v-419h-143v419h-72z"/><glyph glyph-name="f_b" unicode="fb" horiz-adv-x="1007" d="M445 0v729h144v-263q81 70 176 70 93 0 148.5-69.5t55.5-204.5q0-133-55.5-203t-148.5-70q-95 0-176 68v-57h-144zm-423 419v106h72v27q0 177 150 177 68 0 142-33l-34-105q-45 14-70 14-20 0-32.5-10t-12.5-39v-31h131v-106h-131v-419h-143v419h-72zm700 1q-76 0-133-68v-180q58-67 133-67 102 0 102 158 0 157-102 157z"/><glyph glyph-name="f_f_j" unicode="ffj" horiz-adv-x="1030" d="M22 419v106h72v27q0 91 37.5 134t114.5 43q81 0 177-41l-38-103q-76 20-103 20-20 0-32.5-10t-12.5-39v-31h118v-106h-118v-419h-143v419h-72zm379 0v106h72v27q0 177 150 177 68 0 142-33l-34-105q-48 14-70 14-20 0-32.5-10t-12.5-39v-31h131v-106h-131v-419h-143v419h-72zm567 106v-549l-1.5-33-4.5-31-8-26-13-24-19.5-20-27-19.5-36-16.5-46.5-16.5-58-14.5-47 104q46 15 68 24.5t34 25.5 13.5 28.5 1.5 45.5v522h144zm-148 76v125h152v-125h-152z"/><glyph glyph-name="f_f_k" unicode="ffk" horiz-adv-x="1332" d="M1302 525l-177-208 208-317h-151l-143 215-71-84v-131h-144v729h144v-421l171 217h163zm-1280-106v106h72v27q0 91 37.5 134t114.5 43q81 0 177-41l-38-103q-76 20-103 20-20 0-32.5-10t-12.5-39v-31h118v-106h-118v-419h-143v419h-72zm379 0v106h72v27q0 177 150 177 68 0 142-33l-34-105q-48 14-70 14-20 0-32.5-10t-12.5-39v-31h131v-106h-131v-419h-143v419h-72z"/><glyph glyph-name="f_f_t" unicode="fft" horiz-adv-x="1177" d="M22 419v106h72v27q0 91 37.5 134t114.5 43q81 0 177-41l-38-103q-76 20-103 20-20 0-32.5-10t-12.5-39v-31h118v-106h-118v-419h-143v419h-72zm379 0v106h72v27q0 91 37.5 134t114.5 43q81 0 177-41l-48-103q-68 20-93 20-20 0-32.5-10t-12.5-39v-31h120v-106h-120v-419h-143v419h-72zm380 0v106h72v132l143 20v-152h143v-106h-143v-255q0-30 12.5-40t32.5-10q23 0 83 24l50-107q-92-42-169-42-152 0-152 177v253h-72z"/><glyph glyph-name="f_h" unicode="fh" horiz-adv-x="1008" d="M589 729v-267q106 74 204 74 157 0 157-165v-371h-144v338q0 86-69 86-37 0-78.5-21t-69.5-47v-356h-144v729h144zm-567-310v106h72v27q0 177 150 177 68 0 142-33l-34-105q-45 14-70 14-20 0-32.5-10t-12.5-39v-31h131v-106h-131v-419h-143v419h-72z"/><glyph glyph-name="f_j" unicode="fj" horiz-adv-x="651" d="M22 419v106h72v27q0 177 150 177 68 0 142-33l-34-105q-45 14-70 14-20 0-32.5-10t-12.5-39v-31h131v-106h-131v-419h-143v419h-72zm567 106v-549l-1.5-33-4.5-31-8-26-13-24-19.5-20-27-19.5-36-16.5-46.5-16.5-58-14.5-46 104q45 15 67 24.5t34 25.5 13.5 28.5 1.5 45.5v522h144zm-148 76v125h152v-125h-152z"/><glyph glyph-name="f_k" unicode="fk" horiz-adv-x="953" d="M923 525l-177-208 209-317h-152l-143 215-71-84v-131h-144v729h144v-421l171 217h163zm-901-106v106h72v27q0 177 150 177 68 0 142-33l-34-105q-45 14-70 14-20 0-32.5-10t-12.5-39v-31h131v-106h-131v-419h-143v419h-72z"/><glyph glyph-name="f_t" unicode="ft" horiz-adv-x="800" d="M22 419v106h72v27q0 91 37.5 134t114.5 43q81 0 177-41l-48-103q-68 20-93 20-20 0-32.5-10t-12.5-39v-31h118v-106h-118v-419h-143v419h-72zm382 0v106h72v132l143 20v-152h143v-106h-143v-255q0-30 12.5-40t32.5-10q23 0 83 24l50-107q-92-42-169-42-152 0-152 177v253h-72z"/><glyph glyph-name=".notdef" horiz-adv-x="264"/><glyph glyph-name=".null" horiz-adv-x="0"/><glyph glyph-name="nonmarkingreturn" horiz-adv-x="333"/><glyph glyph-name="space" horiz-adv-x="271"/><glyph glyph-name="exclam" unicode="!" horiz-adv-x="283" d="M67 0v152h149v-152h-149zm162 700l-44-474h-87l-44 474h175z"/><glyph glyph-name="quotedbl" unicode=""" horiz-adv-x="436" d="M391 700l-24-273h-90l-23 273h137zm-209 0l-24-273h-91l-23 273h138z"/><glyph glyph-name="numbersign" unicode="#" horiz-adv-x="739" d="M390 0l24 158h-148l-24-158h-112l24 158h-116v109h133l26 166h-117v109h133l25 158h111l-25-158h149l25 158h111l-25-158h117v-109h-133l-26-166h117v-109h-133l-24-158h-112zm-82 433l-26-166h149l26 166h-149z"/><glyph glyph-name="dollar" unicode="$" horiz-adv-x="648" d="M381-100h-105v95q-132 19-240 88l67 107q77-45 173-68v170l-42 15q-37 13-64 27.5t-56.5 38-45.5 58-16 77.5q0 85 60 140t164 62v91h105v-96q113-18 208-66l-67-109q-66 31-141 48v-161q32-10 38-13 39-14 66.5-27.5t60-38 49.5-60.5 17-82q0-88-63-143.5t-168-62.5v-90zm74 285q0 25-18.5 41.5t-55.5 31.5v-143q74 14 74 70zm-246 333q0-43 67-68v133q-67-12-67-65z"/><glyph glyph-name="percent" unicode="%" horiz-adv-x="1009" d="M976 176q0-88-51.5-137.5t-142.5-49.5-142 49.5-51 137.5q0 89 51 138.5t142 49.5 142.5-49.5 51.5-138.5zm-107 0q0 48-22.5 73.5t-64.5 25.5q-41 0-63-25.5t-22-73.5q0-98 85-98 87 0 87 98zm-447 347q0-88-51.5-137.5t-142.5-49.5-142.5 49.5-51.5 137.5q0 89 51.5 138.5t142.5 49.5 142.5-49.5 51.5-138.5zm-108 0q0 48-22.5 73.5t-63.5 25.5q-86 0-86-99 0-98 86-98 41 0 63.5 25t22.5 73zm429 177l-363-700h-113l363 700h113z"/><glyph glyph-name="ampersand" unicode="&" horiz-adv-x="723" d="M736 0h-167l-60 60q-96-71-220-71-101 0-168 52.5t-67 134.5q0 63 38 108.5t105 87.5q-44 45-68 84.5t-24 87.5q0 77 59 122t146 45q88 0 142.5-45t54.5-114q0-55-35.5-99.5t-98.5-90.5l126-127q37 66 42 134h145q-18-124-95-225zm-436 97q63 0 124 48l-148 148q-80-61-80-111 0-33 26.5-59t77.5-26zm-65 442q0-42 62-104 80 54 80 106 0 26-17.5 46.5t-51.5 20.5-53.5-20.5-19.5-48.5z"/><glyph glyph-name="quotesingle" unicode="'" horiz-adv-x="227" d="M182 700l-24-273h-91l-23 273h138z"/><glyph glyph-name="parenleft" unicode="(" horiz-adv-x="332" d="M61 92v511q0 30 .5 46t3.5 39 8.5 35 16 28.5 26 26.5 38.5 21.5 53.5 21 70.5 18.5l37-82q-73-25-89-45.5t-16-75.5v-576q0-55 16-75.5t89-45.5l-37-82q-46 11-79.5 22.5t-57 22-38.5 27.5-24 30-12.5 38-4.5 42.5-1 52.5z"/><glyph glyph-name="parenright" unicode=")" horiz-adv-x="332" d="M271 603v-511q0-31-.5-46t-3-38.5-8-35-16-28.5-26-26.5-38-21.5-53.5-21-71-18l-37 82q72 25 88 45.5t16 75.5v576q0 55-16 75.5t-88 45.5l37 82q40-9 71-18.5t53.5-21.5 38-21.5 26-26.5 16-28.5 8-35 3-38.5.5-46z"/><glyph glyph-name="asterisk" unicode="*" horiz-adv-x="477" d="M178 310l40 157-117-113-60 104 157 43-157 45 61 104 116-114-40 156h121l-40-156 115 114 60-105-151-43 151-44-60-105-113 109 38-152h-121z"/><glyph glyph-name="plus" unicode="+" d="M263 570h109v-182h203v-109h-203v-182h-109v182h-202v109h202v182z"/><glyph glyph-name="comma" unicode="," horiz-adv-x="266" d="M58 0v165h147l11-183-122-142-40 49 71 111h-67z"/><glyph glyph-name="hyphen" unicode="-" horiz-adv-x="435" d="M376 226h-317v117h317v-117z"/><glyph glyph-name="period" unicode="." horiz-adv-x="264" d="M57 0v165h150v-165h-150z"/><glyph glyph-name="slash" unicode="/" horiz-adv-x="477" d="M458 790l-329-880h-110l329 880h110z"/><glyph glyph-name="zero" unicode="0" horiz-adv-x="679" d="M341 711q143 0 217-94t74-267-74.5-267-217.5-94-217.5 94-74.5 267 75 267 218 94zm-1-606q141 0 141 245 0 244-140 244-141 0-141-244 0-245 140-245z"/><glyph glyph-name="one" unicode="1" horiz-adv-x="414" d="M336 0h-149v560l-122-64-59 98 189 106h141v-700z"/><glyph glyph-name="two" unicode="2" horiz-adv-x="612" d="M563 124v-124h-528v69q0 51 17.5 95t53 80.5 67.5 60.5 81 56q10 6 31 19.5t30 19.5 26 17.5 24.5 18 18 17 15.5 19 8.5 19 3.5 21.5q0 32-27 53.5t-77 21.5q-81 0-187-65l-67 97q131 92 274 92 112 0 173.5-54t61.5-139q0-47-16.5-85.5t-58-74-63-50.5-80.5-49q-7-5-11-7-61-36-90.5-64t-29.5-64h350z"/><glyph glyph-name="three" unicode="3" horiz-adv-x="615" d="M21 76l66 102q117-63 207-63 57 0 91.5 24t34.5 67q0 31-19 52.5t-51 32-63 15-65 4.5h-31v125h36q65 0 114 20t49 65q0 31-24.5 49t-69.5 18q-81 0-182-59l-62 94q123 89 267 89 108 0 164.5-48.5t56.5-120.5q0-107-118-156 66-19 108-68.5t42-113.5q0-42-14.5-79t-44-68-81-49.5-119.5-18.5q-149 0-292 87z"/><glyph glyph-name="four" unicode="4" horiz-adv-x="674" d="M23 135v105l319 460h198v-441h106v-124h-106v-135h-150v135h-367zm153 124h214v316z"/><glyph glyph-name="five" unicode="5" horiz-adv-x="605" d="M62 348l38 352h438v-124h-314l-9-133q50 15 102 15 118 0 183-67t65-164q0-100-69-169t-197-69q-138 0-270 86l66 108q99-66 184-66 57 0 95.5 30t38.5 80q0 46-34 78t-97 32q-64 0-138-39z"/><glyph glyph-name="six" unicode="6" horiz-adv-x="635" d="M456 589q-83 0-151-47t-95-149q67 58 168 58t163-61 62-158q0-102-73-172.5t-195-70.5q-142 0-216 87t-74 211q-1 193 115.5 308.5t294.5 115.5q27 0 53-2.5t38-5.5l13-3-35-117q-31 6-68 6zm-123-250q-48 0-84.5-21t-52.5-47q0-75 38.5-117.5t96.5-42.5q60 0 91.5 34.5t31.5 81.5-32 79.5-89 32.5z"/><glyph glyph-name="seven" unicode="7" horiz-adv-x="533" d="M516 585q-10-12-27.5-34.5t-61-90.5-77-134.5-61-157-27.5-168.5h-155q0 73 24 157t55 148.5 70.5 129.5 60.5 94 36 47h-329v124h492v-115z"/><glyph glyph-name="eight" unicode="8" horiz-adv-x="650" d="M37 188q0 123 156 193-112 62-112 158 0 77 65 124.5t179 47.5 179.5-47.5 65.5-124.5q0-95-113-158 156-71 156-193 0-92-77-145.5t-211-53.5-211 53.5-77 145.5zm425 11q0 42-36.5 71t-100.5 54q-63-25-99.5-54t-36.5-71q0-43 38.5-69.5t97.5-26.5q60 0 98.5 26.5t38.5 69.5zm-235 326q0-57 98-95 99 38 99 95 0 30-27.5 53t-71.5 23-71-23-27-53z"/><glyph glyph-name="nine" unicode="9" horiz-adv-x="636" d="M180 111q83 0 151 47t94 149q-67-58-167-58-101 0-163 61t-62 158q0 102 73 172.5t196 70.5q73 0 129.5-25t90.5-67.5 51.5-95 17.5-110.5q1-193-115.5-308.5t-293.5-115.5q-28 0-54 2.5t-38 5.5l-13 3 36 117q30-6 67-6zm123 250q48 0 84 21t53 47q0 75-38 117.5t-96 42.5q-61 0-92.5-34.5t-31.5-81.5 32-79.5 89-32.5z"/><glyph glyph-name="colon" unicode=":" horiz-adv-x="274" d="M63 315v165h149v-165h-149zm0-315v165h149v-165h-149z"/><glyph glyph-name="semicolon" unicode=";" horiz-adv-x="282" d="M66 315v165h148v-165h-148zm0-315v165h147l11-183-122-142-40 49 71 111h-67z"/><glyph glyph-name="less" unicode="<" d="M47 383l513 205v-123l-360-131 360-133v-122l-513 205v99z"/><glyph glyph-name="equal" unicode="=" d="M61 375v109h514v-109h-514zm0-190v109h514v-109h-514z"/><glyph glyph-name="greater" unicode=">" d="M590 284l-514-205v122l359 133-359 131v123l514-205v-99z"/><glyph glyph-name="question" unicode="?" horiz-adv-x="539" d="M146 0v152h148v-152h-148zm357 529q0-155-230-213l-8-90h-91l-8 167q102 21 144.5 44.5t42.5 68.5q0 36-27 58.5t-75 22.5q-71 0-159-55l-63 100q121 79 246 79 99 0 163.5-49t64.5-133z"/><glyph glyph-name="at" unicode="@" horiz-adv-x="957" d="M464-127q53 0 100.5 10.5t68.5 20.5l21 11 33-42q-9-6-25.5-14.5t-75-23-124.5-14.5q-186 0-302.5 122.5t-116.5 309.5q0 191 121.5 312t328.5 121q203 0 314.5-119t112.5-313q-1-123-50-203.5t-151-80.5q-69 0-102 37t-39 83q-73-67-164-67-66 0-110 39t-44 110q0 73 46 112t117 39q23 0 50.5-4t64.5-11.5 39-7.5v43q0 44-18.5 63t-65.5 19q-74 0-165-39l-37 75q120 46 221 46 87 0 128.5-39.5t41.5-125.5v-170q0-34 1.5-53t7-40.5 18.5-31 35-9.5q48 0 85 54.5t37 164.5q0 165-95.5 271t-278.5 106q-187 0-290.5-108t-103.5-273q0-166 100.5-273t265.5-107zm-18 232q66 0 131 59v81q-93 16-118 16-47 0-69.5-22t-22.5-59q0-38 21.5-56.5t57.5-18.5z"/><glyph glyph-name="A" unicode="A" horiz-adv-x="709" d="M538 0l-45 139h-276l-45-139h-163l264 700h164l263-700h-162zm-184 565l-99-308h199z"/><glyph glyph-name="B" unicode="B" horiz-adv-x="691" d="M656 188q0-89-63-138.5t-190-49.5h-328v700h282q129 0 195-43.5t66-126.5q0-66-37-107.5t-78-48.5q23-4 47-15.5t49-32 41-56.5 16-82zm-186 317q0 79-122 79h-123v-163h120q125 0 125 84zm38-292q0 100-155 100h-128v-197h148q135 0 135 97z"/><glyph glyph-name="C" unicode="C" horiz-adv-x="654" d="M630 610l-70-110q-135 77-210 77-71 0-111.5-61t-40.5-166 40.5-166 111.5-61q75 0 210 77l70-110q-82-48-151.5-74.5t-145.5-26.5q-129 0-209 91.5t-80 269.5 80 269.5 209 91.5q76 0 145.5-26.5t151.5-74.5z"/><glyph glyph-name="D" unicode="D" horiz-adv-x="722" d="M677 350q0-183-89-266.5t-263-83.5h-250v700h250q174 0 263-83.5t89-266.5zm-150 0q0 122-52.5 172.5t-162.5 50.5h-87v-446h87q110 0 162.5 50.5t52.5 172.5z"/><glyph glyph-name="E" unicode="E" horiz-adv-x="616" d="M573 0h-498v700h492v-127h-342v-161h280v-124h-280v-161h348v-127z"/><glyph glyph-name="F" unicode="F" horiz-adv-x="588" d="M567 573h-342v-161h272v-125h-272v-287h-150v700h492v-127z"/><glyph glyph-name="G" unicode="G" horiz-adv-x="712" d="M514 0v69q-92-80-194-80-118 0-197 92.5t-79 267.5q0 178 81 270t211 92q81 0 154-27.5t157-76.5l-71-110q-46 25-75.5 39.5t-71 27.5-75.5 13q-73 0-114.5-61t-41.5-166q0-107 39.5-170.5t114.5-63.5 162 79v88h-165v118h307v-401h-142z"/><glyph glyph-name="H" unicode="H" horiz-adv-x="729" d="M505 0v305h-280v-305h-150v700h150v-271h280v271h149v-700h-149z"/><glyph glyph-name="I" unicode="I" horiz-adv-x="300" d="M225 0h-150v700h150v-700z"/><glyph glyph-name="J" unicode="J" horiz-adv-x="300" d="M225 700v-637q0-37-.5-53.5t-4.5-43-12-39-23-30-39-28-57.5-22.5-80.5-23l-49 111q45 15 67.5 25t34 25 13 27.5 1.5 42.5v645h150z"/><glyph glyph-name="K" unicode="K" horiz-adv-x="693" d="M75 0v700h150v-336l276 336h176l-281-332 297-368h-178l-209 262-81-96v-166h-150z"/><glyph glyph-name="L" unicode="L" horiz-adv-x="574" d="M556 0h-481v700h150v-573h331v-127z"/><glyph glyph-name="M" unicode="M" horiz-adv-x="857" d="M633 0v460l-163-343h-82l-163 342v-459h-150v700h153l201-422 200 422h154v-700h-150z"/><glyph glyph-name="N" unicode="N" horiz-adv-x="745" d="M518 0l-293 476v-476h-150v700h152l294-478v478h149v-700h-152z"/><glyph glyph-name="O" unicode="O" horiz-adv-x="760" d="M380 711q88 0 154-27.5t105-77.5 58-114 19-142q0-162-82.5-261.5t-253.5-99.5q-172 0-254 99.5t-82 261.5q0 163 82 262t254 99zm0-594q182 0 182 233 0 107-43.5 170t-138.5 63q-182 0-182-233t182-233z"/><glyph glyph-name="P" unicode="P" horiz-adv-x="668" d="M644 473q0-225-280-225h-139v-248h-150v700h289q280 0 280-227zm-152 0q0 103-135 103h-132v-205h132q135 0 135 102z"/><glyph glyph-name="Q" unicode="Q" horiz-adv-x="760" d="M380-11q-172 0-254 99.5t-82 261.5q0 163 82 262t254 99q88 0 154-27.5t105-77.5 58-114 19-142q0-118-44-205t-135-127l109-86-99-102zm0 128q182 0 182 233 0 107-43.5 170t-138.5 63q-182 0-182-233t182-233z"/><glyph glyph-name="R" unicode="R" horiz-adv-x="704" d="M506 0l-165 271h-116v-271h-150v700h310q281 0 281-214 0-171-174-206l175-280h-161zm9 486q0 96-137 96h-153v-193h151q139 0 139 97z"/><glyph glyph-name="S" unicode="S" d="M414 404q39-14 66-27.5t59.5-38 49.5-60.5 17-82q0-93-70.5-150t-187.5-57q-84 0-171 28t-147 66l67 107q51-29 122.5-53t123.5-24q45 0 75.5 18.5t30.5 53.5q0 19-10 33t-33.5 26-45.5 19.5-63 20.5-69 24q-36 12-64 26.5t-57 37.5-45 58-16 78q0 91 67 147t183 56q72 0 150-20.5t137-51.5l-67-109q-47 22-108 39.5t-103 17.5q-44 0-73-17.5t-29-51.5q0-19 10-32.5t32-24 44.5-17.5 60-18.5 64.5-21.5z"/><glyph glyph-name="T" unicode="T" horiz-adv-x="598" d="M580 573h-205v-573h-150v573h-208v127h563v-127z"/><glyph glyph-name="U" unicode="U" horiz-adv-x="719" d="M650 700v-418q0-66-13-115.5t-44-91.5-89.5-64-143.5-22-144 22-90.5 64-44.5 91.5-13 115.5v418h150v-430q0-73 30-113t112-40q80 0 110.5 40.5t30.5 112.5v430h149z"/><glyph glyph-name="V" unicode="V" horiz-adv-x="707" d="M180 700l172-537 173 537h173l-263-700h-165l-263 700h173z"/><glyph glyph-name="W" unicode="W" horiz-adv-x="970" d="M610 0l-125 484-126-484h-148l-195 700h170l111-501 127 501h122l126-498 112 498h171l-196-700h-149z"/><glyph glyph-name="X" unicode="X" horiz-adv-x="660" d="M17 700h173l140-259 141 259h173l-224-348 236-352h-178l-148 251-147-251h-178l235 352z"/><glyph glyph-name="Y" unicode="Y" horiz-adv-x="663" d="M256 0v277l-252 423h168l159-299 159 299h168l-253-424 1-276h-150z"/><glyph glyph-name="Z" unicode="Z" horiz-adv-x="640" d="M32 115l369 458h-347v127h541v-115l-369-458h374v-127h-568v115z"/><glyph glyph-name="bracketleft" unicode="[" horiz-adv-x="362" d="M340-143h-272v982h272v-86h-123v-811h123v-85z"/><glyph glyph-name="backslash" unicode="\" horiz-adv-x="477" d="M348-90l-329 880h110l328-880h-109z"/><glyph glyph-name="bracketright" unicode="]" horiz-adv-x="362" d="M293-143h-271v85h122v811h-122v86h271v-982z"/><glyph glyph-name="asciicircum" unicode="^" d="M424 327l-106 239-106-239h-155l188 373h147l188-373h-156z"/><glyph glyph-name="underscore" unicode="_" horiz-adv-x="710" d="M651-175h-593v103h593v-103z"/><glyph glyph-name="grave" unicode="`" horiz-adv-x="234" d="M262 591h-118l-172 138h165z"/><glyph glyph-name="a" unicode="a" horiz-adv-x="596" d="M395 0v62q-79-73-184-73-79 0-130.5 46.5t-51.5 125.5q0 80 53.5 124.5t138.5 44.5q45 0 174-25v40q0 44-20.5 63t-72.5 19q-62 0-192-40l-45 100q150 49 263 49 110 0 160.5-45.5t50.5-151.5v-339h-144zm-139 101q74 0 139 56v77q-82 17-124 17-96 0-96-78 0-36 22-54t59-18z"/><glyph glyph-name="b" unicode="b" horiz-adv-x="624" d="M62 0v729h144v-263q81 70 176 70 93 0 148.5-70t55.5-204q0-133-55.5-203t-148.5-70q-95 0-176 68v-57h-144zm277 420q-76 0-133-68v-180q58-67 133-67 101 0 101 158 0 157-101 157z"/><glyph glyph-name="c" unicode="c" horiz-adv-x="523" d="M501 472l-58-106-19 8q-18 9-24 11.5t-23.5 9.5-27.5 9.5-25 5.5-27 3q-52 0-83-41t-31-109q0-69 31-110t83-41q12 0 27 3t25 5.5 27.5 9.5 23.5 9.5 24 10.5l19 9 58-106q-131-64-226-64-101 0-170 70.5t-69 203.5 69 203 170 70q89 0 226-64z"/><glyph glyph-name="d" unicode="d" horiz-adv-x="624" d="M561 0h-144v57q-83-68-176-68t-148.5 70-55.5 203q0 135 55.5 204.5t148.5 69.5 176-70v263h144v-729zm-277 105q75 0 133 67v180q-59 68-133 68-101 0-101-157 0-158 101-158z"/><glyph glyph-name="e" unicode="e" horiz-adv-x="582" d="M537 231h-353q12-135 116-135 71 0 193 64l55-90q-148-81-262-81-110 0-180 69.5t-70 202.5q0 130 70 202.5t192 72.5q120 0 183.5-64t63.5-168q0-19-2-37t-4-27zm-238 202q-98 0-114-124h219q1 124-105 124z"/><glyph glyph-name="f" unicode="f" horiz-adv-x="383" d="M22 419v106h72v27q0 91 37.5 134t114.5 43q81 0 177-41l-48-103q-68 20-93 20-20 0-32.5-10t-12.5-39v-31h131v-106h-131v-419h-143v419h-72z"/><glyph glyph-name="g" unicode="g" horiz-adv-x="624" d="M417 525h144v-527q0-109-56.5-160.5t-170.5-51.5q-128 0-274 42l29 115q139-41 217-41 61 0 86 21t25 68v66q-83-68-176-68t-148.5 70-55.5 203q0 135 55.5 204.5t148.5 69.5 176-70v59zm-133-420q75 0 133 67v180q-59 68-133 68-101 0-101-157 0-158 101-158z"/><glyph glyph-name="h" unicode="h" horiz-adv-x="625" d="M206 729v-267q106 74 204 74 157 0 157-165v-371h-144v338q0 86-69 86-37 0-78.5-21t-69.5-47v-356h-144v729h144z"/><glyph glyph-name="i" unicode="i" horiz-adv-x="268" d="M207 0h-144v525h144v-525zm-148 601v125h152v-125h-152z"/><glyph glyph-name="j" unicode="j" horiz-adv-x="268" d="M57 601v125h152v-125h-152zm148-76v-549l-1.5-33-4.5-31-8-26-13-24-19.5-20-27-19.5-36-16.5-46.5-16.5-58-14.5-46 104q45 15 67 24.5t34 25.5 13.5 28.5 1.5 45.5v522h144z"/><glyph glyph-name="k" unicode="k" horiz-adv-x="570" d="M540 525l-177-208 208-317h-151l-143 215-71-84v-131h-144v729h144v-421l171 217h163z"/><glyph glyph-name="l" unicode="l" horiz-adv-x="273" d="M208 0h-144v729h144v-729z"/><glyph glyph-name="m" unicode="m" horiz-adv-x="934" d="M206 525v-67q90 78 180 78 110 0 143-90 34 34 85.5 62t106.5 28q155 0 155-165v-371h-144v338q0 41-13.5 63.5t-49.5 22.5q-34 0-68.5-21.5t-60.5-49.5v-353h-143v338q0 41-13.5 63.5t-50.5 22.5q-63 0-127-68v-356h-144v525h144z"/><glyph glyph-name="n" unicode="n" horiz-adv-x="625" d="M206 525v-63q106 74 204 74 157 0 157-165v-371h-144v338q0 86-69 86-37 0-78.5-21t-69.5-47v-356h-144v525h144z"/><glyph glyph-name="o" unicode="o" horiz-adv-x="615" d="M579 262q0-130-70.5-201.5t-200.5-71.5q-131 0-201.5 71.5t-70.5 202.5q0 130 70.5 201.5t201.5 71.5q130 0 200.5-72t70.5-202zm-145 0q0 163-126 163t-126-162q0-163 126-163t126 162z"/><glyph glyph-name="p" unicode="p" horiz-adv-x="624" d="M206 525v-59q81 70 176 70 93 0 148.5-70t55.5-204q0-133-55.5-203t-148.5-70q-95 0-176 68v-261h-144v729h144zm133-105q-76 0-133-68v-180q58-67 133-67 101 0 101 158 0 157-101 157z"/><glyph glyph-name="q" unicode="q" horiz-adv-x="624" d="M417-204v261q-83-68-176-68t-148.5 70-55.5 203q0 135 55.5 204.5t148.5 69.5 176-70v59h144v-729h-144zm-133 309q75 0 133 67v180q-59 68-133 68-101 0-101-157 0-158 101-158z"/><glyph glyph-name="r" unicode="r" horiz-adv-x="420" d="M206 525v-110q5 11 12 23.5t23.5 31.5 37 32.5 53.5 22.5 71 6v-135q-50 0-88.5-17.5t-58-42-32-49-15.5-41.5l-3-18v-228h-144v525h144z"/><glyph glyph-name="s" unicode="s" horiz-adv-x="533" d="M319 317q85-21 136-60.5t51-110.5q0-73-56.5-115t-154.5-42q-71 0-145 20.5t-123 47.5l57 101q45-22 105-40.5t100-18.5q33 0 52.5 12t19.5 31q0 9-4.5 16.5t-14 13.5-19.5 10.5-25.5 9.5-26 7.5-28 7-25.5 6.5q-37 10-64.5 21t-56 30-44 48.5-15.5 67.5q0 71 54 113.5t150 42.5q120 0 241-57l-56-94q-103 42-175 42-32 0-51-12t-19-31q0-9 4-16t12.5-12.5 17-10 23.5-8.5 25-6.5l28-7 27-6.5z"/><glyph glyph-name="t" unicode="t" horiz-adv-x="421" d="M25 419v106h72v132l143 20v-152h143v-106h-143v-255q0-30 12.5-40t32.5-10q26 0 82 24l51-107q-92-42-169-42-152 0-152 177v253h-72z"/><glyph glyph-name="u" unicode="u" horiz-adv-x="625" d="M419 0v63q-109-74-205-74-156 0-156 165v371h144v-338q0-41 15-63.5t53-22.5q37 0 79 20.5t70 46.5v357h143v-525h-143z"/><glyph glyph-name="v" unicode="v" horiz-adv-x="582" d="M362 0h-142l-209 525h155l124-376 125 376h155z"/><glyph glyph-name="w" unicode="w" horiz-adv-x="839" d="M525 0l-105 353-105-353h-136l-163 525h153l87-374 104 374h120l103-374 88 374h152l-163-525h-135z"/><glyph glyph-name="x" unicode="x" horiz-adv-x="602" d="M428 0l-128 186-127-186h-170l209 263-198 262h164l122-181 121 181h165l-198-262 210-263h-170z"/><glyph glyph-name="y" unicode="y" horiz-adv-x="582" d="M12 525h155l124-352 124 352h156l-290-729h-154l91 205z"/><glyph glyph-name="z" unicode="z" horiz-adv-x="553" d="M33 0v101l287 305h-277v119h472v-101l-287-305h287v-119h-482z"/><glyph glyph-name="braceleft" unicode="{" horiz-adv-x="395" d="M11 303v90q58 0 80.5 28.5t14.5 84.5l-12 93q-16 120 53 180t207 60h18v-83h-18q-127 0-110-144l11-79q9-85-24.5-128t-111.5-57q78-14 111.5-57t24.5-128l-11-79q-17-144 110-144h18v-83h-18q-138 0-207.5 60t-52.5 180l13 93q15 113-96 113z"/><glyph glyph-name="bar" unicode="|" horiz-adv-x="244" d="M176-123h-107v941h107v-941z"/><glyph glyph-name="braceright" unicode="}" horiz-adv-x="395" d="M383 393v-90q-110 0-95-113l12-93q16-120-53-180t-207-60h-18v83h18q48 0 75.5 22.5t33.5 53 0 68.5l-10 79q-11 84 23 127.5t112 57.5q-78 14-112 57.5t-23 127.5l10 79q9 61-15 102.5t-94 41.5h-18v83h18q138 0 206.5-60t52.5-180l-12-93q-15-113 96-113z"/><glyph glyph-name="asciitilde" unicode="~" d="M107 184l-85 34q65 151 178 151 52 0 127-37t113-37q52 0 89 66l85-34q-63-151-178-151-50 0-126 37t-114 37q-25 0-45-13.5t-44-52.5z"/><glyph glyph-name="uni00A0" horiz-adv-x="271"/><glyph glyph-name="exclamdown" unicode="¡" horiz-adv-x="283" d="M67 548v152h149v-152h-149zm118-74l44-474h-175l44 474h87z"/><glyph glyph-name="cent" unicode="¢" horiz-adv-x="562" d="M367 0h-104v77q-94 7-156.5 77.5t-62.5 196.5 62.5 196 156.5 76v77h104v-87q64-14 154-58l-59-106q-75 34-95 41v-279q33 10 95 41l59-106q-90-44-154-59v-87zm-176 351q0-111 72-143v285q-34-14-53-51.5t-19-90.5z"/><glyph glyph-name="sterling" unicode="£" horiz-adv-x="579" d="M60 249v87h92q-7 15-31 54t-36.5 73-12.5 73q0 81 56 128t155 47q52 0 106-15.5t82-30 69-38.5l-66-97q-104 57-164 57-43 0-65.5-20.5t-22.5-53.5 35-90.5 44-86.5h162v-87h-155q-7-41-29-75t-43-50h293v-124h-480v101q4 2 11.5 5.5t27 17 35 29 29 41.5 16.5 55h-108z"/><glyph glyph-name="yen" unicode="¥" horiz-adv-x="709" d="M98 286v85h125l-196 329h168l159-299 159 299h168l-197-329h126v-85h-176l-6-10v-46h182v-85h-182l1-145h-150v145h-181v85h181v47l-5 9h-176z"/><glyph glyph-name="brokenbar" unicode="¦" horiz-adv-x="246" d="M177 405h-107v413h107v-413zm0-528h-107v413h107v-413z"/><glyph glyph-name="section" unicode="§" horiz-adv-x="573" d="M230 146q-188 47-188 169 0 83 85 120-66 44-66 119 0 71 54.5 114t150.5 43q119 0 240-57l-56-94q-101 42-176 42-70 0-70-41 0-12 7.5-21.5t25.5-17 29.5-11.5 39.5-10.5 37-8.5q86-22 137-60.5t51-107.5q0-83-86-120 66-45 66-120 0-70-54.5-113t-150.5-43q-118 0-241 57l56 94q103-42 176-42 69 0 69 41 0 9-4 16.5t-12.5 13.5-17 10-23.5 8.5-25 7-27.5 6.5-26.5 6zm163 162q0 8-2.5 14.5t-8.5 12.5-12 10.5-17 9-18.5 7.5-21.5 7l-21 6-22.5 5.5-21.5 5.5q-35-6-51.5-21.5t-16.5-34.5q0-15 9.5-26.5t33-21 37.5-13.5 48-12q11-3 16-4 35 6 52 21.5t17 33.5z"/><glyph glyph-name="dieresis" unicode="¨" horiz-adv-x="248" d="M-24 601v115h116v-115h-116zm181 0v115h115v-115h-115z"/><glyph glyph-name="copyright" unicode="©" horiz-adv-x="802" d="M562 505l-31-36q-69 54-134 54-56 0-90-47.5t-34-126.5q0-78 34-125t90-47q64 0 134 52l31-35q-88-62-167-62-74 0-124 57t-50 160q0 104 50 161t124 57q79 0 167-62zm-517-155q0 157 95 259t262 102 261.5-102 94.5-259-94.5-259-261.5-102-262 102-95 259zm40 0q0-141 84-232t232-91q149 0 233.5 91t84.5 232-84.5 232-233.5 91q-148 0-232-91t-84-232z"/><glyph glyph-name="ordfeminine" unicode="ª" horiz-adv-x="421" d="M266 385v35q-50-42-115-42-51 0-83 29t-32 75q0 48 34 75t89 27q27 0 107-14v19q0 24-12.5 33.5t-43.5 9.5q-45 0-121-22l-31 67q99 30 170 30 72 0 105-28.5t33-94.5v-199h-100zm-82 69q43 0 82 29v38q-60 10-73 10-56 0-56-40 0-37 47-37z"/><glyph glyph-name="guillemotleft" unicode="«" horiz-adv-x="682" d="M29 315l305 212v-135l-185-121 185-120v-136l-305 213v87zm295 0l305 212v-135l-185-121 185-120v-136l-305 213v87z"/><glyph glyph-name="logicalnot" unicode="¬" d="M607 90h-117v189h-471v109h588v-298z"/><glyph glyph-name="registered" unicode="®" horiz-adv-x="482" d="M43 500q0 87 53 143.5t145 56.5 144.5-56.5 52.5-143.5-52.5-143.5-144.5-56.5-145 56.5-53 143.5zm36 0q0-74 41.5-120.5t120.5-46.5 120 46.5 41 120.5-41 120.5-120 46.5-120.5-46.5-41.5-120.5zm249 45q0-20-14-35.5t-36-20.5l47-87h-37l-44 85h-44v-85h-33v201h93q31 0 49.5-16t18.5-42zm-34 0q0 28-33 28h-61v-55h59q35 0 35 27z"/><glyph glyph-name="macron" unicode="¯" horiz-adv-x="307" d="M0 616v85h307v-85h-307z"/><glyph glyph-name="degree" unicode="°" horiz-adv-x="422" d="M34 524q0 73 52 125t125 52 125-51.5 52-125.5q0-73-52-125t-125-52-125 52-52 125zm85 0q0-38 27-65t65-27 65.5 27 27.5 65-27.5 65.5-65.5 27.5-65-27.5-27-65.5z"/><glyph glyph-name="plusminus" unicode="±" d="M261 543h110v-139h204v-109h-204v-139h-110v139h-200v109h200v139zm-200-543v94h514v-94h-514z"/><glyph glyph-name="twosuperior" unicode="²" horiz-adv-x="406" d="M369 470v-85h-341v44q0 57 36.5 97t101.5 79q8 5 22 13l21 12 17.5 11 16 11.5 11 11 8 12.5 2.5 12q0 17-15.5 28t-44.5 11q-48 0-118-39l-46 65q89 59 178 59 72 0 111.5-34t39.5-85q0-29-11.5-53t-38-45-42-30.5-50.5-28.5q-73-38-73-66h215z"/><glyph glyph-name="threesuperior" unicode="³" horiz-adv-x="404" d="M18 433l46 70q71-39 131-39 33 0 53 12.5t20 34.5q0 53-121 53h-21v86h24q100 0 100 44 0 33-55 33-53 0-115-36l-42 64q73 57 174 57 70 0 105.5-29.5t35.5-73.5q0-64-72-92 40-11 65.5-41t25.5-67q0-55-39.5-93t-124.5-38q-95 0-190 55z"/><glyph glyph-name="acute" unicode="´" horiz-adv-x="234" d="M90 591h-118l125 138h165z"/><glyph glyph-name="mu" unicode="µ" horiz-adv-x="628" d="M69-204v729h144v-349q3-75 69-75 36 0 78 20.5t70 46.5v357h144v-525h-144v63q-109-74-205-74h-12v-193h-144z"/><glyph glyph-name="paragraph" unicode="¶" horiz-adv-x="712" d="M305 700h120v-885h-122v407q-120 0-196 60t-76 179q0 121 72.5 180t201.5 59zm205-886v886h122v-886h-122z"/><glyph glyph-name="periodcentered" unicode="·" horiz-adv-x="267" d="M59 203v164h150v-164h-150z"/><glyph glyph-name="cedilla" unicode="¸" horiz-adv-x="183" d="M-9-161l29 71q24-12 48-12 48 0 48 38 0 14-7 30.5t-14 25.5l-7 10h64q40-43 40-93 0-46-31.5-69t-81.5-23q-51 0-88 22z"/><glyph glyph-name="onesuperior" unicode="¹" horiz-adv-x="285" d="M228 385h-103v325l-76-38-42 67 123 66h98v-420z"/><glyph glyph-name="ordmasculine" unicode="º" horiz-adv-x="422" d="M385 542q0-78-45-121t-129-43-129 43.5-45 121.5 45 121 129 43 129-43 45-122zm-100 0q0 89-74 89t-74-88q0-89 74-89t74 88z"/><glyph glyph-name="guillemotright" unicode="»" horiz-adv-x="682" d="M653 315v-87l-305-213v136l184 120-184 121v134zm-296-87l-304-213v136l183 120-183 121v134l304-211v-87z"/><glyph glyph-name="onequarter" unicode="¼" horiz-adv-x="887" d="M678 0v77h-231v71l198 272h138v-258h66v-85h-66v-77h-105zm-59 700l-329-700h-111l329 700h111zm-374-420h-103v325l-76-38-42 67 123 66h98v-420zm308-118h125v177z"/><glyph glyph-name="onehalf" unicode="½" horiz-adv-x="897" d="M245 280h-103v325l-76-38-42 67 123 66h98v-420zm374 420l-329-700h-111l329 700h111zm229-615v-85h-340v44q0 57 36.5 97t100.5 79q7 4 22.5 13t21.5 12.5 17.5 10.5 16 11.5 10.5 11 8 12.5 2 12q0 17-15.5 28t-44.5 11q-50 0-117-39l-46 65q86 59 177 59 73 0 112-34t39-85q0-29-11.5-53t-38-45-42-30.5-50.5-28.5q-73-38-73-66h215z"/><glyph glyph-name="threequarters" unicode="¾" horiz-adv-x="981" d="M776 0v77h-232v71l199 272h136v-258h67v-85h-67v-77h-103zm-743 328l46 70q71-39 131-39 33 0 53 12.5t20 34.5q0 53-121 53h-20v86h23q100 0 100 44 0 33-54 33t-116-36l-42 64q77 57 174 57 70 0 105.5-29.5t35.5-73.5q0-64-72-92 41-11 66.5-40.5t25.5-67.5q0-55-40-93t-125-38q-91 0-190 55zm684 372l-330-700h-110l329 700h111zm-66-538h125v177z"/><glyph glyph-name="questiondown" unicode="¿" horiz-adv-x="538" d="M37 171q0 46 19 82.5t53 61 72 41 87 28.5l7 90h92l9-167q-102-21-145-45t-43-68q0-36 27-58.5t75-22.5q71 0 159 55l62-101q-124-78-246-78-99 0-163.5 49t-64.5 133zm359 529v-152h-149v152h149z"/><glyph glyph-name="Agrave" unicode="À" horiz-adv-x="709" d="M538 0l-45 139h-276l-45-139h-163l264 700h164l263-700h-162zm-184 565l-99-308h199zm103 177h-118l-172 138h165z"/><glyph glyph-name="Aacute" unicode="Á" horiz-adv-x="709" d="M538 0l-45 139h-276l-45-139h-163l264 700h164l263-700h-162zm-184 565l-99-308h199zm18 177h-119l125 138h165z"/><glyph glyph-name="Acircumflex" unicode="Â" horiz-adv-x="709" d="M538 0l-45 139h-276l-45-139h-163l264 700h164l263-700h-162zm-184 565l-99-308h199zm71 315l106-138h-100l-76 75-76-75h-99l104 138h141z"/><glyph glyph-name="Atilde" unicode="Ã" horiz-adv-x="709" d="M538 0l-45 139h-276l-45-139h-163l264 700h164l263-700h-162zm-302 748l-65 31q13 26 21 39.5t22 31.5 30.5 25.5 37.5 7.5q30 0 77.5-23.5t61.5-23.5q26 0 51 46l66-32q-14-27-21.5-39.5t-21.5-31-30.5-26-37.5-7.5q-30 0-78 24t-62 24q-25 0-51-46zm118-183l-99-308h199z"/><glyph glyph-name="Adieresis" unicode="Ä" horiz-adv-x="709" d="M538 0l-45 139h-276l-45-139h-163l264 700h164l263-700h-162zm-184 565l-99-308h199zm-147 191v114h116v-114h-116zm181 0v114h116v-114h-116z"/><glyph glyph-name="Aring" unicode="Å" horiz-adv-x="709" d="M538 0l-45 139h-276l-45-139h-163l264 700h164l263-700h-162zm-294 844q0 46 33 79t79 33 79-33 33-79-33-79-79-33-79 33-33 79zm110-279l-99-308h199zm-40 279q0-18 12-30t30-12 30.5 12 12.5 30-12.5 30.5-30.5 12.5-30-12.5-12-30.5z"/><glyph glyph-name="AE" unicode="Æ" horiz-adv-x="1061" d="M1018 0h-499v139h-276l-90-139h-179l476 700h562v-127h-343v-161h282v-124h-282v-161h349v-127zm-697 260h198v305z"/><glyph glyph-name="Ccedilla" unicode="Ç" horiz-adv-x="654" d="M208-161l28 71q25-12 48-12 49 0 49 38 0 23-19 54-122 6-196 97t-74 263q0 178 80 269.5t209 91.5q76 0 145.5-26.5t151.5-74.5l-70-110q-135 77-210 77-71 0-111.5-61t-40.5-166 40.5-166 111.5-61q75 0 210 77l70-110q-149-87-252-98 31-41 31-83 0-46-31.5-69t-81.5-23q-52 0-88 22z"/><glyph glyph-name="Egrave" unicode="È" horiz-adv-x="616" d="M573 0h-498v700h492v-127h-342v-161h280v-124h-280v-161h348v-127zm-146 742h-119l-171 138h164z"/><glyph glyph-name="Eacute" unicode="É" horiz-adv-x="616" d="M573 0h-498v700h492v-127h-342v-161h280v-124h-280v-161h348v-127zm-232 742h-118l125 138h164z"/><glyph glyph-name="Ecircumflex" unicode="Ê" horiz-adv-x="616" d="M573 0h-498v700h492v-127h-342v-161h280v-124h-280v-161h348v-127zm-179 880l106-138h-100l-76 75-76-75h-100l106 138h140z"/><glyph glyph-name="Edieresis" unicode="Ë" horiz-adv-x="616" d="M573 0h-498v700h492v-127h-342v-161h280v-124h-280v-161h348v-127zm-397 752v115h116v-115h-116zm181 0v115h116v-115h-116z"/><glyph glyph-name="Igrave" unicode="Ì" horiz-adv-x="300" d="M224 0h-149v700h149v-700zm27 742h-118l-171 138h164z"/><glyph glyph-name="Iacute" unicode="Í" horiz-adv-x="300" d="M225 0h-149v700h149v-700zm-58 742h-118l125 138h165z"/><glyph glyph-name="Icircumflex" unicode="Î" horiz-adv-x="300" d="M225 0h-150v700h150v-700zm-5 880l106-138h-100l-76 75-76-75h-100l106 138h140z"/><glyph glyph-name="Idieresis" unicode="Ï" horiz-adv-x="300" d="M224 0h-150v700h150v-700zm-223 751v115h116v-115h-116zm181 0v115h116v-115h-116z"/><glyph glyph-name="Eth" unicode="Ð" horiz-adv-x="736" d="M691 350q0-183-89-266.5t-263-83.5h-249v292h-74v116h74v292h249q174 0 263-83.5t89-266.5zm-149 0q0 122-53 172.5t-163 50.5h-86v-165h145v-116h-145v-165h86q110 0 163 50.5t53 172.5z"/><glyph glyph-name="Ntilde" unicode="Ñ" horiz-adv-x="745" d="M227 700l294-478v478h149v-700h-152l-293 476v-476h-150v700h152zm32 54l-65 32q14 25 17.5 32t16.5 26 21.5 25.5 23.5 13.5 32 7q30 0 78-24t62-24q25 0 51 46l65-31q-17-34-28-52.5t-33.5-35.5-49.5-17q-30 0-77.5 24t-61.5 24q-25 0-52-46z"/><glyph glyph-name="Ograve" unicode="Ò" horiz-adv-x="760" d="M380 711q88 0 154-27.5t105-77.5 58-114 19-142q0-162-82.5-261.5t-253.5-99.5q-172 0-254 99.5t-82 261.5q0 163 82 262t254 99zm0-594q182 0 182 233 0 107-43.5 170t-138.5 63q-182 0-182-233t182-233zm101 625h-117l-172 138h164z"/><glyph glyph-name="Oacute" unicode="Ó" horiz-adv-x="760" d="M380 711q88 0 154-27.5t105-77.5 58-114 19-142q0-162-82.5-261.5t-253.5-99.5q-172 0-254 99.5t-82 261.5q0 163 82 262t254 99zm0-594q182 0 182 233 0 107-43.5 170t-138.5 63q-182 0-182-233t182-233zm17 625h-119l125 138h164z"/><glyph glyph-name="Ocircumflex" unicode="Ô" horiz-adv-x="760" d="M380 711q88 0 154-27.5t105-77.5 58-114 19-142q0-162-82.5-261.5t-253.5-99.5q-172 0-254 99.5t-82 261.5q0 163 82 262t254 99zm0-594q182 0 182 233 0 107-43.5 170t-138.5 63q-182 0-182-233t182-233zm70 763l106-138h-100l-76 75-76-75h-100l106 138h140z"/><glyph glyph-name="Otilde" unicode="Õ" horiz-adv-x="760" d="M380 711q88 0 154-27.5t105-77.5 58-114 19-142q0-162-82.5-261.5t-253.5-99.5q-172 0-254 99.5t-82 261.5q0 163 82 262t254 99zm0-594q182 0 182 233 0 107-43.5 170t-138.5 63q-182 0-182-233t182-233zm-120 631l-65 31q15 28 22 40t21.5 30.5 30.5 26 37 7.5q30 0 78-23.5t62-23.5q26 0 51 46l65-32q-17-34-28-52t-33.5-35-49.5-17q-30 0-77.5 24t-61.5 24q-25 0-52-46z"/><glyph glyph-name="Odieresis" unicode="Ö" horiz-adv-x="760" d="M380 711q88 0 154-27.5t105-77.5 58-114 19-142q0-162-82.5-261.5t-253.5-99.5q-172 0-254 99.5t-82 261.5q0 163 82 262t254 99zm0-594q182 0 182 233 0 107-43.5 170t-138.5 63q-182 0-182-233t182-233zm-148 635v115h116v-115h-116zm181 0v115h115v-115h-115z"/><glyph glyph-name="multiply" unicode="×" d="M540 462l-138-127 139-127-79-79-142 130-141-129-81 80 138 126-139 128 79 79 142-131 142 130z"/><glyph glyph-name="Oslash" unicode="Ø" horiz-adv-x="759" d="M704 700l-70-90q81-95 81-260 0-162-82.5-261.5t-253.5-99.5q-114 0-191 47l-28-36h-105l69 89q-81 95-81 261 0 78 19 142t58 114 105 77.5 154 27.5q113 0 191-47l28 36h106zm-507-350q0-84 24-136l263 339q-43 30-105 30-95 0-138.5-63t-43.5-170zm182-233q182 0 182 233 0 83-24 135l-263-339q41-29 105-29z"/><glyph glyph-name="Ugrave" unicode="Ù" horiz-adv-x="719" d="M650 700v-418q0-66-13-115.5t-44-91.5-89.5-64-143.5-22-144 22-90.5 64-44.5 91.5-13 115.5v418h150v-430q0-73 30-113t112-40q80 0 110.5 40.5t30.5 112.5v430h149zm-189 42h-117l-172 138h164z"/><glyph glyph-name="Uacute" unicode="Ú" horiz-adv-x="719" d="M650 700v-418q0-66-13-115.5t-44-91.5-89.5-64-143.5-22-144 22-90.5 64-44.5 91.5-13 115.5v418h150v-430q0-73 30-113t112-40q80 0 110.5 40.5t30.5 112.5v430h149zm-274 42h-118l125 138h164z"/><glyph glyph-name="Ucircumflex" unicode="Û" horiz-adv-x="718" d="M650 700v-418q0-66-13-115.5t-44-91.5-89.5-64-143.5-22-144 22-90.5 64-44.5 91.5-13 115.5v418h150v-430q0-73 30-113t112-40q80 0 110.5 40.5t30.5 112.5v430h149zm-220 180l106-138h-100l-76 75-77-75h-99l105 138h141z"/><glyph glyph-name="Udieresis" unicode="Ü" horiz-adv-x="719" d="M650 700v-418q0-66-13-115.5t-44-91.5-89.5-64-143.5-22-144 22-90.5 64-44.5 91.5-13 115.5v418h150v-430q0-73 30-113t112-40q80 0 110.5 40.5t30.5 112.5v430h149zm-439 52v115h115v-115h-115zm181 0v115h116v-115h-116z"/><glyph glyph-name="Yacute" unicode="Ý" horiz-adv-x="663" d="M256 0v277l-252 423h168l159-299 159 299h168l-253-424 1-276h-150zm91 742h-117l125 138h164z"/><glyph glyph-name="Thorn" unicode="Þ" horiz-adv-x="676" d="M644 362q0-226-280-226h-139v-136h-150v700h150v-112h139q280 0 280-226zm-152 0q0 57-38 79t-116 22h-113v-204h113q78 0 116 23t38 80z"/><glyph glyph-name="germandbls" unicode="ß" horiz-adv-x="711" d="M361 711q155 0 227-61.5t72-165.5v-5l-68-89q-26 13-67.5 25t-69.5 12q-26 0-40.5-11.5t-14.5-30.5q0-7 1.5-12.5t6-10.5 8.5-8.5 11.5-7.5 13.5-6.5 16.5-6 17-5.5 19.5-5.5 20-5.5q76-23 122-61.5t46-110.5q0-73-50-114.5t-140-41.5q-65 0-133 20.5t-113 47.5l56 101q37-21 90.5-39.5t85.5-18.5q25 0 42 11.5t17 30.5q0 7-2 12.5t-6.5 10.5-9 9-13 8-15 7-17.5 6.5-18 5.5-19.5 6-19.5 6q-33 10-57.5 21.5t-50.5 30.5-40 48.5-14 67.5q0 70 48.5 112.5t136.5 42.5q33 0 68-6-25 70-147 70-89 0-122-32.5t-33-99.5v-468h-144v481q0 107 72 168.5t227 61.5z"/><glyph glyph-name="agrave" unicode="à" horiz-adv-x="596" d="M395 0v62q-79-73-184-73-79 0-130.5 46.5t-51.5 125.5q0 80 53.5 124.5t138.5 44.5q45 0 174-25v40q0 44-20.5 63t-72.5 19q-62 0-192-40l-45 100q150 49 263 49 110 0 160.5-45.5t50.5-151.5v-339h-144zm-139 101q74 0 139 56v77q-82 17-124 17-96 0-96-78 0-36 22-54t59-18zm148 490h-118l-171 138h164z"/><glyph glyph-name="aacute" unicode="á" horiz-adv-x="596" d="M395 0v62q-79-73-184-73-79 0-130.5 46.5t-51.5 125.5q0 80 53.5 124.5t138.5 44.5q45 0 174-25v40q0 44-20.5 63t-72.5 19q-62 0-192-40l-45 100q150 49 263 49 110 0 160.5-45.5t50.5-151.5v-339h-144zm-139 101q74 0 139 56v77q-82 17-124 17-96 0-96-78 0-36 22-54t59-18zm62 490h-117l124 138h165z"/><glyph glyph-name="acircumflex" unicode="â" horiz-adv-x="596" d="M395 0v62q-79-73-184-73-79 0-130.5 46.5t-51.5 125.5q0 80 53.5 124.5t138.5 44.5q45 0 174-25v40q0 44-20.5 63t-72.5 19q-62 0-192-40l-45 100q150 49 263 49 110 0 160.5-45.5t50.5-151.5v-339h-144zm-23 729l105-138h-100l-76 75-75-75h-100l106 138h140zm-116-628q74 0 139 56v77q-82 17-124 17-96 0-96-78 0-36 22-54t59-18z"/><glyph glyph-name="atilde" unicode="ã" horiz-adv-x="596" d="M395 0v62q-79-73-184-73-79 0-130.5 46.5t-51.5 125.5q0 80 53.5 124.5t138.5 44.5q45 0 174-25v40q0 44-20.5 63t-72.5 19q-62 0-192-40l-45 100q150 49 263 49 110 0 160.5-45.5t50.5-151.5v-339h-144zm-212 597l-65 31q15 28 22 40t21.5 30.5 30.5 26 37 7.5q30 0 78-23.5t62-23.5q26 0 51 46l65-32q-17-34-28-52t-33.5-35-49.5-17q-30 0-77.5 24t-61.5 24q-25 0-52-46zm73-496q74 0 139 56v77q-82 17-124 17-96 0-96-78 0-36 22-54t59-18z"/><glyph glyph-name="adieresis" unicode="ä" horiz-adv-x="596" d="M395 0v62q-79-73-184-73-79 0-130.5 46.5t-51.5 125.5q0 80 53.5 124.5t138.5 44.5q45 0 174-25v40q0 44-20.5 63t-72.5 19q-62 0-192-40l-45 100q150 49 263 49 110 0 160.5-45.5t50.5-151.5v-339h-144zm-139 101q74 0 139 56v77q-82 17-124 17-96 0-96-78 0-36 22-54t59-18zm-103 500v115h116v-115h-116zm182 0v115h115v-115h-115z"/><glyph glyph-name="aring" unicode="å" horiz-adv-x="596" d="M395 0v62q-79-73-184-73-79 0-130.5 46.5t-51.5 125.5q0 80 53.5 124.5t138.5 44.5q45 0 174-25v40q0 44-20.5 63t-72.5 19q-62 0-192-40l-45 100q150 49 263 49 110 0 160.5-45.5t50.5-151.5v-339h-144zm-205 693q0 47 33 79.5t79 32.5 79-32.5 33-79.5-33-79.5-79-32.5-79 32.5-33 79.5zm66-592q74 0 139 56v77q-82 17-124 17-96 0-96-78 0-36 22-54t59-18zm4 592q0-18 12-30t30-12 30.5 12 12.5 30-12.5 30.5-30.5 12.5-30-12.5-12-30.5z"/><glyph glyph-name="ae" unicode="æ" horiz-adv-x="928" d="M881 231h-353q6-66 36-100.5t81-34.5q70 0 194 64l54-90q-148-81-262-81-139 0-206 102-94-102-214-102-79 0-130.5 46.5t-51.5 125.5q0 80 53.5 124.5t138.5 44.5q49 0 162-25 3 29 11 58-3 34-24 49t-68 15q-62 0-192-40l-45 100q150 49 263 49 108 0 158-43 64 43 157 43 120 0 183.5-64t63.5-168q0-19-2-37t-4-27zm-486-73q-10 31-13 73-89 20-111 20-96 0-96-78 0-36 22-54t59-18q71 0 139 57zm248 275q-98 0-114-124h219q1 124-105 124z"/><glyph glyph-name="ccedilla" unicode="ç" horiz-adv-x="524" d="M135-161l29 71q25-12 48-12 49 0 49 38 0 22-21 56-89 11-146.5 80.5t-57.5 190.5q0 133 69 203t170 70q89 0 226-64l-58-106-19 8q-18 9-24 11.5t-23.5 9.5-27.5 9.5-25 5.5-27 3q-52 0-83-41t-31-109q0-69 31-110t83-41q12 0 27 3t25 5.5 27.5 9.5 23.5 9.5 24 10.5l19 9 58-106q-109-54-195-62 31-41 31-82 0-46-32-69t-82-23q-49 0-88 22z"/><glyph glyph-name="egrave" unicode="è" horiz-adv-x="582" d="M537 231h-353q12-135 116-135 71 0 193 64l55-90q-148-81-262-81-110 0-180 69.5t-70 202.5q0 130 70 202.5t192 72.5q120 0 183.5-64t63.5-168q0-19-2-37t-4-27zm-238 202q-98 0-114-124h219q1 124-105 124zm104 158h-117l-172 138h165z"/><glyph glyph-name="eacute" unicode="é" horiz-adv-x="582" d="M537 231h-353q12-135 116-135 71 0 193 64l55-90q-148-81-262-81-110 0-180 69.5t-70 202.5q0 130 70 202.5t192 72.5q120 0 183.5-64t63.5-168q0-19-2-37t-4-27zm-238 202q-98 0-114-124h219q1 124-105 124zm19 158h-117l123 138h166z"/><glyph glyph-name="ecircumflex" unicode="ê" horiz-adv-x="582" d="M537 231h-353q12-135 116-135 71 0 193 64l55-90q-148-81-262-81-110 0-180 69.5t-70 202.5q0 130 70 202.5t192 72.5q120 0 183.5-64t63.5-168q0-19-2-37t-4-27zm-166 498l106-138h-100l-76 75-75-75h-100l106 138h139zm-72-296q-98 0-114-124h219q1 124-105 124z"/><glyph glyph-name="edieresis" unicode="ë" horiz-adv-x="582" d="M537 231h-353q12-135 116-135 71 0 193 64l55-90q-148-81-262-81-110 0-180 69.5t-70 202.5q0 130 70 202.5t192 72.5q120 0 183.5-64t63.5-168q0-19-2-37t-4-27zm-238 202q-98 0-114-124h219q1 124-105 124zm-146 168v115h116v-115h-116zm182 0v115h115v-115h-115z"/><glyph glyph-name="igrave" unicode="ì" horiz-adv-x="268" d="M206 0h-144v525h144v-525zm30 591h-118l-172 138h165z"/><glyph glyph-name="iacute" unicode="í" horiz-adv-x="268" d="M206 0h-143v525h143v-525zm-55 591h-118l125 138h165z"/><glyph glyph-name="icircumflex" unicode="î" horiz-adv-x="268" d="M206 0h-144v525h144v-525zm-2 729l106-138h-100l-76 75-76-75h-100l106 138h140z"/><glyph glyph-name="idieresis" unicode="ï" horiz-adv-x="268" d="M207 0h-144v525h144v-525zm-221 601v115h116v-115h-116zm181 0v115h116v-115h-116z"/><glyph glyph-name="eth" unicode="ð" horiz-adv-x="629" d="M251 521h-120l62 65h-4q-21 0-41.5-2t-30.5-4l-10-2-18 111q39 11 103 11 51 0 101-11l38 40h121l-68-71q100-49 154-146.5t54-221.5q0-148-76-224.5t-207-76.5q-127 0-199.5 66t-72.5 178q0 109 66.5 176t170.5 67q34 0 63.5-7t48-17 32-20.5 18.5-17.5l6-7q-15 54-52.5 96.5t-93.5 63.5zm196-289q0 60-31.5 96.5t-98.5 36.5q-66 0-98-37.5t-32-95.5 32-95 98-37 98 36.5 32 95.5z"/><glyph glyph-name="ntilde" unicode="ñ" horiz-adv-x="625" d="M206 525v-63q106 74 204 74 157 0 157-165v-371h-144v338q0 86-69 86-37 0-78.5-21t-69.5-47v-356h-144v525h144zm-11 68l-65 32q14 27 21.5 39.5t21.5 31 30.5 26 37.5 7.5q30 0 77.5-24t61.5-24q25 0 51 46l65-31q-17-34-28-52.5t-33.5-35.5-49.5-17q-30 0-77.5 24t-61.5 24q-25 0-51-46z"/><glyph glyph-name="ograve" unicode="ò" horiz-adv-x="615" d="M579 262q0-130-70.5-201.5t-200.5-71.5q-131 0-201.5 71.5t-70.5 202.5q0 130 70.5 201.5t201.5 71.5q130 0 200.5-72t70.5-202zm-145 0q0 163-126 163t-126-162q0-163 126-163t126 162zm-24 329h-118l-172 138h164z"/><glyph glyph-name="oacute" unicode="ó" horiz-adv-x="615" d="M579 262q0-130-70.5-201.5t-200.5-71.5q-131 0-201.5 71.5t-70.5 202.5q0 130 70.5 201.5t201.5 71.5q130 0 200.5-72t70.5-202zm-145 0q0 163-126 163t-126-162q0-163 126-163t126 162zm-109 329h-119l125 138h164z"/><glyph glyph-name="ocircumflex" unicode="ô" horiz-adv-x="615" d="M579 262q0-130-70.5-201.5t-200.5-71.5q-131 0-201.5 71.5t-70.5 202.5q0 130 70.5 201.5t201.5 71.5q130 0 200.5-72t70.5-202zm-145 0q0 163-126 163t-126-162q0-163 126-163t126 162zm-56 467l106-138h-100l-76 75-76-75h-100l106 138h140z"/><glyph glyph-name="otilde" unicode="õ" horiz-adv-x="615" d="M579 262q0-130-70.5-201.5t-200.5-71.5q-131 0-201.5 71.5t-70.5 202.5q0 130 70.5 201.5t201.5 71.5q130 0 200.5-72t70.5-202zm-145 0q0 163-126 163t-126-162q0-163 126-163t126 162zm-245 334l-61 21q12 27 18 40t19 32 30 27 39 8q27 0 73-19t66-20q35-2 53 38l62-21q-1-3-4-9-10-23-16.5-35.5t-19.5-29.5-29.5-25-37.5-8q-27 0-73 19t-65 20q-35 2-54-38z"/><glyph glyph-name="odieresis" unicode="ö" horiz-adv-x="615" d="M579 262q0-130-70.5-201.5t-200.5-71.5q-131 0-201.5 71.5t-70.5 202.5q0 130 70.5 201.5t201.5 71.5q130 0 200.5-72t70.5-202zm-145 0q0 163-126 163t-126-162q0-163 126-163t126 162zm-274 339v115h116v-115h-116zm181 0v115h116v-115h-116z"/><glyph glyph-name="divide" unicode="÷" d="M61 279v109h514v-109h-514zm183 236q0 29 22 50t53 21q30 0 51.5-21t21.5-50-21.5-50-51.5-21q-31 0-53 21t-22 50zm0-363q0 30 22 50.5t52 20.5q31 0 52.5-20.5t21.5-50.5q0-29-21.5-49.5t-52.5-20.5q-30 0-52 20.5t-22 49.5z"/><glyph glyph-name="oslash" unicode="ø" horiz-adv-x="614" d="M563 525l-52-64q68-73 68-199 0-130-70.5-201.5t-201.5-71.5q-91 0-153 35l-20-24h-88l54 66q-65 71-65 197 0 130 70.5 201.5t201.5 71.5q88 0 151-34l19 23h86zm-130-263q0 50-14 87l-186-228q29-21 74-21 126 0 126 162zm-252 1q0-49 12-84l185 226q-28 20-71 20-126 0-126-162z"/><glyph glyph-name="ugrave" unicode="ù" horiz-adv-x="625" d="M419 0v63q-109-74-205-74-156 0-156 165v371h144v-338q0-41 15-63.5t53-22.5q37 0 79 20.5t70 46.5v357h143v-525h-143zm-8 591h-117l-172 138h164z"/><glyph glyph-name="uacute" unicode="ú" horiz-adv-x="625" d="M419 0v63q-109-74-205-74-156 0-156 165v371h144v-338q0-41 15-63.5t53-22.5q37 0 79 20.5t70 46.5v357h143v-525h-143zm-93 591h-118l125 138h164z"/><glyph glyph-name="ucircumflex" unicode="û" horiz-adv-x="625" d="M419 0v63q-109-74-205-74-156 0-156 165v371h144v-338q0-41 15-63.5t53-22.5q37 0 79 20.5t70 46.5v357h143v-525h-143zm-40 729l106-138h-99l-76 75-76-75h-100l105 138h140z"/><glyph glyph-name="udieresis" unicode="ü" horiz-adv-x="625" d="M419 0v63q-109-74-205-74-156 0-156 165v371h144v-338q0-41 15-63.5t53-22.5q37 0 79 20.5t70 46.5v357h143v-525h-143zm-258 601v115h116v-115h-116zm182 0v115h115v-115h-115z"/><glyph glyph-name="yacute" unicode="ý" horiz-adv-x="582" d="M12 525h155l124-352 124 352h156l-290-729h-154l91 205zm296 66h-119l125 138h164z"/><glyph glyph-name="thorn" unicode="þ" horiz-adv-x="624" d="M382-11q-95 0-176 68v-261h-144v933h144v-263q81 70 176 70 93 0 148.5-70t55.5-204q0-133-55.5-203t-148.5-70zm-43 431q-76 0-133-68v-180q58-67 133-67 101 0 101 158 0 157-101 157z"/><glyph glyph-name="ydieresis" unicode="ÿ" horiz-adv-x="582" d="M12 525h155l124-352 124 352h156l-290-729h-154l91 205zm312 76v115h116v-115h-116zm-181 0v115h116v-115h-116z"/><glyph glyph-name="Amacron" unicode="Ā" horiz-adv-x="709" d="M538 0l-45 139h-276l-45-139h-163l264 700h164l263-700h-162zm-184 565l-99-308h199zm-152 202v85h307v-85h-307z"/><glyph glyph-name="amacron" unicode="ā" horiz-adv-x="596" d="M395 0v62q-79-73-184-73-79 0-130.5 46.5t-51.5 125.5q0 80 53.5 124.5t138.5 44.5q45 0 174-25v40q0 44-20.5 63t-72.5 19q-62 0-192-40l-45 100q150 49 263 49 110 0 160.5-45.5t50.5-151.5v-339h-144zm-139 101q74 0 139 56v77q-82 17-124 17-96 0-96-78 0-36 22-54t59-18zm-108 516v85h307v-85h-307z"/><glyph glyph-name="Abreve" unicode="Ă" horiz-adv-x="709" d="M538 0l-45 139h-276l-45-139h-163l264 700h164l263-700h-162zm-184 565l-99-308h199zm0 177q-77 0-120.5 33t-43.5 90h90q0-44 74-44 75 0 75 44h90q0-57-43.5-90t-121.5-33z"/><glyph glyph-name="abreve" unicode="ă" horiz-adv-x="596" d="M395 0v62q-79-73-184-73-79 0-130.5 46.5t-51.5 125.5q0 80 53.5 124.5t138.5 44.5q45 0 174-25v40q0 44-20.5 63t-72.5 19q-62 0-192-40l-45 100q150 49 263 49 110 0 160.5-45.5t50.5-151.5v-339h-144zm-93 591q-77 0-120 33t-43 90h89q0-21 20-32.5t54-11.5q35 0 55 11.5t20 32.5h89q0-57-43-90t-121-33zm-46-490q74 0 139 56v77q-82 17-124 17-96 0-96-78 0-36 22-54t59-18z"/><glyph glyph-name="Aogonek" unicode="Ą" horiz-adv-x="709" d="M538 0l-45 139h-276l-45-139h-163l264 700h164l263-700h-3q-22-13-31-19.5t-27.5-20.5-26.5-27-8-27q0-8 3-14.5t8.5-10 11-5.5 14.5-3 14-1h25l-15-66h-6q-149-2-149 86 0 61 97 108h-69zm-184 565l-99-308h199z"/><glyph glyph-name="aogonek" unicode="ą" horiz-adv-x="596" d="M395 0v62q-79-73-184-73-79 0-130.5 46.5t-51.5 125.5q0 80 53.5 124.5t138.5 44.5q45 0 174-25v40q0 44-20.5 63t-72.5 19q-62 0-192-40l-45 100q150 49 263 49 110 0 160.5-45.5t50.5-151.5v-339h-3q-28-17-43-26.5t-33-29.5-18-38q0-8 3-14.5t9-10 11-5.5 14.5-3 14-1h24.5l-14-66h-6q-151-2-151 86 0 62 98 108h-50zm-139 101q74 0 139 56v77q-82 17-124 17-96 0-96-78 0-36 22-54t59-18z"/><glyph glyph-name="Cacute" unicode="Ć" horiz-adv-x="654" d="M630 610l-70-110q-135 77-210 77-71 0-111.5-61t-40.5-166 40.5-166 111.5-61q75 0 210 77l70-110q-82-48-151.5-74.5t-145.5-26.5q-129 0-209 91.5t-80 269.5 80 269.5 209 91.5q76 0 145.5-26.5t151.5-74.5zm-234 132h-117l125 138h164z"/><glyph glyph-name="cacute" unicode="ć" horiz-adv-x="523" d="M501 472l-58-106-19 8q-18 9-24 11.5t-23.5 9.5-27.5 9.5-25 5.5-27 3q-52 0-83-41t-31-109q0-69 31-110t83-41q12 0 27 3t25 5.5 27.5 9.5 23.5 9.5 24 10.5l19 9 58-106q-131-64-226-64-101 0-170 70.5t-69 203.5 69 203 170 70q89 0 226-64zm-201 119h-118l125 138h165z"/><glyph glyph-name="Cdotaccent" unicode="Ċ" horiz-adv-x="654" d="M630 610l-70-110q-135 77-210 77-71 0-111.5-61t-40.5-166 40.5-166 111.5-61q75 0 210 77l70-110q-82-48-151.5-74.5t-145.5-26.5q-129 0-209 91.5t-80 269.5 80 269.5 209 91.5q76 0 145.5-26.5t151.5-74.5zm-341 142v115h116v-115h-116z"/><glyph glyph-name="cdotaccent" unicode="ċ" horiz-adv-x="523" d="M501 472l-58-106-19 8q-18 9-24 11.5t-23.5 9.5-27.5 9.5-25 5.5-27 3q-52 0-83-41t-31-109q0-69 31-110t83-41q12 0 27 3t25 5.5 27.5 9.5 23.5 9.5 24 10.5l19 9 58-106q-131-64-226-64-101 0-170 70.5t-69 203.5 69 203 170 70q89 0 226-64zm-275 130v115h116v-115h-116z"/><glyph glyph-name="Ccaron" unicode="Č" horiz-adv-x="654" d="M630 610l-70-110q-135 77-210 77-71 0-111.5-61t-40.5-166 40.5-166 111.5-61q75 0 210 77l70-110q-82-48-151.5-74.5t-145.5-26.5q-129 0-209 91.5t-80 269.5 80 269.5 209 91.5q76 0 145.5-26.5t151.5-74.5zm-102 270l-106-138h-140l-105 138h100l75-74 76 74h100z"/><glyph glyph-name="ccaron" unicode="č" horiz-adv-x="523" d="M501 472l-58-106-19 8q-18 9-24 11.5t-23.5 9.5-27.5 9.5-25 5.5-27 3q-52 0-83-41t-31-109q0-69 31-110t83-41q12 0 27 3t25 5.5 27.5 9.5 23.5 9.5 24 10.5l19 9 58-106q-131-64-226-64-101 0-170 70.5t-69 203.5 69 203 170 70q89 0 226-64zm-42 257l-105-138h-141l-105 138h100l75-74 76 74h100z"/><glyph glyph-name="Dcaron" unicode="Ď" horiz-adv-x="722" d="M677 350q0-183-89-266.5t-263-83.5h-250v700h250q174 0 263-83.5t89-266.5zm-150 0q0 122-52.5 172.5t-162.5 50.5h-87v-446h87q110 0 162.5 50.5t52.5 172.5zm25 530l-106-138h-140l-106 138h100l75-74 77 74h100z"/><glyph glyph-name="dcaron" unicode="ď" horiz-adv-x="683" d="M561 0h-144v57q-83-68-176-68t-148.5 70-55.5 203q0 135 55.5 204.5t148.5 69.5 176-70v263h144v-729zm-277 105q75 0 133 67v180q-59 68-133 68-101 0-101-157 0-158 101-158zm329 504v120h110l9-132-91-107-30 36 52 83h-50z"/><glyph glyph-name="Dcroat" unicode="Đ" horiz-adv-x="736" d="M691 350q0-183-89-266.5t-263-83.5h-249v292h-74v116h74v292h249q174 0 263-83.5t89-266.5zm-149 0q0 122-53 172.5t-163 50.5h-86v-165h145v-116h-145v-165h86q110 0 163 50.5t53 172.5z"/><glyph glyph-name="dcroat" unicode="đ" horiz-adv-x="624" d="M248 580v84h169v65h144v-65h61v-84h-61v-580h-144v57q-83-68-176-68t-148.5 70-55.5 203q0 135 55.5 204.5t148.5 69.5 176-70v114h-169zm36-475q75 0 133 67v180q-59 68-133 68-101 0-101-157 0-158 101-158z"/><glyph glyph-name="Emacron" unicode="Ē" horiz-adv-x="616" d="M573 0h-498v700h492v-127h-342v-161h280v-124h-280v-161h348v-127zm-403 767v85h307v-85h-307z"/><glyph glyph-name="emacron" unicode="ē" horiz-adv-x="582" d="M537 231h-353q12-135 116-135 71 0 193 64l55-90q-148-81-262-81-110 0-180 69.5t-70 202.5q0 130 70 202.5t192 72.5q120 0 183.5-64t63.5-168q0-19-2-37t-4-27zm-389 385v85h307v-85h-307zm151-183q-98 0-114-124h219q1 124-105 124z"/><glyph glyph-name="Edotaccent" unicode="Ė" horiz-adv-x="616" d="M573 0h-498v700h492v-127h-342v-161h280v-124h-280v-161h348v-127zm-307 752v115h116v-115h-116z"/><glyph glyph-name="edotaccent" unicode="ė" horiz-adv-x="582" d="M537 231h-353q12-135 116-135 71 0 193 64l55-90q-148-81-262-81-110 0-180 69.5t-70 202.5q0 130 70 202.5t192 72.5q120 0 183.5-64t63.5-168q0-19-2-37t-4-27zm-238 202q-98 0-114-124h219q1 124-105 124zm-55 168v115h115v-115h-115z"/><glyph glyph-name="Eogonek" unicode="Ę" horiz-adv-x="616" d="M477-94q0-8 2.5-14.5t8.5-10 11-5.5 14.5-3 14-1h24.5l-14-66h-6q-150-2-150 86 0 62 98 108h-405v700h492v-127h-342v-161h280v-124h-280v-161h348v-127h-3q-27-16-42.5-26.5t-33-30-17.5-37.5z"/><glyph glyph-name="eogonek" unicode="ę" horiz-adv-x="583" d="M281-94q0-8 3-14.5t9-10 11-5.5 14.5-3 14.5-1h25l-15-66h-6q-150-2-150 86 0 55 78 98-102 6-165.5 75t-63.5 196q0 130 70 202.5t192 72.5q120 0 183.5-64t63.5-168q0-19-2-37t-4-27l-2-9h-353q12-135 116-135 71 0 193 64l55-90q-105-56-176-71-91-54-91-93zm18 527q-98 0-114-124h219q1 124-105 124z"/><glyph glyph-name="Ecaron" unicode="Ě" horiz-adv-x="616" d="M573 0h-498v700h492v-127h-342v-161h280v-124h-280v-161h348v-127zm-73 876l-106-137h-140l-106 137h100l76-74 76 74h100z"/><glyph glyph-name="ecaron" unicode="ě" horiz-adv-x="582" d="M537 231h-353q12-135 116-135 71 0 193 64l55-90q-148-81-262-81-110 0-180 69.5t-70 202.5q0 130 70 202.5t192 72.5q120 0 183.5-64t63.5-168q0-19-2-37t-4-27zm-60 498l-106-138h-139l-106 138h100l75-74 76 74h100zm-178-296q-98 0-114-124h219q1 124-105 124z"/><glyph glyph-name="Gbreve" unicode="Ğ" horiz-adv-x="712" d="M514 0v69q-92-80-194-80-118 0-197 92.5t-79 267.5q0 178 81 270t211 92q81 0 154-27.5t157-76.5l-71-110q-46 25-75.5 39.5t-71 27.5-75.5 13q-73 0-114.5-61t-41.5-166q0-107 39.5-170.5t114.5-63.5 162 79v88h-165v118h307v-401h-142zm-165 742q-77 0-120 33t-43 90h89q0-21 20-32.5t54-11.5q75 0 75 44h90q0-57-43.5-90t-121.5-33z"/><glyph glyph-name="gbreve" unicode="ğ" horiz-adv-x="624" d="M311 591q-77 0-120.5 33t-43.5 90h90q0-21 20-32.5t54-11.5q75 0 75 44h90q0-57-43.5-90t-121.5-33zm106-66h144v-527q0-109-56.5-160.5t-170.5-51.5q-128 0-274 42l29 115q139-41 217-41 61 0 86 21t25 68v66q-83-68-176-68t-148.5 70-55.5 203q0 135 55.5 204.5t148.5 69.5 176-70v59zm-133-420q75 0 133 67v180q-59 68-133 68-101 0-101-157 0-158 101-158z"/><glyph glyph-name="Gdotaccent" unicode="Ġ" horiz-adv-x="712" d="M514 0v69q-92-80-194-80-118 0-197 92.5t-79 267.5q0 178 81 270t211 92q81 0 154-27.5t157-76.5l-71-110q-46 25-75.5 39.5t-71 27.5-75.5 13q-73 0-114.5-61t-41.5-166q0-107 39.5-170.5t114.5-63.5 162 79v88h-165v118h307v-401h-142zm-223 752v115h116v-115h-116z"/><glyph glyph-name="gdotaccent" unicode="ġ" horiz-adv-x="624" d="M253 601v115h116v-115h-116zm164-76h144v-527q0-109-56.5-160.5t-170.5-51.5q-128 0-274 42l29 115q139-41 217-41 61 0 86 21t25 68v66q-83-68-176-68t-148.5 70-55.5 203q0 135 55.5 204.5t148.5 69.5 176-70v59zm-133-420q75 0 133 67v180q-59 68-133 68-101 0-101-157 0-158 101-158z"/><glyph glyph-name="Gcommaaccent" unicode="Ģ" horiz-adv-x="712" d="M514 0v69q-92-80-194-80-118 0-197 92.5t-79 267.5q0 178 81 270t211 92q81 0 154-27.5t157-76.5l-71-110q-46 25-75.5 39.5t-71 27.5-75.5 13q-73 0-114.5-61t-41.5-166q0-107 39.5-170.5t114.5-63.5 162 79v88h-165v118h307v-401h-142zm-202-177v120h110l9-132-92-107-31 36 54 83h-50z"/><glyph glyph-name="gcommaaccent" unicode="ģ" horiz-adv-x="624" d="M369 726v-125h-113l-9 135 95 114 31-38-55-86h51zm48-201h144v-527q0-109-56.5-160.5t-170.5-51.5q-128 0-274 42l29 115q139-41 217-41 61 0 86 21t25 68v66q-83-68-176-68t-148.5 70-55.5 203q0 135 55.5 204.5t148.5 69.5 176-70v59zm-133-420q75 0 133 67v180q-59 68-133 68-101 0-101-157 0-158 101-158z"/><glyph glyph-name="Hbar" unicode="Ħ" horiz-adv-x="753" d="M516 0v305h-280v-305h-149v515h-76v85h76v100h149v-100h280v100h150v-100h75v-85h-75v-515h-150zm-280 515v-86h280v86h-280z"/><glyph glyph-name="hbar" unicode="ħ" horiz-adv-x="625" d="M1 580v84h61v65h144v-65h170v-84h-170v-118q106 74 205 74 156 0 156-165v-371h-144v338q0 86-69 86-37 0-78-21t-70-47v-356h-144v580h-61z"/><glyph glyph-name="Itilde" unicode="Ĩ" horiz-adv-x="300" d="M31 748l-65 31q13 26 21 39.5t22 31.5 30.5 25.5 37.5 7.5q30 0 77.5-23.5t61.5-23.5q26 0 51 46l65-32q-17-34-28-52t-33.5-35-49.5-17q-30 0-77.5 24t-61.5 24q-25 0-51-46zm193-748h-149v700h149v-700z"/><glyph glyph-name="itilde" unicode="ĩ" horiz-adv-x="268" d="M15 597l-65 31q15 28 22 40t21.5 30.5 30.5 26 37 7.5q30 0 78-23.5t62-23.5q26 0 51 46l65-32q-17-34-28-52t-33.5-35-49.5-17q-30 0-77.5 24t-61.5 24q-25 0-52-46zm191-597h-144v525h144v-525z"/><glyph glyph-name="Imacron" unicode="Ī" horiz-adv-x="300" d="M225 0h-150v700h150v-700zm-229 767v85h307v-85h-307z"/><glyph glyph-name="imacron" unicode="ī" horiz-adv-x="268" d="M206 0h-144v525h144v-525zm-226 616v85h307v-85h-307z"/><glyph glyph-name="Ibreve" unicode="Ĭ" horiz-adv-x="300" d="M149 742q-77 0-120 33t-43 90h90q0-21 19.5-32.5t53.5-11.5q35 0 55.5 11.5t20.5 32.5h90q0-57-44-90t-122-33zm76-742h-150v700h150v-700z"/><glyph glyph-name="ibreve" unicode="ĭ" horiz-adv-x="268" d="M133 591q-77 0-120 33t-43 90h90q0-21 19.5-32.5t53.5-11.5q35 0 55.5 11.5t20.5 32.5h89q0-57-43.5-90t-121.5-33zm73-591h-144v525h144v-525z"/><glyph glyph-name="Iogonek" unicode="Į" horiz-adv-x="300" d="M128-94q0-8 2.5-14.5t8.5-10 11-5.5 14.5-3 14-1h24.5l-13-66q-83 0-117 18-40 22-40 68 0 61 98 108h-56v700h150v-700h-3q-27-15-43-26t-33.5-30.5-17.5-37.5z"/><glyph glyph-name="iogonek" unicode="į" horiz-adv-x="268" d="M108-94q0-8 3-14.5t8.5-10 11-5.5 14.5-3 14-1h25l-13-66q-83 0-117 18-40 22-40 68 0 61 98 108h-50v525h144v-525h-3q-27-16-43-26.5t-34-30-18-37.5zm-51 695v125h152v-125h-152z"/><glyph glyph-name="Idotaccent" unicode="İ" horiz-adv-x="300" d="M225 0h-150v700h150v-700zm-133 752v115h116v-115h-116z"/><glyph glyph-name="dotlessi" unicode="ı" horiz-adv-x="268" d="M206 0h-144v525h144v-525z"/><glyph glyph-name="IJ" unicode="Ĳ" horiz-adv-x="600" d="M225 0h-150v700h150v-700zm310 700v-637q0-37-.5-53.5t-4.5-43-12-39-23-30-39-28-57.5-22.5-80.5-23l-50 111q45 15 68 25t34.5 25 13 27.5 1.5 42.5v645h150z"/><glyph glyph-name="ij" unicode="ĳ" horiz-adv-x="536" d="M337 601v125h151v-125h-151zm148-76v-511q0-32-.5-47t-3-39.5-8-35.5-15.5-28.5-25.5-27-38-22-53.5-21.5-71-18l-46 104q46 15 68 24.5t34 25.5 13.5 28.5 1.5 45.5v522h144zm-278-525h-144v525h144v-525zm-148 601v125h152v-125h-152z"/><glyph glyph-name="Jcircumflex" unicode="Ĵ" horiz-adv-x="301" d="M225 700v-637q0-37-.5-53.5t-4.5-43-12-39-23-30-39-28-57.5-22.5-80.5-23l-49 111q45 15 67.5 25t34 25 13 27.5 1.5 42.5v645h150zm-5 180l106-138h-100l-76 75-76-75h-100l105 138h141z"/><glyph glyph-name="jcircumflex" unicode="ĵ" horiz-adv-x="268" d="M205 525v-549l-1.5-33-4.5-31-8-26-13-24-19.5-20-27-19.5-36-16.5-46.5-16.5-58-14.5-46 104q45 15 67 24.5t34 25.5 13.5 28.5 1.5 45.5v522h144zm-2 204l106-138h-100l-76 75-76-75h-99l104 138h141z"/><glyph glyph-name="Kcommaaccent" unicode="Ķ" horiz-adv-x="693" d="M75 0v700h150v-336l276 336h176l-281-332 297-368h-178l-209 262-81-96v-166h-150zm213-177v120h110l9-132-93-107-30 36 53 83h-49z"/><glyph glyph-name="kcommaaccent" unicode="ķ" horiz-adv-x="570" d="M540 525l-177-208 208-317h-151l-143 215-71-84v-131h-144v729h144v-421l171 217h163zm-304-702v120h109l9-132-91-107-31 36 54 83h-50z"/><glyph glyph-name="kgreenlandic" unicode="ĸ" horiz-adv-x="570" d="M540 525l-177-208 208-317h-151l-143 215-71-84v-131h-144v525h144v-217l171 217h163z"/><glyph glyph-name="Lacute" unicode="Ĺ" horiz-adv-x="575" d="M558 0h-482v700h149v-573h333v-127zm-391 742h-118l125 138h165z"/><glyph glyph-name="lacute" unicode="ĺ" horiz-adv-x="273" d="M208 0h-144v729h144v-729zm-55 773h-118l125 138h164z"/><glyph glyph-name="Lcommaaccent" unicode="Ļ" horiz-adv-x="574" d="M256-177v120h110l9-132-92-107-31 36 54 83h-50zm300 177h-481v700h150v-573h331v-127z"/><glyph glyph-name="lcommaaccent" unicode="ļ" horiz-adv-x="273" d="M83-177v120h109l9-132-91-107-30 36 53 83h-50zm125 177h-144v729h144v-729z"/><glyph glyph-name="Lcaron" unicode="Ľ" horiz-adv-x="574" d="M277 580v120h110l9-132-92-107-29 36 52 83h-50zm279-580h-481v700h150v-573h331v-127z"/><glyph glyph-name="lcaron" unicode="ľ" horiz-adv-x="330" d="M261 609v120h109l9-132-91-107-31 36 54 83h-50zm-53-609h-144v729h144v-729z"/><glyph glyph-name="Ldot" unicode="Ŀ" horiz-adv-x="575" d="M556 0h-481v700h150v-573h331v-127zm-169 310v115h116v-115h-116z"/><glyph glyph-name="ldot" unicode="ŀ" horiz-adv-x="370" d="M208 0h-144v729h144v-729zm53 310v115h116v-115h-116z"/><glyph glyph-name="Lslash" unicode="Ł" horiz-adv-x="589" d="M572 0h-481v237l-70-39v133l70 39v330h150v-247l132 74v-133l-132-74v-193h331v-127z"/><glyph glyph-name="lslash" unicode="ł" horiz-adv-x="311" d="M229 0h-144v257l-63-35v133l63 35v339h144v-258l62 35v-133l-62-35v-338z"/><glyph glyph-name="Nacute" unicode="Ń" horiz-adv-x="745" d="M227 700l294-478v478h149v-700h-152l-293 476v-476h-150v700h152zm168 42h-118l125 138h164z"/><glyph glyph-name="nacute" unicode="ń" horiz-adv-x="625" d="M206 525v-63q106 74 204 74 157 0 157-165v-371h-144v338q0 86-69 86-37 0-78.5-21t-69.5-47v-356h-144v525h144zm125 66h-119l125 138h165z"/><glyph glyph-name="Ncommaaccent" unicode="Ņ" horiz-adv-x="745" d="M227 700l294-478v478h149v-700h-152l-293 476v-476h-150v700h152zm98-877v120h110l9-132-93-107-29 36 52 83h-49z"/><glyph glyph-name="ncommaaccent" unicode="ņ" horiz-adv-x="625" d="M206 525v-63q106 74 204 74 157 0 157-165v-371h-144v338q0 86-69 86-37 0-78.5-21t-69.5-47v-356h-144v525h144zm54-702v120h110l9-132-91-107-31 36 53 83h-50z"/><glyph glyph-name="Ncaron" unicode="Ň" horiz-adv-x="745" d="M227 700l294-478v478h149v-700h-152l-293 476v-476h-150v700h152zm328 180l-106-138h-141l-106 138h100l76-74 77 74h100z"/><glyph glyph-name="ncaron" unicode="ň" horiz-adv-x="625" d="M206 525v-63q106 74 204 74 157 0 157-165v-371h-144v338q0 86-69 86-37 0-78.5-21t-69.5-47v-356h-144v525h144zm283 204l-106-138h-141l-106 138h100l76-74 77 74h100z"/><glyph glyph-name="napostrophe" unicode="ŉ" horiz-adv-x="624" d="M206 525v-62q106 73 203 73 156 0 156-165v-371h-143v338q0 86-69 86-37 0-78.5-20.5t-68.5-46.5v-357h-144v525h144zm-144 156v120h109l8-132-91-107-30 36 53 83h-49z"/><glyph glyph-name="Eng" unicode="Ŋ" horiz-adv-x="745" d="M670 700v-660q0-41-3-64t-14-49-34.5-41.5-63.5-31.5-101-30l-50 111q61 19 83.5 32t28.5 35l-291 474v-476h-150v700h152l294-478v478h149z"/><glyph glyph-name="eng" unicode="ŋ" horiz-adv-x="625" d="M567 371v-358q0-37-.5-53.5t-4.5-43-12-39-23-30-38.5-28-57-22-79.5-22.5l-46 104q46 15 68 24.5t34 25.5 13.5 28.5 1.5 45.5v335q0 86-69 86-37 0-78.5-21t-69.5-47v-356h-144v525h144v-63q106 74 204 74 157 0 157-165z"/><glyph glyph-name="Omacron" unicode="Ō" horiz-adv-x="760" d="M380 711q88 0 154-27.5t105-77.5 58-114 19-142q0-162-82.5-261.5t-253.5-99.5q-172 0-254 99.5t-82 261.5q0 163 82 262t254 99zm0-594q182 0 182 233 0 107-43.5 170t-138.5 63q-182 0-182-233t182-233zm-154 650v85h307v-85h-307z"/><glyph glyph-name="omacron" unicode="ō" horiz-adv-x="615" d="M579 262q0-130-70.5-201.5t-200.5-71.5q-131 0-201.5 71.5t-70.5 202.5q0 130 70.5 201.5t201.5 71.5q130 0 200.5-72t70.5-202zm-145 0q0 163-126 163t-126-162q0-163 126-163t126 162zm-280 354v85h307v-85h-307z"/><glyph glyph-name="Obreve" unicode="Ŏ" horiz-adv-x="760" d="M380 711q88 0 154-27.5t105-77.5 58-114 19-142q0-162-82.5-261.5t-253.5-99.5q-172 0-254 99.5t-82 261.5q0 163 82 262t254 99zm0-594q182 0 182 233 0 107-43.5 170t-138.5 63q-182 0-182-233t182-233zm-1 625q-77 0-120 33t-43 90h89q0-21 20-32.5t54-11.5q75 0 75 44h90q0-57-43.5-90t-121.5-33z"/><glyph glyph-name="obreve" unicode="ŏ" horiz-adv-x="615" d="M579 262q0-130-70.5-201.5t-200.5-71.5q-131 0-201.5 71.5t-70.5 202.5q0 130 70.5 201.5t201.5 71.5q130 0 200.5-72t70.5-202zm-145 0q0 163-126 163t-126-162q0-163 126-163t126 162zm-127 329q-77 0-120 33t-43 90h89q0-21 20-32.5t54-11.5q75 0 75 44h90q0-57-43.5-90t-121.5-33z"/><glyph glyph-name="Ohungarumlaut" unicode="Ő" horiz-adv-x="760" d="M380 711q88 0 154-27.5t105-77.5 58-114 19-142q0-162-82.5-261.5t-253.5-99.5q-172 0-254 99.5t-82 261.5q0 163 82 262t254 99zm0-594q182 0 182 233 0 107-43.5 170t-138.5 63q-182 0-182-233t182-233zm114 625h-86l80 138h133zm-177 0h-85l80 138h133z"/><glyph glyph-name="ohungarumlaut" unicode="ő" horiz-adv-x="615" d="M579 262q0-130-70.5-201.5t-200.5-71.5q-131 0-201.5 71.5t-70.5 202.5q0 130 70.5 201.5t201.5 71.5q130 0 200.5-72t70.5-202zm-145 0q0 163-126 163t-126-162q0-163 126-163t126 162zm-13 329h-85l80 138h132zm-176 0h-85l80 138h133z"/><glyph glyph-name="OE" unicode="Œ" horiz-adv-x="1105" d="M1061 0h-497v32q-74-43-184-43-172 0-254 99.5t-82 261.5q0 163 82 262t254 99q108 0 184-43v32h492v-127h-343v-161h281v-124h-281v-161h348v-127zm-681 117q182 0 182 233 0 107-43.5 170t-138.5 63q-182 0-182-233t182-233z"/><glyph glyph-name="oe" unicode="œ" horiz-adv-x="980" d="M935 231h-353q12-135 115-135 72 0 194 64l54-90q-144-81-261-81-112 0-179 68-71-68-197-68-131 0-201.5 71.5t-70.5 202.5q0 130 70.5 201.5t201.5 71.5q127 0 199-70 70 70 190 70 119 0 182.5-64t63.5-168q0-19-2-37t-4-27zm-501 31q0 163-126 163t-126-162q0-163 126-163t126 162zm263 171q-98 0-114-124h219q0 124-105 124z"/><glyph glyph-name="Racute" unicode="Ŕ" horiz-adv-x="704" d="M506 0l-165 271h-116v-271h-150v700h310q281 0 281-214 0-171-174-206l175-280h-161zm9 486q0 96-137 96h-153v-193h151q139 0 139 97zm-127 256h-119l125 138h165z"/><glyph glyph-name="racute" unicode="ŕ" horiz-adv-x="420" d="M249 591h-118l125 138h164zm-43-66v-110q5 11 12 23.5t23.5 31.5 37 32.5 53.5 22.5 71 6v-135q-50 0-88.5-17.5t-58-42-32-49-15.5-41.5l-3-18v-228h-144v525h144z"/><glyph glyph-name="Rcommaaccent" unicode="Ŗ" horiz-adv-x="704" d="M506 0l-165 271h-116v-271h-150v700h310q281 0 281-214 0-171-174-206l175-280h-161zm9 486q0 96-137 96h-153v-193h151q139 0 139 97zm-219-663v120h110l9-132-93-107-29 36 52 83h-49z"/><glyph glyph-name="rcommaaccent" unicode="ŗ" horiz-adv-x="420" d="M80-177v120h110l8-132-91-107-30 36 53 83h-50zm126 702v-110q5 14 16.5 31t34 39.5 60.5 35.5 85 10v-135q-50 0-88-17.5t-57.5-42-32-49-15.5-41.5l-3-18v-228h-144v525h144z"/><glyph glyph-name="Rcaron" unicode="Ř" horiz-adv-x="704" d="M506 0l-165 271h-116v-271h-150v700h310q281 0 281-214 0-171-174-206l175-280h-161zm9 486q0 96-137 96h-153v-193h151q139 0 139 97zm32 394l-106-138h-140l-106 138h100l76-74 76 74h100z"/><glyph glyph-name="rcaron" unicode="ř" horiz-adv-x="420" d="M407 729l-106-138h-139l-106 138h100l75-74 76 74h100zm-202-204v-110q6 15 17.5 31.5t34 39 60.5 35.5 85 10v-135q-50 0-88.5-17.5t-58-42-32-49-15.5-41.5l-3-18v-228h-143v525h143z"/><glyph glyph-name="Sacute" unicode="Ś" d="M334 742h-117l124 138h165zm80-338q39-14 66-27.5t59.5-38 49.5-60.5 17-82q0-93-70.5-150t-187.5-57q-84 0-171 28t-147 66l67 107q51-29 122.5-53t123.5-24q45 0 75.5 18.5t30.5 53.5q0 19-10 33.5t-34 26-45 19-63 20.5-69 23q-37 13-64 27.5t-56.5 38-45.5 58-16 77.5q0 91 67 147t183 56q72 0 150-20.5t137-51.5l-67-109q-47 22-108 39.5t-103 17.5q-44 0-73-17.5t-29-51.5q0-19 10-32.5t32-24 44.5-17.5 60-18.5 64.5-21.5z"/><glyph glyph-name="sacute" unicode="ś" horiz-adv-x="533" d="M283 591h-117l123 138h166zm36-274q85-21 136-60.5t51-110.5q0-73-56.5-115t-154.5-42q-71 0-145 20.5t-123 47.5l57 101q45-22 105-40.5t100-18.5q33 0 52.5 12t19.5 31q0 9-4.5 16.5t-14 13.5-19.5 10.5-25.5 9.5-26 7.5-28 7-25.5 6.5q-37 10-64.5 21t-56 30-44 48.5-15.5 67.5q0 71 54 113.5t150 42.5q120 0 241-57l-56-94q-103 42-175 42-32 0-51-12t-19-31q0-9 4-16t12.5-12.5 17-10 23.5-8.5 25-6.5l28-7 27-6.5z"/><glyph glyph-name="Scircumflex" unicode="Ŝ" d="M389 880l105-138h-99l-77 75-76-75h-100l106 138h141zm25-476q39-14 66-27.5t59.5-38 49.5-60.5 17-82q0-93-70.5-150t-187.5-57q-84 0-171 28t-147 66l67 107q51-29 122.5-53t123.5-24q45 0 75.5 18.5t30.5 53.5q0 19-10 33.5t-34 26-45 19-63 20.5-69 23q-37 13-64 27.5t-56.5 38-45.5 58-16 77.5q0 91 67 147t183 56q72 0 150-20.5t137-51.5l-67-109q-47 22-108 39.5t-103 17.5q-44 0-73-17.5t-29-51.5q0-19 10-32.5t32-24 44.5-17.5 60-18.5 64.5-21.5z"/><glyph glyph-name="scircumflex" unicode="ŝ" horiz-adv-x="533" d="M337 729l106-138h-100l-76 75-75-75h-100l106 138h139zm-18-412q85-21 136-60.5t51-110.5q0-73-56.5-115t-154.5-42q-71 0-145 20.5t-123 47.5l57 101q45-22 105-40.5t100-18.5q33 0 52.5 12t19.5 31q0 9-4.5 16.5t-14 13.5-19.5 10.5-25.5 9.5-26 7.5-28 7-25.5 6.5q-37 10-64.5 21t-56 30-44 48.5-15.5 67.5q0 71 54 113.5t150 42.5q120 0 241-57l-56-94q-103 42-175 42-32 0-51-12t-19-31q0-9 4-16t12.5-12.5 17-10 23.5-8.5 25-6.5l28-7 27-6.5z"/><glyph glyph-name="Scedilla" unicode="Ş" horiz-adv-x="638" d="M414 404q39-14 66-27.5t59.5-38 49.5-60.5 17-82q0-86-59.5-141.5t-161.5-63.5q31-45 31-82 0-46-32-69t-82-23q-51 0-88 22l28 71q26-12 49-12 48 0 48 38 0 22-20 54-79 5-157.5 32t-131.5 61l67 107q51-29 122.5-53t123.5-24q45 0 75.5 18.5t30.5 53.5q0 19-10 33.5t-34 26-45 19-63 20.5-69 23q-37 13-64 27.5t-56.5 38-45.5 58-16 77.5q0 91 67 147t183 56q72 0 150-20.5t137-51.5l-67-109q-47 22-108 39.5t-103 17.5q-44 0-73-17.5t-29-51.5q0-19 10-32.5t32-24 44.5-17.5 60-18.5 64.5-21.5z"/><glyph glyph-name="scedilla" unicode="ş" horiz-adv-x="534" d="M319 317q85-21 136-60.5t51-110.5q0-65-45.5-106t-125.5-49q31-42 31-82 0-46-32.5-69t-82.5-23q-49 0-88 22l30 71q25-12 48-12 48 0 48 38 0 23-19 54-67 4-133 23t-110 44l57 101q45-22 105-40.5t100-18.5q33 0 52.5 12t19.5 31q0 9-4.5 16.5t-14 13.5-19.5 10.5-25.5 9.5-26 7.5-28 7-25.5 6.5q-37 10-64.5 21t-56 30-44 48.5-15.5 67.5q0 71 54 113.5t150 42.5q120 0 241-57l-56-94q-103 42-175 42-32 0-51-12t-19-31q0-9 4-16t12.5-12.5 17-10 23.5-8.5 25-6.5l28-7 27-6.5z"/><glyph glyph-name="Scaron" unicode="Š" d="M494 880l-105-138h-140l-106 138h100l75-74 77 74h99zm-80-476q39-14 66-27.5t59.5-38 49.5-60.5 17-82q0-93-70.5-150t-187.5-57q-84 0-171 28t-147 66l67 107q51-29 122.5-53t123.5-24q45 0 75.5 18.5t30.5 53.5q0 19-10 33.5t-34 26-45 19-63 20.5-69 23q-37 13-64 27.5t-56.5 38-45.5 58-16 77.5q0 91 67 147t183 56q72 0 150-20.5t137-51.5l-67-109q-47 22-108 39.5t-103 17.5q-44 0-73-17.5t-29-51.5q0-19 10-32.5t32-24 44.5-17.5 60-18.5 64.5-21.5z"/><glyph glyph-name="scaron" unicode="š" horiz-adv-x="533" d="M445 729l-106-138h-140l-106 138h100l76-74 76 74h100zm-126-412q85-21 136-60.5t51-110.5q0-73-56.5-115t-154.5-42q-71 0-145 20.5t-123 47.5l57 101q45-22 105-40.5t100-18.5q33 0 52.5 12t19.5 31q0 9-4.5 16.5t-14 13.5-19.5 10.5-25.5 9.5-26 7.5-28 7-25.5 6.5q-37 10-64.5 21t-56 30-44 48.5-15.5 67.5q0 71 54 113.5t150 42.5q120 0 241-57l-56-94q-103 42-175 42-32 0-51-12t-19-31q0-9 4-16t12.5-12.5 17-10 23.5-8.5 25-6.5l28-7 27-6.5z"/><glyph glyph-name="Tcedilla" unicode="Ţ" horiz-adv-x="598" d="M168-161l29 71q25-12 49-12 47 0 47 38 0 32-27 64h-41v573h-208v127h563v-127h-205v-573h-44q39-46 39-91 0-46-32-69t-82-23q-51 0-88 22z"/><glyph glyph-name="tcedilla" unicode="ţ" horiz-adv-x="421" d="M25 419v106h72v132l143 20v-152h143v-106h-143v-255q0-30 12.5-40t32.5-10q27 0 83 24l51-107q-74-33-141-40 31-41 31-82 0-46-32-69t-82-23q-51 0-88 22l29 71q25-12 48-12 48 0 48 38 0 28-21 56-114 20-114 174v253h-72z"/><glyph glyph-name="Tcaron" unicode="Ť" horiz-adv-x="598" d="M580 573h-205v-573h-150v573h-208v127h563v-127zm-105 307l-106-138h-141l-105 138h100l76-74 76 74h100z"/><glyph glyph-name="tcaron" unicode="ť" horiz-adv-x="421" d="M25 419v106h72v132l143 20v-152h143v-106h-143v-255q0-30 12.5-40t32.5-10q26 0 82 24l51-107q-92-42-169-42-152 0-152 177v253h-72zm268 262v120h109l9-132-91-107-30 36 53 83h-50z"/><glyph glyph-name="Tbar" unicode="Ŧ" horiz-adv-x="606" d="M134 213v85h96v275h-208v127h563v-127h-205v-275h95v-85h-95v-213h-150v213h-96z"/><glyph glyph-name="tbar" unicode="ŧ" horiz-adv-x="421" d="M25 419v106h72v132l143 20v-152h143v-106h-143v-80h112v-85h-112v-90q0-30 12.5-40t32.5-10q27 0 83 24l50-107q-92-42-169-42-152 0-152 177v88h-51v85h51v80h-72z"/><glyph glyph-name="Utilde" unicode="Ũ" horiz-adv-x="719" d="M240 748l-65 31q13 26 21 39.5t22 31.5 30.5 25.5 37.5 7.5q30 0 77.5-23.5t61.5-23.5q26 0 51 46l66-32q-14-27-21.5-39.5t-21.5-31-30.5-26-37.5-7.5q-30 0-78 24t-62 24q-25 0-51-46zm410-48v-418q0-66-13-115.5t-44-91.5-89.5-64-143.5-22-144 22-90.5 64-44.5 91.5-13 115.5v418h150v-430q0-73 30-113t112-40q80 0 110.5 40.5t30.5 112.5v430h149z"/><glyph glyph-name="utilde" unicode="ũ" horiz-adv-x="625" d="M419 0v63q-109-74-205-74-156 0-156 165v371h144v-338q0-41 15-63.5t53-22.5q37 0 79 20.5t70 46.5v357h143v-525h-143zm-218 597l-65 31q15 28 22 40t21.5 30.5 30.5 26 37 7.5q30 0 78-23.5t61-23.5q27 0 52 46l65-32q-17-34-28-52t-33.5-35-49.5-17q-30 0-78 24t-61 24q-25 0-52-46z"/><glyph glyph-name="Umacron" unicode="Ū" horiz-adv-x="719" d="M650 700v-418q0-66-13-115.5t-44-91.5-89.5-64-143.5-22-144 22-90.5 64-44.5 91.5-13 115.5v418h150v-430q0-73 30-113t112-40q80 0 110.5 40.5t30.5 112.5v430h149zm-444 67v85h307v-85h-307z"/><glyph glyph-name="umacron" unicode="ū" horiz-adv-x="625" d="M419 0v63q-109-74-205-74-156 0-156 165v371h144v-338q0-41 15-63.5t53-22.5q37 0 79 20.5t70 46.5v357h143v-525h-143zm-263 616v85h307v-85h-307z"/><glyph glyph-name="Ubreve" unicode="Ŭ" horiz-adv-x="719" d="M358 742q-77 0-120 33t-43 90h90q0-21 19.5-32.5t53.5-11.5q36 0 56 11.5t20 32.5h89q0-57-43.5-90t-121.5-33zm292-42v-418q0-66-13-115.5t-44-91.5-89.5-64-143.5-22-144 22-90.5 64-44.5 91.5-13 115.5v418h150v-430q0-73 30-113t112-40q80 0 110.5 40.5t30.5 112.5v430h149z"/><glyph glyph-name="ubreve" unicode="ŭ" horiz-adv-x="625" d="M419 0v63q-109-74-205-74-156 0-156 165v371h144v-338q0-41 15-63.5t53-22.5q37 0 79 20.5t70 46.5v357h143v-525h-143zm-110 591q-78 0-121 33t-43 90h90q0-44 74-44 35 0 55 11.5t20 32.5h89q0-57-43-90t-121-33z"/><glyph glyph-name="Uring" unicode="Ů" horiz-adv-x="719" d="M249 844q0 46 32.5 79t79.5 33 79.5-33 32.5-79-32.5-79-79.5-33-79.5 33-32.5 79zm69 0q0-18 12.5-30t30.5-12 30.5 12 12.5 30-12.5 30.5-30.5 12.5-30.5-12.5-12.5-30.5zm332-144v-418q0-66-13-115.5t-44-91.5-89.5-64-143.5-22-144 22-90.5 64-44.5 91.5-13 115.5v418h150v-430q0-73 30-113t112-40q80 0 110.5 40.5t30.5 112.5v430h149z"/><glyph glyph-name="uring" unicode="ů" horiz-adv-x="625" d="M419 0v63q-109-74-205-74-156 0-156 165v371h144v-338q0-41 15-63.5t53-22.5q37 0 79 20.5t70 46.5v357h143v-525h-143zm-221 693q0 47 33 79.5t79 32.5 79-32.5 33-79.5-33-79.5-79-32.5-79 32.5-33 79.5zm70 0q0-18 12-30t30-12 30.5 12 12.5 30-12.5 30.5-30.5 12.5-30-12.5-12-30.5z"/><glyph glyph-name="Uhungarumlaut" unicode="Ű" horiz-adv-x="719" d="M650 700v-418q0-66-13-115.5t-44-91.5-89.5-64-143.5-22-144 22-90.5 64-44.5 91.5-13 115.5v418h150v-430q0-73 30-113t112-40q80 0 110.5 40.5t30.5 112.5v430h149zm-177 42h-86l81 138h132zm-176 0h-87l82 138h132z"/><glyph glyph-name="uhungarumlaut" unicode="ű" horiz-adv-x="625" d="M419 0v63q-109-74-205-74-156 0-156 165v371h144v-338q0-41 15-63.5t53-22.5q37 0 79 20.5t70 46.5v357h143v-525h-143zm-172 591h-86l81 138h133zm176 0h-86l81 138h132z"/><glyph glyph-name="Uogonek" unicode="Ų" horiz-adv-x="719" d="M371-94q0-8 3-14.5t9-10 11-5.5 14.5-3 14-1h24.5l-13-66q-83 0-117 18-40 22-40 68 0 53 77 97-83 1-141 23t-88.5 64-43.5 91.5-13 114.5v418h150v-430q0-73 30-113t112-40q80 0 110.5 40.5t30.5 112.5v430h149v-418q0-112-41-184.5t-142-97.5q-96-53-96-94z"/><glyph glyph-name="uogonek" unicode="ų" horiz-adv-x="625" d="M419 0v63q-109-74-205-74-156 0-156 165v371h144v-338q0-41 15-63.5t53-22.5q37 0 79 20.5t70 46.5v357h143v-525h-4q-22-13-31-19.5t-27.5-20.5-26.5-27-8-27q0-8 3-14.5t8.5-10 11-5.5 14.5-3 14-1h25l-15-66h-6q-149-2-149 86 0 61 97 108h-49z"/><glyph glyph-name="Wcircumflex" unicode="Ŵ" horiz-adv-x="970" d="M610 0l-125 484-126-484h-148l-195 700h170l111-501 127 501h122l126-498 112 498h171l-196-700h-149zm-54 880l105-138h-100l-76 75-76-75h-100l106 138h141z"/><glyph glyph-name="wcircumflex" unicode="ŵ" horiz-adv-x="839" d="M525 0l-105 353-105-353h-136l-163 525h153l87-374 104 374h120l103-374 88 374h152l-163-525h-135zm-35 729l106-138h-100l-76 75-76-75h-100l106 138h140z"/><glyph glyph-name="ycircumflex" unicode="ŷ" horiz-adv-x="582" d="M12 525h155l124-352 124 352h156l-290-729h-154l91 205zm349 204l106-138h-100l-76 75-76-75h-100l105 138h141z"/><glyph glyph-name="Ydieresis" unicode="Ÿ" horiz-adv-x="663" d="M256 0v277l-252 423h168l159-299 159 299h168l-253-424 1-276h-150zm-74 752v115h116v-115h-116zm183 0v115h114v-115h-114z"/><glyph glyph-name="Zacute" unicode="Ź" horiz-adv-x="640" d="M595 585l-369-458h374v-127h-568v115l369 458h-347v127h541v-115zm-254 157h-117l124 138h165z"/><glyph glyph-name="zacute" unicode="ź" horiz-adv-x="553" d="M33 0v101l287 305h-277v119h472v-101l-287-305h287v-119h-482zm259 591h-119l125 138h164z"/><glyph glyph-name="Zdotaccent" unicode="Ż" horiz-adv-x="640" d="M32 115l369 458h-347v127h541v-115l-369-458h374v-127h-568v115zm235 637v115h116v-115h-116z"/><glyph glyph-name="zdotaccent" unicode="ż" horiz-adv-x="553" d="M33 0v101l287 305h-277v119h472v-101l-287-305h287v-119h-482zm183 601v115h116v-115h-116z"/><glyph glyph-name="Zcaron" unicode="Ž" horiz-adv-x="640" d="M595 585l-369-458h374v-127h-568v115l369 458h-347v127h541v-115zm-94 295l-106-138h-141l-105 138h100l75-74 77 74h100z"/><glyph glyph-name="zcaron" unicode="ž" horiz-adv-x="553" d="M33 0v101l287 305h-277v119h472v-101l-287-305h287v-119h-482zm418 729l-106-138h-141l-105 138h100l76-74 76 74h100z"/><glyph glyph-name="longs" unicode="ſ" horiz-adv-x="319" d="M22 419v106h72v27q0 177 152 177 81 0 177-41l-48-103q-68 20-93 20-20 0-32.5-10t-12.5-39v-556h-143v419h-72z"/><glyph glyph-name="florin" unicode="ƒ" horiz-adv-x="586" d="M105 419l24 106h73l8 31q21 93 61 133t126 40q64 0 176-42l-68-105q-68 26-101 21-41-5-51-52l-6-26h140l-22-106h-144l-148-623h-144l148 623h-72z"/><glyph glyph-name="AEacute" unicode="Ǽ" horiz-adv-x="1061" d="M1018 0h-499v139h-276l-90-139h-179l476 700h562v-127h-343v-161h282v-124h-282v-161h349v-127zm-697 260h198v305zm267 482h-119l125 138h165z"/><glyph glyph-name="aeacute" unicode="ǽ" horiz-adv-x="928" d="M881 231h-353q6-66 36-100.5t81-34.5q70 0 194 64l54-90q-148-81-262-81-139 0-206 102-94-102-214-102-79 0-130.5 46.5t-51.5 125.5q0 80 53.5 124.5t138.5 44.5q49 0 162-25 3 29 11 58-3 34-24 49t-68 15q-62 0-192-40l-45 100q150 49 263 49 108 0 158-43 64 43 157 43 120 0 183.5-64t63.5-168q0-19-2-37t-4-27zm-486-73q-10 31-13 73-89 20-111 20-96 0-96-78 0-36 22-54t59-18q71 0 139 57zm248 275q-98 0-114-124h219q1 124-105 124zm-166 158h-118l125 138h165z"/><glyph glyph-name="Oslashacute" unicode="Ǿ" horiz-adv-x="759" d="M704 700l-70-90q81-95 81-260 0-162-82.5-261.5t-253.5-99.5q-114 0-191 47l-28-36h-105l69 89q-81 95-81 261 0 78 19 142t58 114 105 77.5 154 27.5q113 0 191-47l28 36h106zm-507-350q0-84 24-136l263 339q-43 30-105 30-95 0-138.5-63t-43.5-170zm182-233q182 0 182 233 0 83-24 135l-263-339q41-29 105-29zm17 625h-119l125 138h165z"/><glyph glyph-name="oslashacute" unicode="ǿ" horiz-adv-x="614" d="M563 525l-52-64q68-73 68-199 0-130-70.5-201.5t-201.5-71.5q-91 0-153 35l-20-24h-88l54 66q-65 71-65 197 0 130 70.5 201.5t201.5 71.5q88 0 151-34l19 23h86zm-130-263q0 50-14 87l-186-228q29-21 74-21 126 0 126 162zm-252 1q0-49 12-84l185 226q-28 20-71 20-126 0-126-162zm137 328h-118l124 138h165z"/><glyph glyph-name="Scommaaccent" unicode="Ș" d="M269-177v120h110l9-132-92-107-30 36 52 83h-49zm145 581q39-14 66-27.5t59.5-38 49.5-60.5 17-82q0-93-70.5-150t-187.5-57q-84 0-171 28t-147 66l67 107q51-29 122.5-53t123.5-24q45 0 75.5 18.5t30.5 53.5q0 19-10 33.5t-34 26-45 19-63 20.5-69 23q-37 13-64 27.5t-56.5 38-45.5 58-16 77.5q0 91 67 147t183 56q72 0 150-20.5t137-51.5l-67-109q-47 22-108 39.5t-103 17.5q-44 0-73-17.5t-29-51.5q0-19 10-32.5t32-24 44.5-17.5 60-18.5 64.5-21.5z"/><glyph glyph-name="scommaaccent" unicode="ș" horiz-adv-x="533" d="M209-177v120h109l8-132-91-107-30 36 53 83h-49zm110 494q85-21 136-60.5t51-110.5q0-73-56.5-115t-154.5-42q-71 0-145 20.5t-123 47.5l57 101q45-22 105-40.5t100-18.5q33 0 52.5 12t19.5 31q0 9-4.5 16.5t-14 13.5-19.5 10.5-25.5 9.5-26 7.5-28 7-25.5 6.5q-37 10-64.5 21t-56 30-44 48.5-15.5 67.5q0 71 54 113.5t150 42.5q120 0 241-57l-56-94q-103 42-175 42-32 0-51-12t-19-31q0-9 4-16t12.5-12.5 17-10 23.5-8.5 25-6.5l28-7 27-6.5z"/><glyph glyph-name="uni021a" unicode="Ț" horiz-adv-x="598" d="M245-177v120h110l9-132-91-107-31 36 53 83h-50zm335 750h-205v-573h-150v573h-208v127h563v-127z"/><glyph glyph-name="uni021b" unicode="ț" horiz-adv-x="421" d="M25 419v106h72v132l143 20v-152h143v-106h-143v-255q0-30 12.5-40t32.5-10q26 0 82 24l51-107q-92-42-169-42-152 0-152 177v253h-72zm110-596v120h110l9-132-92-107-30 36 52 83h-49z"/><glyph glyph-name="hsuperior" unicode="ʰ" horiz-adv-x="414" d="M146 822v-158q64 43 127 43 99 0 99-101v-221h-100v198q0 47-39 47-45 0-87-36v-209h-100v437h100z"/><glyph glyph-name="jsuperior" unicode="ʲ" horiz-adv-x="191" d="M42 740v81h106v-81h-106zm103-40v-300q0-32-1-46.5t-8-34.5-21.5-30-41.5-21.5-69-20.5l-32 71q53 17 63.5 28.5t10.5 45.5v308h99z"/><glyph glyph-name="wsuperior" unicode="ʷ" horiz-adv-x="535" d="M330 385l-63 202-63-202h-93l-102 315h105l51-214 61 214h81l61-214 51 214h106l-101-315h-94z"/><glyph glyph-name="ysuperior" unicode="ʸ" horiz-adv-x="365" d="M2 700h108l73-199 73 199h106l-181-437h-106l57 124z"/><glyph glyph-name="circumflex" unicode="ˆ" horiz-adv-x="290" d="M215 729l106-138h-100l-76 75-76-75h-100l106 138h140z"/><glyph glyph-name="caron" unicode="ˇ" horiz-adv-x="290" d="M321 729l-106-138h-140l-106 138h100l76-74 76 74h100z"/><glyph glyph-name="breve" unicode="˘" horiz-adv-x="279" d="M139 591q-77 0-120 33t-43 90h89q0-44 74-44 35 0 55 11.5t20 32.5h90q0-57-43.5-90t-121.5-33z"/><glyph glyph-name="dotaccent" unicode="˙" horiz-adv-x="91" d="M-13 601v115h116v-115h-116z"/><glyph glyph-name="ring" unicode="˚" horiz-adv-x="209" d="M-8 693q0 47 33 79.5t79 32.5 79-32.5 33-79.5-33-79.5-79-32.5-79 32.5-33 79.5zm70 0q0-18 12-30t30-12 30.5 12 12.5 30-12.5 30.5-30.5 12.5-30-12.5-12-30.5z"/><glyph glyph-name="ogonek" unicode="˛" horiz-adv-x="166" d="M70-94q0-8 3-14.5t8.5-10 11-5.5 14.5-3 14-1h25l-14-66h-6q-150-2-150 86 0 68 122 119l68-10-31.5-19.5-29-20.5-27-27.5-8.5-27.5z"/><glyph glyph-name="tilde" unicode="˜" horiz-adv-x="301" d="M32 597l-65 31q13 26 21 39.5t22 31.5 30.5 25.5 37.5 7.5q30 0 77.5-23.5t61.5-23.5q26 0 52 46l65-32q-14-27-21.5-39.5t-21.5-31-30.5-26-37.5-7.5q-30 0-78 24t-62 24q-25 0-51-46z"/><glyph glyph-name="hungarumlaut" unicode="˝" horiz-adv-x="335" d="M234 591h-85l80 138h133zm-175 0h-87l82 138h132z"/><glyph glyph-name="xsuperior" unicode="ˣ" horiz-adv-x="394" d="M272 385l-75 107-74-107h-118l131 157-124 158h114l71-104 71 104h114l-123-157 130-158h-117z"/><glyph glyph-name="pi" unicode="π" horiz-adv-x="587" d="M562 525v-123h-83v-402h-124v402h-121v-402h-126v402h-83v123h537z"/><glyph glyph-name="Wgrave" unicode="Ẁ" horiz-adv-x="970" d="M610 0l-125 484-126-484h-148l-195 700h170l111-501 127 501h122l126-498 112 498h171l-196-700h-149zm-23 742h-119l-170 138h164z"/><glyph glyph-name="wgrave" unicode="ẁ" horiz-adv-x="839" d="M525 0l-105 353-105-353h-136l-163 525h153l87-374 104 374h120l103-374 88 374h152l-163-525h-135zm-3 591h-118l-172 138h165z"/><glyph glyph-name="Wacute" unicode="Ẃ" horiz-adv-x="970" d="M610 0l-125 484-126-484h-148l-195 700h170l111-501 127 501h122l126-498 112 498h171l-196-700h-149zm-109 742h-118l125 138h165z"/><glyph glyph-name="wacute" unicode="ẃ" horiz-adv-x="839" d="M525 0l-105 353-105-353h-136l-163 525h153l87-374 104 374h120l103-374 88 374h152l-163-525h-135zm-88 591h-119l125 138h166z"/><glyph glyph-name="Wdieresis" unicode="Ẅ" horiz-adv-x="970" d="M610 0l-125 484-126-484h-148l-195 700h170l111-501 127 501h122l126-498 112 498h171l-196-700h-149zm-274 752v115h116v-115h-116zm183 0v115h114v-115h-114z"/><glyph glyph-name="wdieresis" unicode="ẅ" horiz-adv-x="839" d="M525 0l-105 353-105-353h-136l-163 525h153l87-374 104 374h120l103-374 88 374h152l-163-525h-135zm-253 601v115h116v-115h-116zm181 0v115h116v-115h-116z"/><glyph glyph-name="Ygrave" unicode="Ỳ" horiz-adv-x="663" d="M256 0v277l-252 423h168l159-299 159 299h168l-253-424 1-276h-150zm177 742h-117l-172 138h164z"/><glyph glyph-name="ygrave" unicode="ỳ" horiz-adv-x="582" d="M12 525h155l124-352 124 352h156l-290-729h-154l91 205zm381 66h-118l-172 138h164z"/><glyph glyph-name="endash" unicode="–" horiz-adv-x="565" d="M505 227h-446v115h446v-115z"/><glyph glyph-name="emdash" unicode="—" horiz-adv-x="672" d="M613 227h-554v115h554v-115z"/><glyph glyph-name="quoteleft" unicode="‘" horiz-adv-x="260" d="M204 560v-165h-147l-11 183 122 142 40-49-70-111h66z"/><glyph glyph-name="quoteright" unicode="’" horiz-adv-x="248" d="M53 535v165h147l11-183-122-142-40 49 71 111h-67z"/><glyph glyph-name="quotesinglbase" unicode="‚" horiz-adv-x="266" d="M58 0v165h147l11-183-122-142-40 49 71 111h-67z"/><glyph glyph-name="quotedblleft" unicode="“" horiz-adv-x="485" d="M204 560v-165h-147l-11 183 122 142 40-49-70-111h66zm225 0v-165h-148l-11 183 123 142 40-49-70-111h66z"/><glyph glyph-name="quotedblright" unicode="”" horiz-adv-x="473" d="M277 535v165h149l11-183-124-142-39 49 70 111h-67zm-224 0v165h147l11-183-122-142-40 49 71 111h-67z"/><glyph glyph-name="quotedblbase" unicode="„" horiz-adv-x="491" d="M282 0v165h149l11-183-124-142-39 49 70 111h-67zm-224 0v165h147l11-183-122-142-40 49 71 111h-67z"/><glyph glyph-name="dagger" unicode="†" horiz-adv-x="604" d="M28 373v116l219-14v225h110v-225l220 14v-116l-220 14v-591h-110v591z"/><glyph glyph-name="daggerdbl" unicode="‡" horiz-adv-x="632" d="M41 373v116l219-14v225h110v-225l220 14v-116l-220 14v-174l220 14v-116l-220 14v-329h-110v329l-219-14v116l219-14v174z"/><glyph glyph-name="bullet" unicode="•" horiz-adv-x="460" d="M72 285q0 65 46 111.5t112 46.5 112.5-46.5 46.5-111.5q0-66-46.5-112t-112.5-46-112 46-46 112z"/><glyph glyph-name="ellipsis" unicode="…" horiz-adv-x="751" d="M57 0v165h150v-165h-150zm244 0v165h149v-165h-149zm244 0v165h149v-165h-149z"/><glyph glyph-name="perthousand" unicode="‰" horiz-adv-x="1448" d="M422 523q0-88-51.5-137.5t-142.5-49.5-142.5 49.5-51.5 137.5q0 89 51.5 138.5t142.5 49.5 142.5-49.5 51.5-138.5zm-108 0q0 48-22.5 73.5t-63.5 25.5q-86 0-86-99 0-98 86-98 41 0 63.5 25t22.5 73zm662-347q0-88-51.5-137.5t-142.5-49.5-142 49.5-51 137.5q0 89 51 138.5t142 49.5 142.5-49.5 51.5-138.5zm-107 0q0 48-22.5 73.5t-64.5 25.5q-41 0-63-25.5t-22-73.5q0-98 85-98 87 0 87 98zm547 0q0-88-51.5-137.5t-143.5-49.5q-91 0-142 49.5t-51 137.5 51 138 142 50q92 0 143.5-50t51.5-138zm-108 0q0 48-22.5 73.5t-64.5 25.5q-41 0-63-25.5t-22-73.5q0-98 85-98 87 0 87 98zm-565 524l-363-700h-113l363 700h113z"/><glyph glyph-name="guilsinglleft" unicode="‹" horiz-adv-x="387" d="M29 315l305 212v-135l-185-121 185-120v-136l-305 213v87z"/><glyph glyph-name="guilsinglright" unicode="›" horiz-adv-x="387" d="M357 315v-87l-304-213v136l183 120-183 121v134z"/><glyph glyph-name="fraction" unicode="⁄" horiz-adv-x="197" d="M319 700l-329-700h-111l329 700h111z"/><glyph glyph-name="zerosuperior" unicode="⁰" horiz-adv-x="446" d="M223 812q92 0 140-57t48-160q0-104-48.5-160.5t-139.5-56.5q-92 0-140 56.5t-48 160.5q0 103 48.5 160t139.5 57zm0-354q84 0 84 137t-84 137-84-137q0-73 21-105t63-32z"/><glyph glyph-name="foursuperior" unicode="⁴" horiz-adv-x="448" d="M20 462v71l198 272h138v-258h66v-85h-66v-77h-104v77h-232zm107 85h125v177z"/><glyph glyph-name="fivesuperior" unicode="⁵" horiz-adv-x="405" d="M47 593l24 212h284v-85h-198l-5-67q28 9 62 9 76 0 117.5-40.5t41.5-98.5q0-61-44-103t-127-42q-84 0-176 55l46 74q56-41 116-41 35 0 57 15t22 41q0 24-20 41t-58 17q-41 0-85-23z"/><glyph glyph-name="sixsuperior" unicode="⁶" horiz-adv-x="420" d="M297 729q-52 0-92-25.5t-57-78.5q40 31 101 31 64 0 103.5-36.5t39.5-94.5q0-62-47-104.5t-126-42.5q-92 0-139 53t-47 132q0 108 73 178.5t190 70.5q18 0 35-2t25-4l8-1-23-80q-20 4-44 4zm-80-149q-55 0-80-34 1-43 23.5-64t55.5-21q36 0 54.5 18t18.5 42q0 25-19 42t-53 17z"/><glyph glyph-name="sevensuperior" unicode="⁷" horiz-adv-x="354" d="M338 726q-6-7-17-20.5t-38.5-53-48.5-78.5-38-91.5-17-97.5h-107q0 52 21 111.5t51.5 108.5 50 75 31.5 40h-204v85h316v-79z"/><glyph glyph-name="eightsuperior" unicode="⁸" horiz-adv-x="429" d="M29 499q0 75 96 115-68 40-68 94 0 47 42 75.5t116 28.5 116-28.5 42-75.5q0-56-69-94 96-42 96-115 0-56-49.5-88.5t-135.5-32.5q-87 0-136.5 32.5t-49.5 88.5zm266 8q0 38-80 68-81-30-81-68 0-22 23-36.5t58-14.5 57.5 14.5 22.5 36.5zm-137 191q0-29 57-51 57 22 57 51 0 15-16 27t-41 12q-26 0-41.5-12t-15.5-27z"/><glyph glyph-name="ninesuperior" unicode="⁹" horiz-adv-x="420" d="M122 461q115 0 150 104-42-31-102-31-63 0-102.5 36.5t-39.5 94.5q0 62 47 104.5t126 42.5q91 0 138.5-53.5t47.5-132.5q0-107-73-177.5t-191-70.5q-17 0-34 2t-25 4l-8 1 24 80q19-4 42-4zm80 149q55 0 81 33-1 44-24 65t-56 21q-35 0-53.5-18.5t-18.5-42.5q0-25 18.5-41.5t52.5-16.5z"/><glyph glyph-name="plussuperior" unicode="⁺" horiz-adv-x="382" d="M154 728h75v-106h125v-74h-125v-106h-75v106h-126v74h126v106z"/><glyph glyph-name="parenleftsuperior" unicode="⁽" horiz-adv-x="237" d="M47 451v286q0 26 .5 38.5t5 30.5 13 27 24.5 20.5 40.5 19 59.5 15.5l25-54q-45-15-55-27.5t-10-44.5v-336q0-32 10-45t55-27l-25-55q-35 8-59.5 15.5t-40.5 19-24.5 20.5-13 27-5 30.5-.5 39.5z"/><glyph glyph-name="parenrightsuperior" unicode="⁾" horiz-adv-x="237" d="M191 737v-286q0-39-2.5-56.5t-16-38.5-43-33.5-81.5-23.5l-26 55q45 14 55 27t10 45v336q0 32-10 44.5t-55 27.5l26 54q52-11 81.5-23.5t43-33.5 16-38.5 2.5-55.5z"/><glyph glyph-name="nsuperior" unicode="ⁿ" horiz-adv-x="414" d="M146 700v-36q64 43 127 43 99 0 99-101v-221h-100v198q0 47-39 47-45 0-87-36v-209h-100v315h100z"/><glyph glyph-name="zeroinferior" unicode="₀" horiz-adv-x="446" d="M223 277q92 0 140-57t48-160q0-104-48.5-160.5t-139.5-56.5q-92 0-140 56.5t-48 160.5q0 103 48.5 160t139.5 57zm0-354q84 0 84 137t-84 137-84-137q0-73 21-105t63-32z"/><glyph glyph-name="oneinferior" unicode="₁" horiz-adv-x="285" d="M228-150h-103v325l-76-38-42 67 123 66h98v-420z"/><glyph glyph-name="twoinferior" unicode="₂" horiz-adv-x="406" d="M369-65v-85h-341v44q0 57 36.5 97t101.5 79q8 5 22 13l21 12 17.5 11 16 11.5 11 11 8 12.5 2.5 12q0 17-15.5 28t-44.5 11q-48 0-118-39l-46 65q88 59 178 59 72 0 111.5-34t39.5-85q0-29-11.5-53t-38-45-42-30.5-50.5-28.5q-73-38-73-66h215z"/><glyph glyph-name="threeinferior" unicode="₃" horiz-adv-x="405" d="M19-102l46 70q71-39 131-39 33 0 53 12.5t20 34.5q0 53-121 53h-21v86h24q100 0 100 44 0 33-55 33-53 0-115-36l-42 64q73 57 174 57 70 0 105.5-29.5t35.5-73.5q0-64-72-92 40-12 65.5-41t25.5-67q0-55-39.5-93t-124.5-38q-95 0-190 55z"/><glyph glyph-name="fourinferior" unicode="₄" horiz-adv-x="448" d="M21-73v71l198 272h138v-258h66v-85h-66v-77h-104v77h-232zm107 85h125v177z"/><glyph glyph-name="fiveinferior" unicode="₅" horiz-adv-x="405" d="M47 58l24 212h284v-85h-198l-5-67q28 9 62 9 76 0 117.5-40.5t41.5-98.5q0-61-44-103t-127-42q-84 0-176 55l46 74q56-41 116-41 35 0 57 15t22 41q0 24-20 41t-58 17q-41 0-85-23z"/><glyph glyph-name="sixinferior" unicode="₆" horiz-adv-x="420" d="M297 194q-52 0-92-25.5t-57-78.5q40 31 101 31 64 0 103.5-36.5t39.5-94.5q0-62-47-104.5t-126-42.5q-92 0-139 53t-47 132q0 108 73 178.5t190 70.5q18 0 35-1.5t25-3.5l8-2-23-80q-20 4-44 4zm-80-149q-55 0-80-34 1-43 23.5-64t55.5-21q36 0 54.5 18t18.5 42q0 25-19 42t-53 17z"/><glyph glyph-name="seveninferior" unicode="₇" horiz-adv-x="354" d="M338 191q-6-7-17-20.5t-38.5-53-48.5-78.5-38-91.5-17-97.5h-107q0 52 21 111.5t51.5 108.5 50 75 31.5 40h-204v85h316v-79z"/><glyph glyph-name="eightinferior" unicode="₈" horiz-adv-x="429" d="M29-36q0 75 96 115-68 40-68 94 0 47 42 75.5t116 28.5 116-28.5 42-75.5q0-56-69-94 96-42 96-115 0-56-49.5-88.5t-135.5-32.5q-87 0-136.5 32.5t-49.5 88.5zm266 8q0 38-81 68-80-30-80-68 0-22 23-36.5t58-14.5 57.5 14.5 22.5 36.5zm-137 191q0-29 57-51 57 22 57 51 0 15-16 27t-41 12q-26 0-41.5-12t-15.5-27z"/><glyph glyph-name="nineinferior" unicode="₉" horiz-adv-x="419" d="M121-74q51 0 91.5 25.5t58.5 78.5q-42-31-102-31-63 0-102.5 36.5t-39.5 94.5q0 62 47 104.5t126 42.5q91 0 138.5-53.5t47.5-132.5q0-107-73-177.5t-191-70.5q-17 0-34 1.5t-25 3.5l-8 2 24 80q19-4 42-4zm80 149q55 0 81 33-1 44-24 65t-56 21q-36 0-54-18t-18-43 18.5-41.5 52.5-16.5z"/><glyph glyph-name="parenleftinferior" unicode="₍" horiz-adv-x="236" d="M47-84v286q0 26 .5 38.5t5 30.5 13 27 24.5 20.5 40.5 19 59.5 15.5l25-54q-45-15-55-27.5t-10-44.5v-336q0-32 10-45t55-27l-25-55q-35 8-59.5 15.5t-40.5 19-24.5 20.5-13 27-5 30.5-.5 39.5z"/><glyph glyph-name="parenrightinferior" unicode="₎" horiz-adv-x="236" d="M190 202v-286q0-39-2.5-56.5t-16-38.5-43-33.5-81.5-23.5l-26 55q45 14 55 27t10 45v336q0 32-10 44.5t-55 27.5l26 54q52-11 81.5-23.5t43-33.5 16-38.5 2.5-55.5z"/><glyph glyph-name="colonmonetary" unicode="₡" horiz-adv-x="568" d="M226 0h-65l23 100q-61 29-97.5 92.5t-36.5 158.5q0 133 69 203t170 70q11 0 16-1l18 77h65l-20-86 27-6 22 92h65l-26-113q26-10 72-32l-59-106q-3 1-41 19l-60-259q33 11 101 43l59-106q-114-54-190-65l-18-81h-65l18 77q-18 2-29 4zm-29 351q0-58 22-97l56 241q-37-13-57.5-51t-20.5-93zm76-145q14-5 28-6l67 291q-9 3-27 7z"/><glyph glyph-name="lira" unicode="₤" horiz-adv-x="582" d="M63 331v73h52q-41 72-41 132 0 81 56 128t155 47q52 0 106-15.5t82-30 69-38.5l-66-97q-102 57-164 57-43 0-65.5-20.5t-22.5-53.5q0-9 2-19t4.5-17.5 8.5-18.5 9.5-17 11.5-19 11-18h194v-73h-160q6-19 8-49h152v-72h-165q-22-57-62-86h293v-124h-479v101q3 1 8.5 4t21 13 29 21.5 28 30.5 22.5 40h-98v72h107q-2 17-14 49h-93z"/><glyph glyph-name="peseta" unicode="₧" horiz-adv-x="710" d="M57 443v60h29v197h288q261 0 280-197h27v-60h-27q-19-195-280-195h-138v-248h-150v443h-29zm179 133v-73h263q-18 73-132 73h-131zm131-205q114 0 132 72h-263v-72h131z"/><glyph glyph-name="uni20A9" unicode="₩" horiz-adv-x="1049" d="M650 0l-125 484-126-484h-148l-67 239h-137v86h113l-24 85h-90v86h66l-57 204h171l46-204h140l52 204h121l52-204h141l45 204h171l-57-204h65v-86h-89l-24-85h113v-86h-137l-66-239h-149zm9 410l53-210 47 210h-100zm-368 0l46-208 53 208h-99z"/><glyph glyph-name="Euro" unicode="€" horiz-adv-x="727" d="M40 382v77h69q23 125 97.5 188.5t182.5 63.5q75 0 145-26.5t152-74.5l-70-110q-135 77-210 77-102 0-138-118h230v-77h-243q-1-11-1-32 0-25 1-37h243v-78h-228q38-112 136-112 75 0 210 77l70-110q-82-48-152-74.5t-145-26.5q-107 0-181 62t-98 184h-70v78h61q-1 12-1 37 0 21 1 32h-61z"/><glyph glyph-name="uni2116" unicode="№" horiz-adv-x="1195" d="M522 0l-294 477v-477h-149v700h152l293-477v477h150v-700h-152zm631 484q0-100-54.5-153.5t-157.5-53.5q-102 0-157 53.5t-55 153.5q0 99 55 153t157 54 157-54 55-153zm-127 0q0 55-20 81.5t-65 26.5q-84 0-84-108 0-55 20-81.5t64-26.5q45 0 65 26.5t20 81.5zm-255-336v85h342v-85h-342z"/><glyph glyph-name="uni2117" unicode="℗" horiz-adv-x="802" d="M578 432q0-129-146-129h-90v-164h-50v421h140q146 0 146-128zm-50 0q0 86-95 86h-91v-172h91q95 0 95 86zm-483-82q0 157 95 259t262 102 261.5-102 94.5-259-94.5-259-261.5-102-262 102-95 259zm40 0q0-141 84-232t232-91q149 0 233.5 91t84.5 232-84.5 232-233.5 91q-148 0-232-91t-84-232z"/><glyph glyph-name="servicemark" unicode="℠" horiz-adv-x="638" d="M516 476v137l-57-100h-37l-58 102v-139h-59v224h62l73-128 74 128h62v-224h-60zm-318 132q75-22 75-67 0-30-28-49.5t-73-19.5q-63 0-125 33l26 39q52-24 99-24 41 0 41 18 0 8-11 12t-37 9.5-42 10.5q-70 21-70 65 0 30 25.5 49.5t69.5 19.5q51 0 114-28l-27-39q-49 19-85 19-37 0-37-17 0-8 9-12t35-9.5 41-9.5z"/><glyph glyph-name="trademark" unicode="™" horiz-adv-x="638" d="M514 476v139l-58-102h-36l-59 105v-142h-59v224h63l73-128 73 128h62v-224h-59zm-241 175h-79v-175h-60v175h-77v49h216v-49z"/><glyph glyph-name="Omega" unicode="Ω" horiz-adv-x="769" d="M384 711q164 0 249.5-95.5t85.5-244.5q0-94-37-159.5t-87-87.5h103v-124h-275v128q70 18 107.5 78.5t37.5 147.5q0 229-184 229-183 0-183-229 0-87 37.5-147t107.5-79v-128h-276v124h102q-49 22-86 87.5t-37 159.5q0 149 85.5 244.5t249.5 95.5z"/><glyph glyph-name="onethird" unicode="⅓" horiz-adv-x="895" d="M245 280h-103v325l-76-38-42 67 123 66h98v-420zm374 420l-329-700h-111l329 700h111zm-121-652l45 70q71-39 132-39 33 0 53 12.5t20 34.5q0 53-122 53h-19v86h23q99 0 99 44 0 33-53 33-54 0-116-36l-43 64q81 57 175 57 70 0 105.5-29.5t35.5-73.5q0-64-72-92 40-12 66-41.5t26-66.5q0-55-40.5-93t-125.5-38q-94 0-189 55z"/><glyph glyph-name="twothirds" unicode="⅔" horiz-adv-x="1016" d="M382 365v-85h-340v44q0 57 36.5 97t100.5 79q8 5 22 13l21 12 17.5 11 16 11.5 11 11 8 12.5 2.5 12q0 17-15.5 28t-44.5 11q-50 0-117-39l-46 65q86 59 177 59 73 0 112-34t39-85q0-29-11.5-53t-38-45-42-30.5-50.5-28.5q-73-38-73-66h215zm364 335l-330-700h-110l329 700h111zm-122-652l46 70q71-39 131-39 34 0 54 12.5t20 34.5q0 53-122 53h-19v86h23q99 0 99 44 0 33-53 33-56 0-116-36l-43 64q81 57 174 57 70 0 105.5-29.5t35.5-73.5q0-65-72-92 41-12 67-41.5t26-66.5q0-54-40.5-92.5t-125.5-38.5q-91 0-190 55z"/><glyph glyph-name="oneeighth" unicode="⅛" horiz-adv-x="901" d="M491 114q0 75 96 115-68 40-68 94 0 47 42 75.5t116 28.5 116-28.5 42-75.5q0-54-69-94 96-41 96-115 0-56-49.5-88.5t-135.5-32.5q-87 0-136.5 32.5t-49.5 88.5zm128 586l-329-700h-111l329 700h111zm-374-420h-103v325l-76-38-42 67 123 66h98v-420zm512-158q0 38-81 68-80-30-80-68 0-22 23-36.5t58-14.5 57.5 14.5 22.5 36.5zm-137 191q0-29 57-51 57 22 57 51 0 15-16 27t-41 12q-26 0-41.5-12t-15.5-27z"/><glyph glyph-name="threeeighths" unicode="⅜" horiz-adv-x="996" d="M590 114q0 75 96 115-69 39-69 94 0 47 42 75.5t116 28.5 116-28.5 42-75.5q0-54-68-94 96-41 96-115 0-56-49.5-88.5t-136.5-32.5q-86 0-135.5 32.5t-49.5 88.5zm-557 214l46 70q71-39 132-39 33 0 52.5 12.5t19.5 34.5q0 53-121 53h-20v86h23q100 0 100 44 0 33-54 33-51 0-116-36l-41 64q73 57 173 57 70 0 106-29.5t36-73.5q0-64-72-92 40-11 65.5-40.5t25.5-67.5q0-55-40-93t-125-38q-91 0-190 55zm684 372l-329-700h-111l329 700h111zm139-578q0 38-81 68-81-30-81-68 0-22 23-36.5t58-14.5q36 0 58.5 14t22.5 37zm-138 191q0-29 57-51 57 22 57 51 0 15-15.5 27t-41.5 12-41.5-12-15.5-27z"/><glyph glyph-name="fiveeighths" unicode="⅝" horiz-adv-x="980" d="M573 114q0 75 96 115-68 40-68 94 0 47 42 75.5t116 28.5 116-28.5 42-75.5q0-56-69-94 96-42 96-115 0-56-49-88.5t-136-32.5-136.5 32.5-49.5 88.5zm-516 374l24 212h284v-85h-198l-5-67q29 9 62 9 76 0 117.5-40.5t41.5-98.5q0-61-44-103t-127-42q-84 0-176 55l46 74q56-41 116-41 35 0 57 15t22 41q0 24-20 41t-58 17q-41 0-85-23zm645 212l-330-700h-110l329 700h111zm138-578q0 38-82 68-79-30-79-68 0-22 22.5-36.5t57.5-14.5 58 14.5 23 36.5zm-138 191q0-29 57-51 57 22 57 51 0 15-15.5 27t-41.5 12q-25 0-41-12t-16-27z"/><glyph glyph-name="seveneighths" unicode="⅞" horiz-adv-x="888" d="M482 114q0 75 96 115-69 39-69 94 0 47 42 75.5t116 28.5 116-28.5 42-75.5q0-54-68-94 96-41 96-115 0-56-49.5-88.5t-136.5-32.5q-86 0-135.5 32.5t-49.5 88.5zm128 586l-329-700h-111l329 700h111zm-264-79q-6-7-17-20.5t-38-53-48-78.5-38-91.5-17-97.5h-107q0 52 21 111.5t51.5 108.5 50 75 31.5 40h-204v85h315v-79zm402-499q0 38-81 68-80-30-80-68 0-22 22.5-36.5t57.5-14.5q36 0 58.5 14t22.5 37zm-138 191q0-29 57-51 57 22 57 51 0 15-15.5 27t-41.5 12q-25 0-41-12t-16-27z"/><glyph glyph-name="partialdiff" unicode="∂" horiz-adv-x="642" d="M444 407q-21 77-87 128t-166 51q-21 0-41.5-2t-30.5-4l-10-2-18 111q40 11 104 11 186 0 292.5-116.5t106.5-293.5q0-148-76-224.5t-207-76.5q-127 0-199.5 66t-72.5 178q0 109 67 176t170 67q34 0 63.5-7t48-17 32-20.5 18.5-17.5zm5-175q0 60-31.5 96.5t-98.5 36.5q-66 0-98-37.5t-32-95.5 32-95 98-37 98 36.5 32 95.5z"/><glyph glyph-name="Delta" unicode="∆" horiz-adv-x="737" d="M714 0h-692l266 700h158zm-178 124l-168 428-170-428h338z"/><glyph glyph-name="product" unicode="∏" horiz-adv-x="727" d="M697 700v-124h-95v-576h-150v576h-178v-576h-150v576h-94v124h667z"/><glyph glyph-name="summation" unicode="∑" horiz-adv-x="596" d="M40 700h506v-124h-288l223-226-223-226h288v-124h-506v71l267 279-267 280v70z"/><glyph glyph-name="minus" unicode="−" d="M61 279v109h514v-109h-514z"/><glyph glyph-name="radical" unicode="√" horiz-adv-x="636" d="M639 700l-294-700h-160l-176 340h154l98-198 226 558h152z"/><glyph glyph-name="infinity" unicode="∞" horiz-adv-x="918" d="M235 433q63 0 113-28.5t111-84.5q60 56 109.5 84.5t113.5 28.5q84 0 135-49t51-126-51-126-136-49q-60 0-108.5 27.5t-113.5 86.5q-64-58-113.5-86t-110.5-28q-84 0-135 49.5t-51 125.5 51 125.5 135 49.5zm433-96q-34 0-64-18t-78-62q44-41 75-59.5t68-18.5q40 0 65.5 22.5t25.5 56.5-25.5 56.5-66.5 22.5zm-420-158q36 0 67 19t77 60q-49 43-79.5 61t-64.5 18q-41 0-65.5-22.5t-24.5-56.5 25-56.5 65-22.5z"/><glyph glyph-name="integral" unicode="∫" horiz-adv-x="396" d="M123 90v533q0 122 54.5 169t192.5 47h16v-83h-21q-27 0-45-9.5t-27-21-14-35.5-5.5-39-.5-45v-533q0-123-54.5-169.5t-192.5-46.5h-16v83h21q27 0 45 9.5t27 21 14 35.5 5.5 39 .5 45z"/><glyph glyph-name="approxequal" unicode="≈" d="M135 362l-73 29q57 128 154 128 46 0 111-32t99-32q23 0 41 11.5t37 45.5l73-29q-57-128-154-128-43 0-110.5 32t-100.5 32q-22 0-39.5-11.5t-37.5-45.5zm0-188l-73 29q57 129 154 129 46 0 111-32.5t99-32.5q23 0 41 11.5t37 45.5l73-28q-56-129-154-129-43 0-110.5 32.5t-100.5 32.5q-43 0-77-58z"/><glyph glyph-name="notequal" unicode="≠" d="M61 375v109h265l61 143 92-35-46-108h142v-109h-188l-35-81h223v-109h-269l-60-143-91 35 45 108h-139v109h185l34 81h-219z"/><glyph glyph-name="lessequal" unicode="≤" d="M570 454l-331-107 331-107v-121l-514 186v86l514 186v-123zm-514-454v94h514v-94h-514z"/><glyph glyph-name="greaterequal" unicode="≥" d="M581 391v-86l-514-186v121l330 107-330 107v123zm0-297v-94h-514v94h514z"/><glyph glyph-name="uni2318" unicode="⌘" horiz-adv-x="777" d="M575 40q-61 0-104.5 40.5t-43.5 98.5v57h-79v-57q0-58-43.5-98.5t-104.5-40.5q-62 0-105.5 40.5t-43.5 98.5 43.5 98.5 105.5 40.5h64v67h-64q-62 0-105.5 41t-43.5 98q0 58 43.5 98.5t105.5 40.5q61 0 104.5-40.5t43.5-98.5v-57h79v57q0 58 43.5 98.5t104.5 40.5q62 0 105.5-40.5t43.5-98.5q0-57-43.5-98t-105.5-41h-64v-67h64q62 0 105.5-40.5t43.5-98.5-43.5-98.5-105.5-40.5zm0 196h-64v-57q0-24 18.5-40.5t45.5-16.5 46 16.5 19 40.5q0 23-19.5 40t-45.5 17zm-311 0h-64q-27 0-46-16.5t-19-40.5 18.5-40.5 46.5-16.5q26 0 45 16.5t19 40.5v57zm84 149v-67h79v67h-79zm163 139v-57h64q27 0 46 16.5t19 40.5q0 23-19.5 40t-45.5 17q-27 0-45.5-17t-18.5-40zm-311-57h64v57q0 23-19 40t-45 17q-27 0-46-16.5t-19-40.5 18.5-40.5 46.5-16.5z"/><glyph glyph-name="lozenge" unicode="◊" horiz-adv-x="583" d="M366 0h-150l-187 350 187 350h150l189-350zm50 350l-125 230-124-230 124-230z"/><glyph glyph-name="commaaccent" unicode="" horiz-adv-x="125" d="M6-177v120h110l8-132-92-107-30 36 53 83h-49z"/><glyph glyph-name="centinferior" unicode="" horiz-adv-x="365" d="M245-150h-72v47q-61 3-101.5 44.5t-40.5 118.5q0 78 40.5 119.5t101.5 43.5v47h72v-54q42-10 92-33l-41-72q-35 15-51 20v-142q16 5 51 20l41-73q-58-24-92-32v-54zm-113 210q0-59 41-75v150q-41-16-41-75z"/><glyph glyph-name="centsuperior" unicode="" horiz-adv-x="365" d="M246 385h-72v46q-61 3-101.5 45t-40.5 119q0 78 40.5 119.5t101.5 43.5v47h72v-54q42-10 92-33l-41-72q-35 15-51 20v-143q8 2 51 21l41-73q-58-24-92-32v-54zm-113 210q0-59 41-76v151q-41-16-41-75z"/><glyph glyph-name="commainferior" unicode="" horiz-adv-x="195" d="M45-150v108h101l8-121-83-88-27 33 47 68h-46z"/><glyph glyph-name="commasuperior" unicode="" horiz-adv-x="196" d="M46 385v108h101l8-121-83-88-27 33 47 68h-46z"/><glyph glyph-name="dollarinferior" unicode="" horiz-adv-x="416" d="M246-210h-72v58q-82 12-152 54l46 73q50-27 106-40v85q-20 6-30 10-49 17-80.5 45t-31.5 76q0 51 37.5 85.5t104.5 39.5v55h72v-58q73-12 133-41l-46-74q-50 20-87 28v-83l29-9q24-9 40.5-16.5t36.5-22 30.5-36 10.5-49.5q0-52-39.5-87t-107.5-39v-54zm38 173q0 23-38 36v-69q38 7 38 33zm-144 195q0-21 34-34v65q-34-7-34-31z"/><glyph glyph-name="dollarsuperior" unicode="" horiz-adv-x="416" d="M246 325h-72v57q-87 14-152 55l46 73q48-28 106-41v86q-20 6-30 10-49 17-80.5 45t-31.5 76q0 51 37.5 85.5t104.5 39.5v55h72v-58q73-12 133-41l-46-74q-50 20-87 28v-83l29-9q24-9 40.5-16.5t36.5-22 30.5-36 10.5-49.5q0-53-39.5-88t-107.5-39v-53zm38 173q0 21-38 36v-69q38 7 38 33zm-144 195q0-21 34-34v65q-34-7-34-31z"/><glyph glyph-name="periodinferior" unicode="" horiz-adv-x="192" d="M45-150v108h101v-108h-101z"/><glyph glyph-name="periodsuperior" unicode="" horiz-adv-x="192" d="M45 385v108h101v-108h-101z"/><glyph glyph-name="asuperior" unicode="" horiz-adv-x="395" d="M253 385v35q-50-42-115-42-51 0-83 29t-32 75q0 48 34 75t89 27q26 0 107-14v19q0 24-12.5 33.5t-43.5 9.5q-45 0-121-22l-31 67q99 30 170 30 72 0 105-28.5t33-94.5v-199h-100zm-82 69q43 0 82 29v38q-60 10-73 10-56 0-56-40 0-37 47-37z"/><glyph glyph-name="bsuperior" unicode="" horiz-adv-x="411" d="M46 385v437h100v-155q53 40 109 40 59 0 94-42.5t35-122.5q0-79-35-121.5t-94-42.5q-55 0-109 39v-32h-100zm179 243q-45 0-79-37v-98q35-36 79-36 59 0 59 86 0 85-59 85z"/><glyph glyph-name="dsuperior" unicode="" horiz-adv-x="411" d="M365 385h-100v32q-54-39-109-39-59 0-94 42.5t-35 121.5q0 80 35 122.5t94 42.5q54 0 109-40v155h100v-437zm-178 72q42 0 78 36v98q-36 37-78 37-59 0-59-85 0-86 59-86z"/><glyph glyph-name="esuperior" unicode="" horiz-adv-x="382" d="M347 522h-219q8-71 68-71 44 0 122 37l36-61q-94-49-168-49-71 0-115.5 41t-44.5 123q0 77 44.5 121t123.5 44q77 0 117.5-38.5t40.5-101.5zm-154 115q-55 0-64-64h126q-2 64-62 64z"/><glyph glyph-name="isuperior" unicode="" horiz-adv-x="191" d="M146 385h-100v315h100v-315zm-102 355v81h104v-81h-104z"/><glyph glyph-name="lsuperior" unicode="" horiz-adv-x="191" d="M145 385h-99v437h99v-437z"/><glyph glyph-name="msuperior" unicode="" horiz-adv-x="609" d="M146 700v-39q53 46 112 46 70 0 91-52 57 52 119 52 99 0 99-101v-221h-100v198q0 23-7.5 35t-29.5 12q-37 0-73-36v-209h-100v198q0 47-37 47t-74-37v-208h-100v315h100z"/><glyph glyph-name="osuperior" unicode="" horiz-adv-x="401" d="M374 542q0-78-45-121t-129-43-129 43.5-45 121.5 45 121 129 43 129-43 45-122zm-100 0q0 89-74 89t-74-88q0-89 74-89t74 88z"/><glyph glyph-name="rsuperior" unicode="" horiz-adv-x="283" d="M146 700v-66q3 9 11 20t21.5 24 37.5 20.5 53 5.5v-93q-31 0-55-10.5t-36.5-25.5-20-29.5-9.5-25.5l-2-10v-125h-100v315h100z"/><glyph glyph-name="ssuperior" unicode="" horiz-adv-x="354" d="M214 579q117-28 117-104 0-45-36-71t-99-26q-92 0-174 42l40 70q74-36 131-36 38 0 38 18 0 4-2.5 7.5t-7.5 6-10.5 5-14 5-15.5 4-18.5 4-18.5 4.5q-116 28-116 102 0 43 34.5 70t97.5 27q73 0 157-35l-40-65q-68 25-112 25-38 0-38-19 0-6 4.5-10.5t14.5-7.5 19-5 24.5-5.5 24.5-5.5z"/><glyph glyph-name="tsuperior" unicode="" horiz-adv-x="287" d="M17 628v72h45v79l101 12v-91h88v-72h-88v-135q0-29 26-29 8 0 50 14l34-73q-57-27-110-27-101 0-101 115v135h-45z"/><glyph glyph-name="apple" unicode="" horiz-adv-x="857" d="M745 327q-9-4-10-11t7-12l28-20q8-5 7.5-10.5t-10.5-7.5l-34-6q-10-1-12-8t5-14l24-24q6-7 4-12t-12-5l-35 2q-10 0-13-6t3-14l18-30q5-8 2-12.5t-13-2.5l-34 9q-9 3-13.5-2.5t-1.5-14.5l11-33q4-9 0-12.5t-13 .5l-31 15q-8 5-14 .5t-5-14.5l5-33q1-10-3-12.5t-12 3.5l-28 21q-8 6-14 3t-7-13l-2-34q-1-10-6-11.5t-11 5.5l-23 27q-16 16-22-5l-10-33q-2-10-8-10t-10 8l-17 30q-10 20-23 0l-15-30q-4-8-10-8t-8 10l-10 33q-6 21-22 5l-23-27q-14-15-17 6l-2 34q-1 10-7.5 13t-14.5-3l-26-21q-8-6-13-3.5t-3 12.5l5 33q1 10-5 14.5t-15-.5l-30-15q-9-4-13-.5t0 12.5l11 33q4 9-1 14.5t-14 2.5l-34-9q-10-2-13 2.5t2 12.5l19 30q5 8 2 14t-13 6l-35-2q-10 0-12 5t4 12l25 24q6 7 4 14t-12 8l-33 6q-7 1-10 4t-1 7 7 7l28 20q1 1 2.5 2t2.5 2l1 2q9 8 18-6l16-31q5-9 10-8t8 10l9 34q2 6 5.5 8.5t8 1.5 8.5-6l23-26q7-7 11.5-5.5t5.5 11.5l2 34q2 10 7.5 12.5t13.5-3.5l28-21q8-6 12.5-3.5t2.5 12.5l-4 34q-1 10 4.5 14t13.5-1l31-14q9-4 13-.5t1 12.5l-11 33q-4 9 .5 14t13.5 2l7-1q20-38 34.5-99t14.5-106q-14-18-46-18h-4q0 22-16 35 9-10 9-27v-7q-16 1-16 19 0 21-13.5 35t-37.5 14q-20 0-33.5-15.5t-13.5-38.5q0-29 24.5-47t67.5-18q68 0 134.5 53t105 127 38.5 139q0 29-18 48t-46 19q-23 0-41.5-16.5t-18.5-41.5q0-52 58-58-15-60-29-85-13 102-58 150 44-58 52-161l-14-20q0 76-25 140t-64 84q-6 11 12 15l34 6q6 1 8.5 3.5t1 6.5-6.5 7l-29 19q-17 15 3 23l31 14q7 2 9.5 5.5t0 7-9.5 5.5l-31 13q-11 5-10 14 6 3 7 8l17 30q5 9 10.5 8.5t7.5-9.5l10-33q7-23 22-5l23 26q6 8 11 6.5t6-11.5l2-35q1-10 7.5-12.5t13.5 3.5l28 21q7 6 11.5 3t3.5-13l-5-34q-1-10 5-14t14 1l31 16q9 4 13 0t0-14l-11-31q-3-10 1.5-15t13.5-2l34 7q10 3 13-1t-2-13l-18-29q-6-8-3-14.5t13-5.5l35 2q10 0 12-5t-4-12l-24-26q-7-7-5-13.5t12-7.5l34-6q20-5 3-19l-28-19q-8-5-7.5-11.5t10.5-10.5l31-13q9-4 9-9t-9-9zm-381-203q69 0 135 52.5t104.5 127 38.5 139.5q0 31-20 49 12-18 12-41 0-103-85-210-92-113-196-113-29 0-49 9 20-13 60-13z"/><glyph glyph-name="s_t" unicode="ﬆ" horiz-adv-x="951" d="M555 419v106h72v22q0 58-23 87.5t-76 29.5q-46 0-74.5-27.5t-28.5-74.5q0-38 12-64 9-3 46-19l-56-94q-103 42-175 42-32 0-51-12t-19-31q0-9 4-16t12.5-12.5 17-10 23.5-8.5 25-6.5l28-7 27-6.5q85-21 136-60.5t51-110.5q0-73-56.5-115t-154.5-42q-71 0-145 20.5t-123 47.5l57 101q45-22 105-40.5t100-18.5q33 0 52.5 12t19.5 31q0 9-4.5 16.5t-14 13.5-19.5 10.5-25.5 9.5-26 7.5-28 7-25.5 6.5q-37 10-64.5 21t-56 30-44 48.5-15.5 67.5q0 71 54 113.5t150 42.5q60 0 121-16-7 21-7 50 0 71 52 115t142 44q106 0 163-51t57-142v-11h143v-106h-143v-255q0-30 12-40t32-10q28 0 84 24l50-107q-92-42-170-42-151 0-151 177v253h-72z"/><glyph glyph-name="eight.numr" horiz-adv-x="431" d="M30 394q0 75 96 115-68 40-68 94 0 47 42 75.5t116 28.5 116-28.5 42-75.5q0-56-69-94 96-42 96-115 0-56-49.5-88.5t-135.5-32.5q-87 0-136.5 32.5t-49.5 88.5zm266 8q0 38-81 68-80-30-80-68 0-22 23-36.5t58-14.5 57.5 14.5 22.5 36.5zm-137 191q0-29 57-51 57 22 57 51 0 15-16 27t-41 12q-26 0-41.5-12t-15.5-27z"/><glyph glyph-name="Qsuperior" horiz-adv-x="500" d="M251 378q-110 0-163 60t-53 157 53 157 163 60 163-60 53-157q0-146-107-196l67-49-68-70zm0 88q110 0 110 129t-110 129-110-129 110-129z"/><glyph glyph-name="f_f.calt" horiz-adv-x="762" d="M22 419v106h72v27q0 91 37.5 134t114.5 43q81 0 177-41l-38-103q-76 20-103 20-20 0-32.5-10t-12.5-39v-31h118v-106h-118v-419h-143v419h-72zm379 0v106h72v27q0 177 150 177 68 0 142-33l-34-105q-48 14-70 14-20 0-32.5-10t-12.5-39v-31h131v-106h-131v-419h-143v419h-72z"/><glyph glyph-name="f_f.ss01" horiz-adv-x="738" d="M22 419v106h72v17q0 177 168 177 97 0 221-38 36 48 118 48 81 0 177-41l-48-103q-68 20-93 20-20 0-32-10t-12-39v-31h130v-106h-130v-419h-144v419h-212v-419h-143v419h-72zm215 127v-21h212v27q0 15 1 23-128 20-156 20-57 0-57-49z"/><glyph glyph-name="f_f_b.ss01" horiz-adv-x="1367" d="M22 419v106h72v17q0 177 168 177 99 0 224-39 43 49 131 49 82 0 188-29v29h144v-262q84 69 174 69 94 0 150-70t56-204q0-133-56-203t-150-70q-91 0-174 68v-57h-144v584q-118 21-156 21-56 0-56-49v-31h130v-106h-130v-419h-144v419h-212v-419h-143v419h-72zm1059 1q-73 0-132-67v-182q58-66 132-66 102 0 102 158 0 157-102 157zm-632 132q0 15 1 23-128 20-156 20-57 0-57-49v-21h212v27z"/><glyph glyph-name="f_f_h.ss01" horiz-adv-x="1367" d="M22 419v106h72v17q0 177 168 177 99 0 224-39 43 49 131 49 82 0 188-29v29h144v-266q106 73 203 73 157 0 157-165v-371h-144v338q0 86-69 86-36 0-77-20.5t-70-46.5v-357h-144v584q-118 21-156 21-56 0-56-49v-31h130v-106h-130v-419h-144v419h-212v-419h-143v419h-72zm427 133q0 15 1 23-128 20-156 20-57 0-57-49v-21h212v27z"/><glyph glyph-name="f_f_i.ss01" horiz-adv-x="979" d="M22 419v106h72v17q0 177 168 177 100 0 225-39 45 49 136 49 109 0 240-41l-48-104q-126 21-159 21-63 0-63-49v-31h325v-525h-144v419h-181v-419h-144v419h-212v-419h-143v419h-72zm427 133q0 15 1 23-128 20-156 20-57 0-57-49v-21h212v27z"/><glyph glyph-name="f_f_j.ss01" horiz-adv-x="979" d="M23 419v106h72v17q0 177 168 177 100 0 225-39 45 49 136 49 109 0 240-41l-48-104q-126 21-159 21-63 0-63-49v-31h325v-549l-1.5-33-4.5-31-8-26-13-24-19.5-20-27-19.5-36-16.5-46.5-16.5-58-14.5-47 104q46 15 68 24.5t34 25.5 13.5 28.5 1.5 45.5v416h-181v-419h-144v419h-212v-419h-143v419h-72zm427 133q0 15 1 23-128 20-156 20-57 0-57-49v-21h212v27z"/><glyph glyph-name="f_f_k.ss01" horiz-adv-x="1313" d="M22 419v106h72v17q0 177 168 177 99 0 224-39 43 49 131 49 82 0 188-29v29h144v-420l170 216h164l-177-209 208-316h-153l-142 214-70-83v-131h-144v584q-118 21-156 21-56 0-56-49v-31h130v-106h-130v-419h-144v419h-212v-419h-143v419h-72zm427 133q0 15 1 23-128 20-156 20-57 0-57-49v-21h212v27z"/><glyph glyph-name="f.calt" horiz-adv-x="383" d="M22 419v106h72v27q0 177 150 177 68 0 142-33l-34-105q-45 14-70 14-20 0-32.5-10t-12.5-39v-31h131v-106h-131v-419h-143v419h-72z"/><glyph glyph-name="f_f_l.ss01" horiz-adv-x="1017" d="M22 419v106h72v17q0 177 168 177 99 0 224-39 43 49 131 49 82 0 188-29v29h144v-729h-144v584q-118 21-156 21-56 0-56-49v-31h130v-106h-130v-419h-144v419h-212v-419h-143v419h-72zm427 133q0 15 1 23-128 20-156 20-57 0-57-49v-21h212v27z"/><glyph glyph-name="f_f_t.ss01" horiz-adv-x="1124" d="M22 419v106h72v17q0 177 168 177 93 0 220-38 36 48 117 48 82 0 178-41l-49-103q-64 20-93 20-20 0-32-10t-12-39v-31h209v132l143 20v-152h143v-106h-143v-255q0-30 12.5-40t32.5-10q27 0 83 24l50-107q-92-42-169-42-152 0-152 177v253h-209v-419h-143v419h-211v-419h-143v419h-72zm426 133q0 15 1 23-110 20-155 20-57 0-57-49v-21h211v27z"/><glyph glyph-name="f_h.ss01" horiz-adv-x="1012" d="M22 419v106h72v27q0 177 168 177 82 0 188-29v29h144v-266q106 73 203 73 157 0 157-165v-371h-144v338q0 86-69 86-37 0-77.5-20.5t-69.5-46.5v-357h-144v584q-118 21-156 21-57 0-57-49v-31h131v-106h-131v-419h-143v419h-72z"/><glyph glyph-name="exclamsuperior" horiz-adv-x="211" d="M55 385v98h102v-98h-102zm111 420l-31-281h-60l-30 281h121z"/><glyph glyph-name="f_i.ss01" horiz-adv-x="624" d="M22 419v106h72v27q0 177 174 177 109 0 240-41l-48-104q-126 21-159 21-64 0-64-49v-31h326v-525h-144v419h-182v-419h-143v419h-72z"/><glyph glyph-name="f_j.ss01" horiz-adv-x="624" d="M23 419v106h72v27q0 177 174 177 109 0 240-41l-48-104q-126 21-159 21-64 0-64-49v-31h326v-549l-1.5-33-4.5-31-8-26-13-24-19.5-20-27-19.5-36-16.5-46.5-16.5-58-14.5-47 104q46 15 68 24.5t34 25.5 13.5 28.5 1.5 45.5v416h-182v-419h-143v419h-72z"/><glyph glyph-name="f_k.ss01" horiz-adv-x="957" d="M22 419v106h72v27q0 177 168 177 82 0 188-29v29h144v-420l170 216h164l-178-209 209-316h-153l-142 215-70-83v-132h-144v584q-118 21-156 21-57 0-57-49v-31h131v-106h-131v-419h-143v419h-72z"/><glyph glyph-name="exclaminferior" horiz-adv-x="209" d="M54-150v98h102v-98h-102zm111 420l-31-281h-60l-30 281h121z"/><glyph glyph-name="f_l.ss01" horiz-adv-x="662" d="M22 419v106h72v27q0 177 168 177 82 0 188-29v29h144v-729h-144v584q-118 21-156 21-57 0-57-49v-31h131v-106h-131v-419h-143v419h-72z"/><glyph glyph-name="f_t.ss01" horiz-adv-x="771" d="M22 419v106h72v27q0 91 37.5 134t114.5 43q81 0 177-41l-48-103q-68 20-93 20-20 0-32.5-10t-12.5-39v-31h209v132l143 20v-152h143v-106h-143v-255q0-50 44-50 28 0 84 24l51-107q-92-42-170-42-152 0-152 177v253h-209v-419h-143v419h-72z"/><glyph glyph-name="finferior" horiz-adv-x="262" d="M22 93v72h45v8q0 114 100 114 56 0 116-26l-33-70q-40 12-57 12-26 0-26-29v-9h81v-72h-81v-243h-100v243h-45z"/><glyph glyph-name="exclamdownsuperior" horiz-adv-x="210" d="M54 707v98h102v-98h-102zm80-41l31-281h-121l30 281h60z"/><glyph glyph-name="five.dnom" horiz-adv-x="406" d="M47 208l24 212h284v-85h-198l-5-67q28 9 63 9 76 0 117-40t41-99q0-61-44-103t-126-42q-85 0-177 55l46 74q59-41 117-41 34 0 56.5 15t22.5 41q0 24-20.5 41t-58.5 17q-41 0-85-23z"/><glyph glyph-name="five.numr" horiz-adv-x="406" d="M47 488l24 212h284v-85h-198l-5-67q28 9 63 9 76 0 117-40t41-99q0-61-44-103t-126-42q-85 0-177 55l46 74q59-41 117-41 34 0 56.5 15t22.5 41q0 24-20.5 41t-58.5 17q-41 0-85-23z"/><glyph glyph-name="five.onum" horiz-adv-x="598" d="M58 222l38 352h437v-124h-314l-9-134q50 16 103 16 118 0 183-67t65-164q0-99-69.5-168.5t-197.5-69.5q-137 0-269 86l66 108q99-66 183-66 58 0 96.5 30t38.5 80q0 46-34 78t-97 32q-64 0-138-39z"/><glyph glyph-name="five.tnum" horiz-adv-x="675" d="M96 348l38 352h438v-124h-314l-9-134q50 16 103 16 117 0 182-67t65-164q0-100-69-169t-197-69q-137 0-269 86l65 108q99-66 184-66 57 0 96 30t39 80q0 46-34.5 78t-97.5 32-137-39z"/><glyph glyph-name="exclamdowninferior" horiz-adv-x="209" d="M54 172v98h102v-98h-102zm80-41l31-281h-121l30 281h60z"/><glyph glyph-name="fiveeighths.onum" horiz-adv-x="849" d="M497 93q0 60 84 95-60 31-60 77 0 38 36.5 61.5t99.5 23.5q62 0 98-23.5t36-61.5q0-46-60-77 84-35 84-95 0-45-42.5-72t-115.5-27q-74 0-117 27t-43 72zm-443 307l22 174h240v-68h-172l-5-58q27 8 56 8 66 0 101.5-33t35.5-81q0-49-38-83.5t-109-34.5q-73 0-149 44l37 59q48-33 102-33 31 0 51.5 13t20.5 35q0 21-18.5 35t-53.5 14q-36 0-74-19zm551 174l-287-574h-89l288 574h88zm125-474q0 19-19.5 32.5t-54.5 25.5q-35-13-54.5-26t-19.5-32 21.5-31.5 53.5-12.5q31 0 52 12.5t21 31.5zm-128 155q0-24 54-42 54 17 54 42 0 14-15 25t-38 11q-25 0-40-11.5t-15-24.5z"/><glyph glyph-name="exclamdown.sc" horiz-adv-x="270" d="M66 440v134h137v-134h-137zm108-56l41-384h-161l41 384h79z"/><glyph glyph-name="fivesixths" horiz-adv-x="953" d="M819 344q-51 0-91.5-25.5t-57.5-78.5q42 31 102 31 63 0 102.5-36.5t39.5-94.5q0-62-47-104.5t-126-42.5q-92 0-139 53t-47 132q0 108 73 178.5t190 70.5q18 0 35-1.5t25-3.5l8-2-23-80q-20 4-44 4zm-762 144l24 212h284v-85h-198l-5-67q29 9 62 9 76 0 117.5-40.5t41.5-98.5q0-61-44-103t-127-42q-84 0-176 55l46 74q56-41 116-41 35 0 57 15t22 41q0 24-20 41t-58 17q-41 0-85-23zm645 212l-330-700h-110l329 700h111zm37-505q-55 0-80-34 1-43 24-64t56-21q35 0 54 18t19 42q0 25-19.5 42t-53.5 17z"/><glyph glyph-name="fivesixths.onum" horiz-adv-x="825" d="M707 284q-46 0-82.5-22t-51.5-66q38 26 91 26 56 0 90.5-30t34.5-77q0-51-40.5-86t-108.5-35q-77 0-118 43.5t-41 108.5q0 89 62.5 146.5t162.5 57.5q16 0 30.5-1.5t21.5-2.5l6-2-18-63q-18 3-39 3zm-653 116l22 174h240v-68h-172l-5-58q27 8 56 8 66 0 101.5-33t35.5-81q0-49-38-83.5t-109-34.5q-73 0-149 44l37 59q48-33 102-33 31 0 51.5 13t20.5 35q0 21-18.5 35t-53.5 14q-36 0-74-19zm551 174l-287-574h-89l288 574h88zm35-412q-51 0-75-31 1-35 22-52.5t52-17.5q33 0 50 15t17 36-17.5 35.5-48.5 14.5z"/><glyph glyph-name="exclam.sc" horiz-adv-x="269" d="M66 0v134h137v-134h-137zm149 574l-41-384h-79l-41 384h161z"/><glyph glyph-name="einferior" horiz-adv-x="381" d="M347-13h-219q8-71 68-71 44 0 122 37l36-61q-94-49-168-49-71 0-115.5 41t-44.5 123q0 77 44.5 121t123.5 44q77 0 117.5-38.5t40.5-101.5zm-154 115q-55 0-64-64h126q-2 64-62 64z"/><glyph glyph-name="eight.tnum" horiz-adv-x="675" d="M49 188q0 123 156 193-112 62-112 158 0 77 65 124.5t179 47.5 179.5-47.5 65.5-124.5q0-94-113-158 156-70 156-193 0-92-77-145.5t-211-53.5-211 53.5-77 145.5zm425 11q0 42-36.5 71t-100.5 54q-63-25-99.5-54t-36.5-71q0-43 38.5-69.5t97.5-26.5q60 0 98.5 26.5t38.5 69.5zm-235 326q0-57 98-95 99 38 99 95 0 30-27.5 53t-71.5 23-71-23-27-53z"/><glyph glyph-name="four.dnom" horiz-adv-x="447" d="M20 77v71l198 272h138v-258h67v-85h-67v-77h-103v77h-233zm108 85h125v177z"/><glyph glyph-name="four.numr" horiz-adv-x="447" d="M20 357v71l198 272h138v-258h67v-85h-67v-77h-103v77h-233zm108 85h125v177z"/><glyph glyph-name="four.onum" horiz-adv-x="670" d="M21 9v105l320 460h197v-441h106v-124h-106v-135h-149v135h-368zm153 124h215v318z"/><glyph glyph-name="four.tnum" horiz-adv-x="675" d="M30 135v105l319 460h189v-441h100v-124h-100v-135h-146v135h-362zm146 124h216v319z"/><glyph glyph-name="fourfifths" horiz-adv-x="1039" d="M29 357v71l198 272h137v-258h67v-85h-67v-77h-103v77h-232zm642-149l23 212h285v-85h-199l-4-66q30 8 62 8 76 0 117-40t41-99q0-61-44.5-103t-126.5-42q-86 0-175 55l44 74q62-41 117-41 34 0 57 15t23 41q0 24-20.5 41t-57.5 17q-42 0-86-23zm89 492l-329-700h-111l329 700h111zm-624-258h125v177z"/><glyph glyph-name="fourfifths.onum" horiz-adv-x="899" d="M30 294v56l174 224h111v-214h58v-66h-58v-64h-83v64h-202zm550-123l20 173h242v-67h-173l-5-59q27 8 57 8 66 0 101-32.5t35-80.5q0-50-37.5-84.5t-108.5-34.5-149 45l37 58q48-33 101-33 31 0 52 13t21 35q0 21-19 35t-53 14q-39 0-75-19zm75 403l-287-574h-89l287 574h89zm-538-214h115v152z"/><glyph glyph-name="eight.onum" horiz-adv-x="650" d="M37 188q0 123 156 193-112 62-112 158 0 77 65 124.5t179 47.5 179.5-47.5 65.5-124.5q0-95-113-158 156-71 156-193 0-92-77-145.5t-211-53.5-211 53.5-77 145.5zm425 11q0 42-36.5 71t-100.5 54q-63-25-99.5-54t-36.5-71q0-43 38.5-69.5t97.5-26.5q60 0 98.5 26.5t38.5 69.5zm-235 326q0-57 98-95 99 38 99 95 0 30-27.5 53t-71.5 23-71-23-27-53z"/><glyph glyph-name="eight.dnom" horiz-adv-x="431" d="M30 114q0 75 96 115-68 40-68 94 0 47 42 75.5t116 28.5 116-28.5 42-75.5q0-56-69-94 96-42 96-115 0-56-49.5-88.5t-135.5-32.5q-87 0-136.5 32.5t-49.5 88.5zm266 8q0 38-80 68-81-30-81-68 0-22 23-36.5t58-14.5 57.5 14.5 22.5 36.5zm-137 191q0-29 57-51 57 22 57 51 0 15-16 27t-41 12q-26 0-41.5-12t-15.5-27z"/><glyph glyph-name="dollar.onum" horiz-adv-x="588" d="M346-82h-96v79q-112 16-210 73l61 98q69-37 149-55v120q-6 2-40 14-31 11-55 23t-49 31-39 47.5-14 64.5q0 70 52.5 116.5t144.5 52.5v75h96v-80q97-14 183-55l-62-100q-64 27-121 39v-115l37-12q34-12 56.5-23t51-31 43-49 14.5-67q0-72-54.5-119t-147.5-53v-74zm57 236q0 31-57 51v-98q57 11 57 47zm-205 268q0-30 52-48v92q-52-9-52-44z"/><glyph glyph-name="frenchfranc" horiz-adv-x="632" d="M41 107v85h66v508h492v-127h-343v-161h271v-125h-271v-95h180v-85h-180v-107h-149v107h-66z"/><glyph glyph-name="frenchfranc.onum" horiz-adv-x="566" d="M40 82v77h57v415h435v-117h-296v-114h233v-113h-233v-71h156v-77h-156v-82h-139v82h-57z"/><glyph glyph-name="frenchfrancinferior" horiz-adv-x="413" d="M30-90v56h41v304h318v-86h-213v-82h169v-85h-169v-51h114v-56h-114v-60h-105v60h-41z"/><glyph glyph-name="frenchfrancsuperior" horiz-adv-x="414" d="M30 445v56h41v304h318v-86h-213v-82h169v-85h-169v-51h114v-56h-114v-60h-105v60h-41z"/><glyph glyph-name="fsuperior" horiz-adv-x="262" d="M22 628v72h45v8q0 114 100 114 56 0 116-26l-33-70q-40 12-57 12-26 0-26-29v-9h81v-72h-81v-243h-100v243h-45z"/><glyph glyph-name="dinferior" horiz-adv-x="411" d="M365-150h-100v33q-55-40-109-40-59 0-94 42.5t-35 121.5q0 80 35 122.5t94 42.5q54 0 109-40v155h100v-437zm-178 72q42 0 78 37v97q-36 37-78 37-59 0-59-85 0-86 59-86z"/><glyph glyph-name="csuperior" horiz-adv-x="347" d="M327 666l-40-72q-64 28-93 28-31 0-48.5-21.5t-17.5-57.5q0-37 17.5-58.5t48.5-21.5q34 0 93 28l40-72q-85-41-149-41t-108 42-44 123 44 122.5 108 41.5 149-41z"/><glyph glyph-name="copyright.sc" horiz-adv-x="679" d="M474 414l-26-29q-60 44-112 44-47 0-75.5-39.5t-28.5-103.5 28.5-102.5 75.5-38.5q54 0 112 43l26-29q-75-51-139-51-62 0-104 47t-42 131q0 85 42 132t104 47q64 0 139-51zm-432-127q0 129 79.5 212.5t219.5 83.5q139 0 217.5-83.5t78.5-212.5-78.5-212.5-217.5-83.5q-140 0-219.5 83.5t-79.5 212.5zm34 0q0-116 70-190.5t194-74.5 194.5 74.5 70.5 190.5-70.5 190.5-194.5 74.5-194-74.5-70-190.5z"/><glyph glyph-name="colonsuperior" horiz-adv-x="204" d="M51 568v108h102v-108h-102zm0-183v108h102v-108h-102z"/><glyph glyph-name="colonmonetarysuperior" horiz-adv-x="369" d="M148 385h-43l14 59q-85 38-85 151 0 81 43.5 122.5t108.5 41.5h9l11 46h44l-13-52q12-2 17-4l14 56h43l-17-68 46-19-40-72-25 10-33-135q14 4 58 23l40-73q-65-30-119-38l-12-48h-44l11 46-17 2zm32 133q8-3 17-3l38 155q-5 2-17 4zm-44 77q0-25 9-45l28 119q-37-19-37-74z"/><glyph glyph-name="germandblsinferior" horiz-adv-x="476" d="M242 277q102 0 149-39t47-99v-2l-45-63q-55 23-89 23-28 0-28-18 0-4 1.5-7.5t5.5-6.5 8-5 11.5-4.5 13-4 15-4 15.5-4.5q30-9 50.5-18.5t38.5-32 18-53.5q0-44-32.5-70t-90.5-26q-84 0-161 42l39 70q22-13 56.5-24t55.5-11q32 0 32 18 0 5-3 9t-11 7.5-15 5.5-21.5 6-23.5 7q-21 6-36 13t-31.5 19-25.5 30-9 41q0 42 31 69t87 27q17 0 35-3-20 32-87 32-57 0-76.5-19t-19.5-54v-278h-100v288q0 61 47 100t149 39z"/><glyph glyph-name="germandblssuperior" horiz-adv-x="476" d="M242 812q102 0 149-39t47-99v-2l-45-63q-55 23-89 23-28 0-28-18 0-4 1.5-7.5t5.5-6.5 8-5 11.5-4.5 13-4 15-4 15.5-4.5q30-9 50.5-18.5t38.5-32 18-53.5q0-44-32.5-70t-90.5-26q-84 0-161 42l39 70q22-13 56.5-24t55.5-11q32 0 32 18 0 5-3 9t-11 7.5-15 5.5-21.5 6-23.5 7q-21 6-36 13t-31.5 19-25.5 30-9 41q0 42 31 69t87 27q17 0 35-3-20 32-87 32-57 0-76.5-19t-19.5-54v-278h-100v288q0 61 47 100t149 39z"/><glyph glyph-name="ginferior" horiz-adv-x="412" d="M266 165h100v-311q0-132-147-132-84 0-177 25l21 79q83-25 135-25 39 0 53.5 11.5t14.5 37.5v32q-54-39-109-39-59 0-94 42.5t-35 121.5q0 80 35 122.5t94 42.5q54 0 109-40v33zm-78-243q42 0 78 36v98q-36 37-78 37-59 0-59-85 0-86 59-86z"/><glyph glyph-name="colonmonetaryinferior" horiz-adv-x="366" d="M146-150h-43l14 60q-85 36-85 150 0 81 43.5 122.5t108.5 41.5h9l11 46h44l-13-52q12-2 17-4l14 56h43l-17-68 46-19-40-72-25 10-33-134q20 6 58 22l40-73q-71-30-119-37l-12-49h-44l11 47q-11 0-17 1zm32 133l17-3 38 155q-4 1-17 4zm-44 77q0-26 9-45l28 119q-37-18-37-74z"/><glyph glyph-name="colonmonetary.onum" horiz-adv-x="506" d="M203 0h-58l19 81q-55 23-87 75t-32 132q0 110 60.5 167t148.5 57q2 0 6-.5t6-.5l15 63h58l-17-69 25-6 18 75h58l-22-92q7-2 64-26l-53-97-17.5 7-19.5 8-45-190q34 10 82 32l53-97q-96-43-163-53l-16-66h-58l15 63q-9 0-25 2zm42 180q11-4 25-4l51 216q-16 4-24 5zm-65 108q0-41 17-69l41 173q-58-24-58-104z"/><glyph glyph-name="coloninferior" horiz-adv-x="204" d="M51 33v108h102v-108h-102zm0-183v108h102v-108h-102z"/><glyph glyph-name="gsuperior" horiz-adv-x="412" d="M266 700h100v-311q0-132-147-132-84 0-177 25l21 79q83-25 135-25 39 0 53.5 11.5t14.5 37.5v32q-54-39-109-39-59 0-94 42.5t-35 121.5q0 80 35 122.5t94 42.5q54 0 109-40v33zm-78-243q42 0 78 36v98q-36 37-78 37-59 0-59-85 0-86 59-86z"/><glyph glyph-name="cinferior" horiz-adv-x="346" d="M327 131l-40-72q-64 28-93 28-31 0-48.5-21.5t-17.5-57.5q0-37 17.5-58.5t48.5-21.5q34 0 93 28l40-72q-85-41-149-41t-108 42-44 123 44 122.5 108 41.5 149-41z"/><glyph glyph-name="cent.onum" horiz-adv-x="502" d="M330 0h-96v63q-83 6-137.5 63t-54.5 162q0 104 54.5 160.5t137.5 62.5v63h96v-72q53-12 132-46l-53-97q-54 23-79 30v-204q24 8 79 31l53-97q-71-33-132-47v-72zm-153 288q0-80 57-105v208q-57-24-57-103z"/><glyph glyph-name="c_t" horiz-adv-x="944" d="M548 419v106h72v22q0 117-93 117-42 0-69.5-28t-27.5-74q0-40 20-68 12-5 31-13.5t20-8.5l-59-106q-100 47-145 47-52 0-83-41t-31-109q0-69 31-110t83-41q45 0 145 47l59-106q-131-64-226-64-101 0-170 70.5t-69 203.5 69 203 170 70q43 0 95-14-8 22-8 48 0 71 50.5 115t136.5 44q102 0 158-51t56-142v-11h143v-106h-143v-255q0-30 12-40t33-10q23 0 83 24l50-107q-92-42-169-42-152 0-152 177v253h-72z"/><glyph glyph-name="c_l" horiz-adv-x="795" d="M731 0h-144v664h-50q-49 0-78-26t-29-72q0-41 22-72l49-22-59-106q-100 47-145 47-52 0-83-41t-31-109q0-69 31-110t83-41q45 0 145 47l59-106q-131-64-226-64-101 0-170 70.5t-69 203.5 69 203 170 70q45 0 98-15-11 27-11 59 0 68 46 108.5t131 40.5h192v-729z"/><glyph glyph-name="c_k" horiz-adv-x="1093" d="M1063 525l-177-208 208-317h-151l-143 215-71-84v-131h-144v664h-48q-49 0-78-26t-29-72q0-41 22-72l49-22-59-106q-100 47-145 47-52 0-83-41t-31-109q0-69 31-110t83-41q45 0 145 47l59-106q-131-64-226-64-101 0-170 70.5t-69 203.5 69 203 170 70q45 0 98-15-11 27-11 59 0 68 46 108.5t131 40.5h190v-420l170 216h164z"/><glyph glyph-name="c_h" horiz-adv-x="1148" d="M501 472l-59-106q-100 47-145 47-52 0-83-41t-31-109q0-69 31-110t83-41q45 0 145 47l59-106q-131-64-226-64-101 0-170 70.5t-69 203.5 69 203 170 70q45 0 98-15-11 27-11 59 0 68 46 108.5t131 40.5h190v-267q106 74 204 74 157 0 157-165v-371h-144v338q0 86-69 86-37 0-78.5-21t-69.5-47v-356h-144v664h-48q-49 0-78-26t-29-72q0-41 22-72z"/><glyph glyph-name="hinferior" horiz-adv-x="414" d="M146 287v-158q65 43 127 43 99 0 99-101v-221h-100v198q0 47-39 47-45 0-87-36v-209h-100v437h100z"/><glyph glyph-name="brokenbar.sc" horiz-adv-x="245" d="M172 332h-98v339h98v-339zm0-433h-98v339h98v-339z"/><glyph glyph-name="bracketrightsuperior" horiz-adv-x="257" d="M203 299h-179v57h76v475h-76v57h179v-589z"/><glyph glyph-name="bracketrightinferior" horiz-adv-x="257" d="M203-236h-179v57h76v475h-76v57h179v-589z"/><glyph glyph-name="bracketright.sc" horiz-adv-x="346" d="M273-117h-243v76h105v652h-105v77h243v-805z"/><glyph glyph-name="bracketleftsuperior" horiz-adv-x="257" d="M233 299h-179v589h179v-57h-75v-475h75v-57z"/><glyph glyph-name="bracketleftinferior" horiz-adv-x="257" d="M233-236h-179v589h179v-57h-75v-475h75v-57z"/><glyph glyph-name="bracketleft.sc" horiz-adv-x="346" d="M316-117h-243v805h243v-77h-105v-652h105v-76z"/><glyph glyph-name="bracerightsuperior" horiz-adv-x="274" d="M257 623v-58q-68 0-60-66l7-56q9-73-35-108.5t-132-35.5h-12v56h12q41 0 54.5 23.5t8.5 56.5l-5 45q-7 52 14 78t70 35q-49 9-70 35.5t-14 78.5l5 46q5 33-8.5 56.5t-54.5 23.5h-12v55h12q88 0 132-35.5t35-108.5l-7-55q-10-66 60-66z"/><glyph glyph-name="bracerightinferior" horiz-adv-x="274" d="M257 88v-58q-68 0-60-66l7-56q9-73-35-108.5t-132-35.5h-12v56h12q41 0 54.5 23.5t8.5 56.5l-5 45q-7 52 14 78t70 35q-49 9-70 35.5t-14 78.5l5 46q5 33-8.5 56.5t-54.5 23.5h-12v55h12q88 0 132-35.5t35-108.5l-7-55q-10-66 60-66z"/><glyph glyph-name="iinferior" horiz-adv-x="191" d="M146-150h-100v315h100v-315zm-102 355v81h104v-81h-104z"/><glyph glyph-name="braceright.sc" horiz-adv-x="377" d="M351 325v-79q-96 0-83-91l11-75q15-99-47-148t-183-49h-16v74h16q58 0 77.5 32.5t13.5 78.5l-9 63q-11 71 19.5 107t100.5 47q-71 12-101 47.5t-19 107.5l9 62q15 111-91 111h-16v75h16q121 0 182.5-49t47.5-148l-11-76q-13-90 83-90z"/><glyph glyph-name="braceleftsuperior" horiz-adv-x="275" d="M18 565v58q70 0 60 65l-8 56q-10 73 35 108.5t132 35.5h12v-55h-12q-72 0-63-80l7-46q7-51-15-78t-71-36q50-9 71.5-35t14.5-78l-7-45q-9-80 63-80h12v-56h-12q-88 0-132.5 36t-34.5 109l8 55q10 66-60 66z"/><glyph glyph-name="braceleftinferior" horiz-adv-x="275" d="M18 30v58q70 0 60 65l-8 56q-10 73 35 108.5t132 35.5h12v-55h-12q-72 0-63-80l7-46q7-51-15-78t-71-36q50-9 71.5-35t14.5-78l-7-45q-9-80 63-80h12v-56h-12q-88 0-132.5 36t-34.5 109l8 55q10 66-60 66z"/><glyph glyph-name="braceleft.sc" horiz-adv-x="377" d="M26 246v79q96 0 83 89l-10 77q-13 100 47.5 148.5t181.5 48.5h16v-75h-16q-106 0-91-112l9-61q10-72-20.5-107.5t-100.5-47.5q70-11 100.5-47t20.5-107l-9-62q-6-47 13-79.5t78-32.5h16v-74h-16q-121 0-182 48.5t-47 148.5l11 76q13 90-84 90z"/><glyph glyph-name="binferior" horiz-adv-x="411" d="M46-150v437h100v-155q53 40 109 40 59 0 94-42.5t35-122.5q0-79-35-121.5t-94-42.5q-54 0-109 40v-33h-100zm179 243q-45 0-79-37v-97q34-37 79-37 59 0 59 86 0 85-59 85z"/><glyph glyph-name="bar.sc" horiz-adv-x="244" d="M171-101h-98v772h98v-772z"/><glyph glyph-name="backslash.sc" horiz-adv-x="430" d="M310-74l-285 722h100l286-722h-101z"/><glyph glyph-name="at.sc" horiz-adv-x="788" d="M707 211q0 134-77 220.5t-224 86.5q-151 0-234.5-88t-83.5-223 80.5-222.5 213.5-87.5q43 0 81 8.5t55 17.5l17 9 28-36q-7-5-21-12t-61.5-19-100.5-12q-150 0-244 100t-94 254q0 157 98 256.5t266 99.5q165 0 255.5-98t91.5-257q0-101-39.5-167.5t-125.5-66.5q-57 0-84.5 31t-32.5 69q-57-55-131-55-55 0-90.5 32.5t-35.5 89.5q0 59 37 91.5t96 32.5q45 0 123-18v32q0 35-14.5 49.5t-50.5 14.5q-58 0-135-32l-31 67q103 39 183 39 73 0 108-33.5t35-105.5v-132q0-39 2-59t13-36.5 33-16.5q37 0 65.5 45t28.5 132zm-338-118q54 0 101 46v59q-68 13-91 13-68 0-68-61 0-57 58-57z"/><glyph glyph-name="asterisksuperior" horiz-adv-x="308" d="M113 568l28 94-72-71-41 71 100 22-100 24 41 70 72-72-28 94h82l-27-93 71 71 41-71-96-22 96-24-41-70-70 67 26-90h-82z"/><glyph glyph-name="jinferior" horiz-adv-x="191" d="M42 205v81h106v-81h-106zm103-40v-300q0-32-1-46.5t-8-34.5-21.5-30-41.5-21.5-69-20.5l-32 71q53 17 63.5 28.5t10.5 45.5v308h99z"/><glyph glyph-name="asteriskinferior" horiz-adv-x="308" d="M113 33l28 94-72-71-41 71 100 22-100 24 41 70 72-72-28 94h82l-27-93 71 71 41-71-96-22 96-24-41-70-70 67 26-90h-82z"/><glyph glyph-name="ampersandsuperior" horiz-adv-x="471" d="M466 385h-114l-36 33q-60-40-138-40-65 0-107.5 32t-42.5 81q0 63 89 117-58 54-58 101 0 46 38 74.5t96 28.5 93.5-28.5 35.5-69.5q0-55-84-114l72-68q22 35 25 74h99q-12-74-60-134zm-280 67q37 0 71 23l-85 81q-46-34-46-61 0-17 15.5-30t44.5-13zm-37 253q0-23 36-57 46 29 46 58 0 14-10 25t-29 11q-20 0-31.5-11t-11.5-26z"/><glyph glyph-name="ampersandinferior" horiz-adv-x="472" d="M466-150h-114l-36 34q-59-41-138-41-65 0-107.5 32t-42.5 81q0 63 89 117-58 54-58 101 0 46 38 74.5t96 28.5 93.5-28.5 35.5-69.5q0-55-84-114l72-68q22 35 25 74h99q-12-72-60-134zm-280 67q35 0 71 23l-85 81q-46-34-46-61 0-17 15.5-30t44.5-13zm-37 253q0-23 36-57 46 29 46 58 0 14-10 25t-29 11q-20 0-31.5-11t-11.5-26z"/><glyph glyph-name="ampersand.sc" horiz-adv-x="641" d="M637 0h-153l-50 47q-82-56-191-56-90 0-148 43.5t-58 111.5q0 50 32.5 87t90.5 72q-39 37-59.5 68t-20.5 70q0 63 52 101.5t130 38.5q79 0 128-38.5t49-94.5q0-45-31-81.5t-85-73.5l103-97q30 48 35 105h132q-15-99-83-184zm-384 89q52 0 101 33l-120 113q-65-47-65-85 0-24 21.5-42.5t62.5-18.5zm-53 349q0-32 53-79 65 42 65 80 0 20-14.5 35t-42.5 15-44.5-15.5-16.5-35.5z"/><glyph glyph-name="kinferior" horiz-adv-x="379" d="M360 165l-112-125 131-190h-106l-85 123-42-46v-77h-100v437h100v-243l100 121h114z"/><glyph glyph-name="ksuperior" horiz-adv-x="379" d="M360 700l-112-125 131-190h-106l-85 123-42-47v-76h-100v437h100v-243l100 121h114z"/><glyph glyph-name="ainferior" horiz-adv-x="394" d="M253-150v35q-52-42-115-42-51 0-83 29t-32 75q0 48 34 75t89 27q26 0 107-14v19q0 24-12.5 33.5t-43.5 9.5q-45 0-121-22l-31 67q99 30 170 30 72 0 105-28.5t33-94.5v-199h-100zm-82 69q41 0 82 30v38q-54 9-73 9-56 0-56-40 0-37 47-37z"/><glyph glyph-name="Zsuperior" horiz-adv-x="428" d="M30 464l226 255h-212v86h347v-78l-226-256h229v-86h-364v79z"/><glyph glyph-name="Zinferior" horiz-adv-x="428" d="M30-71l226 255h-212v86h347v-78l-226-256h229v-86h-364v79z"/><glyph glyph-name="Zdotaccent.sc" horiz-adv-x="573" d="M34 112l321 348h-303v114h477v-112l-320-348h325v-114h-500v112zm198 514v115h115v-115h-115z"/><glyph glyph-name="Zcaron.sc" horiz-adv-x="573" d="M34 112l321 348h-303v114h477v-112l-320-348h325v-114h-500v112zm432 642l-106-138h-140l-106 138h100l76-74 76 74h100z"/><glyph glyph-name="Zacute.sc" horiz-adv-x="573" d="M34 112l321 348h-303v114h477v-112l-320-348h325v-114h-500v112zm273 504h-118l124 138h166z"/><glyph glyph-name="Z.sc" horiz-adv-x="572" d="M33 106l314 351h-296v117h477v-105l-315-352h320v-117h-500v106z"/><glyph glyph-name="linferior" horiz-adv-x="191" d="M145-150h-99v437h99v-437z"/><glyph glyph-name="Ysuperior" horiz-adv-x="420" d="M159 385v166l-159 254h117l94-170 93 170h117l-159-255 1-165h-104z"/><glyph glyph-name="lira.onum" horiz-adv-x="521" d="M59 273v61h41q-33 53-33 104 0 68 49.5 106.5t137.5 38.5q104 0 228-73l-60-88q-89 47-142 47-36 0-54.5-14.5t-18.5-37.5q0-6 1-12t3.5-12.5 4-11 6.5-12.5 7-11 8-12.5 8-11.5h169v-61h-137q5-17 6-36h131v-61h-141q-19-41-51-62h250v-114h-423v92q8 3 20.5 8.5t38.5 27 37 48.5h-86v61h91q-2 15-13 36h-78z"/><glyph glyph-name="lirainferior" horiz-adv-x="384" d="M44 49v44h32q-24 41-24 78 0 49 36 77.5t99 28.5q75 0 166-54l-44-65q-66 34-103 34-25 0-38-10.5t-13-26.5q0-19 29-62h121v-44h-99q4-15 5-26h94v-43h-102q-11-27-36-45h180v-85h-309v69q6 2 15.5 6t28.5 19.5 26 35.5h-64v43h67q-3 11-9 26h-58z"/><glyph glyph-name="lirasuperior" horiz-adv-x="384" d="M44 585v43h32q-24 41-24 78 0 49 36 77.5t99 28.5q75 0 166-54l-44-65q-66 34-103 34-25 0-38-10.5t-13-26.5q0-19 29-62h121v-43h-99q4-19 5-27h94v-43h-102q-12-30-36-45h180v-85h-309v69q6 2 15.5 6t28.5 19.5 26 35.5h-64v43h67q-3 14-9 27h-58z"/><glyph glyph-name="Yinferior" horiz-adv-x="420" d="M158-150v166l-159 254h117l94-170 93 170h117l-159-255 1-165h-104z"/><glyph glyph-name="Ygrave.sc" horiz-adv-x="593" d="M228 0v225l-220 349h155l132-238 134 238h155l-219-347 1-227h-138zm174 616h-118l-171 138h164z"/><glyph glyph-name="Ydieresis.sc" horiz-adv-x="593" d="M228 0v225l-220 349h155l132-238 134 238h155l-219-347 1-227h-138zm101 626v115h116v-115h-116zm-181 0v115h116v-115h-116z"/><glyph glyph-name="Yacute.sc" horiz-adv-x="593" d="M228 0v225l-220 349h155l132-238 134 238h155l-219-347 1-227h-138zm85 616h-118l124 138h165z"/><glyph glyph-name="Y.sc" horiz-adv-x="593" d="M228 0v225l-220 349h155l132-238 134 238h155l-219-347 1-227h-138z"/><glyph glyph-name="Xsuperior" horiz-adv-x="436" d="M16 805h120l82-149 83 149h119l-139-208 147-212h-123l-87 146-87-146h-123l147 212z"/><glyph glyph-name="Xinferior" horiz-adv-x="436" d="M16 270h120l82-149 83 149h119l-139-208 147-212h-123l-87 146-87-146h-123l147 212z"/><glyph glyph-name="minferior" horiz-adv-x="609" d="M146 165v-39q53 46 112 46 70 0 91-52 57 52 119 52 99 0 99-101v-221h-100v198q0 23-7.5 35t-29.5 12q-37 0-73-36v-209h-100v198q0 47-37 47t-74-37v-208h-100v315h100z"/><glyph glyph-name="X.sc" horiz-adv-x="590" d="M18 574h159l117-207 117 207h161l-194-284 205-290h-166l-122 202-123-202h-165l203 291z"/><glyph glyph-name="Wsuperior" horiz-adv-x="622" d="M386 385l-75 277-75-277h-102l-123 420h118l65-285 76 285h83l75-285 66 285h118l-124-420h-102z"/><glyph glyph-name="Winferior" horiz-adv-x="621" d="M385-150l-75 277-75-277h-102l-123 420h118l65-284 76 284h83l75-284 66 284h118l-124-420h-102z"/><glyph glyph-name="Wgrave.sc" horiz-adv-x="863" d="M538 0l-107 391-105-391h-137l-170 574h158l93-401 106 401h111l105-401 94 401h158l-170-574h-136zm-4 616h-117l-172 138h164z"/><glyph glyph-name="Wdieresis.sc" horiz-adv-x="863" d="M538 0l-107 391-105-391h-137l-170 574h158l93-401 106 401h111l105-401 94 401h158l-170-574h-136zm-252 626v115h116v-115h-116zm179 0v115h115v-115h-115z"/><glyph glyph-name="Wcircumflex.sc" horiz-adv-x="863" d="M538 0l-107 391-105-391h-137l-170 574h158l93-401 106 401h111l105-401 94 401h158l-170-574h-136zm-36 754l106-138h-100l-76 75-76-75h-100l106 138h140z"/><glyph glyph-name="Wacute.sc" horiz-adv-x="863" d="M538 0l-107 391-105-391h-137l-170 574h158l93-401 106 401h111l105-401 94 401h158l-170-574h-136zm-90 616h-118l125 138h164z"/><glyph glyph-name="W.sc" horiz-adv-x="863" d="M538 0l-107 391-105-391h-137l-170 574h158l93-401 106 401h111l105-401 94 401h158l-170-574h-136z"/><glyph glyph-name="Vsuperior" horiz-adv-x="455" d="M126 805l102-312 102 312h120l-164-420h-115l-165 420h120z"/><glyph glyph-name="Vinferior" horiz-adv-x="455" d="M125 270l102-311 102 311h120l-164-420h-115l-165 420h120z"/><glyph glyph-name="nine.dnom" horiz-adv-x="421" d="M122 76q51 0 91 25t58 78q-41-30-101-30-63 0-102.5 36.5t-39.5 94.5q0 62 47 104.5t126 42.5q91 0 138.5-53.5t47.5-132.5q0-107-73-177.5t-191-70.5q-17 0-34 2t-25 3l-8 2 24 80q19-4 42-4zm80 149q50 0 80 32-1 44-23.5 65.5t-55.5 21.5q-35 0-53.5-18t-18.5-43 18.5-41.5 52.5-16.5z"/><glyph glyph-name="nine.numr" horiz-adv-x="421" d="M122 356q51 0 91 25t58 78q-41-30-101-30-63 0-102.5 36.5t-39.5 94.5q0 62 47 104.5t126 42.5q91 0 138.5-53.5t47.5-132.5q0-107-73-177.5t-191-70.5q-17 0-34 1.5t-25 3.5l-8 2 24 80q19-4 42-4zm80 149q50 0 80 32-1 44-23.5 65.5t-55.5 21.5q-35 0-53.5-18t-18.5-43 18.5-41.5 52.5-16.5z"/><glyph glyph-name="nine.onum" horiz-adv-x="626" d="M178-23q53 0 99 17.5t86.5 63 58.5 114.5q-66-57-166-57-101 0-163.5 61t-62.5 158q0 102 73.5 172.5t196.5 70.5q141 0 214.5-87t74.5-211q0-194-116-309t-294-115q-27 0-53 2.5t-38 5.5l-13 3 35 118q30-7 68-7zm123 250q46 0 82 20t54 46v3q0 74-38 116.5t-96 42.5q-60 0-91.5-34.5t-31.5-80.5q0-48 32-80.5t89-32.5z"/><glyph glyph-name="nine.tnum" horiz-adv-x="675" d="M199 111q83 0 151 47t94 149q-67-58-167-58-101 0-163 61t-62 158q0 102 73 172.5t196 70.5q73 0 129.5-25t90.5-67.5 51.5-95 17.5-110.5q1-193-115.5-308.5t-294.5-115.5q-27 0-53 2.5t-39 5.5l-12 3 35 117q31-6 68-6zm123 250q48 0 84 21t53 47q0 75-38 117.5t-96 42.5q-61 0-92.5-34.5t-31.5-81.5 32-79.5 89-32.5z"/><glyph glyph-name="V.sc" horiz-adv-x="636" d="M174 574l144-430 145 430h160l-228-574h-153l-228 574h160z"/><glyph glyph-name="Utilde.sc" d="M200 622l-65 31q13 26 21 39.5t22 31.5 30.5 25.5 37.5 7.5q30 0 78-23.5t61-23.5q26 0 52 46l65-32q-14-27-21.5-39.5t-21.5-31-30.5-26-37.5-7.5q-30 0-78 24t-61 24q-26 0-52-46zm376-48v-336q0-55-11-97t-38.5-77.5-79.5-54-127-18.5q-76 0-128.5 18.5t-80 54-38.5 77.5-11 97v336h138v-348q0-56 25.5-86.5t94.5-30.5q67 0 92.5 30.5t25.5 86.5v348h138z"/><glyph glyph-name="ninferior" horiz-adv-x="414" d="M146 165v-36q65 43 127 43 99 0 99-101v-221h-100v198q0 47-39 47-45 0-87-36v-209h-100v315h100z"/><glyph glyph-name="Usuperior" horiz-adv-x="475" d="M425 805v-245q0-86-40.5-134t-146.5-48-147 48-41 134v245h103v-255q0-40 18-62t67-22q48 0 66 22t18 62v255h103z"/><glyph glyph-name="Uring.sc" d="M207 718q0 47 32.5 79.5t78.5 32.5 79-33 33-79-33-79-79-33-78.5 32.5-32.5 79.5zm69 0q0-18 12-30t30-12 30.5 12 12.5 30-12.5 30.5-30.5 12.5-30-12.5-12-30.5zm300-144v-336q0-55-11-97t-38.5-77.5-79.5-54-127-18.5q-76 0-128.5 18.5t-80 54-38.5 77.5-11 97v336h138v-348q0-56 25.5-86.5t94.5-30.5q67 0 92.5 30.5t25.5 86.5v348h138z"/><glyph glyph-name="Uogonek.sc" d="M317-94q0-8 3-14.5t9-10 11-5.5 14.5-3 14-1h24.5l-14-66h-6q-150-2-150 86 0 56 80 99-71 2-120 21.5t-74.5 54.5-36 76-10.5 95v336h138v-348q0-56 25-86.5t94-30.5q68 0 93 30.5t25 86.5v348h138v-336q0-96-36.5-157t-128.5-81q-93-55-93-94z"/><glyph glyph-name="Umacron.sc" d="M576 574v-336q0-55-11-97t-38.5-77.5-79.5-54-127-18.5q-76 0-128.5 18.5t-80 54-38.5 77.5-11 97v336h138v-348q0-56 25.5-86.5t94.5-30.5q67 0 92.5 30.5t25.5 86.5v348h138zm-411 67v85h308v-85h-308z"/><glyph glyph-name="numbersign.onum" horiz-adv-x="654" d="M342 0l20 125h-124l-20-125h-102l20 125h-98v99h114l21 126h-99v99h115l20 125h103l-21-125h124l20 125h102l-20-125h99v-99h-115l-21-126h99v-99h-115l-20-125h-102zm-67 350l-21-126h124l21 126h-124z"/><glyph glyph-name="numbersigninferior" horiz-adv-x="476" d="M249-150l14 90h-87l-14-90h-77l14 90h-70v74h82l15 91h-70v75h82l15 90h76l-14-90h87l14 90h76l-14-90h70v-75h-82l-15-91h71v-74h-83l-14-90h-76zm-46 255l-15-91h87l15 91h-87z"/><glyph glyph-name="numbersignsuperior" horiz-adv-x="477" d="M249 385l14 90h-87l-14-90h-77l14 90h-70v74h82l15 91h-70v75h82l15 90h76l-14-90h87l14 90h76l-14-90h70v-75h-82l-15-91h71v-74h-83l-14-90h-76zm-46 255l-15-91h87l15 91h-87z"/><glyph glyph-name="Uinferior" horiz-adv-x="475" d="M425 270v-245q0-86-40.5-134t-146.5-48-147 48-41 134v245h103v-255q0-40 18-62t67-22q48 0 66 22t18 62v255h103z"/><glyph glyph-name="Uhungarumlaut.sc" d="M576 574v-336q0-55-11-97t-38.5-77.5-79.5-54-127-18.5q-76 0-128.5 18.5t-80 54-38.5 77.5-11 97v336h138v-348q0-56 25.5-86.5t94.5-30.5q67 0 92.5 30.5t25.5 86.5v348h138zm-143 42h-86l81 138h132zm-176 0h-87l81 138h133z"/><glyph glyph-name="Ugrave.sc" d="M576 574v-336q0-55-11-97t-38.5-77.5-79.5-54-127-18.5q-76 0-128.5 18.5t-80 54-38.5 77.5-11 97v336h138v-348q0-56 25.5-86.5t94.5-30.5q67 0 92.5 30.5t25.5 86.5v348h138zm-155 42h-118l-171 138h164z"/><glyph glyph-name="Udieresis.sc" d="M576 574v-336q0-55-11-97t-38.5-77.5-79.5-54-127-18.5q-76 0-128.5 18.5t-80 54-38.5 77.5-11 97v336h138v-348q0-56 25.5-86.5t94.5-30.5q67 0 92.5 30.5t25.5 86.5v348h138zm-405 52v115h115v-115h-115zm181 0v115h115v-115h-115z"/><glyph glyph-name="Ucircumflex.sc" d="M576 574v-336q0-55-11-97t-38.5-77.5-79.5-54-127-18.5q-76 0-128.5 18.5t-80 54-38.5 77.5-11 97v336h138v-348q0-56 25.5-86.5t94.5-30.5q67 0 92.5 30.5t25.5 86.5v348h138zm-187 180l106-138h-100l-77 75-75-75h-100l105 138h141z"/><glyph glyph-name="Ubreve.sc" d="M318 616q-77 0-120 33t-43 90h89q0-44 74-44 75 0 75 44h90q0-57-43.5-90t-121.5-33zm258-42v-336q0-55-11-97t-38.5-77.5-79.5-54-127-18.5q-76 0-128.5 18.5t-80 54-38.5 77.5-11 97v336h138v-348q0-56 25.5-86.5t94.5-30.5q67 0 92.5 30.5t25.5 86.5v348h138z"/><glyph glyph-name="Uacute.sc" d="M576 574v-336q0-55-11-97t-38.5-77.5-79.5-54-127-18.5q-76 0-128.5 18.5t-80 54-38.5 77.5-11 97v336h138v-348q0-56 25.5-86.5t94.5-30.5q67 0 92.5 30.5t25.5 86.5v348h138zm-241 42h-117l124 138h165z"/><glyph glyph-name="U.sc" d="M576 574v-336q0-55-11-97t-38.5-77.5-79.5-54-127-18.5q-76 0-128.5 18.5t-80 54-38.5 77.5-11 97v336h138v-348q0-56 25.5-86.5t94.5-30.5q67 0 92.5 30.5t25.5 86.5v348h138z"/><glyph glyph-name="Tsuperior" horiz-adv-x="395" d="M377 719h-128v-334h-104v334h-128v86h360v-86z"/><glyph glyph-name="oinferior" horiz-adv-x="400" d="M374 7q0-78-45-121t-129-43-129 43.5-45 121.5 45 121 129 43 129-43 45-122zm-100 0q0 89-74 89t-74-88q0-89 74-89t74 88z"/><glyph glyph-name="Tinferior" horiz-adv-x="395" d="M377 184h-128v-334h-104v334h-128v86h360v-86z"/><glyph glyph-name="Thorn.sc" horiz-adv-x="603" d="M571 297q0-189-247-189h-118v-108h-138v574h138v-89h118q121 0 184-47.5t63-140.5zm-140 0q0 42-32 57.5t-100 15.5h-93v-149h93q68 0 100 16.5t32 59.5z"/><glyph glyph-name="one.dnom" horiz-adv-x="285" d="M228 0h-103v325l-76-38-42 67 123 66h98v-420z"/><glyph glyph-name="one.numr" horiz-adv-x="285" d="M228 280h-103v325l-76-38-42 67 123 66h98v-420z"/><glyph glyph-name="one.onum" horiz-adv-x="412" d="M340 0h-149v434l-122-64-59 98 189 106h141v-574z"/><glyph glyph-name="one.tnum" horiz-adv-x="675" d="M69 0v124h205v436l-146-75-59 98 215 117h140v-576h206v-124h-561z"/><glyph glyph-name="Tcedilla.sc" horiz-adv-x="533" d="M138-162l28 71q25-12 48-12 48 0 48 38 0 26-26 65h-38v457h-179v117h495v-117h-177v-457h-37q39-49 39-92 0-46-31.5-69t-81.5-23q-52 0-88 22z"/><glyph glyph-name="oneeighth.onum" horiz-adv-x="779" d="M423 93q0 60 84 95-61 30-61 77 0 38 36.5 61.5t99.5 23.5q62 0 98-23.5t36-61.5q0-46-59-77 83-36 83-95 0-45-42.5-72t-115.5-27q-74 0-116.5 27t-42.5 72zm108 481l-287-574h-90l288 574h89zm-324-344h-83v269l-65-32-34 54 104 53h78v-344zm450-130q0 33-75 58-75-27-75-58 0-19 21.5-31.5t53.5-12.5 53.5 12.5 21.5 31.5zm-129 155q0-24 53-42 54 17 54 42 0 14-14.5 25t-38.5 11-39-11.5-15-24.5z"/><glyph glyph-name="onefifth" horiz-adv-x="902" d="M530 208l24 212h284v-85h-198l-5-67q29 9 62 9 76 0 117.5-40.5t41.5-98.5q0-61-44.5-103t-126.5-42q-84 0-176 55l45 74q59-41 117-41 34 0 56.5 15t22.5 41q0 24-20 41t-58 17q-41 0-85-23zm89 492l-329-700h-111l329 700h111zm-374-420h-103v325l-76-38-42 67 123 66h98v-420z"/><glyph glyph-name="onefifth.onum" horiz-adv-x="779" d="M457 171l20 173h241v-67h-173l-5-59q27 8 57 8 65 0 101-32.5t36-80.5q0-50-38-84.5t-109-34.5-149 45l37 58q51-33 100-33 32 0 53 13t21 35q0 21-18.5 35t-52.5 14q-39 0-77-19zm74 403l-287-574h-90l288 574h89zm-324-344h-83v269l-65-32-34 54 104 53h78v-344z"/><glyph glyph-name="Tcaron.sc" horiz-adv-x="533" d="M514 457h-177v-457h-139v457h-179v117h495v-117zm-71 297l-106-138h-141l-106 138h100l76-74 77 74h100z"/><glyph glyph-name="onehalf.onum" horiz-adv-x="776" d="M207 230h-83v269l-65-32-34 54 104 53h78v-344zm324 344l-287-574h-90l288 574h89zm198-506v-68h-290v35q0 47 32 80t87 64q6 3 19.5 10.5t19 10.5 15.5 9.5 14 10 9 9 7 10.5 2 11q0 13-14.5 22.5t-40.5 9.5q-48 0-104-32l-37 52q78 48 152 48 61 0 95-27.5t34-69.5q0-20-8.5-37.5t-18.5-29-30.5-25-32.5-19.5l-36-18q-65-32-65-56h191z"/><glyph glyph-name="Tbar.sc" horiz-adv-x="540" d="M120 171v76h82v210h-179v117h494v-117h-176v-210h81v-76h-81v-171h-139v171h-82z"/><glyph glyph-name="T.sc" horiz-adv-x="533" d="M514 457h-177v-457h-139v457h-179v117h495v-117z"/><glyph glyph-name="onequarter.onum" horiz-adv-x="765" d="M586 0v64h-201v56l173 224h111v-213h58v-67h-58v-64h-83zm-55 574l-287-574h-90l288 574h89zm-324-344h-83v269l-65-32-34 54 104 53h78v-344zm266-99h113v150z"/><glyph glyph-name="onesixth" horiz-adv-x="876" d="M738 344q-53 0-93.5-25.5t-57.5-78.5q42 31 102 31 64 0 104-36.5t40-94.5q0-62-47.5-104.5t-126.5-42.5q-92 0-139 53t-47 132q0 108 73.5 178.5t190.5 70.5q18 0 34.5-1.5t24.5-3.5l8-2-24-80q-19 4-42 4zm-119 356l-329-700h-111l329 700h111zm-374-420h-103v325l-76-38-42 67 123 66h98v-420zm413-85q-54 0-81-34 1-43 24-64t56-21q35 0 54 18t19 42q0 25-19.5 42t-52.5 17z"/><glyph glyph-name="onesixth.onum" horiz-adv-x="755" d="M632 284q-46 0-81.5-21.5t-50.5-66.5q35 26 89 26 56 0 90.5-30t34.5-77q0-51-40.5-86t-107.5-35q-78 0-118.5 43.5t-40.5 108.5q0 88 62.5 146t161.5 58q16 0 30.5-1.5t21.5-2.5l7-2-19-63q-17 3-39 3zm-101 290l-287-574h-90l288 574h89zm-324-344h-83v269l-65-32-34 54 104 53h78v-344zm358-68q-51 0-74-30 1-35 21.5-53t51.5-18q33 0 50 15t17 36-17.5 35.5-48.5 14.5z"/><glyph glyph-name="Ssuperior" horiz-adv-x="427" d="M281 630q32-12 54-23.5t43-38.5 21-61q0-58-44-93.5t-120-35.5q-110 0-207 59l47 73q32-18 77.5-32.5t77.5-14.5q61 0 61 35 0 16-16 25.5t-59.5 21.5-65.5 20q-112 37-112 120 0 56 42.5 91.5t117.5 35.5q95 0 187-45l-46-74q-77 34-134 34-59 0-59-35 0-10 6.5-17t20-12.5 28-9 38-10.5 42.5-13z"/><glyph glyph-name="Sinferior" horiz-adv-x="427" d="M280 95q32-12 54-23.5t43-38.5 21-61q0-58-44-93.5t-120-35.5q-110 0-207 59l47 73q32-18 77.5-32.5t77.5-14.5q61 0 61 35 0 16-16 25.5t-59.5 21.5-65.5 20q-112 37-112 120 0 56 42.5 91.5t117.5 35.5q95 0 187-45l-46-74q-77 34-134 34-59 0-59-35 0-10 6.5-17t20-12.5 28-9 38-10.5 42.5-13z"/><glyph glyph-name="onethird.onum" horiz-adv-x="772" d="M207 230h-83v269l-65-32-34 54 104 53h78v-344zm324 344l-287-574h-90l288 574h89zm-102-535l37 55q60-32 114-32 30 0 48.5 11t18.5 30q0 45-108 45h-17v68h21q88 0 88 38 0 28-51 28-44 0-100-29l-34 51q61 46 148 46 58 0 89-24t31-60q0-53-64-76 35-9 58-33.5t23-55.5q0-44-34.5-75.5t-106.5-31.5q-78 0-161 45z"/><glyph glyph-name="Scommaaccent.sc" horiz-adv-x="567" d="M236-177v120h109l9-132-91-107-31 36 54 83h-50zm136 511q26-10 45.5-18t43.5-23 39.5-32 26.5-42 11-55q0-77-62-125t-166-48q-74 0-151 24t-130 55l61 98q45-24 108-43.5t109-19.5q36 0 60.5 13t24.5 38q0 14-10 24.5t-30.5 18.5-41.5 14.5-54 16.5-58 19q-69 24-112.5 61t-43.5 103q0 75 59 122.5t162 47.5q128 0 256-61l-63-100q-111 47-188 47-34 0-57-12t-23-37q0-14 9.5-24t28.5-17.5 39-13 51.5-14 55.5-17.5z"/><glyph glyph-name="Scircumflex.sc" horiz-adv-x="567" d="M355 754l105-138h-99l-77 75-76-75h-100l106 138h141zm17-420q26-10 45.5-18t43.5-23 39.5-32 26.5-42 11-55q0-77-62-125t-166-48q-74 0-151 24t-130 55l61 98q45-24 108-43.5t109-19.5q36 0 60.5 13t24.5 38q0 14-10 24.5t-30.5 18.5-41.5 14.5-54 16.5-58 19q-69 24-112.5 61t-43.5 103q0 75 59 122.5t162 47.5q128 0 256-61l-63-100q-111 47-188 47-34 0-57-12t-23-37q0-14 9.5-24t28.5-17.5 39-13 51.5-14 55.5-17.5z"/><glyph glyph-name="Scedilla.sc" horiz-adv-x="568" d="M372 334q26-10 45.5-18t43.5-23 39.5-32 26.5-42 11-55q0-70-51.5-116.5t-139.5-54.5q33-42 33-85 0-46-32-69t-82-23q-51 0-88 22l28 71q26-12 49-12 48 0 48 38 0 23-21 57-134 8-253 78l61 98q45-24 108-43.5t109-19.5q36 0 60.5 13t24.5 38q0 14-10 24.5t-30.5 18.5-41.5 14.5-54 16.5-58 19q-69 24-112.5 61t-43.5 103q0 75 59 122.5t162 47.5q128 0 256-61l-63-100q-111 47-188 47-34 0-57-12t-23-37q0-14 9.5-24t28.5-17.5 39-13 51.5-14 55.5-17.5z"/><glyph glyph-name="Scaron.sc" horiz-adv-x="567" d="M459 754l-105-138h-141l-105 138h99l76-74 77 74h99zm-87-420q26-10 45.5-18t43.5-23 39.5-32 26.5-42 11-55q0-77-62-125t-166-48q-74 0-151 24t-130 55l61 98q45-24 108-43.5t109-19.5q36 0 60.5 13t24.5 38q0 14-10 24.5t-30.5 18.5-41.5 14.5-54 16.5-58 19q-69 24-112.5 61t-43.5 103q0 75 59 122.5t162 47.5q128 0 256-61l-63-100q-111 47-188 47-34 0-57-12t-23-37q0-14 9.5-24t28.5-17.5 39-13 51.5-14 55.5-17.5z"/><glyph glyph-name="Sacute.sc" horiz-adv-x="567" d="M300 616h-118l125 138h165zm72-282q26-10 45.5-18t43.5-23 39.5-32 26.5-42 11-55q0-77-62-125t-166-48q-74 0-151 24t-130 55l61 98q45-24 108-43.5t109-19.5q36 0 60.5 13t24.5 38q0 14-10 24.5t-30.5 18.5-41.5 14.5-54 16.5-58 19q-69 24-112.5 61t-43.5 103q0 75 59 122.5t162 47.5q128 0 256-61l-63-100q-111 47-188 47-34 0-57-12t-23-37q0-14 9.5-24t28.5-17.5 39-13 51.5-14 55.5-17.5z"/><glyph glyph-name="S.sc" horiz-adv-x="567" d="M372 334q26-10 45.5-18t43.5-23 39.5-32 26.5-42 11-55q0-77-62-125t-166-48q-74 0-151 24t-130 55l61 98q45-24 108-43.5t109-19.5q36 0 60.5 13t24.5 38q0 14-10 24.5t-30.5 18.5-41.5 14.5-54 16.5-58 19q-69 24-112.5 61t-43.5 103q0 75 59 122.5t162 47.5q128 0 256-61l-63-100q-111 47-188 47-34 0-57-12t-23-37q0-14 9.5-24t28.5-17.5 39-13 51.5-14 55.5-17.5z"/><glyph glyph-name="Rsuperior" horiz-adv-x="470" d="M327 385l-101 158h-66v-158h-103v420h201q179 0 179-132 0-101-106-124l107-164h-111zm6 288q0 52-81 52h-92v-102h90q83 0 83 50z"/><glyph glyph-name="Rinferior" horiz-adv-x="471" d="M327-150l-101 158h-66v-158h-103v420h201q179 0 179-132 0-101-106-124l107-164h-111zm6 288q0 52-81 52h-92v-102h90q83 0 83 50z"/><glyph glyph-name="paragraph.sc" horiz-adv-x="638" d="M271 574h111v-726h-113v322q-106 0-173 50.5t-67 152.5q0 103 64.5 152t177.5 49zm181-727v727h113v-727h-113z"/><glyph glyph-name="Rcommaaccent.sc" horiz-adv-x="628" d="M442 0l-139 217h-97v-217h-138v574h275q247 0 247-179 0-140-149-170l150-225h-149zm7 395q0 72-113 72h-130v-143h128q56 0 85.5 15.5t29.5 55.5zm-194-572v120h109l9-132-92-107-30 36 53 83h-49z"/><glyph glyph-name="parenleft.sc" horiz-adv-x="321" d="M65 88v395q0 31 .5 45.5t4 37 11 33.5 21 26 34.5 24.5 51.5 19.5 71.5 19l34-74q-62-20-76-37t-14-61v-461q0-44 14-61.5t76-36.5l-34-74q-41 9-71.5 19t-51.5 19.5-34.5 24.5-21 26-11 33.5-4 37-.5 45.5z"/><glyph glyph-name="Rcaron.sc" horiz-adv-x="628" d="M442 0l-139 217h-97v-217h-138v574h275q247 0 247-179 0-140-149-170l150-225h-149zm7 395q0 72-113 72h-130v-143h128q56 0 85.5 15.5t29.5 55.5zm56 359l-106-138h-140l-105 138h100l76-74 76 74h99z"/><glyph glyph-name="Racute.sc" horiz-adv-x="628" d="M442 0l-139 217h-97v-217h-138v574h275q247 0 247-179 0-140-149-170l150-225h-149zm7 395q0 72-113 72h-130v-143h128q56 0 85.5 15.5t29.5 55.5zm-103 221h-119l125 138h165z"/><glyph glyph-name="R.sc" horiz-adv-x="628" d="M442 0l-139 217h-97v-217h-138v574h275q247 0 247-179 0-140-149-170l150-225h-149zm7 395q0 72-113 72h-130v-143h128q56 0 85.5 15.5t29.5 55.5z"/><glyph glyph-name="parenright.sc" horiz-adv-x="320" d="M255 483v-395q0-31-.5-45.5t-4-37-11-33.5-21-26-34.5-24.5-51-19.5-71-19l-34 74q61 19 75 36.5t14 61.5v461q0 44-13.5 61t-75.5 37l34 74q41-9 71-19t51-19.5 34.5-24.5 21-26 11-33.5 4-37 .5-45.5z"/><glyph glyph-name="f_b.ss01" horiz-adv-x="1012" d="M22 419v106h72v27q0 177 168 177 82 0 188-29v29h144v-262q84 69 174 69 94 0 150-70t56-204q0-133-56-203t-150-70q-91 0-174 68v-57h-144v584q-118 21-156 21-57 0-57-49v-31h131v-106h-131v-419h-143v419h-72zm704 1q-73 0-132-67v-182q58-66 132-66 102 0 102 158 0 157-102 157z"/><glyph glyph-name="Qinferior" horiz-adv-x="500" d="M251-157q-110 0-163 60t-53 157 53 157 163 60 163-60 53-157q0-145-107-195l67-50-68-70zm0 88q110 0 110 129t-110 129-110-129 110-129z"/><glyph glyph-name="Q.sc" horiz-adv-x="672" d="M336-9q-151 0-223.5 82t-72.5 214q0 133 72.5 214.5t223.5 81.5 223.5-81.5 72.5-214.5q0-201-149-268l92-68-92-94zm0 118q154 0 154 178t-154 178-154-178 154-178z"/><glyph glyph-name="Psuperior" horiz-adv-x="445" d="M423 666q0-137-179-137h-84v-144h-103v420h187q179 0 179-139zm-104 0q0 54-81 54h-78v-107h78q81 0 81 53z"/><glyph glyph-name="percent.onum" horiz-adv-x="891" d="M858 144q0-71-45-112t-125-41q-81 0-125.5 40.5t-44.5 112.5 45 113 125 41 125-41 45-113zm-99 0q0 36-19 55t-52 19q-34 0-53-19t-19-55 19-54.5 53-18.5 52.5 18.5 18.5 54.5zm-105 430l-315-574h-103l315 574h103zm-280-145q0-71-45.5-112t-124.5-41q-81 0-126 40.5t-45 112.5 45 113 126 41q79 0 124.5-41.5t45.5-112.5zm-99 0q0 35-19 54.5t-52 19.5q-34 0-53-19t-19-55 19-54.5 53-18.5q33 0 52 19t19 54z"/><glyph glyph-name="percentinferior" horiz-adv-x="638" d="M267 164q0-53-32-82.5t-92-29.5-92 29-32 83 32 83.5 92 29.5 92-29.5 32-83.5zm-73 0q0 53-51 53-49 0-49-53t49-53q51 0 51 53zm277 106l-232-427h-76l231 427h77zm147-314q0-54-32-83.5t-92-29.5-91.5 29.5-31.5 83.5 31.5 83 91.5 29 92-29.5 32-82.5zm-74 0q0 53-50 53t-50-53 50-53 50 53z"/><glyph glyph-name="percentsuperior" horiz-adv-x="638" d="M267 699q0-53-32-82.5t-92-29.5-92 29-32 83 32 83.5 92 29.5 92-29.5 32-83.5zm-73 0q0 53-51 53-49 0-49-53t49-53q51 0 51 53zm277 106l-232-427h-76l231 427h77zm147-314q0-54-32-83.5t-92-29.5-91.5 29.5-31.5 83.5 31.5 83 91.5 29 92-29.5 32-82.5zm-74 0q0 53-50 53t-50-53 50-53 50 53z"/><glyph glyph-name="Pinferior" horiz-adv-x="445" d="M423 131q0-137-179-137h-84v-144h-103v420h187q179 0 179-139zm-104 0q0 54-81 54h-78v-107h78q81 0 81 53z"/><glyph glyph-name="P.sc" horiz-adv-x="594" d="M571 385q0-187-247-187h-118v-198h-138v574h256q121 0 184-48t63-141zm-140 0q0 75-114 75h-111v-149h111q114 0 114 74z"/><glyph glyph-name="Otilde.sc" horiz-adv-x="672" d="M336 583q151 0 223.5-81.5t72.5-214.5q0-132-72.5-214t-223.5-82-223.5 82-72.5 214q0 133 72.5 214.5t223.5 81.5zm0-474q154 0 154 178t-154 178-154-178 154-178zm-119 513l-65 31q15 28 22 40t21.5 30.5 30.5 26 37 7.5q30 0 78-23.5t61-23.5q27 0 52 46l65-32q-17-34-28-52t-33.5-35-49.5-17q-30 0-78 24t-61 24q-25 0-52-46z"/><glyph glyph-name="Osuperior" horiz-adv-x="500" d="M251 812q110 0 162.5-60t52.5-157-52.5-157-162.5-60-163 59.5-53 157.5 53 157.5 163 59.5zm0-346q109 0 109 129t-109 129q-110 0-110-129t110-129z"/><glyph glyph-name="Oslashacute.sc" horiz-adv-x="671" d="M622 574l-61-74q71-78 71-213 0-132-72.5-214t-223.5-82q-100 0-166 37l-23-28h-96l61 73q-72 78-72 214 0 133 72.5 214.5t223.5 81.5q98 0 166-38l24 29h96zm-440-287q0-64 20-105l218 263q-34 20-84 20-154 0-154-178zm154-178q154 0 154 178 0 63-20 103l-217-262q35-19 83-19zm16 507h-117l125 138h164z"/><glyph glyph-name="perthousand.onum" horiz-adv-x="1276" d="M375 429q0-71-45.5-112t-124.5-41q-81 0-126 40.5t-45 112.5 45 113 126 41q79 0 124.5-41.5t45.5-112.5zm-99 0q0 35-19 54.5t-52 19.5q-34 0-53-19t-19-55 19-54.5 53-18.5q33 0 52 19t19 54zm583-285q0-71-45-112t-125-41q-81 0-125.5 40.5t-44.5 112.5 45 113 125 41 125-41 45-113zm-99 0q0 36-19 55t-52 19q-34 0-53-19t-19-55 19-54.5 53-18.5q33 0 52 18.5t19 54.5zm483 0q0-72-44.5-112.5t-125.5-40.5-126 40.5-45 112.5 45 113 126 41q80 0 125-41t45-113zm-99 0q0 36-18.5 55t-52.5 19-53-19-19-55 19-54.5 53-18.5q71 0 71 73zm-489 430l-315-574h-103l315 574h103z"/><glyph glyph-name="Omacron.sc" horiz-adv-x="672" d="M336 583q151 0 223.5-81.5t72.5-214.5q0-132-72.5-214t-223.5-82-223.5 82-72.5 214q0 133 72.5 214.5t223.5 81.5zm0-474q154 0 154 178t-154 178-154-178 154-178zm-154 532v85h307v-85h-307z"/><glyph glyph-name="peseta.onum" horiz-adv-x="633" d="M54 366v39h25v169h256q233 0 245-169h24v-39h-24q-12-168-245-168h-118v-198h-138v366h-25zm274-55q98 0 111 55h-222v-55h111zm-111 149v-55h222q-14 55-111 55h-111z"/><glyph glyph-name="pesetainferior" horiz-adv-x="457" d="M40 115v32h18v123h186q168 0 179-123h18v-32h-18q-10-121-179-121h-83v-144h-103v265h-18zm121 70v-38h156q-10 38-79 38h-77zm77-107q69 0 79 37h-156v-37h77z"/><glyph glyph-name="pesetasuperior" horiz-adv-x="457" d="M40 650v32h18v123h186q168 0 179-123h18v-32h-18q-10-121-179-121h-83v-144h-103v265h-18zm121 70v-38h156q-10 38-79 38h-77zm77-107q69 0 79 37h-156v-37h77z"/><glyph glyph-name="Oinferior" horiz-adv-x="500" d="M251 277q110 0 162.5-60t52.5-157-52.5-157-162.5-60-163 59.5-53 157.5 53 157.5 163 59.5zm0-346q109 0 109 129t-109 129q-110 0-110-129t110-129z"/><glyph glyph-name="pinferior" horiz-adv-x="411" d="M146 165v-33q55 40 109 40 59 0 94-42.5t35-122.5q0-79-35-121.5t-94-42.5q-54 0-109 40v-155h-100v437h100zm79-72q-45 0-79-37v-97q34-37 79-37 59 0 59 86 0 85-59 85z"/><glyph glyph-name="Ohungarumlaut.sc" horiz-adv-x="672" d="M336 583q151 0 223.5-81.5t72.5-214.5q0-132-72.5-214t-223.5-82-223.5 82-72.5 214q0 133 72.5 214.5t223.5 81.5zm0-474q154 0 154 178t-154 178-154-178 154-178zm114 507h-86l80 138h134zm-176 0h-86l81 138h132z"/><glyph glyph-name="plusinferior" horiz-adv-x="382" d="M154 193h75v-106h125v-74h-125v-106h-75v106h-126v74h126v106z"/><glyph glyph-name="Ograve.sc" horiz-adv-x="672" d="M336 583q151 0 223.5-81.5t72.5-214.5q0-132-72.5-214t-223.5-82-223.5 82-72.5 214q0 133 72.5 214.5t223.5 81.5zm0-474q154 0 154 178t-154 178-154-178 154-178zm103 507h-118l-172 138h165z"/><glyph glyph-name="Odieresis.sc" horiz-adv-x="672" d="M336 583q151 0 223.5-81.5t72.5-214.5q0-132-72.5-214t-223.5-82-223.5 82-72.5 214q0 133 72.5 214.5t223.5 81.5zm0-474q154 0 154 178t-154 178-154-178 154-178zm-148 517v115h116v-115h-116zm182 0v115h115v-115h-115z"/><glyph glyph-name="Ocircumflex.sc" horiz-adv-x="672" d="M336 583q151 0 223.5-81.5t72.5-214.5q0-132-72.5-214t-223.5-82-223.5 82-72.5 214q0 133 72.5 214.5t223.5 81.5zm0-474q154 0 154 178t-154 178-154-178 154-178zm71 645l105-138h-99l-77 75-76-75h-100l106 138h141z"/><glyph glyph-name="psuperior" horiz-adv-x="411" d="M146 700v-33q55 40 109 40 59 0 94-42.5t35-122.5q0-79-35-121.5t-94-42.5q-55 0-109 39v-154h-100v437h100zm79-72q-45 0-79-37v-98q35-36 79-36 59 0 59 86 0 85-59 85z"/><glyph glyph-name="Obreve.sc" horiz-adv-x="672" d="M336 583q151 0 223.5-81.5t72.5-214.5q0-132-72.5-214t-223.5-82-223.5 82-72.5 214q0 133 72.5 214.5t223.5 81.5zm0-474q154 0 154 178t-154 178-154-178 154-178zm-1 507q-77 0-120 33t-43 90h90q0-21 19.5-32.5t53.5-11.5q35 0 55.5 11.5t20.5 32.5h90q0-57-44-90t-122-33z"/><glyph glyph-name="qinferior" horiz-adv-x="411" d="M265-272v155q-55-40-109-40-59 0-94 42.5t-35 121.5q0 80 35 122.5t94 42.5q54 0 109-40v33h100v-437h-100zm-78 194q42 0 78 37v97q-36 37-78 37-59 0-59-85 0-86 59-86z"/><glyph glyph-name="qsuperior" horiz-adv-x="411" d="M265 263v154q-54-39-109-39-59 0-94 42.5t-35 121.5q0 80 35 122.5t94 42.5q54 0 109-40v33h100v-437h-100zm-78 194q42 0 78 36v98q-36 37-78 37-59 0-59-85 0-86 59-86z"/><glyph glyph-name="Oacute.sc" horiz-adv-x="672" d="M336 583q151 0 223.5-81.5t72.5-214.5q0-132-72.5-214t-223.5-82-223.5 82-72.5 214q0 133 72.5 214.5t223.5 81.5zm0-474q154 0 154 178t-154 178-154-178 154-178zm16 507h-117l125 138h164z"/><glyph glyph-name="question.sc" horiz-adv-x="479" d="M126 0v134h136v-134h-136zm319 431q0-39-16.5-69.5t-47-51-63-33.5-75.5-24l-6-63h-85l-7 134q88 17 124.5 34.5t36.5 50.5q0 25-22.5 42.5t-62.5 17.5q-62 0-137-44l-58 93q115 65 218 65 88 0 144.5-41.5t56.5-110.5z"/><glyph glyph-name="OE.sc" horiz-adv-x="972" d="M931 0h-439v23q-67-32-156-32-151 0-223.5 82t-72.5 214q0 133 72.5 214.5t223.5 81.5q89 0 156-32v23h434v-117h-296v-113h242v-114h-242v-113h301v-117zm-595 109q154 0 154 178t-154 178-154-178 154-178z"/><glyph glyph-name="questiondown.sc" horiz-adv-x="480" d="M35 143q0 39 16.5 69.5t47 50.5 63 33.5 74.5 23.5l7 64h84l8-135q-88-16-124.5-33.5t-36.5-50.5q0-25 22.5-42.5t62.5-17.5q63 0 136 44l59-93q-112-65-218-65-87 0-144 41.5t-57 110.5zm319 431v-134h-137v134h137z"/><glyph glyph-name="questiondowninferior" horiz-adv-x="337" d="M20-45q0 54 40 83.5t107 46.5l5 46h62l6-99q-64-12-90-24.5t-26-36.5q0-18 16-30.5t44-12.5q45 0 98 32l43-69q-81-48-158-48-65 0-106 31t-41 81zm234 315v-98h-102v98h102z"/><glyph glyph-name="questiondownsuperior" horiz-adv-x="337" d="M20 490q0 54 40 83.5t107 46.5l5 46h62l6-99q-64-12-90-24.5t-26-36.5q0-18 16-30.5t44-12.5q45 0 98 32l43-69q-81-48-158-48-65 0-106 31t-41 81zm234 315v-98h-102v98h102z"/><glyph glyph-name="questioninferior" horiz-adv-x="337" d="M83-150v98h103v-98h-103zm234 315q0-54-40-83.5t-107-46.5l-5-46h-62l-6 99q64 12 90 24.5t26 36.5q0 18-15.5 30.5t-43.5 12.5q-46 0-99-32l-43 69q81 48 158 48 64 0 105.5-31t41.5-81z"/><glyph glyph-name="questionsuperior" horiz-adv-x="337" d="M83 385v98h103v-98h-103zm234 315q0-54-40-83.5t-107-46.5l-5-46h-62l-6 99q64 12 90 24.5t26 36.5q0 18-15.5 30.5t-43.5 12.5q-46 0-99-32l-43 69q81 48 158 48 64 0 105.5-31t41.5-81z"/><glyph glyph-name="O.sc" horiz-adv-x="672" d="M336 583q151 0 223.5-81.5t72.5-214.5q0-132-72.5-214t-223.5-82-223.5 82-72.5 214q0 133 72.5 214.5t223.5 81.5zm0-474q154 0 154 178t-154 178-154-178 154-178z"/><glyph glyph-name="Ntilde.sc" horiz-adv-x="661" d="M210 574l245-381v381h138v-574h-140l-247 383v-383h-138v574h142zm7 48l-65 31q13 26 21 39.5t22 31.5 30.5 25.5 37.5 7.5q30 0 77.5-23.5t61.5-23.5q26 0 52 46l65-32q-14-27-21.5-39.5t-21.5-31-30.5-26-37.5-7.5q-30 0-78 24t-62 24q-25 0-51-46z"/><glyph glyph-name="Nsuperior" horiz-adv-x="498" d="M335 385l-175 273v-273h-103v420h105l175-272v272h104v-420h-106z"/><glyph glyph-name="Ninferior" horiz-adv-x="498" d="M335-150l-175 273v-273h-103v420h105l175-272v272h104v-420h-106z"/><glyph glyph-name="Ncommaaccent.sc" horiz-adv-x="661" d="M210 574l245-381v381h138v-574h-140l-247 383v-383h-138v574h142zm67-751v120h109l9-132-91-107-31 36 53 83h-49z"/><glyph glyph-name="Ncaron.sc" horiz-adv-x="661" d="M210 574l245-381v381h138v-574h-140l-247 383v-383h-138v574h142zm301 180l-105-138h-140l-106 138h100l76-74 77 74h98z"/><glyph glyph-name="Nacute.sc" horiz-adv-x="661" d="M210 574l245-381v381h138v-574h-140l-247 383v-383h-138v574h142zm137 42h-118l125 138h165z"/><glyph glyph-name="N.sc" horiz-adv-x="661" d="M453 0l-247 383v-383h-138v574h142l245-381v381h138v-574h-140z"/><glyph glyph-name="Msuperior" horiz-adv-x="567" d="M407 385v261l-95-191h-56l-96 193v-263h-103v420h105l122-242 121 242h106v-420h-104z"/><glyph glyph-name="Minferior" horiz-adv-x="567" d="M407-150v261l-95-191h-56l-96 193v-263h-103v420h105l122-242 121 242h106v-420h-104z"/><glyph glyph-name="M.sc" horiz-adv-x="759" d="M553 0v371l-138-275h-70l-139 277v-373h-138v574h142l170-335 169 335h142v-574h-138z"/><glyph glyph-name="Lsuperior" horiz-adv-x="383" d="M367 385h-310v420h103v-334h207v-86z"/><glyph glyph-name="Lslash.sc" horiz-adv-x="526" d="M507 0h-425v187l-61-32v121l61 32v266h138v-192l115 62v-121l-115-62v-144h287v-117z"/><glyph glyph-name="Linferior" horiz-adv-x="383" d="M367-150h-310v420h103v-334h207v-86z"/><glyph glyph-name="rinferior" horiz-adv-x="283" d="M146 165v-66q3 9 11 20t21.5 24 37.5 20.5 53 5.5v-93q-31 0-55-10.5t-36.5-25-20-29.5-9.5-25l-2-11v-125h-100v315h100z"/><glyph glyph-name="Ldot.sc" horiz-adv-x="514" d="M494 0h-426v574h138v-460h288v-114zm-157 249v115h115v-115h-115z"/><glyph glyph-name="Lcommaaccent.sc" horiz-adv-x="512" d="M494 0h-426v574h138v-460h288v-114zm-273-177v120h109l9-132-91-107-30 36 53 83h-50z"/><glyph glyph-name="Lcaron.sc" horiz-adv-x="513" d="M494 0h-426v574h138v-460h288v-114zm-250 454v120h110l9-132-92-107-29 36 52 83h-50z"/><glyph glyph-name="s_h" horiz-adv-x="1158" d="M739 729v-267q106 74 205 74 156 0 156-165v-371h-144v338q0 86-69 86-37 0-78-21t-70-47v-356h-144v664h-63q-50 0-78.5-26t-28.5-73q0-41 19-70 3-1 39-16l-56-94q-103 42-175 42-32 0-51-12t-19-31q0-9 4-16t12.5-12.5 17-10 23.5-8.5 25-6.5l28-7 27-6.5q85-21 136-60.5t51-110.5q0-73-56.5-115t-154.5-42q-71 0-145 20.5t-123 47.5l57 101q45-22 105-40.5t100-18.5q33 0 52.5 12t19.5 31q0 9-4.5 16.5t-14 13.5-19.5 10.5-25.5 9.5-26 7.5-28 7-25.5 6.5q-37 10-64.5 21t-56 30-44 48.5-15.5 67.5q0 71 54 113.5t150 42.5q58 0 126-17-12 27-12 61 0 68 47.5 108.5t136.5 40.5h199z"/><glyph glyph-name="s_k" horiz-adv-x="1103" d="M1074 525l-178-209 208-316h-151l-143 214-71-83v-131h-144v664h-63q-50 0-78.5-26t-28.5-73q0-41 19-70 3-1 39-16l-56-94q-103 42-175 42-32 0-51-12t-19-31q0-9 4-16t12.5-12.5 17-10 23.5-8.5 25-6.5l28-7 27-6.5q85-21 136-60.5t51-110.5q0-73-56.5-115t-154.5-42q-71 0-145 20.5t-123 47.5l57 101q45-22 105-40.5t100-18.5q33 0 52.5 12t19.5 31q0 9-4.5 16.5t-14 13.5-19.5 10.5-25.5 9.5-26 7.5-28 7-25.5 6.5q-37 10-64.5 21t-56 30-44 48.5-15.5 67.5q0 71 54 113.5t150 42.5q58 0 126-17-12 27-12 61 0 68 47.5 108.5t136.5 40.5h199v-422l171 218h164z"/><glyph glyph-name="s_l" horiz-adv-x="806" d="M741 0h-144v664h-65q-50 0-78.5-26t-28.5-73q0-41 19-70 3-1 39-16l-56-94q-103 42-175 42-32 0-51-12t-19-31q0-9 4-16t12.5-12.5 17-10 23.5-8.5 25-6.5l28-7 27-6.5q85-21 136-60.5t51-110.5q0-73-56.5-115t-154.5-42q-71 0-145 20.5t-123 47.5l57 101q45-22 105-40.5t100-18.5q33 0 52.5 12t19.5 31q0 9-4.5 16.5t-14 13.5-19.5 10.5-25.5 9.5-26 7.5-28 7-25.5 6.5q-37 10-64.5 21t-56 30-44 48.5-15.5 67.5q0 71 54 113.5t150 42.5q58 0 126-17-12 27-12 61 0 68 47.5 108.5t136.5 40.5h201v-729z"/><glyph glyph-name="Lacute.sc" horiz-adv-x="513" d="M493 0h-425v574h139v-460h286v-114zm-339 616h-118l125 138h164z"/><glyph glyph-name="L.sc" horiz-adv-x="513" d="M494 0h-426v574h138v-457h288v-117z"/><glyph glyph-name="Ksuperior" horiz-adv-x="463" d="M57 385v420h103v-194l167 194h121l-176-199 185-221h-123l-125 150-49-56v-94h-103z"/><glyph glyph-name="Kinferior" horiz-adv-x="463" d="M57-150v420h103v-194l167 194h121l-176-199 185-221h-123l-125 150-49-55v-95h-103z"/><glyph glyph-name="Kcommaaccent.sc" horiz-adv-x="619" d="M68 0v574h138v-269l234 269h163l-244-272 257-302h-165l-175 209-70-79v-130h-138zm183-177v120h109l10-132-93-107-30 36 53 83h-49z"/><glyph glyph-name="K.sc" horiz-adv-x="619" d="M68 0v574h138v-269l234 269h163l-244-272 257-302h-165l-175 209-70-79v-130h-138z"/><glyph glyph-name="Jsuperior" horiz-adv-x="216" d="M160 805v-379q0-20-.5-30t-2-25.5-5-22.5-10.5-18-17-17-25-14-35.5-13.5-47.5-11.5l-34 75q52 16 63 28t11 44v384h103z"/><glyph glyph-name="Jinferior" horiz-adv-x="216" d="M160 270v-379q0-21-.5-30.5t-2-25-5-22.5-10.5-18-17-17-25-14-35.5-13.5-47.5-11.5l-34 75q52 16 63 28t11 44v384h103z"/><glyph glyph-name="semicoloninferior" horiz-adv-x="204" d="M50 33v108h102v-108h-102zm0-183v108h101l8-121-83-88-27 33 47 68h-46z"/><glyph glyph-name="semicolonsuperior" horiz-adv-x="204" d="M50 568v108h102v-108h-102zm0-183v108h101l8-121-83-88-27 33 47 68h-46z"/><glyph glyph-name="Jcircumflex.sc" horiz-adv-x="275" d="M206 574v-518q0-28-.5-41t-2.5-34-7-31-14.5-25-23.5-23-34.5-18.5-48-18.5-64.5-16l-45 101q39 12 59 20.5t30 21.5 11.5 23 1.5 34v525h138zm0 180l106-138h-99l-76 75-76-75h-100l106 138h139z"/><glyph glyph-name="J.sc" horiz-adv-x="275" d="M207 574v-518q0-28-.5-41t-2.5-34-7-31-14.5-25-23.5-23-34.5-18.5-48-18.5-64.5-16l-45 101q39 12 59 20.5t30 21.5 11.5 23 1.5 34v525h138z"/><glyph glyph-name="seven.dnom" horiz-adv-x="353" d="M337 341q-6-7-17-20.5t-38-53-48-78.5-38-91.5-17-97.5h-107q0 52 21 111.5t51.5 108.5 50 75 31.5 40h-204v85h315v-79z"/><glyph glyph-name="seven.numr" horiz-adv-x="353" d="M337 621q-6-7-17-20.5t-38-53-48-78.5-38-91.5-17-97.5h-107q0 52 21 111.5t51.5 108.5 50 75 31.5 40h-204v85h315v-79z"/><glyph glyph-name="seven.onum" horiz-adv-x="529" d="M514 459q-10-12-27.5-34.5t-61-90.5-77-134.5-61-157-27.5-168.5h-155q0 73 24 157t55 148.5 70.5 129.5 60.5 94 36 47h-329v124h492v-115z"/><glyph glyph-name="seven.tnum" horiz-adv-x="675" d="M589 585q-10-12-27.5-34.5t-61-90.5-77-134.5-61-157-27.5-168.5h-155q0 73 24 157t55 148.5 70.5 129.5 60.5 94 36 47h-330v124h493v-115z"/><glyph glyph-name="Itilde.sc" horiz-adv-x="274" d="M18 622l-65 31q13 26 21 39.5t22 31.5 30.5 25.5 37.5 7.5q30 0 77.5-23.5t61.5-23.5q26 0 51 46l65-32q-17-34-28-52t-33.5-35-49.5-17q-30 0-77.5 24t-61.5 24q-25 0-51-46zm188-622h-138v574h138v-574z"/><glyph glyph-name="seveneighths.onum" horiz-adv-x="771" d="M419 93q0 60 83 95-59 30-59 77 0 38 35.5 61.5t98.5 23.5 99.5-24 36.5-61q0-46-61-77 84-35 84-95 0-45-42.5-72t-116.5-27q-73 0-115.5 27t-42.5 72zm108 481l-287-574h-89l286 574h90zm-226-63q-6-6-15-17t-33-43.5-42-64.5-33-75.5-15-80.5h-86q0 43 18 92t45 89 43.5 61.5 27.5 33.5h-180v68h270v-63zm350-411q0 33-74 58-35-13-54.5-26t-19.5-32 21-31.5 53-12.5 53 12.5 21 31.5zm-128 155q0-23 54-42 53 17 53 42 0 14-15 25t-38 11-38.5-11.5-15.5-24.5z"/><glyph glyph-name="Isuperior" horiz-adv-x="217" d="M160 385h-103v420h103v-420z"/><glyph glyph-name="Iogonek.sc" horiz-adv-x="275" d="M111-94q0-8 2.5-14.5t8.5-10 11-5.5 14.5-3 14-1h24.5l-13-66q-83 0-117 18-40 22-40 68 0 61 98 108h-45v574h139v-574h-3q-27-15-43-26t-33.5-30.5-17.5-37.5z"/><glyph glyph-name="sinferior" horiz-adv-x="354" d="M214 44q117-28 117-104 0-45-36-71t-99-26q-92 0-174 42l40 70q74-36 131-36 38 0 38 18 0 12-27 21t-60 15q-116 28-116 102 0 43 34.5 70t97.5 27q73 0 157-35l-40-65q-68 25-112 25-38 0-38-19 0-6 4.5-10.5t14.5-7.5 19-5 24.5-5.5 24.5-5.5z"/><glyph glyph-name="Imacron.sc" horiz-adv-x="274" d="M205 0h-137v574h137v-574zm-222 641v85h307v-85h-307z"/><glyph glyph-name="six.dnom" horiz-adv-x="421" d="M299 344q-52 0-92.5-25.5t-58.5-78.5q42 31 103 31 63 0 103-36.5t40-94.5q0-62-47.5-104.5t-126.5-42.5q-92 0-139 53t-47 132q0 108 73.5 178.5t190.5 70.5q18 0 34.5-1.5t24.5-3.5l8-2-23-80q-20 4-43 4zm-80-149q-54 0-81-34 1-43 24-64t56-21q35 0 54 18t19 42q0 25-19.5 42t-52.5 17z"/><glyph glyph-name="six.numr" horiz-adv-x="421" d="M299 624q-52 0-92.5-25.5t-58.5-78.5q42 31 103 31 63 0 103-36.5t40-94.5q0-62-47.5-104.5t-126.5-42.5q-92 0-139 53t-47 132q0 108 73.5 178.5t190.5 70.5q18 0 34.5-1.5t24.5-3.5l8-2-23-80q-20 4-43 4zm-80-149q-54 0-81-34 1-43 24-64t56-21q35 0 54 18t19 42q0 25-19.5 42t-52.5 17z"/><glyph glyph-name="six.onum" horiz-adv-x="635" d="M456 589q-83 0-151-47t-95-149q67 58 168 58t163-61 62-158q0-102-73-172.5t-195-70.5q-142 0-216 87t-74 211q-1 193 115.5 308.5t294.5 115.5q27 0 53-2.5t38-5.5l13-3-35-117q-31 6-68 6zm-123-250q-48 0-84.5-21t-52.5-47q0-75 38.5-117.5t96.5-42.5q60 0 91.5 34.5t31.5 81.5-32 79.5-89 32.5z"/><glyph glyph-name="six.tnum" horiz-adv-x="675" d="M474 589q-53 0-99.5-17.5t-87-63.5-58.5-115q65 58 167 58 101 0 163.5-61t62.5-158q0-102-73-172.5t-196-70.5q-73 0-129.5 25t-90.5 67.5-51.5 95-17.5 110.5q-1 193 115.5 308.5t293.5 115.5q27 0 53-2.5t38-5.5l13-3-35-117q-30 6-68 6zm-123-250q-47 0-83.5-21t-52.5-47q0-75 38-117.5t96-42.5q60 0 91.5 34.5t31.5 81.5-32 79.5-89 32.5z"/><glyph glyph-name="Iinferior" horiz-adv-x="217" d="M160-150h-103v420h103v-420z"/><glyph glyph-name="Igrave.sc" horiz-adv-x="275" d="M207 0h-139v574h139v-574zm33 616h-118l-172 138h165z"/><glyph glyph-name="Idieresis.sc" horiz-adv-x="274" d="M207 0h-138v574h138v-574zm-218 626v115h116v-115h-116zm182 0v115h115v-115h-115z"/><glyph glyph-name="slash.sc" horiz-adv-x="431" d="M406 648l-286-722h-100l285 722h101z"/><glyph glyph-name="Icircumflex.sc" horiz-adv-x="274" d="M206 0h-138v574h138v-574zm1 754l106-138h-100l-76 75-76-75h-100l106 138h140z"/><glyph glyph-name="spaceinferior" horiz-adv-x="157"/><glyph glyph-name="spacesuperior" horiz-adv-x="157"/><glyph glyph-name="Ibreve.sc" horiz-adv-x="274" d="M136 616q-77 0-120 33t-43 90h90q0-21 19.5-32.5t53.5-11.5q36 0 56 11.5t20 32.5h90q0-57-44-90t-122-33zm70-616h-138v574h138v-574z"/><glyph glyph-name="Iacute.sc" horiz-adv-x="275" d="M207 0h-139v574h139v-574zm-53 616h-118l125 138h164z"/><glyph glyph-name="sterling.onum" horiz-adv-x="519" d="M57 202v78h75q-6 11-20.5 33.5t-22.5 37.5-15.5 39-7.5 48q0 68 49.5 106.5t136.5 38.5q104 0 228-73l-60-88q-89 47-142 47-36 0-54.5-14.5t-18.5-37.5q0-26 29.5-70t37.5-67h141v-78h-134q-12-58-59-88h250v-114h-423v92q4 1 10 3.5t23 12.5 30 21.5 25 31 15 41.5h-93z"/><glyph glyph-name="IJ.sc" horiz-adv-x="550" d="M206 0h-138v574h138v-574zm274 574v-518q0-25-.5-36.5t-2-31-5-28.5-9.5-23.5-16-22-24.5-18.5-34-18-45-14.5-57.5-14.5l-45 101q72 23 86.5 39t14.5 60v525h138z"/><glyph glyph-name="I.sc" horiz-adv-x="274" d="M206 0h-138v574h138v-574z"/><glyph glyph-name="Hsuperior" horiz-adv-x="487" d="M327 385v178h-167v-178h-103v420h103v-157h167v157h103v-420h-103z"/><glyph glyph-name="Hinferior" horiz-adv-x="487" d="M327-150v178h-167v-178h-103v420h103v-157h167v157h103v-420h-103z"/><glyph glyph-name="Hbar.sc" horiz-adv-x="669" d="M452 0v244h-235v-244h-138v422h-66v76h66v76h138v-76h235v76h138v-76h66v-76h-66v-422h-138zm-235 422v-64h235v64h-235z"/><glyph glyph-name="H.sc" horiz-adv-x="647" d="M441 0v244h-235v-244h-138v574h138v-216h235v216h138v-574h-138z"/><glyph glyph-name="Gsuperior" horiz-adv-x="471" d="M330 385v39q-56-46-119-46-75 0-125.5 56t-50.5 160q0 107 51.5 162.5t135.5 55.5q87 0 200-62l-48-75q-88 44-139 44-44 0-68.5-33.5t-24.5-90.5q0-59 23.5-94t68.5-35 96 43v40h-100v81h198v-245h-98z"/><glyph glyph-name="three.dnom" horiz-adv-x="405" d="M18 48l46 70q71-39 131-39 33 0 53 12.5t20 34.5q0 53-121 53h-20v86h23q100 0 100 44 0 33-55 33-53 0-115-36l-42 64q77 57 174 57 70 0 105.5-29.5t35.5-73.5q0-64-72-92 40-12 66-41.5t26-66.5q0-55-40-93t-125-38q-95 0-190 55z"/><glyph glyph-name="three.numr" horiz-adv-x="405" d="M18 328l46 70q71-39 131-39 33 0 53 12.5t20 34.5q0 53-121 53h-20v86h23q100 0 100 44 0 33-55 33-53 0-115-36l-42 64q77 57 174 57 70 0 105.5-29.5t35.5-73.5q0-64-72-92 40-12 66-41.5t26-66.5q0-55-40-93t-125-38q-95 0-190 55z"/><glyph glyph-name="three.onum" horiz-adv-x="605" d="M17-52l66 102q117-63 207-63 57 0 91.5 24t34.5 67q0 31-19 52.5t-51 32-63 15-65 4.5h-31v125h36q65 0 114 20t49 65q0 31-24.5 49t-69.5 18q-81 0-182-59l-62 94q123 89 267 89 108 0 164.5-48.5t56.5-120.5q0-107-118-156 66-19 108-68.5t42-113.5q0-42-14.5-79t-44-68-81-49.5-119.5-18.5q-149 0-292 87z"/><glyph glyph-name="three.tnum" horiz-adv-x="675" d="M51 76l67 102q117-63 206-63 57 0 92 24t35 67q0 31-19.5 52.5t-51.5 32-63 15-65 4.5h-30v125h35q65 0 114.5 20t49.5 65q0 31-25 49t-70 18q-83 0-181-59l-62 94q123 89 267 89 107 0 163.5-48.5t56.5-120.5q0-107-117-156 65-19 107-68.5t42-113.5q0-42-14.5-79t-44-68-81-49.5-119.5-18.5q-149 0-292 87z"/><glyph glyph-name="Ginferior" horiz-adv-x="471" d="M330-150v40q-57-47-119-47-75 0-125.5 56t-50.5 160q0 107 51.5 162.5t135.5 55.5q87 0 200-62l-48-75q-88 44-139 44-44 0-68.5-33.5t-24.5-90.5q0-59 23.5-94t68.5-35q42 0 96 43v40h-100v81h198v-245h-98z"/><glyph glyph-name="threeeighths.onum" horiz-adv-x="864" d="M512 93q0 61 84 95-60 31-60 77 0 38 36 61.5t99 23.5q62 0 98.5-23.5t36.5-61.5q0-46-60-77 83-36 83-95 0-45-42.5-72t-115.5-27-116 27-43 72zm-478 176l37 55q59-33 114-33 30 0 49 11t19 30q0 46-108 46h-17v68h19q89 0 89 38 0 28-50 28-47 0-100-29l-34 51q63 46 147 46 59 0 90-24.5t31-60.5q0-53-64-75 36-10 58.5-34t22.5-55q0-44-34.5-75.5t-107.5-31.5q-85 0-161 45zm586 305l-287-574h-89l287 574h89zm125-474q0 33-74 58-35-13-54.5-26t-19.5-32q0-20 20.5-32t53.5-12q32 0 53 12.5t21 31.5zm-128 155q0-24 53-42 54 17 54 42 0 14-15 25t-38 11q-24 0-39-11.5t-15-24.5z"/><glyph glyph-name="threefifths" horiz-adv-x="996" d="M627 208l23 212h285v-85h-198l-4-66q30 8 62 8 76 0 117-40t41-99q0-61-44.5-103t-126.5-42q-89 0-175 55l44 74q61-41 117-41 34 0 57 15t23 41q0 24-20.5 41t-57.5 17q-44 0-86-23zm-594 120l46 70q71-39 131-39 33 0 53 12.5t20 34.5q0 53-121 53h-20v86h23q100 0 100 44 0 33-54 33t-116-36l-42 64q77 57 174 57 70 0 105.5-29.5t35.5-73.5q0-64-72-92 41-11 66.5-40.5t25.5-67.5q0-55-40-93t-125-38q-91 0-190 55zm684 372l-330-700h-110l329 700h111z"/><glyph glyph-name="threefifths.onum" horiz-adv-x="863" d="M545 171l21 173h241v-67h-173l-5-59q27 8 57 8 65 0 100.5-32.5t35.5-80.5q0-50-38-84.5t-108-34.5q-74 0-149 45l37 58q48-33 100-33 32 0 53 13t21 35q0 21-19 35t-53 14q-39 0-75-19zm-511 98l37 55q59-33 114-33 30 0 49 11t19 30q0 46-108 46h-17v68h19q89 0 89 38 0 28-50 28-47 0-100-29l-34 51q63 46 147 46 59 0 90-24.5t31-60.5q0-53-64-75 36-10 58.5-34t22.5-55q0-44-34.5-75.5t-107.5-31.5q-85 0-161 45zm586 305l-287-574h-89l287 574h89z"/><glyph glyph-name="Gdotaccent.sc" horiz-adv-x="630" d="M449 0v56q-79-65-166-65-104 0-173 76t-69 219q0 146 70.5 221.5t186.5 75.5q121 0 274-85l-65-101q-119 62-192 62-62 0-97-46t-35-126q0-82 33.5-130.5t97.5-48.5q59 0 135 60v57h-140v109h270v-334h-130zm-196 626v115h116v-115h-116z"/><glyph glyph-name="Gcommaaccent.sc" horiz-adv-x="630" d="M449 0v56q-79-65-166-65-104 0-173 76t-69 219q0 146 70.5 221.5t186.5 75.5q121 0 274-85l-65-101q-119 62-192 62-62 0-97-46t-35-126q0-82 33.5-130.5t97.5-48.5q59 0 135 60v57h-140v109h270v-334h-130zm-179-177v120h109l9-132-91-107-31 36 54 83h-50z"/><glyph glyph-name="threequarters.onum" horiz-adv-x="850" d="M473 64v56l175 224h110v-213h58v-67h-58v-64h-84v64h-201zm-439 205l37 55q59-33 114-33 30 0 49 11t19 30q0 46-108 46h-17v68h19q89 0 89 38 0 28-50 28-47 0-100-29l-34 51q63 46 147 46 59 0 90-24.5t31-60.5q0-53-64-75 36-10 58.5-34t22.5-55q0-44-34.5-75.5t-107.5-31.5q-85 0-161 45zm586 305l-287-574h-89l287 574h89zm-58-443h112v150z"/><glyph glyph-name="Gbreve.sc" horiz-adv-x="630" d="M449 0v56q-79-65-166-65-104 0-173 76t-69 219q0 146 70.5 221.5t186.5 75.5q121 0 274-85l-65-101q-119 62-192 62-62 0-97-46t-35-126q0-82 33.5-130.5t97.5-48.5q59 0 135 60v57h-140v109h270v-334h-130zm-140 616q-77 0-120 33t-43 90h90q0-21 19.5-32.5t53.5-11.5q35 0 55.5 11.5t20.5 32.5h89q0-57-43.5-90t-121.5-33z"/><glyph glyph-name="G.sc" horiz-adv-x="630" d="M449 0v56q-79-65-166-65-104 0-173 76t-69 219q0 146 70.5 221.5t186.5 75.5q121 0 274-85l-65-101q-119 62-192 62-62 0-97-46t-35-126q0-82 33.5-130.5t97.5-48.5q59 0 135 60v57h-140v109h270v-334h-130z"/><glyph glyph-name="tinferior" horiz-adv-x="288" d="M17 93v72h45v79l101 12v-91h88v-72h-88v-135q0-29 26-29 8 0 50 14l34-73q-57-27-110-27-101 0-101 115v135h-45z"/><glyph glyph-name="Fsuperior" horiz-adv-x="395" d="M374 719h-214v-82h170v-85h-170v-167h-103v420h317v-86z"/><glyph glyph-name="Finferior" horiz-adv-x="395" d="M374 184h-214v-82h170v-85h-170v-167h-103v420h317v-86z"/><glyph glyph-name="F.sc" horiz-adv-x="526" d="M504 460h-298v-117h235v-113h-235v-230h-138v574h436v-114z"/><glyph glyph-name="two.dnom" horiz-adv-x="407" d="M369 85v-85h-341v44q0 57 36.5 97t100.5 79q8 4 22.5 12.5t21.5 12.5 18 11 16 11.5 11 11 8 12.5 2 12q0 17-16 28t-45 11q-47 0-117-39l-46 65q88 59 178 59 72 0 111.5-34t39.5-85q0-29-11.5-53t-38-45-42-30.5-50.5-28.5q-74-39-74-66h216z"/><glyph glyph-name="two.numr" horiz-adv-x="407" d="M369 365v-85h-341v44q0 57 36.5 97t100.5 79q8 4 22.5 12.5t21.5 12.5 18 11 16 11.5 11 11 8 12.5 2 12q0 17-16 28t-45 11q-47 0-117-39l-46 65q89 59 178 59 72 0 111.5-34t39.5-85q0-29-11.5-53t-38-45-42-30.5-50.5-28.5q-74-39-74-66h216z"/><glyph glyph-name="two.onum" horiz-adv-x="602" d="M37 0v67q0 78 54 130t148 94q13 6 36.5 16.5t35.5 16.5l30 15 27.5 15.5 19.5 15.5 14 18 4 19q0 27-24 42t-67 15q-86 0-194-64l-66 93q133 90 273 90 106 0 165-44.5t59-124.5q0-36-14.5-67t-33.5-51.5-56-43-63.5-35-74.5-32.5q-84-36-101-64h344v-121h-516z"/><glyph glyph-name="two.tnum" horiz-adv-x="675" d="M594 124v-124h-528v69q0 51 17.5 95t53 80.5 67.5 60.5 81 56q10 6 31 19.5t30 19.5 26 17.5 24.5 18 18 17 15.5 19 8.5 19 3.5 21.5q0 32-27 53.5t-76 21.5q-84 0-187-65l-68 97q134 92 274 92 112 0 173.5-54t61.5-139q0-47-18.5-87t-52.5-70.5-68-53.5-76-48q-9-5-13-7-61-36-90.5-64t-29.5-64h349z"/><glyph glyph-name="twofifths" horiz-adv-x="1020" d="M655 208l24 212h284v-85h-198l-5-67q28 9 63 9 76 0 117-40t41-99q0-61-44-103t-126-42q-85 0-177 55l46 74q59-41 117-41 34 0 56.5 15t22.5 41q0 24-20 41t-58 17q-43 0-85-23zm-274 157v-85h-341v44q0 57 36.5 97t101.5 79q8 5 22 13l21 12 17.5 11 16 11.5 11 11 8 12.5 2.5 12q0 17-15.5 28t-44.5 11q-48 0-118-39l-46 65q89 59 178 59 72 0 111.5-34t39.5-85q0-29-11.5-53t-38-45-42-30.5-50.5-28.5q-73-38-73-66h215zm363 335l-329-700h-110l329 700h110z"/><glyph glyph-name="twofifths.onum" horiz-adv-x="883" d="M567 171l20 173h242v-67h-173l-5-59q27 8 56 8 65 0 101-32.5t36-80.5q0-50-38-84.5t-110-34.5q-70 0-148 45l36 58q54-33 102-33 31 0 51.5 13t20.5 35q0 21-18 35t-52 14q-40 0-76-19zm-238 126v-67h-290v35q0 47 32 80t87 64q7 4 19.5 11t19 10.5 16 9 14 9.5 9.5 9 7 10.5 2 10.5q0 14-15 23.5t-42 9.5q-45 0-101-32l-37 52q75 48 150 48 61 0 95-27.5t34-69.5q0-24-10-44t-33.5-37-37-24.5-44.5-23.5q-65-32-65-57h190zm312 277l-288-574h-88l287 574h89z"/><glyph glyph-name="Eurosuperior" horiz-adv-x="464" d="M26 614v43h43q14 77 61.5 116t117.5 39q77 0 191-60l-48-76q-81 43-131 43-61 0-82-62h139v-43h-148v-19q0-15 1-22h147v-43h-138q22-59 81-59 54 0 131 43l48-76q-114-60-191-60-69 0-116 38.5t-62 113.5h-44v43h38v41h-38z"/><glyph glyph-name="Euroinferior" horiz-adv-x="464" d="M26 79v43h43q14 77 61.5 116t117.5 39q77 0 191-60l-48-76q-81 43-131 43-61 0-82-62h139v-43h-148v-19q0-15 1-22h147v-43h-138q22-59 81-59 54 0 131 43l48-76q-114-60-191-60-69 0-116 38.5t-62 113.5h-44v43h38v41h-38z"/><glyph glyph-name="Euro.onum" horiz-adv-x="646" d="M39 312v61h59q20 103 85.5 156.5t159.5 53.5q111 0 263-83l-63-100q-113 59-182 59-85 0-115-86h194v-61h-206v-55h206v-61h-193q32-81 114-81 69 0 182 59l63-101q-154-82-263-82-93 0-158 52t-86 153h-60v61h52v55h-52z"/><glyph glyph-name="twothirds.onum" horiz-adv-x="880" d="M331 297v-67h-291v35q0 47 32 80t88 64q7 4 19 11t18.5 10.5 15.5 9 14 9.5 10 9 7 10.5 2 10.5q0 14-15 23.5t-42 9.5q-45 0-101-32l-37 52q75 48 150 48 62 0 96-27.5t34-69.5q0-24-10-44t-33-37-37.5-25-45.5-23q-65-32-65-57h191zm311 277l-287-574h-89l288 574h88zm-102-535l37 55q60-32 114-32 31 0 49.5 11t18.5 30q0 45-109 45h-16v68h19q89 0 89 38 0 28-50 28-49 0-100-29l-35 51q65 46 147 46 60 0 91-24t31-60q0-52-65-76 36-9 59-33t23-56q0-44-35-75.5t-107-31.5q-79 0-161 45z"/><glyph glyph-name="Eth.sc" horiz-adv-x="655" d="M613 287q0-150-77.5-218.5t-230.5-68.5h-222v234h-64v107h64v233h222q153 0 230.5-68.5t77.5-218.5zm-137 0q0 96-44.5 133t-139.5 37h-70v-116h123v-107h-123v-117h70q95 0 139.5 37t44.5 133z"/><glyph glyph-name="Esuperior" horiz-adv-x="412" d="M378 385h-321v420h317v-86h-214v-81h176v-85h-176v-82h218v-86z"/><glyph glyph-name="Eogonek.sc" horiz-adv-x="549" d="M411-94q0-8 3-14.5t9-10 11-5.5 14.5-3 14-1h24.5l-14-66h-6q-151-2-151 86 0 62 98 108h-346v574h436v-114h-298v-116h244v-114h-244v-116h302v-114h-3q-28-17-43-26.5t-33-29.5-18-38z"/><glyph glyph-name="Eng.sc" horiz-adv-x="661" d="M593 574v-540q0-44-4.5-67t-23.5-47.5-58.5-40-107.5-30.5l-45 101q51 15 71.5 26t26.5 27l-246 380v-383h-138v574h142l245-381v381h138z"/><glyph glyph-name="Emacron.sc" horiz-adv-x="549" d="M508 0h-440v574h436v-114h-298v-116h244v-114h-244v-116h302v-114zm-374 641v85h307v-85h-307z"/><glyph glyph-name="Einferior" horiz-adv-x="412" d="M378-150h-321v420h317v-86h-214v-81h176v-85h-176v-82h218v-86z"/><glyph glyph-name="Egrave.sc" horiz-adv-x="549" d="M508 0h-440v574h436v-114h-298v-116h244v-114h-244v-116h302v-114zm-118 616h-118l-171 138h164z"/><glyph glyph-name="uinferior" horiz-adv-x="414" d="M269-150v36q-64-43-126-43-100 0-100 101v221h99v-198q0-47 40-47 45 0 87 36v209h99v-315h-99z"/><glyph glyph-name="Edotaccent.sc" horiz-adv-x="549" d="M508 0h-440v574h436v-114h-298v-116h244v-114h-244v-116h302v-114zm-278 626v115h116v-115h-116z"/><glyph glyph-name="Edieresis.sc" horiz-adv-x="549" d="M508 0h-440v574h436v-114h-298v-116h244v-114h-244v-116h302v-114zm-369 626v115h116v-115h-116zm182 0v115h115v-115h-115z"/><glyph glyph-name="Ecircumflex.sc" horiz-adv-x="549" d="M508 0h-440v574h436v-114h-298v-116h244v-114h-244v-116h302v-114zm-150 754l105-138h-99l-77 75-75-75h-100l105 138h141z"/><glyph glyph-name="Ecaron.sc" horiz-adv-x="549" d="M508 0h-440v574h436v-114h-298v-116h244v-114h-244v-116h302v-114zm-45 754l-105-138h-141l-105 138h100l75-74 77 74h99z"/><glyph glyph-name="uni021a.sc" horiz-adv-x="533" d="M514 457h-177v-457h-139v457h-179v117h495v-117zm-301-634v120h110l9-132-93-107-29 36 52 83h-49z"/><glyph glyph-name="Eacute.sc" horiz-adv-x="549" d="M508 0h-440v574h436v-114h-298v-116h244v-114h-244v-116h302v-114zm-204 616h-117l124 138h165z"/><glyph glyph-name="E.sc" horiz-adv-x="549" d="M508 0h-440v574h436v-114h-298v-116h244v-114h-244v-116h302v-114z"/><glyph glyph-name="uni20A9.onum" horiz-adv-x="930" d="M571 0l-106 386-106-386h-136l-60 202h-117v78h94l-20 69h-74v77h51l-44 148h157l35-148h125l40 148h110l40-148h126l34 148h157l-44-148h51v-77h-74l-20-69h94v-78h-117l-60-202h-136zm10 349l46-174 41 174h-87zm-318 0l40-173 47 173h-87z"/><glyph glyph-name="uni20A9inferior" horiz-adv-x="680" d="M415-150l-76 278-75-278h-101l-44 150h-84v57h67l-15 51h-52v57h35l-30 105h117l24-105h90l28 105h81l28-105h90l24 105h117l-31-105h36v-57h-52l-15-51h67v-57h-84l-43-150h-102zm-221 258l28-125 34 125h-62zm229 0l33-125 29 125h-62z"/><glyph glyph-name="uni20A9superior" horiz-adv-x="680" d="M415 385l-76 278-75-278h-101l-44 150h-84v57h67l-15 51h-52v57h35l-30 105h117l24-105h90l28 105h81l28-105h90l24 105h117l-31-105h36v-57h-52l-15-51h67v-57h-84l-43-150h-102zm-221 258l28-125 34 125h-62zm229 0l33-125 29 125h-62z"/><glyph glyph-name="Dsuperior" horiz-adv-x="480" d="M444 595q0-110-56.5-160t-167.5-50h-163v420h163q111 0 167.5-50t56.5-160zm-103 0q0 70-32 97t-99 27h-49v-248h49q67 0 99 27t32 97z"/><glyph glyph-name="uni2116.onum" horiz-adv-x="1038" d="M456 0l-247 383v-383h-138v574h141l246-383v383h138v-574h-140zm539 395q0-83-45.5-127t-130.5-44-130 44-45 127 45 127.5 130 44.5 130.5-44.5 45.5-127.5zm-327-281v77h303v-77h-303zm220 281q0 41-16 61t-53 20q-70 0-70-81t70-81q69 0 69 81z"/><glyph glyph-name="uni2116.sc" horiz-adv-x="1036" d="M456 0l-247 383v-383h-138v574h141l246-383v383h138v-574h-140zm539 395q0-83-45.5-127t-130.5-44-130 44-45 127 45 127.5 130 44.5 130.5-44.5 45.5-127.5zm-327-281v77h303v-77h-303zm220 281q0 41-16 61t-53 20q-70 0-70-81t70-81q69 0 69 81z"/><glyph glyph-name="Dinferior" horiz-adv-x="480" d="M444 60q0-110-56.5-160t-167.5-50h-163v420h163q111 0 167.5-50t56.5-160zm-103 0q0 70-32 97t-99 27h-49v-248h49q67 0 99 27t32 97z"/><glyph glyph-name="uni2117.sc" horiz-adv-x="679" d="M487 354q0-106-121-106h-76v-134h-42v345h118q121 0 121-105zm-42 0q0 71-79 71h-76v-141h76q79 0 79 70zm-403-67q0 129 79.5 212.5t219.5 83.5q139 0 217.5-83.5t78.5-212.5-78.5-212.5-217.5-83.5q-140 0-219.5 83.5t-79.5 212.5zm34 0q0-116 70-190.5t194-74.5 194.5 74.5 70.5 190.5-70.5 190.5-194.5 74.5-194-74.5-70-190.5z"/><glyph glyph-name="Dcroat.sc" horiz-adv-x="655" d="M613 287q0-150-77.5-218.5t-230.5-68.5h-222v234h-64v107h64v233h222q153 0 230.5-68.5t77.5-218.5zm-137 0q0 96-44.5 133t-139.5 37h-70v-116h123v-107h-123v-117h70q95 0 139.5 37t44.5 133z"/><glyph glyph-name="Dcaron.sc" horiz-adv-x="642" d="M600 287q0-150-78-218.5t-232-68.5h-222v574h222q154 0 232-68.5t78-218.5zm-139 0q0 97-44.5 135t-139.5 38h-70v-346h70q95 0 139.5 38t44.5 135zm48 467l-105-138h-141l-105 138h100l75-74 76 74h100z"/><glyph glyph-name="D.sc" horiz-adv-x="642" d="M600 287q0-150-78-218.5t-232-68.5h-222v574h222q154 0 232-68.5t78-218.5zm-139 0q0 96-44.5 133t-139.5 37h-70v-340h70q95 0 139.5 37t44.5 133z"/><glyph glyph-name="usuperior" horiz-adv-x="414" d="M269 385v35q-66-42-126-42-100 0-100 101v221h99v-198q0-47 40-47 47 0 87 36v209h99v-315h-99z"/><glyph glyph-name="Csuperior" horiz-adv-x="435" d="M412 752l-48-76q-84 43-132 43-42 0-66-33.5t-24-90.5 24-90.5 66-33.5q51 0 132 43l48-76q-114-60-193-60-82 0-133 55.5t-51 161.5 51 161.5 133 55.5q79 0 193-60z"/><glyph glyph-name="Cinferior" horiz-adv-x="435" d="M412 217l-48-76q-84 43-132 43-42 0-66-33.5t-24-90.5 24-90.5 66-33.5q51 0 132 43l48-76q-114-60-193-60-82 0-133 55.5t-51 161.5 51 161.5 133 55.5q79 0 193-60z"/><glyph glyph-name="vinferior" horiz-adv-x="364" d="M232-150h-99l-131 315h107l73-216 74 216h106z"/><glyph glyph-name="vsuperior" horiz-adv-x="365" d="M232 385h-99l-131 315h107l73-217 74 217h106z"/><glyph glyph-name="Cdotaccent.sc" horiz-adv-x="583" d="M558 500l-65-101q-111 60-182 60-60 0-94-46.5t-34-125.5 34-125.5 94-46.5q69 0 182 59l65-100q-154-83-263-83-114 0-184 75t-70 221q0 145 70 220.5t184 75.5q109 0 263-83zm-307 126v115h116v-115h-116z"/><glyph glyph-name="Ccedilla.sc" horiz-adv-x="584" d="M162-162l30 71q24-12 48-12 48 0 48 38 0 27-23 58-101 9-162 83.5t-61 210.5q0 145 70 220.5t184 75.5q109 0 263-83l-65-101q-111 60-182 60-60 0-94-46.5t-34-125.5 34-125.5 94-46.5q69 0 182 59l65-100q-137-73-228-81 33-42 33-85 0-46-32-69t-82-23-88 22z"/><glyph glyph-name="Ccaron.sc" horiz-adv-x="583" d="M558 500l-65-101q-111 60-182 60-60 0-94-46.5t-34-125.5 34-125.5 94-46.5q69 0 182 59l65-100q-154-83-263-83-114 0-184 75t-70 221q0 145 70 220.5t184 75.5q109 0 263-83zm-70 254l-105-138h-141l-106 138h100l76-74 77 74h99z"/><glyph glyph-name="Cacute.sc" horiz-adv-x="583" d="M558 500l-65-101q-111 60-182 60-60 0-94-46.5t-34-125.5 34-125.5 94-46.5q69 0 182 59l65-100q-154-83-263-83-114 0-184 75t-70 221q0 145 70 220.5t184 75.5q109 0 263-83zm-210 116h-118l125 138h164z"/><glyph glyph-name="C.sc" horiz-adv-x="583" d="M558 500l-65-101q-111 60-182 60-60 0-94-46.5t-34-125.5 34-125.5 94-46.5q69 0 182 59l65-100q-154-83-263-83-114 0-184 75t-70 221q0 145 70 220.5t184 75.5q109 0 263-83z"/><glyph glyph-name="winferior" horiz-adv-x="534" d="M329-150l-63 202-63-202h-93l-102 315h105l51-214 61 214h81l61-214 51 214h106l-101-315h-94z"/><glyph glyph-name="Bsuperior" horiz-adv-x="462" d="M431 498q0-113-163-113h-211v420h183q168 0 168-102 0-39-23.5-64t-49.5-30q34-5 65-32.5t31-78.5zm-126 187q0 42-72 42h-73v-86h71q74 0 74 44zm24-170q0 53-92 53h-77v-105h86q83 0 83 52z"/><glyph glyph-name="Binferior" horiz-adv-x="463" d="M431-37q0-113-163-113h-211v420h183q168 0 168-102 0-39-23.5-64t-49.5-30q34-5 65-32.5t31-78.5zm-126 187q0 42-72 42h-73v-86h71q74 0 74 44zm24-170q0 53-92 53h-77v-105h86q83 0 83 52z"/><glyph glyph-name="xinferior" horiz-adv-x="394" d="M272-150l-75 107-74-107h-118l131 157-124 158h114l71-104 71 104h114l-123-157 130-158h-117z"/><glyph glyph-name="B.sc" horiz-adv-x="616" d="M581 155q0-74-55-114.5t-168-40.5h-290v574h250q230 0 230-139 0-54-32-88t-68-40q47-7 90-45t43-107zm-170 256q0 57-102 57h-103v-118h101q104 0 104 61zm34-233q0 74-131 74h-108v-146h124q115 0 115 72z"/><glyph glyph-name="Atilde.sc" horiz-adv-x="640" d="M472 0l-36 106h-234l-36-106h-151l228 574h152l229-574h-152zm-272 622l-65 31q13 26 21 39.5t22 31.5 30.5 25.5 37.5 7.5q30 0 78-23.5t61-23.5q26 0 52 46l65-32q-14-27-21.5-39.5t-21.5-31-30.5-26-37.5-7.5q-30 0-78 24t-61 24q-26 0-52-46zm119-168l-81-240h162z"/><glyph glyph-name="Asuperior" horiz-adv-x="455" d="M336 385l-25 76h-168l-25-76h-113l165 420h115l164-420h-113zm-109 332l-58-175h115z"/><glyph glyph-name="Aring.sc" horiz-adv-x="640" d="M472 0l-36 106h-234l-36-106h-151l228 574h152l229-574h-152zm-265 718q0 46 32.5 79t79.5 33 79.5-33 32.5-79-32.5-79-79.5-33-79.5 33-32.5 79zm112-264l-81-240h162zm-43 264q0-18 12.5-30t30.5-12 30.5 12 12.5 30-12.5 30.5-30.5 12.5-30.5-12.5-12.5-30.5z"/><glyph glyph-name="Aogonek.sc" horiz-adv-x="640" d="M472 0l-36 106h-234l-36-106h-151l228 574h152l229-574h-3q-27-16-43-26.5t-34-30-18-37.5q0-8 3-14.5t9-10 11-5.5 14.5-3 14.5-1h25l-14-66q-83 0-117 19-39 22-39 67 0 62 98 108h-59zm-153 454l-81-240h162z"/><glyph glyph-name="Amacron.sc" horiz-adv-x="640" d="M472 0l-36 106h-234l-36-106h-151l228 574h152l229-574h-152zm-306 641v85h307v-85h-307zm153-187l-81-240h162z"/><glyph glyph-name="yen.onum" horiz-adv-x="631" d="M89 231v78h106l-168 265h156l132-238 134 238h155l-168-265h105v-78h-156v-41h156v-76h-156v-114h-138v114h-158v76h158v41h-158z"/><glyph glyph-name="yeninferior" horiz-adv-x="441" d="M56 23v56h73l-119 191h116l93-171 95 171h116l-120-191h74v-56h-109l-4-7v-26h113v-58h-113v-82h-102v82h-113v58h113v25l-5 8h-108z"/><glyph glyph-name="yensuperior" horiz-adv-x="442" d="M57 558v56h73l-119 191h116l93-171 95 171h116l-120-191h74v-56h-109l-4-7v-26h113v-58h-113v-82h-102v82h-113v58h113v25l-5 8h-108z"/><glyph glyph-name="Ainferior" horiz-adv-x="455" d="M336-150l-25 76h-168l-25-76h-113l165 420h115l164-420h-113zm-109 332l-58-175h115z"/><glyph glyph-name="yinferior" horiz-adv-x="364" d="M2 165h108l73-198 73 198h106l-181-437h-106l57 124z"/><glyph glyph-name="Agrave.sc" horiz-adv-x="640" d="M472 0l-36 106h-234l-36-106h-151l228 574h152l229-574h-152zm-50 616h-119l-170 138h164zm-103-162l-81-240h162z"/><glyph glyph-name="Adieresis.sc" horiz-adv-x="640" d="M472 0l-36 106h-234l-36-106h-151l228 574h152l229-574h-152zm-153 454l-81-240h162zm-148 172v115h116v-115h-116zm181 0v115h116v-115h-116z"/><glyph glyph-name="Acircumflex.sc" horiz-adv-x="640" d="M472 0l-36 106h-234l-36-106h-151l228 574h152l229-574h-152zm-83 754l106-138h-100l-76 75-75-75h-100l105 138h140zm-70-300l-81-240h162z"/><glyph glyph-name="Abreve.sc" horiz-adv-x="640" d="M472 0l-36 106h-234l-36-106h-151l228 574h152l229-574h-152zm-153 616q-77 0-120 33t-43 90h89q0-44 74-44 35 0 55 11.5t20 32.5h89q0-57-43-90t-121-33zm0-162l-81-240h162z"/><glyph glyph-name="Aacute.sc" horiz-adv-x="640" d="M472 0l-36 106h-234l-36-106h-151l228 574h152l229-574h-152zm-136 616h-117l124 138h165zm-17-162l-81-240h162z"/><glyph glyph-name="AEacute.sc" horiz-adv-x="942" d="M900 0h-440v106h-241l-72-106h-165l413 574h501v-114h-298v-116h244v-114h-244v-116h302v-114zm-605 217h165v241zm222 399h-119l125 138h165z"/><glyph glyph-name="zero.dnom" horiz-adv-x="447" d="M224 427q92 0 140-57t48-160q0-104-48.5-160.5t-139.5-56.5q-92 0-140 56.5t-48 160.5q0 103 48.5 160t139.5 57zm0-354q84 0 84 137t-84 137-84-137q0-73 21-105t63-32z"/><glyph glyph-name="zero.numr" horiz-adv-x="447" d="M224 707q92 0 140-57t48-160q0-104-48.5-160.5t-139.5-56.5q-92 0-140 56.5t-48 160.5q0 103 48.5 160t139.5 57zm0-354q84 0 84 137t-84 137-84-137q0-73 21-105t63-32z"/><glyph glyph-name="zero.onum" horiz-adv-x="658" d="M329 583q143 0 214.5-81t71.5-214q0-134-71.5-216.5t-214.5-82.5-214 82.5-71 216.5q0 133 71 214t214 81zm0-484q71 0 105.5 50.5t34.5 138.5q0 87-34.5 136t-105.5 49-105-49-34-136q0-88 34-138.5t105-50.5z"/><glyph glyph-name="zero.tnum" horiz-adv-x="675" d="M338 711q142 0 216.5-94t74.5-267-74.5-267-217.5-94-217.5 94-74.5 267 75 267 218 94zm-1-606q141 0 141 245 0 244-140 244-141 0-141-244 0-245 140-245z"/><glyph glyph-name="AE.sc" horiz-adv-x="942" d="M900 0h-440v106h-241l-72-106h-165l413 574h501v-117h-298v-113h244v-114h-244v-113h302v-117zm-605 217h165v241z"/><glyph glyph-name="A.sc" horiz-adv-x="640" d="M472 0l-36 106h-234l-36-106h-151l228 574h152l229-574h-152zm-153 454l-81-240h162z"/><glyph glyph-name="zinferior" horiz-adv-x="371" d="M28-150v68l172 166h-166v81h307v-68l-171-166h171v-81h-313z"/><glyph glyph-name="zsuperior" horiz-adv-x="371" d="M28 385v68l172 166h-166v81h307v-68l-171-166h171v-81h-313z"/></font>
</defs>
</svg>
