<svg><defs><font horiz-adv-x="622"><font-face font-family="VerbMediumItalic" font-weight="500" font-style="italic" panose-1="2 0 6 0 3 0 0 9 0 4" ascent="800" descent="-200" x-height="525" cap-height="700" bbox="-172 -283 1361 951" underline-thickness="50" underline-position="-50" unicode-range="U+0020-FB06"/><glyph glyph-name="f_f" unicode="ff" horiz-adv-x="725" d="M57 447l14 78h71l10 58q13 77 45 111.5t97 34.5q77 0 167-42l-40-69q-69 22-109 22-45 0-56-56l-11-59h129l-14-78h-128l-74-419q-7-38-10-53.5t-10-42.5-13.5-37.5-18.5-28.5-26.5-26.5-36.5-20-49-19.5-64-17l-23 81q38 11 60.5 21t37.5 19.5 23.5 28.5 13 35.5 10.5 53.5l76 425h-71zm363 0l13 78h72l10 58q12 77 44 111.5t97 34.5q75 0 168-42l-47-69q-63 22-103 22-45 0-56-56l-11-59h137l-14-78h-136l-74-419q-7-38-10-53.5t-10-42.5-13.5-37.5-18.5-28.5-26.5-26.5-36.5-20-49-19.5-64-17l-23 81q32 9 52 16.5t36 18 24 18.5 15 26.5 10 33 9 45.5l76 425h-71z"/><glyph glyph-name="f_i" unicode="fi" horiz-adv-x="615" d="M57 447l14 78h71l10 58q13 77 45 111.5t94 34.5q57 0 137-34l-38-71q-51 16-78 16-45 0-56-56l-11-59h136l-13-78h-136l-74-419q-7-38-10-53.5t-10-42.5-13.5-37.5-18.5-28.5-26.5-26.5-36.5-20-49-19.5-64-17l-23 81q38 11 60.5 21t37.5 19.5 23.5 28.5 13 35.5 10.5 53.5l76 425h-71zm430-447h-103l93 525h103zm3 620l19 106h111l-18-106h-112z"/><glyph glyph-name="f_l" unicode="fl" d="M57 447l14 78h71l10 58q13 77 45 111.5t94 34.5q57 0 137-34l-38-71q-51 16-78 16-45 0-56-56l-11-59h136l-13-78h-136l-74-419q-7-38-10-53.5t-10-42.5-13.5-37.5-18.5-28.5-26.5-26.5-36.5-20-49-19.5-64-17l-23 81q38 11 60.5 21t37.5 19.5 23.5 28.5 13 35.5 10.5 53.5l76 425h-71zm434-447h-103l129 729h103z"/><glyph glyph-name="f_f_i" unicode="ffi" horiz-adv-x="977" d="M57 447l14 78h71l10 58q13 77 45 111.5t97 34.5q77 0 167-42l-40-69q-69 22-109 22-45 0-56-56l-11-59h129l-14-78h-128l-74-419q-7-38-10-53.5t-10-42.5-13.5-37.5-18.5-28.5-26.5-26.5-36.5-20-49-19.5-64-17l-23 81q38 11 60.5 21t37.5 19.5 23.5 28.5 13 35.5 10.5 53.5l76 425h-71zm363 0l13 78h72l10 58q12 77 44.5 111.5t94.5 34.5q54 0 137-34l-38-71q-53 16-79 16-45 0-56-56l-11-59h137l-14-78h-136l-74-419q-7-38-10-53.5t-10-42.5-13.5-37.5-18.5-28.5-26.5-26.5-36.5-20-49-19.5-64-17l-23 81q32 9 52 16.5t36 18 24 18.5 15 26.5 10 33 9 45.5l76 425h-71zm430-447h-103l93 525h103zm2 620l19 106h111l-18-106h-112z"/><glyph glyph-name="f_f_l" unicode="ffl" horiz-adv-x="985" d="M57 447l14 78h71l10 58q13 77 45 111.5t97 34.5q77 0 167-42l-40-69q-69 22-109 22-45 0-56-56l-11-59h129l-14-78h-128l-74-419q-7-38-10-53.5t-10-42.5-13.5-37.5-18.5-28.5-26.5-26.5-36.5-20-49-19.5-64-17l-23 81q38 11 60.5 21t37.5 19.5 23.5 28.5 13 35.5 10.5 53.5l76 425h-71zm363 0l13 78h72l10 58q12 77 44.5 111.5t94.5 34.5q54 0 137-34l-38-71q-53 16-79 16-45 0-56-56l-11-59h137l-14-78h-136l-74-419q-7-38-10-53.5t-10-42.5-13.5-37.5-18.5-28.5-26.5-26.5-36.5-20-49-19.5-64-17l-23 81q32 9 52 16.5t36 18 24 18.5 15 26.5 10 33 9 45.5l76 425h-71zm433-447h-103l129 729h103z"/><glyph glyph-name="f_f_b" unicode="ffb" horiz-adv-x="1333" d="M747 0l129 729h103l-47-268q95 75 184 75 71 0 119.5-46t48.5-143q0-157-67-257.5t-175-100.5q-92 0-180 79l-12-68h-103zm-690 447l14 78h71l10 58q13 77 45 111.5t97 34.5q77 0 167-42l-40-69q-69 22-109 22-45 0-56-56l-11-59h129l-14-78h-128l-74-419q-7-38-10-53.5t-10-42.5-13.5-37.5-18.5-28.5-26.5-26.5-36.5-20-49-19.5-64-17l-23 81q38 11 60.5 21t37.5 19.5 23.5 28.5 13 35.5 10.5 53.5l76 425h-71zm363 0l13 78h72l10 58q12 77 44.5 111.5t94.5 34.5q54 0 137-34l-38-71q-53 16-79 16-45 0-56-56l-11-59h137l-14-78h-136l-74-419q-7-38-10-53.5t-10-42.5-13.5-37.5-18.5-28.5-26.5-26.5-36.5-20-49-19.5-64-17l-23 81q32 9 52 16.5t36 18 24 18.5 15 26.5 10 33 9 45.5l76 425h-71zm662 4q-72 0-166-79l-40-222q70-76 144-76 72 0 115.5 78.5t43.5 183.5q0 55-24.5 85t-72.5 30z"/><glyph glyph-name="f_f_h" unicode="ffh" horiz-adv-x="1333" d="M979 729l-48-271q118 78 212 78 80 0 112.5-47t18.5-126l-64-363h-103l62 352q18 101-63 101-45 0-99-26t-91-55l-66-372h-103l129 729h103zm-922-282l14 78h71l10 58q13 77 45 111.5t97 34.5q77 0 167-42l-40-69q-69 22-109 22-45 0-56-56l-11-59h129l-14-78h-128l-74-419q-7-38-10-53.5t-10-42.5-13.5-37.5-18.5-28.5-26.5-26.5-36.5-20-49-19.5-64-17l-23 81q38 11 60.5 21t37.5 19.5 23.5 28.5 13 35.5 10.5 53.5l76 425h-71zm363 0l13 78h72l10 58q12 77 44.5 111.5t94.5 34.5q54 0 137-34l-38-71q-53 16-79 16-45 0-56-56l-11-59h137l-14-78h-136l-74-419q-7-38-10-53.5t-10-42.5-13.5-37.5-18.5-28.5-26.5-26.5-36.5-20-49-19.5-64-17l-23 81q32 9 52 16.5t36 18 24 18.5 15 26.5 10 33 9 45.5l76 425h-71z"/><glyph glyph-name="f_b" unicode="fb" horiz-adv-x="971" d="M384 0l129 729h103l-48-269q96 76 186 76 71 0 119.5-46t48.5-143q0-157-67-257.5t-175-100.5q-92 0-181 80l-12-69h-103zm-327 447l14 78h71l10 58q13 77 45 111.5t94 34.5q57 0 137-34l-38-71q-51 16-78 16-45 0-56-56l-11-59h136l-13-78h-136l-74-419q-7-38-10-53.5t-10-42.5-13.5-37.5-18.5-28.5-26.5-26.5-36.5-20-49-19.5-64-17l-23 81q38 11 60.5 21t37.5 19.5 23.5 28.5 13 35.5 10.5 53.5l76 425h-71zm663 4q-43 0-82.5-21t-85.5-59l-39-220q71-77 145-77 72 0 115 78.5t43 183.5q0 115-96 115z"/><glyph glyph-name="f_f_j" unicode="ffj" horiz-adv-x="977" d="M57 447l14 78h71l10 58q13 77 45 111.5t97 34.5q77 0 167-42l-40-69q-69 22-109 22-45 0-56-56l-11-59h129l-14-78h-128l-74-419q-7-38-10-53.5t-10-42.5-13.5-37.5-18.5-28.5-26.5-26.5-36.5-20-49-19.5-64-17l-23 81q38 11 60.5 21t37.5 19.5 23.5 28.5 13 35.5 10.5 53.5l76 425h-71zm363 0l13 78h72l10 58q12 77 44.5 111.5t94.5 34.5q54 0 137-34l-38-71q-53 16-79 16-45 0-56-56l-11-59h137l-14-78h-136l-74-419q-7-38-10-53.5t-10-42.5-13.5-37.5-18.5-28.5-26.5-26.5-36.5-20-49-19.5-64-17l-23 81q32 9 52 16.5t36 18 24 18.5 15 26.5 10 33 9 45.5l76 425h-71zm523 78l-96-534q-6-33-9-47t-10-37.5-16-33.5-24-25.5-37-24.5-52.5-19.5-72.5-20.5l-23 81q62 18 89.5 34t35.5 32 15 54l97 541h103zm-91 95l19 106h111l-18-106h-112z"/><glyph glyph-name="f_f_k" unicode="ffk" horiz-adv-x="1260" d="M1262 525l-217-214 155-311h-105l-120 242-100-98-25-144h-103l129 729h103l-80-449 238 245h125zm-1205-78l14 78h71l10 58q13 77 45 111.5t97 34.5q77 0 167-42l-40-69q-69 22-109 22-45 0-56-56l-11-59h129l-14-78h-128l-74-419q-7-38-10-53.5t-10-42.5-13.5-37.5-18.5-28.5-26.5-26.5-36.5-20-49-19.5-64-17l-23 81q38 11 60.5 21t37.5 19.5 23.5 28.5 13 35.5 10.5 53.5l76 425h-71zm363 0l13 78h72l10 58q12 77 44.5 111.5t94.5 34.5q54 0 137-34l-38-71q-53 16-79 16-45 0-56-56l-11-59h137l-14-78h-136l-74-419q-7-38-10-53.5t-10-42.5-13.5-37.5-18.5-28.5-26.5-26.5-36.5-20-49-19.5-64-17l-23 81q32 9 52 16.5t36 18 24 18.5 15 26.5 10 33 9 45.5l76 425h-71z"/><glyph glyph-name="f_f_t" unicode="fft" horiz-adv-x="1111" d="M57 447l14 78h71l10 58q13 77 45 111.5t97 34.5q77 0 167-42l-40-69q-69 22-109 22-45 0-56-56l-11-59h129l-14-78h-128l-74-419q-7-38-10-53.5t-10-42.5-13.5-37.5-18.5-28.5-26.5-26.5-36.5-20-49-19.5-64-17l-23 81q38 11 60.5 21t37.5 19.5 23.5 28.5 13 35.5 10.5 53.5l76 425h-71zm363 0l13 78h72l10 58q12 77 44 111.5t97 34.5q75 0 168-42l-47-69q-63 22-103 22-45 0-56-56l-11-59h129l-13-78h-129l-74-419q-7-38-10-53.5t-10-42.5-13.5-37.5-18.5-28.5-26.5-26.5-36.5-20-49-19.5-64-17l-23 81q32 9 52 16.5t36 18 24 18.5 15 26.5 10 33 9 45.5l76 425h-71zm358 0l13 78h72l24 132 106 20-27-152h143l-14-78h-143l-56-314q-10-54 36-54 29 0 97 26l27-81q-89-35-153-35-61 0-91.5 38.5t-16.5 117.5l54 302h-71z"/><glyph glyph-name="f_h" unicode="fh" horiz-adv-x="970" d="M616 729l-48-272q117 79 213 79 80 0 112.5-47t18.5-126l-64-363h-104l63 352q18 101-63 101-45 0-100-26t-91-55l-66-372h-103l129 729h103zm-559-282l14 78h71l10 58q13 77 45 111.5t94 34.5q57 0 137-34l-38-71q-51 16-78 16-45 0-56-56l-11-59h136l-13-78h-136l-74-419q-7-38-10-53.5t-10-42.5-13.5-37.5-18.5-28.5-26.5-26.5-36.5-20-49-19.5-64-17l-23 81q38 11 60.5 21t37.5 19.5 23.5 28.5 13 35.5 10.5 53.5l76 425h-71z"/><glyph glyph-name="f_j" unicode="fj" horiz-adv-x="615" d="M57 447l14 78h71l10 58q13 77 45 111.5t94 34.5q57 0 137-34l-38-71q-51 16-78 16-45 0-56-56l-11-59h136l-13-78h-136l-74-419q-7-38-10-53.5t-10-42.5-13.5-37.5-18.5-28.5-26.5-26.5-36.5-20-49-19.5-64-17l-23 81q38 11 60.5 21t37.5 19.5 23.5 28.5 13 35.5 10.5 53.5l76 425h-71zm523 78l-95-534q-6-33-9-47t-10-37-16-33.5-24.5-26-37-24.5-52-19.5-72.5-20.5l-23 81q62 18 89.5 34t35.5 32 15 54l96 541h103zm-90 95l19 106h111l-18-106h-112z"/><glyph glyph-name="f_k" unicode="fk" horiz-adv-x="898" d="M900 525l-217-214 155-311h-105l-120 242-101-99-25-143h-103l129 729h103l-80-450 238 246h126zm-843-78l14 78h71l10 58q13 77 45 111.5t94 34.5q57 0 137-34l-38-71q-51 16-78 16-45 0-56-56l-11-59h136l-13-78h-136l-74-419q-7-38-10-53.5t-10-42.5-13.5-37.5-18.5-28.5-26.5-26.5-36.5-20-49-19.5-64-17l-23 81q38 11 60.5 21t37.5 19.5 23.5 28.5 13 35.5 10.5 53.5l76 425h-71z"/><glyph glyph-name="f_t" unicode="ft" horiz-adv-x="749" d="M57 447l14 78h71l10 58q13 77 45 111.5t97 34.5q77 0 167-42l-46-69q-63 22-103 22-45 0-56-56l-11-59h129l-14-78h-128l-74-419q-7-38-10-53.5t-10-42.5-13.5-37.5-18.5-28.5-26.5-26.5-36.5-20-49-19.5-64-17l-23 81q38 11 60.5 21t37.5 19.5 23.5 28.5 13 35.5 10.5 53.5l76 425h-71zm359 0l13 78h71l24 132 107 20-28-152h143l-13-78h-144l-56-314q-9-54 37-54 29 0 97 26l26-81q-89-35-152-35-61 0-91.5 38.5t-16.5 117.5l53 302h-70z"/><glyph glyph-name=".notdef" horiz-adv-x="266"/><glyph glyph-name=".null" horiz-adv-x="0"/><glyph glyph-name="nonmarkingreturn" horiz-adv-x="333"/><glyph glyph-name="space" horiz-adv-x="278"/><glyph glyph-name="exclam" unicode="!" horiz-adv-x="270" d="M26 0l21 128h114l-21-128h-114zm242 700l-116-485h-64l55 485h125z"/><glyph glyph-name="quotedbl" unicode=""" horiz-adv-x="415" d="M427 700l-66-264h-67l28 264h105zm-195 0l-64-264h-69l28 264h105z"/><glyph glyph-name="numbersign" unicode="#" horiz-adv-x="742" d="M351 0l57 172h-175l-56-172h-85l57 172h-126l13 80h139l64 195h-126l14 81h139l57 172h84l-57-172h175l57 172h83l-57-172h128l-14-81h-141l-64-195h128l-13-80h-141l-57-172h-83zm-27 447l-64-195h174l64 195h-174z"/><glyph glyph-name="dollar" unicode="$" horiz-adv-x="626" d="M283-100h-77l17 96q-116 20-216 88l59 75q90-55 173-73l40 229-16 7q-39 16-64 30t-51 36-38.5 52-12.5 68q0 90 69.5 146.5t180.5 56.5h2l16 90h77l-17-97q94-18 191-72l-58-73q-65 37-149 55l-38-213 13-5q40-17 66.5-31t55-37 42.5-55 14-73q0-95-74.5-153t-187.5-58h-2zm167 288q0 35-25 57t-74 42l-37-207q59 4 97.5 33t38.5 75zm-238 329q0-33 20.5-51t66.5-37l34 190q-52-4-86.5-30.5t-34.5-71.5z"/><glyph glyph-name="percent" unicode="%" horiz-adv-x="994" d="M279 711q82 0 129-42t47-114q0-94-55-156.5t-146-62.5q-82 0-129.5 42t-47.5 114q0 94 55.5 156.5t146.5 62.5zm-22-309q51 0 83 45t32 102q0 96-95 96-52 0-84-45t-32-102q0-96 96-96zm502-38q81 0 128.5-42t47.5-114q0-94-55-156.5t-146-62.5q-82 0-129.5 42t-47.5 114q0 94 55.5 156.5t146.5 62.5zm-22-309q51 0 83 45t32 102q0 96-95 96-52 0-84.5-45t-32.5-102q0-96 97-96zm56 645l-487-700h-86l485 700h88z"/><glyph glyph-name="ampersand" unicode="&" horiz-adv-x="701" d="M653 0h-115l-62 75q-105-86-230-86-92 0-148 45t-56 123q0 51 28.5 95t63.5 71 91 59q-65 82-65 156 0 80 57.5 126.5t138.5 46.5q74 0 122.5-38t48.5-103q0-62-45-109t-128-98l125-151q53 70 83 157h106q-40-130-128-231zm-402 70q86 0 168 75l-141 172q-64-41-98-77t-34-79q0-38 25-64.5t80-26.5zm5 465q0-51 46-110 63 36 95.5 68t32.5 72q0 30-19.5 49t-56.5 19q-46 0-72-28.5t-26-69.5z"/><glyph glyph-name="quotesingle" unicode="'" horiz-adv-x="221" d="M232 700l-64-264h-69l28 264h105z"/><glyph glyph-name="parenleft" unicode="(" horiz-adv-x="314" d="M30 59l103 577q7 42 13.5 63.5t20 46 36 38.5 59 28 93.5 27l20-68q-79-24-101-45t-31-73l-109-610q-10-60 1.5-79.5t76.5-43.5l-29-63q-84 21-120.5 47t-40 63.5 7.5 91.5z"/><glyph glyph-name="parenright" unicode=")" horiz-adv-x="315" d="M300 636l-103-577q-7-42-13.5-63t-20-45.5-36-38.5-59-28-93.5-27l-20 67q78 24 100.5 45.5t31.5 73.5l109 610q10 60-1.5 79.5t-76.5 43.5l29 63q84-22 120.5-48t40-63-7.5-92z"/><glyph glyph-name="asterisk" unicode="*" horiz-adv-x="482" d="M200 335l54 149-139-79-31 85 158 27-138 81 59 69 102-124v158l88-16-54-148 138 80 31-85-155-28 135-80-58-69-101 120-1-155z"/><glyph glyph-name="plus" unicode="+" d="M315 563h83l-34-190h210l-13-80h-211l-33-189h-82l33 189h-209l14 80h209z"/><glyph glyph-name="comma" unicode="," horiz-adv-x="251" d="M16 0l23 135h113l-14-146-119-132-26 37 75 106h-52z"/><glyph glyph-name="hyphen" unicode="-" horiz-adv-x="432" d="M353 241h-293l15 87h293z"/><glyph glyph-name="period" unicode="." horiz-adv-x="249" d="M17 0l24 135h113l-23-135h-114z"/><glyph glyph-name="slash" unicode="/" horiz-adv-x="468" d="M527 790l-481-880h-86l481 880h86z"/><glyph glyph-name="zero" unicode="0" horiz-adv-x="673" d="M376 711q55 0 99.5-16t72.5-43 46.5-63.5 26.5-75.5 8-81q0-52-9-107.5t-32.5-116.5-57.5-109-90-79-125-31-120 24-79.5 65-41.5 88-13 101q0 67 16 138t50 142.5 98.5 117.5 150.5 46zm-62-636q56 0 99 41.5t65 103 32.5 119 10.5 104.5q0 34-6 63.5t-21 57.5-45 44.5-73 16.5q-56 0-99-41.5t-65-103-32.5-119.5-10.5-104q0-182 145-182z"/><glyph glyph-name="one" unicode="1" horiz-adv-x="379" d="M236 0h-108l106 589-131-64-35 78 192 97h99z"/><glyph glyph-name="two" unicode="2" horiz-adv-x="589" d="M495 91l-14-91h-487l11 60q7 44 25.5 81t38.5 62.5 56 53.5 61 44 71 43q11 7 17 10 54 32 79.5 48.5t57.5 41.5 44.5 47.5 12.5 48.5q-1 36-29.5 58t-80.5 22q-92 0-194-63l-41 76q121 78 245 78 98 0 153-46t55-123q0-46-18.5-84.5t-66-77-74.5-55.5-97-57q-19-11-29-17-79-45-112-77.5t-42-82.5h358z"/><glyph glyph-name="three" unicode="3" horiz-adv-x="600" d="M-7 76l56 70q102-66 198-66 77 0 124.5 37t47.5 93q0 62-54.5 92.5t-134.5 30.5h-31l15 92h36q74 0 135.5 34t61.5 88q0 34-27 53.5t-75 19.5q-86 0-185-58l-35 75q20 14 47.5 28t82.5 30 108 16q92 0 143-42t51-107q0-56-41-104.5t-120-76.5q57-15 94.5-62t37.5-111q0-88-70.5-153.5t-202.5-65.5q-136 0-262 87z"/><glyph glyph-name="four" unicode="4" horiz-adv-x="641" d="M339 0l26 148h-360l13 78 410 474h142l-82-461h106l-15-91h-107l-26-148h-107zm-201 239h243l63 357z"/><glyph glyph-name="five" unicode="5" horiz-adv-x="590" d="M84 353l98 347h398l-14-91h-310l-45-178q51 18 105 18 99 0 155.5-58.5t56.5-148.5q0-105-77.5-179t-206.5-74q-127 0-242 87l60 69q83-63 172-63 72 0 127.5 42.5t55.5 114.5q0 55-33.5 88t-95.5 33q-63 0-146-44z"/><glyph glyph-name="six" unicode="6" horiz-adv-x="627" d="M498 622q-104 0-190-65t-124-174q73 66 177 66 98 0 153.5-58t55.5-142q0-106-72.5-183t-196.5-77q-119 0-183.5 74t-64.5 178q0 128 57.5 235.5t159 171 224.5 63.5q31 0 58.5-4t39.5-8l13-4-39-81q-29 8-68 8zm-164-256q-56 0-104-30.5t-69-64.5q-1-11-1-35 0-65 36-111.5t102-46.5q75 0 119.5 50t44.5 117q0 50-32.5 85.5t-95.5 35.5z"/><glyph glyph-name="seven" unicode="7" horiz-adv-x="512" d="M546 618q-13-13-34-36t-77-93.5-101.5-140.5-90-166.5-59.5-181.5h-115q14 80 54 171t81.5 158 94 136.5 75.5 96.5 42 47h-335l15 91h463z"/><glyph glyph-name="eight" unicode="8" horiz-adv-x="637" d="M28 168q0 140 200 215-92 56-92 145 0 82 67.5 132.5t175.5 50.5q98 0 156-43t58-115q0-112-159-179 134-66 134-177 0-93-84-150.5t-212-57.5q-112 0-178 47t-66 132zm430 34q0 79-130 135-40-13-68.5-26t-59-32.5-46.5-45.5-16-57q0-48 36.5-75.5t97.5-27.5q75 0 130.5 36.5t55.5 92.5zm-218 316q0-63 92-101 154 46 154 123 0 37-29.5 63t-78.5 26q-57 0-97.5-33t-40.5-78z"/><glyph glyph-name="nine" unicode="9" horiz-adv-x="627" d="M146 78q104 0 190 65t124 174q-73-66-177-66-98 0-153.5 58t-55.5 142q0 106 72.5 183t196.5 77q119 0 183.5-74t64.5-178q0-128-57.5-235.5t-159-171-224.5-63.5q-31 0-58.5 4t-39.5 8l-13 4 39 81q29-8 68-8zm164 256q56 0 104 30t69 64q1 12 1 36 0 65-36 111.5t-102 46.5q-75 0-119.5-50t-44.5-117q0-50 32.5-85.5t95.5-35.5z"/><glyph glyph-name="colon" unicode=":" horiz-adv-x="258" d="M78 332l23 135h114l-24-135h-113zm-59-332l23 135h113l-22-135h-114z"/><glyph glyph-name="semicolon" unicode=";" horiz-adv-x="270" d="M84 332l22 135h114l-23-135h-113zm-60-332l23 135h113l-14-146-119-132-26 37 75 106h-52z"/><glyph glyph-name="less" unicode="<" d="M509 88l-463 209 12 74 537 208-14-97-419-154 362-153z"/><glyph glyph-name="equal" unicode="=" d="M75 386l12 80h502l-12-80h-502zm-33-184l14 81h502l-14-81h-502z"/><glyph glyph-name="greater" unicode=">" d="M588 371l-12-74-538-209 15 98 420 153-363 154 14 86z"/><glyph glyph-name="question" unicode="?" horiz-adv-x="519" d="M102 0l21 128h114l-22-128h-113zm415 552q0-89-72.5-143.5t-185.5-78.5l-28-115h-70l22 175q226 45 226 149 0 40-28 60.5t-75 20.5q-69 0-177-58l-38 78q119 71 231 71 85 0 140-41.5t55-117.5z"/><glyph glyph-name="at" unicode="@" horiz-adv-x="960" d="M397-133q53 0 101.5 11.5t71.5 23.5l22 11 25-39q-10-6-28.5-15t-76-23.5-117.5-14.5q-162 0-258 103.5t-96 264.5q0 98 36 187t100.5 158.5 163.5 110.5 216 41q132 0 218.5-55t118.5-142.5 17-196.5q-7-45-17.5-86t-30.5-84.5-45.5-75-64-51.5-84.5-20q-36 0-60.5 11.5t-35 31-13.5 37.5-2 39q-87-71-174-71-55 0-92 36t-37 92q0 83 51 127t126 44q20 0 46-3.5t43-7 42.5-9 30.5-6.5l9 52q8 50-7.5 71.5t-66.5 21.5q-63 0-170-42l-21 63q115 44 203 44 169 0 140-159l-33-189q-6-31-8-49t.5-38.5 15-30 36.5-9.5q51 0 103.5 71t67.5 190q10 70-2 130.5t-46 110-100.5 78.5-159.5 29q-105 0-194-37.5t-147-100-90.5-144-32.5-170.5q0-142 81.5-231.5t224.5-89.5zm172 293l17 91q-4 1-33 6.5t-52 9-43 3.5q-61 0-90-32.5t-29-76.5q0-73 75-73 71 0 155 72z"/><glyph glyph-name="A" unicode="A" horiz-adv-x="687" d="M504 0l-27 160h-302l-83-160h-124l389 700h118l142-700h-113zm-101 601l-183-354h242z"/><glyph glyph-name="B" unicode="B" horiz-adv-x="679" d="M613 215q0-102-69-158.5t-193-56.5h-314l123 700h250q106 0 165-42t59-115-50.5-118.5-104.5-52.5q48-8 91-47t43-110zm-106 10q0 49-38.5 75.5t-104.5 26.5h-162l-44-242h176q82 0 127.5 38.5t45.5 101.5zm18 304q0 40-31.5 63t-96.5 23h-144l-38-207h152q60 0 109 31.5t49 89.5z"/><glyph glyph-name="C" unicode="C" horiz-adv-x="650" d="M669 603l-61-75q-59 44-104.5 65t-91.5 21q-103 0-172-96.5t-69-238.5q0-97 35.5-145t97.5-48q87 0 228 85l48-84q-173-98-297-98-101 0-162 70t-61 214q0 199 99 318.5t243 119.5q52 0 106-19t82.5-36.5 78.5-52.5z"/><glyph glyph-name="D" unicode="D" horiz-adv-x="709" d="M669 432q0-81-24-156t-70.5-137.5-125-100.5-178.5-38h-234l123 700h196q153 0 233-69.5t80-198.5zm-109-2q0 94-56 136t-165 42h-87l-92-516h96q141 0 222.5 94t81.5 244z"/><glyph glyph-name="E" unicode="E" horiz-adv-x="602" d="M499 0h-462l122 700h457l-15-92h-350l-38-213h288l-16-90h-287l-39-213h355z"/><glyph glyph-name="F" unicode="F" horiz-adv-x="576" d="M601 608h-350l-38-213h277l-14-91h-278l-54-304h-107l122 700h457z"/><glyph glyph-name="G" unicode="G" horiz-adv-x="706" d="M485 0l14 80q-118-91-218-91-98 0-159.5 70t-61.5 206q0 211 99 328.5t242 117.5q54 0 110.5-19.5t91.5-41 79-54.5l-63-74q-1 1-16 11.5t-18.5 12.5-18 12-20 13-20 11-22.5 10.5-21.5 8-23.5 7.5-23 4-25 2q-103 0-171-96t-68-240q0-92 33.5-144.5t100.5-52.5q88 0 211 98l22 122h-182l15 87h283l-68-388h-102z"/><glyph glyph-name="H" unicode="H" horiz-adv-x="715" d="M466 0l56 322h-322l-56-322h-107l123 700h107l-51-288h322l51 288h108l-123-700h-108z"/><glyph glyph-name="I" unicode="I" horiz-adv-x="286" d="M144 0h-107l123 700h107z"/><glyph glyph-name="J" unicode="J" horiz-adv-x="286" d="M267 700l-114-649q-6-30-8-41.5t-8.5-33.5-12.5-31-17.5-24.5-26-23-36-18.5-49-19-64.5-17l-26 86q61 17 88 32t36 31.5 15 53.5l116 654h107z"/><glyph glyph-name="K" unicode="K" horiz-adv-x="664" d="M37 0l123 700h107l-64-363 362 363h138l-341-336 242-364h-120l-193 294-115-113-32-181h-107z"/><glyph glyph-name="L" unicode="L" horiz-adv-x="552" d="M482 0h-445l123 700h107l-108-609h338z"/><glyph glyph-name="M" unicode="M" horiz-adv-x="843" d="M594 0l90 513-261-396h-64l-122 416-93-533h-107l123 700h111l135-462 307 462h111l-123-700h-107z"/><glyph glyph-name="N" unicode="N" horiz-adv-x="731" d="M270 700l238-549 97 549h108l-123-700h-110l-239 551-97-551h-107l123 700h110z"/><glyph glyph-name="O" unicode="O" horiz-adv-x="754" d="M412 711q151 0 225.5-81t75.5-219q0-51-11.5-106t-38-112.5-66-102-101-73-136.5-28.5q-152 0-226 80.5t-74 218.5q0 52 11 107t38 112 66 102 100.5 73.5 136.5 28.5zm-55-630q62 0 111.5 33.5t77 85 42 106 14.5 104.5q0 208-186 208-62 0-112-33.5t-77.5-85-42-106-14.5-104.5q0-208 187-208z"/><glyph glyph-name="P" unicode="P" horiz-adv-x="652" d="M653 509q0-108-76.5-176.5t-210.5-68.5h-175l-47-264h-107l123 700h244q118 0 183.5-47t65.5-144zm-111-2q0 102-138 102h-152l-46-255h147q85 0 137 39t52 114z"/><glyph glyph-name="Q" unicode="Q" horiz-adv-x="753" d="M412 711q151 0 225.5-81t75.5-219q0-56-14.5-116.5t-43.5-120.5-81.5-107-119.5-66l98-93-79-67-131 148q-142 5-212 85t-70 214q0 52 11 107t38 112 66 102 100.5 73.5 136.5 28.5zm-55-630q62 0 111.5 33.5t77 85 42 106 14.5 104.5q0 208-186 208-62 0-112-33.5t-77.5-85-42-106-14.5-104.5q0-208 187-208z"/><glyph glyph-name="R" unicode="R" horiz-adv-x="689" d="M476 0l-127 288h-154l-51-288h-107l123 700h273q116 0 180.5-44.5t64.5-136.5q0-90-61.5-152.5t-164.5-75.5l135-291h-111zm90 516q0 97-140 97h-173l-44-238h173q85 0 134.5 36.5t49.5 104.5z"/><glyph glyph-name="S" unicode="S" d="M381 396q40-17 66.5-31t55-37 42.5-55 14-73q0-95-74.5-153t-187.5-58q-81 0-158.5 28t-134.5 67l58 75q133-79 232-79 65 0 108.5 29.5t43.5 78.5q0 18-8 33.5t-18 25.5-32 21.5-36 17.5-46 18-46 18q-39 16-64 30t-51 36-38.5 52-12.5 68q0 90 69.5 146.5t180.5 56.5q130 0 269-79l-58-73q-45 25-103.5 43t-104.5 18q-58 0-98-27t-40-76q0-19 6.5-33.5t26-26.5 33-18.5 50.5-20.5 56-22z"/><glyph glyph-name="T" unicode="T" horiz-adv-x="575" d="M609 608h-213l-108-608h-108l108 608h-213l15 92h534z"/><glyph glyph-name="U" unicode="U" horiz-adv-x="705" d="M693 700l-79-447q-10-58-30.5-103t-55-83-90.5-58-131-20q-80 0-132.5 22t-75 60.5-28.5 91 7 113.5l74 424h109l-79-441q-15-84 10-130.5t116-46.5q92 0 138 47t61 130l78 441h108z"/><glyph glyph-name="V" unicode="V" horiz-adv-x="685" d="M205 700l98-585 301 585h131l-387-700h-119l-143 700h119z"/><glyph glyph-name="W" unicode="W" horiz-adv-x="943" d="M559 0l-43 549-240-549h-111l-69 700h119l34-555 242 555h97l41-558 230 558h126l-315-700h-111z"/><glyph glyph-name="X" unicode="X" horiz-adv-x="630" d="M98 700h117l114-285 213 285h131l-287-350 176-350h-119l-125 280-219-280h-136l298 350z"/><glyph glyph-name="Y" unicode="Y" horiz-adv-x="638" d="M211 0l49 279-179 421h114l127-337 245 337h127l-328-423-48-277h-107z"/><glyph glyph-name="Z" unicode="Z" horiz-adv-x="620" d="M-16 0l14 84 484 524h-368l15 92h511l-13-84-486-524h396l-15-92h-538z"/><glyph glyph-name="bracketleft" unicode="[" horiz-adv-x="346" d="M239-144h-236l173 983h236l-11-67h-129l-150-848h129z"/><glyph glyph-name="backslash" unicode="\" horiz-adv-x="454" d="M286-90l-178 880h78l177-880h-77z"/><glyph glyph-name="bracketright" unicode="]" horiz-adv-x="347" d="M187-144h-236l11 68h129l150 848h-129l12 67h236z"/><glyph glyph-name="asciicircum" unicode="^" d="M454 340l-82 267-173-267h-120l250 360h106l127-360h-108z"/><glyph glyph-name="underscore" unicode="_" horiz-adv-x="704" d="M555-155h-565l13 76h564z"/><glyph glyph-name="grave" unicode="`" horiz-adv-x="228" d="M346 596h-80l-146 133h124z"/><glyph glyph-name="a" unicode="a" horiz-adv-x="611" d="M484 0h-104l13 75q-97-86-199-86-66 0-111 45.5t-45 143.5q0 157 69 257.5t179 100.5q88 0 175-80l12 69h104zm-255 73q79 0 180 91l37 210q-67 77-138 77-74 0-119-78.5t-45-183.5q0-54 22-85t63-31z"/><glyph glyph-name="b" unicode="b" horiz-adv-x="608" d="M21 0l129 729h103l-48-269q96 76 185 76 72 0 120.5-46t48.5-143q0-157-67.5-257.5t-175.5-100.5q-39 0-76.5 14t-57.5 28.5-46 36.5l-12-68h-103zm335 451q-43 0-82-21t-85-59l-39-221q70-76 145-76 71 0 114.5 78.5t43.5 183.5q0 55-24.5 85t-72.5 30z"/><glyph glyph-name="c" unicode="c" horiz-adv-x="520" d="M516 460l-51-71q-1 1-18.5 12t-27.5 16-28.5 13.5-35.5 12.5-34 4q-72 0-124.5-67.5t-52.5-162.5q0-66 28-102.5t80-36.5q16 0 34.5 4t38.5 12 32.5 13.5 32.5 16 23 11.5l38-81-15-7q-15-7-18.5-8.5t-19-8-21.5-9-21.5-8-24.5-8-23.5-6.5-25.5-5.5-24.5-3-25.5-1.5q-87 0-141 57.5t-54 161.5q0 78 23 142t61.5 103.5 85 61 95.5 21.5q18 0 36-2.5t32-5.5 31-9.5 27.5-10.5 26.5-12.5 22-12 21.5-13 17.5-10.5z"/><glyph glyph-name="d" unicode="d" horiz-adv-x="611" d="M484 0h-104l13 75q-97-86-199-86-66 0-111 45.5t-45 143.5q0 157 69 257.5t179 100.5q88 0 175-80l48 273h104zm-255 73q79 0 180 91l37 210q-67 77-138 77-74 0-119-78.5t-45-183.5q0-54 22-85t63-31z"/><glyph glyph-name="e" unicode="e" horiz-adv-x="561" d="M525 394q0-173-326-173h-58v-10q0-68 29-105t86-37q64 0 195 67l36-73q-145-74-248-74-94 0-148.5 57t-54.5 170q0 140 82 230t217 90q88 0 139-39.5t51-102.5zm-194 65q-66 0-114.5-49.5t-66.5-125.5h55q109 0 164 27.5t55 77.5q0 32-26 51t-67 19z"/><glyph glyph-name="f" unicode="f" horiz-adv-x="363" d="M58 447l13 78h72l10 58q12 77 44 111.5t97 34.5q75 0 168-42l-47-69q-63 22-103 22-45 0-56-56l-11-59h137l-14-78h-136l-74-419q-7-38-10-53.5t-10-42.5-13.5-37.5-18.5-28.5-26.5-26.5-36.5-20-49-19.5-64-17l-23 81q32 9 52 16.5t36 18 24 18.5 15 26.5 10 33 9 45.5l76 425h-71z"/><glyph glyph-name="g" unicode="g" horiz-adv-x="609" d="M472 525h103l-96-547q-19-108-78.5-150t-160.5-42q-119 0-248 39l33 85q122-39 209-39 122 0 141 105l17 98q-98-85-198-85-66 0-111 45.5t-45 143.5q0 157 69 257.5t179 100.5q87 0 174-80zm-243-452q47 0 88.5 23.5t90.5 66.5l37 212q-67 76-138 76-74 0-119-78.5t-45-183.5q0-54 22.5-85t63.5-31z"/><glyph glyph-name="h" unicode="h" horiz-adv-x="608" d="M253 729l-48-272q116 79 212 79 81 0 113.5-47t17.5-126l-63-363h-104l63 352q18 101-63 101-45 0-100-26t-91-55l-66-372h-103l129 729h103z"/><glyph glyph-name="i" unicode="i" horiz-adv-x="252" d="M124 0h-103l93 525h103zm3 620l18 106h111l-17-106h-112z"/><glyph glyph-name="j" unicode="j" horiz-adv-x="252" d="M127 620l18 106h112l-18-106h-112zm90-95l-95-534q-7-39-10.5-54.5t-13.5-41-22.5-36.5-36-27-57-26.5-81.5-22.5l-23 81q61 18 88.5 33.5t36 32 14.5 54.5l97 541h103z"/><glyph glyph-name="k" unicode="k" horiz-adv-x="535" d="M537 525l-217-214 155-311h-105l-121 241-100-98-25-143h-103l129 729h103l-80-450 238 246h126z"/><glyph glyph-name="l" unicode="l" horiz-adv-x="260" d="M128 0h-103l129 729h103z"/><glyph glyph-name="m" unicode="m" horiz-adv-x="917" d="M217 525l-13-73q104 84 191 84 113 0 129-97 39 36 94.5 66.5t111.5 30.5q81 0 111.5-46.5t16.5-124.5l-64-365h-104l64 352q18 101-60 101-74 0-173-89l-63-364h-103l63 352q20 101-60 101-75 0-169-87l-65-366h-103l93 525h103z"/><glyph glyph-name="n" unicode="n" horiz-adv-x="608" d="M217 525l-12-68q116 79 212 79 81 0 113.5-47t17.5-126l-63-363h-104l63 352q18 101-63 101-45 0-100-26t-91-55l-66-372h-103l93 525h103z"/><glyph glyph-name="o" unicode="o" horiz-adv-x="611" d="M313 536q117 0 182-61.5t65-169.5q0-135-75.5-225.5t-201.5-90.5q-116 0-181 61.5t-65 169.5q0 135 75 225.5t201 90.5zm-32-465q79 0 126.5 70t47.5 164q0 149-140 149-79 0-126.5-70t-47.5-164q0-70 34-109.5t106-39.5z"/><glyph glyph-name="p" unicode="p" horiz-adv-x="608" d="M-15-204l129 729h103l-12-65q96 76 185 76 72 0 120.5-46t48.5-143q0-157-67-257.5t-176-100.5q-39 0-76.5 14t-57.5 28.5-46 36.5l-48-272h-103zm371 655q-43 0-82-21t-85-59l-39-220q71-77 145-77 72 0 115 78.5t43 183.5q0 55-24.5 85t-72.5 30z"/><glyph glyph-name="q" unicode="q" horiz-adv-x="611" d="M448-204h-104l49 279q-97-86-199-86-66 0-111 45.5t-45 143.5q0 157 69 257.5t179 100.5q88 0 175-80l12 69h104zm-219 277q79 0 180 91l37 210q-67 77-138 77-74 0-119-78.5t-45-183.5q0-54 22-85t63-31z"/><glyph glyph-name="r" unicode="r" horiz-adv-x="396" d="M217 525l-20-111q8 13 21.5 29.5t40 40 68 37 87.5 10.5l-17-98q-47 0-87.5-18t-65-43.5-41.5-50.5-24-43l-7-18-48-260h-103l93 525h103z"/><glyph glyph-name="s" unicode="s" horiz-adv-x="519" d="M290 306q81-26 122.5-60t41.5-95q0-75-60.5-118.5t-153.5-43.5q-125 0-242 74l52 70q107-62 191-62 45 0 76 19.5t31 52.5q0 8-2 15.5t-7 13.5-9 10.5-13.5 9.5-15.5 8-19 7.5-20 6.5-22.5 7-22.5 7q-33 10-55 19.5t-47.5 27-38.5 43.5-13 60q0 71 57 114.5t146 43.5q115 0 221-61l-50-68q-94 48-168 48-44 0-72.5-18.5t-28.5-49.5q0-10 3-19t11-16 14-11.5 20-10 22-8 26-8.5 26-8z"/><glyph glyph-name="t" unicode="t" horiz-adv-x="387" d="M54 447l13 78h71l24 132 106 20-27-152h143l-13-78h-144l-56-314q-9-54 37-54 29 0 97 26l26-81q-89-35-152-35-61 0-91.5 38.5t-16.5 117.5l53 302h-70z"/><glyph glyph-name="u" unicode="u" horiz-adv-x="607" d="M377 0l12 66q-113-77-212-77-80 0-112.5 47t-18.5 126l64 363h103l-63-352q-18-101 64-101 44 0 98.5 25.5t91.5 53.5l66 374h103l-93-525h-103z"/><glyph glyph-name="v" unicode="v" horiz-adv-x="559" d="M275 0h-102l-114 525h107l72-419 221 419h117z"/><glyph glyph-name="w" unicode="w" horiz-adv-x="814" d="M472 0l-46 398-192-398h-100l-69 525h106l35-416 194 416h90l42-416 182 416h113l-255-525h-100z"/><glyph glyph-name="x" unicode="x" horiz-adv-x="578" d="M399 0l-117 209-186-209h-136l260 263-156 262h111l109-204 180 204h130l-250-261 168-264h-113z"/><glyph glyph-name="y" unicode="y" horiz-adv-x="561" d="M-9-134q79 26 114.5 49.5t69.5 80.5l-115 529h107l76-405 219 405h116l-298-525q-53-92-80-121-57-63-179-94l-6-2z"/><glyph glyph-name="z" unicode="z" horiz-adv-x="521" d="M-14 0l13 76 366 363h-290l14 86h430l-12-76-366-363h300l-15-86h-440z"/><glyph glyph-name="braceleft" unicode="{" horiz-adv-x="391" d="M25 309l13 78q33 0 57 11t36.5 30 18 38 5.5 40l4 97q5 119 69 177.5t197 58.5h33l-12-66h-18q-148 0-159-154l-4-94q-4-84-39.5-125.5t-106.5-53.5q130-31 84-181l-23-77q-9-27-13-48.5t-1.5-44 13.5-38 35.5-25 62.5-9.5h18l-10-66h-19q-123 0-176.5 63.5t-18.5 178.5l28 91q20 63 .5 91t-74.5 28z"/><glyph glyph-name="bar" unicode="|" horiz-adv-x="243" d="M87-123h-80l166 941h80z"/><glyph glyph-name="braceright" unicode="}" horiz-adv-x="390" d="M383 387l-13-78q-33 0-57-11t-36.5-30-18.5-38-7-40l-3-97q-5-119-68.5-177.5t-196.5-58.5h-33l11 66h18q149 0 159 154l4 94q4 83 39.5 124.5t106.5 53.5q-129 31-84 182l24 77q10 35 13 60.5t-4 51.5-33.5 39.5-72.5 13.5h-19l11 66h18q124 0 176.5-63.5t17.5-178.5l-28-91q-19-63 .5-91t75.5-28z"/><glyph glyph-name="asciitilde" unicode="~" d="M85 196l-66 29q78 129 177 129 52 0 123-37.5t107-37.5q51 0 101 70l67-29q-80-128-178-128-52 0-123 37t-107 37q-51 0-101-70z"/><glyph glyph-name="uni00A0" horiz-adv-x="278"/><glyph glyph-name="exclamdown" unicode="¡" horiz-adv-x="272" d="M127 572l21 128h114l-21-128h-114zm73-87l-55-485h-125l116 485h64z"/><glyph glyph-name="cent" unicode="¢" horiz-adv-x="562" d="M299 0h-78l13 78q-78 7-125 63.5t-47 154.5q0 78 23 142t61.5 103.5 85 61 95.5 21.5h3l14 76h78l-16-88q49-14 146-73l-50-69q-2 1-20 12.5t-28 17.5-28.5 14.5-34.5 13.5l-62-354q42 13 121 52l37-79q-1 0-32.5-15t-45.5-20.5-43-15-53-14.5zm-130 305q0-118 81-136l64 362q-62-15-103.5-79t-41.5-147z"/><glyph glyph-name="sterling" unicode="£" horiz-adv-x="563" d="M62 256l12 68h99q-4 21-28 84t-24 108q0 88 59 141.5t160 53.5q49 0 98.5-16t73-30 62.5-39l-56-66q-96 60-164 60-58 0-93-33t-35-79q0-36 24.5-93t28.5-91h162l-12-68h-155q-13-55-48.5-98.5t-67.5-66.5h306l-14-91h-444l13 75q5 3 14 8.5t32.5 23.5 43 38 38 50 25.5 61h-110z"/><glyph glyph-name="yen" unicode="¥" horiz-adv-x="677" d="M96 293l10 67h140l-144 340h114l127-337 245 337h126l-263-340h139l-12-67h-178l-14-18-8-48h189l-12-67h-189l-27-160h-108l28 160h-187l11 67h188l9 52-6 14h-178z"/><glyph glyph-name="brokenbar" unicode="¦" horiz-adv-x="245" d="M181 405h-80l73 413h80zm-93-528h-80l73 413h80z"/><glyph glyph-name="section" unicode="§" horiz-adv-x="559" d="M221 158q-81 25-123 59.5t-42 92.5q0 100 120 136-57 40-57 107 0 71 57 114.5t147 43.5q115 0 221-61l-50-68q-92 48-169 48-44 0-72.5-18.5t-28.5-49.5q0-10 3-19t11-16 14-11.5 20.5-10 22-8 26.5-8.5 26-8q79-25 121-59t42-93q0-51-32.5-85.5t-86.5-50.5q57-40 57-107 0-71-57-114.5t-147-43.5q-113 0-221 61l50 68q96-48 170-48 44 0 72 18t28 50q0 10-3 19t-11 16-14 11.5-20.5 10-21.5 8-26 8.5-26 8zm52 245l-7 2q-50-5-79-27t-29-54q0-39 58-63 16-6 79-26l4-1q50 5 79.5 26.5t29.5 54.5q0 23-19 39.5t-42 25-74 23.5z"/><glyph glyph-name="dieresis" unicode="¨" horiz-adv-x="242" d="M91 606l18 104h96l-17-104h-97zm175 0l18 104h96l-19-104h-95z"/><glyph glyph-name="copyright" unicode="©" horiz-adv-x="824" d="M64 313q0 167 102.5 282.5t279.5 115.5q152 0 241-89.5t89-234.5q0-108-43-197t-132-145-208-56q-151 0-240 90t-89 234zm39 1q0-127 78.5-207t215.5-80q156 0 248 103.5t92 255.5q0 127-78.5 207t-215.5 80q-156 0-248-103.5t-92-255.5zm494 186l-32-33q-67 56-129 56-66 0-110-62t-40-155q2-61 26.5-95t67.5-34q71 0 149 54l26-37q-93-62-173-62-62 0-103 44.5t-44 125.5q-5 122 54.5 193.5t147.5 71.5q78 0 160-67z"/><glyph glyph-name="ordfeminine" unicode="ª" horiz-adv-x="436" d="M381 385h-76l7 41q-59-48-121-48-43 0-72.5 28.5t-29.5 89.5q0 93 43.5 152t112.5 59q53 0 109-46l7 39h76zm-164 54q50 0 107 51l20 114q-42 42-82 42-43 0-69-42.5t-26-100.5q0-64 50-64z"/><glyph glyph-name="guillemotleft" unicode="«" horiz-adv-x="683" d="M24 244l11 65 340 219-18-109-240-151 186-149-16-93zm620 175l-241-151 186-149-15-93-263 218 11 65 341 219z"/><glyph glyph-name="logicalnot" unicode="¬" d="M558 90h-87l35 203h-487l14 80h575z"/><glyph glyph-name="registered" unicode="®" horiz-adv-x="502" d="M88 480q0 92 56.5 156t155.5 64q84 0 133-49.5t49-130.5q0-92-56.5-156t-154.5-64q-84 0-133.5 49.5t-49.5 130.5zm34 1q0-65 40.5-106.5t110.5-41.5q81 0 129 53.5t48 132.5q0 65-41 106.5t-112 41.5q-81 0-128-53.5t-47-132.5zm258 70q0-24-17-41t-45-22l33-86h-34l-31 85h-43l-15-85h-33l35 201h89q28 0 44.5-15t16.5-37zm-33 0q0 22-29 22h-60l-10-55h52q22 0 34.5 9.5t12.5 23.5z"/><glyph glyph-name="macron" unicode="¯" horiz-adv-x="300" d="M113 621l11 66h295l-11-66h-295z"/><glyph glyph-name="degree" unicode="°" horiz-adv-x="432" d="M85 531q0 70 50 120t120 50 120-50 50-120q0-71-50-121t-120-50-120 50.5-50 120.5zm65 0q0-44 30.5-75t74.5-31 75 31 31 75q0 43-31 74t-75 31q-43 0-74-31t-31-74z"/><glyph glyph-name="plusminus" unicode="±" d="M310 534h83l-28-154h210l-12-80h-212l-27-155h-83l27 155h-208l14 80h208zm-303-534l12 71h502l-11-71h-503z"/><glyph glyph-name="twosuperior" unicode="²" horiz-adv-x="398" d="M378 450l-11-65h-316l7 39q6 34 20 60t43 49 46 33.5 59 33.5q37 21 50.5 29t34.5 23 28 26.5 7 25.5q-2 19-18.5 31t-46.5 12q-55 0-122-39l-30 55q83 49 160 49 64 0 100-29.5t36-76.5q0-28-11-51t-43.5-47-46-32.5-61.5-33.5q-9-5-14-8-50-27-69-43t-25-41h223z"/><glyph glyph-name="threesuperior" unicode="³" horiz-adv-x="395" d="M47 434l39 50q73-41 128-41 45 0 72 19.5t27 49.5q0 34-33 50t-84 16h-18l8 65h24q46 0 83 17.5t37 45.5q0 19-16.5 30t-43.5 11q-47 0-117-35l-27 54q83 46 157 46 60 0 93.5-26t33.5-66q0-72-98-107 35-9 58-37t23-65q0-53-43.5-93t-128.5-40q-87 0-174 56z"/><glyph glyph-name="acute" unicode="´" horiz-adv-x="228" d="M183 596h-91l141 133h139z"/><glyph glyph-name="mu" unicode="µ" horiz-adv-x="609" d="M95-204h-103l129 729h103l-62-352q-19-101 63-101 44 0 98.5 25.5t91.5 53.5l66 374h103l-93-525h-103l12 66q-115-77-212-77-32 0-58 9z"/><glyph glyph-name="paragraph" unicode="¶" horiz-adv-x="662" d="M355 700h95l-156-885h-91l79 438q-101 0-160 47t-59 139q0 123 82 192t210 69zm41-886l156 886h89l-156-886h-89z"/><glyph glyph-name="periodcentered" unicode="·" horiz-adv-x="254" d="M56 217l23 135h114l-23-135h-114z"/><glyph glyph-name="cedilla" unicode="¸" horiz-adv-x="174" d="M-32-156l32 56q24-12 51-12 25 0 41.5 12.5t16.5 39.5q0 13-4 28.5t-8 24.5l-4 9h48q27-35 27-79 0-46-32-72t-84-26q-47 0-84 19z"/><glyph glyph-name="onesuperior" unicode="¹" horiz-adv-x="248" d="M202 385h-79l63 342-81-38-26 55 124 61h73z"/><glyph glyph-name="ordmasculine" unicode="º" horiz-adv-x="428" d="M267 707q73 0 115-36.5t42-100.5q0-82-49-137t-132-55q-73 0-114.5 36.5t-41.5 100.5q0 81 48.5 136.5t131.5 55.5zm-22-270q48 0 75.5 39.5t27.5 89.5q0 82-82 82-48 0-76-39.5t-28-89.5q0-82 83-82z"/><glyph glyph-name="guillemotright" unicode="»" horiz-adv-x="681" d="M362 309l-11-65-341-218 19 108 240 151-185 150 15 93zm-65-283l19 108 240 151-185 150 15 93 262-219-10-65z"/><glyph glyph-name="onequarter" unicode="¼" horiz-adv-x="834" d="M383 85l9 55 254 280h102l-48-271h67l-10-64h-68l-15-85h-78l15 85h-228zm267 615l-452-700h-85l452 700h85zm-440-420h-79l62 342-81-38-25 55 124 61h73zm270-131h142l36 201z"/><glyph glyph-name="onehalf" unicode="½" horiz-adv-x="861" d="M765 65l-11-65h-315l6 39q6 34 20 60t43 49 46 33.5 59 33.5q45 25 64.5 37t37 30 17.5 36q0 20-16.5 32t-47.5 12q-57 0-122-39l-30 55q83 49 159 49 65 0 100.5-29.5t35.5-76.5q0-28-13.5-52.5t-39.5-45-51-35.5-60-33l-12-6q-49-26-68-42.5t-25-41.5h223zm-555 215h-79l62 342-81-38-25 55 124 61h73zm440 420l-452-700h-85l452 700h85z"/><glyph glyph-name="threequarters" unicode="¾" horiz-adv-x="945" d="M496 85l8 55 254 280h103l-48-271h67l-10-64h-68l-15-85h-79l15 85h-227zm-452 244l39 50q73-41 128-41 45 0 72 19.5t27 49.5q0 34-33.5 50t-83.5 16h-18l8 65h24q46 0 83 17.5t37 45.5q0 41-60 41-47 0-117-35l-27 54q83 46 157 46 60 0 93.5-26t33.5-66q0-72-98-107 35-9 58-37t23-65q0-53-43.5-93t-128.5-40q-86 0-174 56zm719 371l-452-700h-85l452 700h85zm-171-551h142l35 200z"/><glyph glyph-name="questiondown" unicode="¿" horiz-adv-x="517" d="M435 700l-22-128h-114l22 128h114zm-416-552q0 89 72.5 143.5t186.5 78.5l28 115h70l-23-175q-226-45-226-149 0-40 28.5-60.5t75.5-20.5q70 0 176 58l38-78q-119-71-232-71-84 0-139 41.5t-55 117.5z"/><glyph glyph-name="Agrave" unicode="À" horiz-adv-x="687" d="M504 0l-27 160h-302l-83-160h-124l389 700h118l142-700h-113zm-101 601l-183-354h242zm106 146h-80l-145 133h123z"/><glyph glyph-name="Aacute" unicode="Á" horiz-adv-x="687" d="M504 0l-27 160h-302l-83-160h-124l389 700h118l142-700h-113zm-101 601l-183-354h242zm29 146h-91l141 133h139z"/><glyph glyph-name="Acircumflex" unicode="Â" horiz-adv-x="687" d="M504 0l-27 160h-302l-83-160h-124l389 700h118l142-700h-113zm-101 601l-183-354h242zm101 279l77-133h-69l-68 82-96-82h-78l123 133h111z"/><glyph glyph-name="Atilde" unicode="Ã" horiz-adv-x="687" d="M504 0l-27 160h-302l-83-160h-124l389 700h118l142-700h-113zm-101 601l-183-354h242zm-85 155l-48 30q30 44 52 63.5t55 19.5q28 0 66.5-24t53.5-24q23 0 58 46l48-31q-30-44-52-63t-55-19q-29 0-67 24t-53 24q-24 0-58-46z"/><glyph glyph-name="Adieresis" unicode="Ä" horiz-adv-x="687" d="M504 0l-27 160h-302l-83-160h-124l389 700h118l142-700h-113zm-101 601l-183-354h242zm-112 156l18 104h96l-18-104h-96zm175 0l18 104h96l-18-104h-96z"/><glyph glyph-name="Aring" unicode="Å" horiz-adv-x="687" d="M504 0l-27 160h-302l-83-160h-124l389 700h118l142-700h-113zm-101 601l-183-354h242zm-67 243q0 44 31 75.5t75 31.5 75.5-31.5 31.5-75.5-31.5-75.5-75.5-31.5-75 31.5-31 75.5zm55 0q0-22 14.5-37t36.5-15 37 15 15 37-15 37-37 15-36.5-15-14.5-37z"/><glyph glyph-name="AE" unicode="Æ" horiz-adv-x="1016" d="M531 700h499l-15-92h-350l-38-213h288l-16-90h-288l-39-213h356l-16-92h-462l28 160h-275l-132-160h-139zm-254-451h216l59 331z"/><glyph glyph-name="Ccedilla" unicode="Ç" horiz-adv-x="651" d="M141-156l32 56q23-12 50-12 25 0 42 12.5t17 39.5q0 23-11 49-96 5-153 75t-57 209q0 199 99 318.5t243 119.5q52 0 106-19t82-36.5 80-52.5l-61-75q-61 44-105.5 65t-91.5 21q-103 0-172-96.5t-69-238.5q0-97 36-145t98-48q86 0 227 85l49-84q-152-85-262-96 20-32 20-68 0-46-31.5-72t-83.5-26q-49 0-84 19z"/><glyph glyph-name="Egrave" unicode="È" horiz-adv-x="602" d="M485 747h-81l-146 133h124zm14-747h-462l123 700h457l-15-92h-350l-38-213h287l-15-90h-288l-38-213h355z"/><glyph glyph-name="Eacute" unicode="É" horiz-adv-x="602" d="M404 747h-91l141 133h137zm95-747h-462l123 700h457l-15-92h-350l-38-213h287l-15-90h-288l-38-213h355z"/><glyph glyph-name="Ecircumflex" unicode="Ê" horiz-adv-x="602" d="M478 880l77-133h-67l-69 82-96-82h-79l125 133h109zm21-880h-462l123 700h457l-15-92h-350l-38-213h287l-15-90h-288l-38-213h355z"/><glyph glyph-name="Edieresis" unicode="Ë" horiz-adv-x="602" d="M499 0h-462l123 700h457l-15-92h-350l-38-213h287l-15-90h-288l-38-213h355zm-232 757l17 104h97l-18-104h-96zm175 0l18 104h96l-18-104h-96z"/><glyph glyph-name="Igrave" unicode="Ì" horiz-adv-x="286" d="M308 747h-80l-146 133h123zm-163-747h-108l123 700h108z"/><glyph glyph-name="Iacute" unicode="Í" horiz-adv-x="286" d="M227 747h-91l141 133h138zm-82-747h-108l123 700h108z"/><glyph glyph-name="Icircumflex" unicode="Î" horiz-adv-x="286" d="M301 880l78-133h-69l-68 82-96-82h-79l123 133h111zm-156-880h-108l123 700h108z"/><glyph glyph-name="Idieresis" unicode="Ï" horiz-adv-x="286" d="M145 0h-108l123 700h108zm-55 757l17 104h97l-19-104h-95zm175 0l18 104h95l-18-104h-95z"/><glyph glyph-name="Eth" unicode="Ð" horiz-adv-x="719" d="M678 432q0-81-24-156t-70.5-137.5-125-100.5-178.5-38h-234l54 307h-73l14 86h74l54 307h195q153 0 233.5-69.5t80.5-198.5zm-311-125h-160l-38-215h96q140 0 222 94t82 244q0 94-56.5 136t-164.5 42h-87l-38-215h159z"/><glyph glyph-name="Ntilde" unicode="Ñ" horiz-adv-x="731" d="M480 0l-239 550-96-550h-108l123 700h110l239-550 97 550h107l-123-700h-110zm-136 756l-48 30q30 44 52 63.5t55 19.5q29 0 67-24t53-24q23 0 58 46l48-31q-30-44-52-63t-55-19q-28 0-66 24t-53 24q-25 0-59-46z"/><glyph glyph-name="Ograve" unicode="Ò" horiz-adv-x="754" d="M412 711q151 0 225.5-81t75.5-219q0-51-11.5-106t-38-112.5-66-102-101-73-136.5-28.5q-152 0-226 80.5t-74 218.5q0 52 11 107t38 112 66 102 100.5 73.5 136.5 28.5zm-55-630q62 0 111.5 33.5t77 85 42 106 14.5 104.5q0 208-186 208-62 0-112-33.5t-77.5-85-42-106-14.5-104.5q0-208 187-208zm184 666h-80l-145 133h123z"/><glyph glyph-name="Oacute" unicode="Ó" horiz-adv-x="754" d="M412 711q151 0 225.5-81t75.5-219q0-51-11.5-106t-38-112.5-66-102-101-73-136.5-28.5q-152 0-226 80.5t-74 218.5q0 52 11 107t38 112 66 102 100.5 73.5 136.5 28.5zm-55-630q62 0 111.5 33.5t77 85 42 106 14.5 104.5q0 208-186 208-62 0-112-33.5t-77.5-85-42-106-14.5-104.5q0-208 187-208zm104 666h-92l141 133h139z"/><glyph glyph-name="Ocircumflex" unicode="Ô" horiz-adv-x="754" d="M412 711q151 0 225.5-81t75.5-219q0-51-11.5-106t-38-112.5-66-102-101-73-136.5-28.5q-152 0-226 80.5t-74 218.5q0 52 11 107t38 112 66 102 100.5 73.5 136.5 28.5zm-55-630q62 0 111.5 33.5t77 85 42 106 14.5 104.5q0 208-186 208-62 0-112-33.5t-77.5-85-42-106-14.5-104.5q0-208 187-208zm179 799l77-133h-68l-68 82-96-82h-79l123 133h111z"/><glyph glyph-name="Otilde" unicode="Õ" horiz-adv-x="754" d="M412 711q151 0 225.5-81t75.5-219q0-51-11.5-106t-38-112.5-66-102-101-73-136.5-28.5q-152 0-226 80.5t-74 218.5q0 52 11 107t38 112 66 102 100.5 73.5 136.5 28.5zm-55-630q62 0 111.5 33.5t77 85 42 106 14.5 104.5q0 208-186 208-62 0-112-33.5t-77.5-85-42-106-14.5-104.5q0-208 187-208zm-9 675l-47 30q29 44 51.5 63.5t54.5 19.5q29 0 67-24t53-24q25 0 59 46l47-31q-29-43-51.5-62.5t-54.5-19.5q-29 0-67 24t-53 24q-25 0-59-46z"/><glyph glyph-name="Odieresis" unicode="Ö" horiz-adv-x="754" d="M412 711q151 0 225.5-81t75.5-219q0-51-11.5-106t-38-112.5-66-102-101-73-136.5-28.5q-152 0-226 80.5t-74 218.5q0 52 11 107t38 112 66 102 100.5 73.5 136.5 28.5zm-55-630q62 0 111.5 33.5t77 85 42 106 14.5 104.5q0 208-186 208-62 0-112-33.5t-77.5-85-42-106-14.5-104.5q0-208 187-208zm-34 676l18 104h96l-19-104h-95zm175 0l17 104h96l-18-104h-95z"/><glyph glyph-name="multiply" unicode="×" d="M548 466l-171-135 121-132-64-54-123 134-172-136-53 62 170 134-121 132 64 54 123-134 173 137z"/><glyph glyph-name="Oslash" unicode="Ø" horiz-adv-x="753" d="M750 700l-91-98q51-75 53-191 0-51-11.5-106t-38-112.5-66-102-101-73-136.5-28.5q-130 0-207 63l-48-52h-85l91 98q-51 73-51 190 0 52 11 107t38 112 66 102 100.5 73.5 136.5 28.5q130 0 207-63l48 52h84zm-394-619q62 0 111.5 33.5t77 85 42 106 14.5 104.5q0 63-18 109l-362-392q48-46 135-46zm-186 208q0-65 17-107l361 390q-48 46-133 46-62 0-111.5-33.5t-77.5-85-42-106-14-104.5z"/><glyph glyph-name="Ugrave" unicode="Ù" horiz-adv-x="705" d="M692 700l-78-447q-10-58-30.5-103t-55-83-90.5-58-131-20q-80 0-132.5 22t-75 60.5-29 91 6.5 113.5l75 424h108l-79-441q-7-51-3.5-90t36-63 94.5-24q167 0 199 177l78 441h107zm-176 47h-80l-146 133h124z"/><glyph glyph-name="Uacute" unicode="Ú" horiz-adv-x="705" d="M692 700l-78-447q-10-58-30.5-103t-55-83-90.5-58-131-20q-80 0-132.5 22t-75 60.5-29 91 6.5 113.5l75 424h108l-79-441q-7-51-3.5-90t36-63 94.5-24q167 0 199 177l78 441h107zm-257 47h-92l142 133h138z"/><glyph glyph-name="Ucircumflex" unicode="Û" horiz-adv-x="705" d="M692 700l-78-447q-10-58-30.5-103t-55-83-90.5-58-131-20q-80 0-132.5 22t-75 60.5-29 91 6.5 113.5l75 424h108l-79-441q-7-51-3.5-90t36-63 94.5-24q167 0 199 177l78 441h107zm-182 180l78-133h-69l-68 82-96-82h-79l123 133h111z"/><glyph glyph-name="Udieresis" unicode="Ü" horiz-adv-x="705" d="M692 700l-78-447q-10-58-30.5-103t-55-83-90.5-58-131-20q-80 0-132.5 22t-75 60.5-29 91 6.5 113.5l75 424h108l-79-441q-7-51-3.5-90t36-63 94.5-24q167 0 199 177l78 441h107zm-394 57l18 104h96l-18-104h-96zm176 0l17 104h95l-18-104h-94z"/><glyph glyph-name="Yacute" unicode="Ý" horiz-adv-x="638" d="M210 0l49 279-178 421h113l127-337 245 337h127l-327-424-48-276h-108zm189 747h-91l141 133h139z"/><glyph glyph-name="Thorn" unicode="Þ" horiz-adv-x="662" d="M632 388q0-108-77-176.5t-210-68.5h-175l-26-143h-107l123 700h107l-21-121h137q118 0 183.5-47t65.5-144zm-110-2q0 103-139 103h-152l-47-256h149q84 0 136.5 39.5t52.5 113.5z"/><glyph glyph-name="germandbls" unicode="ß" horiz-adv-x="669" d="M402 711q127 0 190-57t42-169l-2-12-62-58q-71 40-128 40-38 0-63.5-19.5t-25.5-50.5q0-9 2.5-17t5.5-13.5 11-11 13-9 16.5-8.5 17.5-7 20.5-7 20.5-7q71-25 106.5-60t35.5-93q0-76-57-119.5t-140-43.5q-114 0-218 75l49 69q33-24 81-43.5t83-19.5q36 0 66 20.5t30 52.5q0 14-7.5 26t-15.5 19.5-28 16.5-28.5 12-33.5 12q-29 11-48.5 20.5t-41.5 26.5-33 42-11 57q0 71 51.5 116t135.5 45q48 0 99-17 3 58-31 84t-106 26q-78 0-126-32.5t-63-117.5l-85-479h-103l86 492q22 117 94 168t201 51z"/><glyph glyph-name="agrave" unicode="à" horiz-adv-x="611" d="M484 0h-103l13 75q-97-86-199-86-66 0-111.5 45.5t-45.5 143.5q0 157 69.5 257.5t179.5 100.5q84 0 175-81l12 70h103zm-254 73q79 0 180 91l37 210q-69 77-139 77-74 0-118.5-78.5t-44.5-183.5q0-54 22-85t63-31zm219 523h-80l-146 133h124z"/><glyph glyph-name="aacute" unicode="á" horiz-adv-x="611" d="M484 0h-103l13 75q-97-86-199-86-66 0-111.5 45.5t-45.5 143.5q0 157 69.5 257.5t179.5 100.5q84 0 175-81l12 70h103zm-254 73q79 0 180 91l37 210q-69 77-139 77-74 0-118.5-78.5t-44.5-183.5q0-54 22-85t63-31zm124 523h-91l141 133h137z"/><glyph glyph-name="acircumflex" unicode="â" horiz-adv-x="611" d="M484 0h-103l13 75q-97-86-199-86-66 0-111.5 45.5t-45.5 143.5q0 157 69.5 257.5t179.5 100.5q84 0 175-81l12 70h103zm-254 73q79 0 180 91l37 210q-69 77-139 77-74 0-118.5-78.5t-44.5-183.5q0-54 22-85t63-31zm213 656l77-133h-69l-68 82-95-82h-79l123 133h111z"/><glyph glyph-name="atilde" unicode="ã" horiz-adv-x="611" d="M484 0h-103l13 75q-97-86-199-86-66 0-111.5 45.5t-45.5 143.5q0 157 69.5 257.5t179.5 100.5q84 0 175-81l12 70h103zm-254 73q79 0 180 91l37 210q-69 77-139 77-74 0-118.5-78.5t-44.5-183.5q0-54 22-85t63-31zm28 532l-48 30q30 44 52 63.5t55 19.5q29 0 67-24t53-24q23 0 59 46l47-31q-29-43-51.5-62.5t-54.5-19.5q-29 0-67 24t-53 24q-25 0-59-46z"/><glyph glyph-name="adieresis" unicode="ä" horiz-adv-x="611" d="M484 0h-103l13 75q-97-86-199-86-66 0-111.5 45.5t-45.5 143.5q0 157 69.5 257.5t179.5 100.5q84 0 175-81l12 70h103zm-254 73q79 0 180 91l37 210q-69 77-139 77-74 0-118.5-78.5t-44.5-183.5q0-54 22-85t63-31zm4 533l18 104h96l-17-104h-97zm176 0l17 104h95l-17-104h-95z"/><glyph glyph-name="aring" unicode="å" horiz-adv-x="611" d="M484 0h-103l13 75q-97-86-199-86-66 0-111.5 45.5t-45.5 143.5q0 157 69.5 257.5t179.5 100.5q84 0 175-81l12 70h103zm-254 73q79 0 180 91l37 210q-69 77-139 77-74 0-118.5-78.5t-44.5-183.5q0-54 22-85t63-31zm47 620q0 44 31 75.5t75 31.5 75.5-31.5 31.5-75.5-31.5-75.5-75.5-31.5-75 31.5-31 75.5zm55 0q0-22 14.5-37t36.5-15 37 15 15 37-15 37-37 15-36.5-15-14.5-37z"/><glyph glyph-name="ae" unicode="æ" horiz-adv-x="935" d="M484 0h-103l13 76q-98-87-200-87-66 0-111 45.5t-45 143.5q0 157 69 257.5t179 100.5q88 0 175-80l12 69h104l-3-18q60 29 134 29 88 0 139-39.5t51-102.5q0-173-326-173h-57v-10q0-142 113-142 66 0 195 67l37-73q-145-74-248-74-76 0-124 35zm-255 73q47 0 89.5 24t91.5 68l1 8q-2 28-2 43 0 89 35 161-68 74-136 74-74 0-119-78.5t-45-183.5q0-54 22-85t63-31zm476 386q-67 0-115.5-49.5t-66.5-125.5h55q109 0 164.5 27.5t55.5 77.5q0 32-26 51t-67 19z"/><glyph glyph-name="ccedilla" unicode="ç" horiz-adv-x="520" d="M69-156l33 56q23-12 51-12 24 0 41 12.5t17 39.5q0 23-12 52-74 10-118 66t-44 150q0 78 23 142t61.5 103.5 85 61 95.5 21.5q18 0 36-2.5t32-5.5 31-9.5 27.5-10.5 26.5-12.5 22-12 21.5-13 17.5-10.5l-51-71q-1 1-18.5 12t-27.5 16-28.5 13.5-35.5 12.5-34 4q-72 0-124.5-67.5t-52.5-162.5q0-66 28-102.5t80-36.5q16 0 34.5 4t38.5 12 32.5 13.5 32.5 16 23 11.5l38-81q-127-59-201-64 19-33 19-67 0-46-31.5-72t-82.5-26-86 19z"/><glyph glyph-name="egrave" unicode="è" horiz-adv-x="561" d="M525 394q0-173-327-173h-57v-10q0-68 28.5-105t85.5-37q65 0 196 67l36-73q-145-74-248-74-94 0-148.5 57t-54.5 170q0 140 82 230t217 90q88 0 139-39.5t51-102.5zm-194 65q-66 0-114.5-49.5t-66.5-125.5h55q108 0 163.5 27.5t55.5 77.5q0 32-26 51t-67 19zm104 137h-80l-145 133h123z"/><glyph glyph-name="eacute" unicode="é" horiz-adv-x="561" d="M525 394q0-173-327-173h-57v-10q0-68 28.5-105t85.5-37q65 0 196 67l36-73q-145-74-248-74-94 0-148.5 57t-54.5 170q0 140 82 230t217 90q88 0 139-39.5t51-102.5zm-194 65q-66 0-114.5-49.5t-66.5-125.5h55q108 0 163.5 27.5t55.5 77.5q0 32-26 51t-67 19zm24 137h-91l141 133h137z"/><glyph glyph-name="ecircumflex" unicode="ê" horiz-adv-x="561" d="M525 394q0-173-327-173h-57v-10q0-68 28.5-105t85.5-37q65 0 196 67l36-73q-145-74-248-74-94 0-148.5 57t-54.5 170q0 140 82 230t217 90q88 0 139-39.5t51-102.5zm-194 65q-66 0-114.5-49.5t-66.5-125.5h55q108 0 163.5 27.5t55.5 77.5q0 32-26 51t-67 19zm98 270l78-133h-70l-67 82-96-82h-79l123 133h111z"/><glyph glyph-name="edieresis" unicode="ë" horiz-adv-x="561" d="M525 394q0-173-327-173h-57v-10q0-68 28.5-105t85.5-37q65 0 196 67l36-73q-145-74-248-74-94 0-148.5 57t-54.5 170q0 140 82 230t217 90q88 0 139-39.5t51-102.5zm-194 65q-66 0-114.5-49.5t-66.5-125.5h55q108 0 163.5 27.5t55.5 77.5q0 32-26 51t-67 19zm-114 147l18 104h97l-18-104h-97zm176 0l18 104h95l-18-104h-95z"/><glyph glyph-name="igrave" unicode="ì" horiz-adv-x="252" d="M264 596h-80l-147 133h124zm-139-596h-104l93 525h104z"/><glyph glyph-name="iacute" unicode="í" horiz-adv-x="252" d="M182 596h-91l141 133h138zm-57-596h-104l93 525h104z"/><glyph glyph-name="icircumflex" unicode="î" horiz-adv-x="252" d="M257 729l77-133h-68l-68 82-96-82h-79l124 133h110zm-132-729h-104l93 525h104z"/><glyph glyph-name="idieresis" unicode="ï" horiz-adv-x="252" d="M125 0h-104l93 525h104zm-80 606l19 104h96l-19-104h-96zm175 0l19 104h95l-18-104h-96z"/><glyph glyph-name="eth" unicode="ð" horiz-adv-x="621" d="M298 547h-101l86 68q-18 2-26 2-20 0-40.5-2.5t-31.5-4.5l-11-2-2 82q39 10 91 10 55 0 106-16l56 45h100l-93-75q68-44 104-124t36-187q0-162-82.5-258t-221.5-96q-108 0-171 57t-63 160q0 115 76.5 192.5t188.5 77.5q37 0 69-9.5t51-23.5 32.5-28 18.5-23l6-10q-4 70-33.5 127t-85.5 85zm158-282q0 59-33.5 94t-98.5 35q-85 0-133.5-56.5t-48.5-135.5q0-59 31-95t99-36q91 0 137.5 59.5t46.5 134.5z"/><glyph glyph-name="ntilde" unicode="ñ" horiz-adv-x="608" d="M218 525l-12-67q116 78 212 78 80 0 112.5-47t18.5-126l-64-363h-103l62 352q18 101-63 101-44 0-97.5-25t-92.5-55l-66-373h-104l93 525h104zm33 80l-48 30q30 44 52 63.5t55 19.5q29 0 67-24t53-24q24 0 58 46l48-31q-30-44-52-63t-55-19q-28 0-66 24t-53 24q-25 0-59-46z"/><glyph glyph-name="ograve" unicode="ò" horiz-adv-x="611" d="M313 536q117 0 182-61.5t65-169.5q0-135-75.5-225.5t-201.5-90.5q-116 0-181 61.5t-65 169.5q0 135 75 225.5t201 90.5zm-32-465q79 0 126.5 70t47.5 164q0 149-140 149-79 0-126.5-70t-47.5-164q0-70 34-109.5t106-39.5zm161 525h-80l-146 133h124z"/><glyph glyph-name="oacute" unicode="ó" horiz-adv-x="611" d="M313 536q117 0 182-61.5t65-169.5q0-135-75.5-225.5t-201.5-90.5q-116 0-181 61.5t-65 169.5q0 135 75 225.5t201 90.5zm-32-465q79 0 126.5 70t47.5 164q0 149-140 149-79 0-126.5-70t-47.5-164q0-70 34-109.5t106-39.5zm81 525h-91l141 133h137z"/><glyph glyph-name="ocircumflex" unicode="ô" horiz-adv-x="611" d="M313 536q117 0 182-61.5t65-169.5q0-135-75.5-225.5t-201.5-90.5q-116 0-181 61.5t-65 169.5q0 135 75 225.5t201 90.5zm-32-465q79 0 126.5 70t47.5 164q0 149-140 149-79 0-126.5-70t-47.5-164q0-70 34-109.5t106-39.5zm155 658l78-133h-69l-68 82-96-82h-79l123 133h111z"/><glyph glyph-name="otilde" unicode="õ" horiz-adv-x="611" d="M313 536q117 0 182-61.5t65-169.5q0-135-75.5-225.5t-201.5-90.5q-116 0-181 61.5t-65 169.5q0 135 75 225.5t201 90.5zm-32-465q79 0 126.5 70t47.5 164q0 149-140 149-79 0-126.5-70t-47.5-164q0-70 34-109.5t106-39.5zm-32 533l-50 19q14 22 18 29t17 23.5 21.5 22 22.5 11.5 29 6q24 0 66-20.5t61-20.5q29 0 54 40l50-19q-16-25-23-36t-21-27-29-22.5-34-6.5q-25 0-67 20.5t-61 20.5q-27 0-54-40z"/><glyph glyph-name="odieresis" unicode="ö" horiz-adv-x="611" d="M313 536q117 0 182-61.5t65-169.5q0-135-75.5-225.5t-201.5-90.5q-116 0-181 61.5t-65 169.5q0 135 75 225.5t201 90.5zm-32-465q79 0 126.5 70t47.5 164q0 149-140 149-79 0-126.5-70t-47.5-164q0-70 34-109.5t106-39.5zm-56 535l18 104h96l-17-104h-97zm175 0l18 104h95l-18-104h-95z"/><glyph glyph-name="divide" unicode="÷" d="M59 293l14 80h501l-13-80h-502zm224 206q-3 27 18 47.5t51 20.5q23 0 40-14.5t18-36.5q3-27-18-48t-50-21q-23 0-40 15t-19 37zm-61-348q-2 28 19 48.5t50 20.5q24 0 40-15t18-37q3-27-17.5-47.5t-50.5-20.5q-23 0-40 15t-19 36z"/><glyph glyph-name="oslash" unicode="ø" horiz-adv-x="612" d="M513 525h74l-70-74q44-58 44-146 0-135-75-225.5t-201-90.5q-103 0-165 47l-35-36h-74l71 74q-44 58-44 146 0 135 75.5 225.5t201.5 90.5q99 0 163-47zm-230-454q79 0 126.5 70t47.5 164q0 39-12 71l-261-273q35-32 99-32zm-140 149q0-42 11-71l260 273q-35 32-97 32-79 0-126.5-70t-47.5-164z"/><glyph glyph-name="ugrave" unicode="ù" horiz-adv-x="607" d="M376 0l12 66q-115-77-212-77-80 0-112 47t-19 126l64 363h103l-62-352q-18-101 63-101 44 0 98.5 25.5t91.5 53.5l66 374h103l-93-525h-103zm62 596h-81l-145 133h123z"/><glyph glyph-name="uacute" unicode="ú" horiz-adv-x="607" d="M376 0l12 66q-115-77-212-77-80 0-112 47t-19 126l64 363h103l-62-352q-18-101 63-101 44 0 98.5 25.5t91.5 53.5l66 374h103l-93-525h-103zm-18 596h-92l141 133h138z"/><glyph glyph-name="ucircumflex" unicode="û" horiz-adv-x="607" d="M376 0l12 66q-115-77-212-77-80 0-112 47t-19 126l64 363h103l-62-352q-18-101 63-101 44 0 98.5 25.5t91.5 53.5l66 374h103l-93-525h-103zm55 729l79-133h-69l-69 82-95-82h-80l124 133h110z"/><glyph glyph-name="udieresis" unicode="ü" horiz-adv-x="607" d="M376 0l12 66q-115-77-212-77-80 0-112 47t-19 126l64 363h103l-62-352q-18-101 63-101 44 0 98.5 25.5t91.5 53.5l66 374h103l-93-525h-103zm-156 606l18 104h96l-17-104h-97zm175 0l19 104h95l-18-104h-96z"/><glyph glyph-name="yacute" unicode="ý" horiz-adv-x="561" d="M-9-134q79 26 114.5 49t68.5 79l-114 531h107l75-406 220 406h115l-297-525q-53-92-80-121-57-63-179-94l-6-2zm345 730h-91l141 133h138z"/><glyph glyph-name="thorn" unicode="þ" horiz-adv-x="608" d="M253 729l-48-269q96 76 185 76 72 0 120.5-46t48.5-143q0-157-67-257.5t-176-100.5q-39 0-76.5 14t-57.5 28.5-46 36.5l-48-272h-103l165 933h103zm103-278q-43 0-82-21t-85-59l-39-220q71-77 145-77 72 0 115 78.5t43 183.5q0 55-24.5 85t-72.5 30z"/><glyph glyph-name="ydieresis" unicode="ÿ" horiz-adv-x="561" d="M-9-134q79 26 114.5 49t68.5 79l-114 531h107l75-406 220 406h115l-297-525q-53-92-80-121-57-63-179-94l-6-2zm207 740l18 104h97l-18-104h-97zm175 0l19 104h96l-19-104h-96z"/><glyph glyph-name="Amacron" unicode="Ā" horiz-adv-x="687" d="M504 0l-27 160h-302l-83-160h-124l389 700h118l142-700h-113zm-101 601l-183-354h242zm-122 171l11 66h295l-11-66h-295z"/><glyph glyph-name="amacron" unicode="ā" horiz-adv-x="611" d="M484 0h-103l13 75q-97-86-199-86-66 0-111.5 45.5t-45.5 143.5q0 157 69.5 257.5t179.5 100.5q84 0 175-81l12 70h103zm-254 73q79 0 180 91l37 210q-69 77-139 77-74 0-118.5-78.5t-44.5-183.5q0-54 22-85t63-31zm-9 548l11 66h295l-11-66h-295z"/><glyph glyph-name="Abreve" unicode="Ă" horiz-adv-x="687" d="M504 0l-27 160h-302l-83-160h-124l389 700h118l142-700h-113zm-101 601l-183-354h242zm23 146q-69 0-103.5 31t-26.5 82h69q-4-26 11.5-38t50.5-12q86 0 95 50h70q-8-52-52-82.5t-114-30.5z"/><glyph glyph-name="abreve" unicode="ă" horiz-adv-x="611" d="M484 0h-103l13 75q-97-86-199-86-66 0-111.5 45.5t-45.5 143.5q0 157 69.5 257.5t179.5 100.5q84 0 175-81l12 70h103zm-254 73q79 0 180 91l37 210q-69 77-139 77-74 0-118.5-78.5t-44.5-183.5q0-54 22-85t63-31zm133 523q-69 0-103.5 31t-26.5 82h69q-3-26 12-38t50-12q86 0 95 50h71q-9-53-52.5-83t-114.5-30z"/><glyph glyph-name="Aogonek" unicode="Ą" horiz-adv-x="687" d="M504 0l-27 160h-302l-83-160h-124l389 700h118l142-700h-3q-115-57-115-103 0-5 1.5-9.5t5-7 6.5-5 8.5-3.5 10-2 11-1h31.5l-20-55h-5q-125-1-125 72 0 64 115 114h-34zm-101 601l-183-354h242z"/><glyph glyph-name="aogonek" unicode="ą" horiz-adv-x="612" d="M366-103q0-5 1.5-9.5t4.5-7 6.5-5 9-3.5 9.5-2 11-1h31l-21-55h-5q-123-1-123 72 0 64 115 114h-25l13 75q-97-86-199-86-66 0-111 45.5t-45 143.5q0 157 69 257.5t179 100.5q88 0 175-80l12 69h104l-93-525h-3q-115-56-115-103zm-137 176q79 0 180 91l37 210q-67 77-138 77-74 0-119-78.5t-45-183.5q0-54 22-85t63-31z"/><glyph glyph-name="Cacute" unicode="Ć" horiz-adv-x="650" d="M669 603l-61-75q-61 44-105.5 65t-90.5 21q-103 0-172.5-96.5t-69.5-238.5q0-97 36-145t98-48q86 0 227 85l49-84q-173-98-297-98-101 0-162 70t-61 214q0 199 98.5 318.5t242.5 119.5q41 0 77.5-8.5t74.5-28.5 57-32 59-39zm-204 144h-91l141 133h138z"/><glyph glyph-name="cacute" unicode="ć" horiz-adv-x="520" d="M516 460l-51-71q-3 2-16 10t-21 12.5-23 12-27 12-27.5 8-29.5 3.5q-72 0-124.5-67.5t-52.5-162.5q0-66 27.5-102.5t80.5-36.5q16 0 34.5 4t38.5 12 32.5 13.5 32.5 16 23 11.5l38-81-15-7q-15-7-18.5-8.5t-19-8-21.5-9-21.5-8-24.5-8-23.5-6.5-25.5-5.5-24.5-3-25.5-1.5q-87 0-141 57.5t-54 161.5q0 153 80 240.5t185 87.5q17 0 35-2.5t32-5.5 31.5-9.5 27.5-10.5 27-13 22-12 21.5-12.5 17.5-10.5zm-175 136h-91l141 133h137z"/><glyph glyph-name="Cdotaccent" unicode="Ċ" horiz-adv-x="650" d="M669 603l-61-75q-61 44-105.5 65t-90.5 21q-103 0-172.5-96.5t-69.5-238.5q0-97 36-145t98-48q86 0 227 85l49-84q-173-98-297-98-101 0-162 70t-61 214q0 199 98.5 318.5t242.5 119.5q41 0 77.5-8.5t74.5-28.5 57-32 59-39zm-288 154l18 104h97l-18-104h-97z"/><glyph glyph-name="cdotaccent" unicode="ċ" horiz-adv-x="520" d="M516 460l-51-71q-3 2-16 10t-21 12.5-23 12-27 12-27.5 8-29.5 3.5q-72 0-124.5-67.5t-52.5-162.5q0-66 27.5-102.5t80.5-36.5q16 0 34.5 4t38.5 12 32.5 13.5 32.5 16 23 11.5l38-81-15-7q-15-7-18.5-8.5t-19-8-21.5-9-21.5-8-24.5-8-23.5-6.5-25.5-5.5-24.5-3-25.5-1.5q-87 0-141 57.5t-54 161.5q0 153 80 240.5t185 87.5q17 0 35-2.5t32-5.5 31.5-9.5 27.5-10.5 27-13 22-12 21.5-12.5 17.5-10.5zm-226 146l18 104h97l-18-104h-97z"/><glyph glyph-name="Ccaron" unicode="Č" horiz-adv-x="650" d="M669 603l-61-75q-61 44-105.5 65t-90.5 21q-103 0-172.5-96.5t-69.5-238.5q0-97 36-145t98-48q86 0 227 85l49-84q-173-98-297-98-101 0-162 70t-61 214q0 199 98.5 318.5t242.5 119.5q41 0 77.5-8.5t74.5-28.5 57-32 59-39zm-289 144l-76 133h68l68-82 96 82h79l-123-133h-112z"/><glyph glyph-name="ccaron" unicode="č" horiz-adv-x="520" d="M516 460l-51-71q-3 2-16 10t-21 12.5-23 12-27 12-27.5 8-29.5 3.5q-72 0-124.5-67.5t-52.5-162.5q0-66 27.5-102.5t80.5-36.5q16 0 34.5 4t38.5 12 32.5 13.5 32.5 16 23 11.5l38-81-15-7q-15-7-18.5-8.5t-19-8-21.5-9-21.5-8-24.5-8-23.5-6.5-25.5-5.5-24.5-3-25.5-1.5q-87 0-141 57.5t-54 161.5q0 153 80 240.5t185 87.5q17 0 35-2.5t32-5.5 31.5-9.5 27.5-10.5 27-13 22-12 21.5-12.5 17.5-10.5zm-234 136l-78 133h70l67-82 97 82h78l-123-133h-111z"/><glyph glyph-name="Dcaron" unicode="Ď" horiz-adv-x="709" d="M669 432q0-81-24-156t-70.5-137.5-125-100.5-178.5-38h-234l123 700h196q153 0 233-69.5t80-198.5zm-109-2q0 94-56 136t-165 42h-87l-92-516h96q141 0 222.5 94t81.5 244zm-166 317l-77 133h69l67-82 96 82h79l-123-133h-111z"/><glyph glyph-name="dcaron" unicode="ď" horiz-adv-x="651" d="M484 0h-104l13 75q-97-86-199-86-66 0-111 45.5t-45 143.5q0 157 69 257.5t179 100.5q88 0 175-80l48 273h104zm-255 73q79 0 180 91l37 210q-67 77-138 77-74 0-119-78.5t-45-183.5q0-54 22-85t63-31zm422 552l17 104h90l-9-111-97-108-21 29 61 86h-41z"/><glyph glyph-name="Dcroat" unicode="Đ" horiz-adv-x="719" d="M678 432q0-81-24-156t-70.5-137.5-125-100.5-178.5-38h-234l54 307h-73l14 86h74l54 307h195q153 0 233.5-69.5t80.5-198.5zm-311-125h-160l-38-215h96q140 0 222 94t82 244q0 94-56.5 136t-164.5 42h-87l-38-215h159z"/><glyph glyph-name="dcroat" unicode="đ" horiz-adv-x="611" d="M484 0h-103l13 75q-97-86-199-86-66 0-111.5 45.5t-45.5 143.5q0 157 69.5 257.5t179.5 100.5q84 0 175-81l23 134h-167l10 66h169l13 74h103l-13-74h62l-10-66h-64zm-254 73q79 0 180 91l37 210q-69 77-139 77-74 0-118.5-78.5t-44.5-183.5q0-54 22-85t63-31z"/><glyph glyph-name="Emacron" unicode="Ē" horiz-adv-x="602" d="M499 0h-462l123 700h457l-15-92h-350l-38-213h287l-15-90h-288l-38-213h355zm-242 772l11 66h294l-11-66h-294z"/><glyph glyph-name="emacron" unicode="ē" horiz-adv-x="561" d="M525 394q0-173-327-173h-57v-10q0-68 28.5-105t85.5-37q65 0 196 67l36-73q-145-74-248-74-94 0-148.5 57t-54.5 170q0 140 82 230t217 90q88 0 139-39.5t51-102.5zm-194 65q-66 0-114.5-49.5t-66.5-125.5h55q108 0 163.5 27.5t55.5 77.5q0 32-26 51t-67 19zm-123 162l12 66h295l-12-66h-295z"/><glyph glyph-name="Edotaccent" unicode="Ė" horiz-adv-x="602" d="M499 0h-462l123 700h457l-15-92h-350l-38-213h287l-15-90h-288l-38-213h355zm-145 757l18 104h95l-18-104h-95z"/><glyph glyph-name="edotaccent" unicode="ė" horiz-adv-x="561" d="M525 394q0-173-327-173h-57v-10q0-68 28.5-105t85.5-37q65 0 196 67l36-73q-145-74-248-74-94 0-148.5 57t-54.5 170q0 140 82 230t217 90q88 0 139-39.5t51-102.5zm-194 65q-66 0-114.5-49.5t-66.5-125.5h55q108 0 163.5 27.5t55.5 77.5q0 32-26 51t-67 19zm-27 147l18 104h96l-18-104h-96z"/><glyph glyph-name="Eogonek" unicode="Ę" horiz-adv-x="602" d="M499 0h-3q-115-56-115-103 0-5 1.5-9.5t4.5-7l6-5 9-3.5 9.5-2 10.5-1h32l-21-55h-5q-122-1-122 72 0 64 114 114h-383l122 700h457l-15-92h-350l-38-213h288l-16-90h-287l-39-213h355z"/><glyph glyph-name="eogonek" unicode="ę" horiz-adv-x="562" d="M526 394q0-173-326-173h-58v-10q0-68 29-105t86-37q64 0 195 67l36-73q-92-48-165-64-56-28-84-52t-28-50q0-5 1.5-9.5t4.5-7 6.5-5 9-3.5 9.5-2 11-1h31l-21-55h-5q-123-1-123 72 0 57 92 103-89 4-139.5 61t-50.5 166q0 140 82 230t217 90q88 0 139-39.5t51-102.5zm-194 65q-66 0-114.5-49.5t-66.5-125.5h55q109 0 164 27.5t55 77.5q0 32-26 51t-67 19z"/><glyph glyph-name="Ecaron" unicode="Ě" horiz-adv-x="602" d="M345 747l-78 133h69l68-82 96 82h79l-124-133h-110zm154-747h-462l123 700h457l-15-92h-350l-38-213h287l-15-90h-288l-38-213h355z"/><glyph glyph-name="ecaron" unicode="ě" horiz-adv-x="561" d="M525 394q0-173-327-173h-57v-10q0-68 28.5-105t85.5-37q65 0 196 67l36-73q-145-74-248-74-94 0-148.5 57t-54.5 170q0 140 82 230t217 90q88 0 139-39.5t51-102.5zm-194 65q-66 0-114.5-49.5t-66.5-125.5h55q108 0 163.5 27.5t55.5 77.5q0 32-26 51t-67 19zm-36 137l-76 133h68l68-82 96 82h79l-124-133h-111z"/><glyph glyph-name="Gbreve" unicode="Ğ" horiz-adv-x="706" d="M485 0l14 81q-116-92-218-92-98 0-159.5 70t-61.5 206q0 211 99 328.5t242 117.5q54 0 110.5-20t90.5-41 80-54l-63-74q-3 2-10 7-36 26-59 40t-63 29.5-76 15.5q-103 0-171.5-96t-68.5-240q0-92 33.5-144.5t101.5-52.5q89 0 210 99l22 121h-181l14 87h284l-68-388h-102zm-54 747q-69 0-103.5 31t-25.5 82h69q-4-26 11.5-38t49.5-12q86 0 95 50h71q-9-52-53-82.5t-114-30.5z"/><glyph glyph-name="gbreve" unicode="ğ" horiz-adv-x="609" d="M359 596q-68 0-103 31t-26 82h69q-4-26 11.5-38t49.5-12q86 0 96 50h70q-8-52-52-82.5t-115-30.5zm113-71h103l-96-547q-19-108-78.5-150t-160.5-42q-119 0-248 39l33 85q122-39 209-39 122 0 141 105l17 98q-98-85-198-85-66 0-111 45.5t-45 143.5q0 157 69 257.5t179 100.5q87 0 174-80zm-243-452q47 0 88.5 23.5t90.5 66.5l37 212q-67 76-138 76-74 0-119-78.5t-45-183.5q0-54 22.5-85t63.5-31z"/><glyph glyph-name="Gdotaccent" unicode="Ġ" horiz-adv-x="706" d="M485 0l14 81q-116-92-218-92-98 0-159.5 70t-61.5 206q0 211 99 328.5t242 117.5q54 0 110.5-20t90.5-41 80-54l-63-74q-3 2-10 7-36 26-59 40t-63 29.5-76 15.5q-103 0-171.5-96t-68.5-240q0-92 33.5-144.5t101.5-52.5q89 0 210 99l22 121h-181l14 87h284l-68-388h-102zm-102 757l18 104h97l-18-104h-97z"/><glyph glyph-name="gdotaccent" unicode="ġ" horiz-adv-x="609" d="M311 606l18 104h96l-18-104h-96zm161-81h103l-96-547q-19-108-78.5-150t-160.5-42q-119 0-248 39l33 85q122-39 209-39 122 0 141 105l17 98q-98-85-198-85-66 0-111 45.5t-45 143.5q0 157 69 257.5t179 100.5q87 0 174-80zm-243-452q47 0 88.5 23.5t90.5 66.5l37 212q-67 76-138 76-74 0-119-78.5t-45-183.5q0-54 22.5-85t63.5-31z"/><glyph glyph-name="Gcommaaccent" unicode="Ģ" horiz-adv-x="706" d="M485 0l14 80q-118-91-218-91-98 0-159.5 70t-61.5 206q0 211 99 328.5t242 117.5q54 0 110.5-19.5t91.5-41 79-54.5l-63-74q-1 1-16 11.5t-18.5 12.5-18 12-20 13-20 11-22.5 10.5-21.5 8-23.5 7.5-23 4-25 2q-103 0-171-96t-68-240q0-92 33.5-144.5t100.5-52.5q88 0 211 98l22 122h-182l15 87h283l-68-388h-102zm-245-165l18 104h90l-10-111-96-108-22 29 62 86h-42z"/><glyph glyph-name="gcommaaccent" unicode="ģ" horiz-adv-x="609" d="M428 711l-18-105h-88l9 112 95 107 23-29-62-85h41zm44-186h103l-96-547q-19-108-78.5-150t-160.5-42q-119 0-248 39l33 85q122-39 209-39 122 0 141 105l17 98q-98-85-198-85-66 0-111 45.5t-45 143.5q0 157 69 257.5t179 100.5q87 0 174-80zm-243-452q47 0 88.5 23.5t90.5 66.5l37 212q-67 76-138 76-74 0-119-78.5t-45-183.5q0-54 22.5-85t63.5-31z"/><glyph glyph-name="Hbar" unicode="Ħ" horiz-adv-x="730" d="M473 0l56 322h-322l-56-322h-107l91 518h-74l10 66h75l21 116h107l-21-116h322l21 116h108l-21-116h75l-11-66h-75l-91-518h-108zm-231 518l-19-106h322l19 106h-322z"/><glyph glyph-name="hbar" unicode="ħ" horiz-adv-x="608" d="M63 589l11 66h63l13 74h104l-13-74h168l-11-66h-169l-23-131q118 78 212 78 80 0 112.5-47t18.5-126l-64-363h-103l62 352q18 101-63 101-44 0-98-25.5t-92-54.5l-66-373h-104l104 589h-62z"/><glyph glyph-name="Itilde" unicode="Ĩ" horiz-adv-x="286" d="M116 756l-48 30q30 44 52 63.5t55 19.5q28 0 66.5-24t53.5-24q23 0 58 46l48-31q-30-44-52-63t-55-19q-28 0-66.5 24t-53.5 24q-24 0-58-46zm29-756h-108l123 700h108z"/><glyph glyph-name="itilde" unicode="ĩ" horiz-adv-x="252" d="M72 605l-48 30q30 44 52 63.5t55 19.5q28 0 66.5-24t53.5-24q23 0 58 46l48-31q-30-44-52-63t-55-19q-28 0-66.5 24t-53.5 24q-24 0-58-46zm53-605h-104l93 525h104z"/><glyph glyph-name="Imacron" unicode="Ī" horiz-adv-x="286" d="M145 0h-108l123 700h108zm-65 772l11 66h295l-11-66h-295z"/><glyph glyph-name="imacron" unicode="ī" horiz-adv-x="252" d="M125 0h-104l93 525h104zm-91 621l12 66h295l-12-66h-295z"/><glyph glyph-name="Ibreve" unicode="Ĭ" horiz-adv-x="286" d="M224 747q-69 0-103.5 31t-26.5 82h70q-4-26 11-38t50-12q86 0 95 50h71q-9-52-53-82.5t-114-30.5zm-79-747h-108l123 700h108z"/><glyph glyph-name="ibreve" unicode="ĭ" horiz-adv-x="252" d="M180 596q-69 0-103.5 31t-26.5 82h70q-4-26 11-38t50-12q86 0 95 50h71q-9-52-53-82.5t-114-30.5zm-55-596h-104l93 525h104z"/><glyph glyph-name="Iogonek" unicode="Į" horiz-adv-x="286" d="M144 0h-3q-115-56-115-103 0-5 1.5-9.5t4.5-7l6-5 9-3.5 9.5-2 10.5-1h32l-21-55q-80 0-107 23-21 18-21 49 0 63 115 114h-28l123 700h108z"/><glyph glyph-name="iogonek" unicode="į" horiz-adv-x="252" d="M125 0h-3q-115-56-115-103 0-5 1.5-9.5t4.5-7l6-5 9-3.5 9.5-2 10.5-1h32l-21-55h-5q-123-1-123 72 0 63 115 114h-24l92 525h103zm3 620l17 106h112l-18-106h-111z"/><glyph glyph-name="Idotaccent" unicode="İ" horiz-adv-x="286" d="M145 0h-108l123 700h108zm31 757l19 104h96l-18-104h-97z"/><glyph glyph-name="dotlessi" unicode="ı" horiz-adv-x="252" d="M124 0h-103l93 525h103z"/><glyph glyph-name="IJ" unicode="Ĳ" horiz-adv-x="571" d="M555 700l-115-649q-5-29-7.5-41t-8.5-34-12-31-17.5-24.5-26-23-36.5-18.5-49.5-19-64.5-17l-24 86q60 17 87 32t35.5 31.5 15.5 53.5l116 654h107zm-411-700h-107l123 700h107z"/><glyph glyph-name="ij" unicode="ĳ" horiz-adv-x="504" d="M383 620l18 106h112l-18-106h-112zm90-95l-95-534q-6-33-9-47t-10-37-16-33.5-24.5-26-37-24.5-52-19.5-71.5-20.5l-24 81q62 18 89.5 34t35.5 32 15 54l96 541h103zm-349-525h-103l93 525h103zm3 620l18 106h111l-17-106h-112z"/><glyph glyph-name="Jcircumflex" unicode="Ĵ" horiz-adv-x="286" d="M267 700l-115-649q-5-29-7.5-41t-8.5-34-12-31-17.5-24.5-26-23-36.5-18.5-49.5-19-64.5-17l-25 86q61 17 88 32t36 31.5 15 53.5l116 654h107zm34 180l77-133h-69l-68 82-95-82h-79l122 133h112z"/><glyph glyph-name="jcircumflex" unicode="ĵ" horiz-adv-x="252" d="M218 525l-96-534q-6-33-9-47t-10-37.5-16-33.5-24-25.5-37-24.5-52.5-19.5-72.5-20.5l-23 81q62 18 89.5 34t35.5 32 15 54l97 541h103zm38 204l78-133h-69l-68 82-95-82h-80l124 133h110z"/><glyph glyph-name="Kcommaaccent" unicode="Ķ" horiz-adv-x="664" d="M37 0l123 700h107l-64-363 362 363h138l-341-336 242-364h-120l-193 294-115-113-32-181h-107zm168-165l18 104h89l-9-111-96-108-22 29 60 86h-40z"/><glyph glyph-name="kcommaaccent" unicode="ķ" horiz-adv-x="535" d="M537 525l-217-214 155-311h-105l-121 241-100-98-25-143h-103l129 729h103l-80-450 238 246h126zm-387-690l18 104h90l-10-111-96-108-22 29 62 86h-42z"/><glyph glyph-name="kgreenlandic" unicode="ĸ" horiz-adv-x="535" d="M537 525l-217-214 155-311h-105l-121 241-100-98-25-143h-103l93 525h103l-44-246 238 246h126z"/><glyph glyph-name="Lacute" unicode="Ĺ" horiz-adv-x="552" d="M227 747h-91l141 133h138zm256-747h-446l123 700h108l-109-609h338z"/><glyph glyph-name="lacute" unicode="ĺ" horiz-adv-x="260" d="M217 776h-91l141 133h138zm-89-776h-103l129 729h103z"/><glyph glyph-name="Lcommaaccent" unicode="Ļ" horiz-adv-x="552" d="M183-165l18 104h89l-9-111-96-108-22 29 61 86h-41zm299 165h-445l123 700h107l-108-609h338z"/><glyph glyph-name="lcommaaccent" unicode="ļ" horiz-adv-x="260" d="M3-165l18 104h90l-10-111-96-108-22 29 61 86h-41zm125 165h-103l128 729h103z"/><glyph glyph-name="Lcaron" unicode="Ľ" horiz-adv-x="552" d="M306 596l18 104h90l-10-111-96-108-22 29 62 86h-42zm176-596h-445l123 700h107l-108-609h338z"/><glyph glyph-name="lcaron" unicode="ľ" horiz-adv-x="295" d="M296 625l17 104h90l-9-111-97-108-21 29 62 86h-42zm-168-625h-103l129 729h103z"/><glyph glyph-name="Ldot" unicode="Ŀ" horiz-adv-x="554" d="M482 0h-445l123 700h107l-108-609h338zm-97 313l17 103h97l-17-103h-97z"/><glyph glyph-name="ldot" unicode="ŀ" horiz-adv-x="317" d="M128 0h-103l129 729h103zm111 313l17 103h97l-18-103h-96z"/><glyph glyph-name="Lslash" unicode="Ł" horiz-adv-x="568" d="M495 0h-446l45 258-77-39 17 99 78 40 60 342h108l-51-282 148 75-17-100-149-75-40-227h339z"/><glyph glyph-name="lslash" unicode="ł" horiz-adv-x="287" d="M143 0h-104l50 285-70-36 16 99 72 37 61 344h103l-51-286 72 37-16-100-73-37z"/><glyph glyph-name="Nacute" unicode="Ń" horiz-adv-x="731" d="M480 0l-239 550-96-550h-108l123 700h110l239-550 97 550h107l-123-700h-110zm-25 747h-91l141 133h138z"/><glyph glyph-name="nacute" unicode="ń" horiz-adv-x="608" d="M218 525l-12-67q116 78 212 78 80 0 112.5-47t18.5-126l-64-363h-103l62 352q18 101-63 101-44 0-97.5-25t-92.5-55l-66-373h-104l93 525h104zm145 71h-92l142 133h137z"/><glyph glyph-name="Ncommaaccent" unicode="Ņ" horiz-adv-x="731" d="M480 0l-239 551-97-551h-107l123 700h110l238-549 97 549h108l-123-700h-110zm-234-165l17 104h90l-9-111-97-108-22 29 62 86h-41z"/><glyph glyph-name="ncommaaccent" unicode="ņ" horiz-adv-x="608" d="M217 525l-12-68q116 79 212 79 81 0 113.5-47t17.5-126l-63-363h-104l63 352q18 101-63 101-45 0-100-26t-91-55l-66-372h-103l93 525h103zm-37-690l18 104h89l-10-111-96-108-22 29 62 86h-41z"/><glyph glyph-name="Ncaron" unicode="Ň" horiz-adv-x="731" d="M270 700l239-550 97 550h107l-123-700h-110l-239 550-96-550h-108l123 700h110zm126 47l-78 133h70l68-82 95 82h79l-123-133h-111z"/><glyph glyph-name="ncaron" unicode="ň" horiz-adv-x="608" d="M218 525l-12-67q116 78 212 78 80 0 112.5-47t18.5-126l-64-363h-103l62 352q18 101-63 101-44 0-97.5-25t-92.5-55l-66-373h-104l93 525h104zm84 71l-79 133h69l69-82 95 82h80l-124-133h-110z"/><glyph glyph-name="napostrophe" unicode="ŉ" horiz-adv-x="608" d="M218 525l-12-67q116 78 212 78 80 0 112.5-47t18.5-126l-64-363h-103l62 352q18 101-63 101-44 0-97.5-25t-92.5-55l-66-373h-104l93 525h104zm-75 161l18 104h90l-10-112-96-107-23 29 63 86h-42z"/><glyph glyph-name="Eng" unicode="Ŋ" horiz-adv-x="731" d="M713 700l-117-663q-7-38-13-58.5t-19.5-43.5-36-36.5-59-28-92.5-27.5l-25 86q65 19 91 33t36 41l-237 548-97-551h-107l123 700h110l238-549 97 549h108z"/><glyph glyph-name="eng" unicode="ŋ" horiz-adv-x="607" d="M482-9q-6-32-8.5-46.5t-9.5-37.5-16-33.5-24.5-26-37-24.5-52-19.5-72.5-20.5l-23 81q61 18 88.5 33.5t36 32 14.5 54.5l66 368q18 101-63 101-45 0-100-26t-91-55l-66-372h-103l93 525h103l-12-68q116 79 212 79 81 0 113.5-47t17.5-127z"/><glyph glyph-name="Omacron" unicode="Ō" horiz-adv-x="754" d="M412 711q151 0 225.5-81t75.5-219q0-51-11.5-106t-38-112.5-66-102-101-73-136.5-28.5q-152 0-226 80.5t-74 218.5q0 52 11 107t38 112 66 102 100.5 73.5 136.5 28.5zm-55-630q62 0 111.5 33.5t77 85 42 106 14.5 104.5q0 208-186 208-62 0-112-33.5t-77.5-85-42-106-14.5-104.5q0-208 187-208zm-44 691l11 66h295l-12-66h-294z"/><glyph glyph-name="omacron" unicode="ō" horiz-adv-x="611" d="M313 536q117 0 182-61.5t65-169.5q0-135-75.5-225.5t-201.5-90.5q-116 0-181 61.5t-65 169.5q0 135 75 225.5t201 90.5zm-32-465q79 0 126.5 70t47.5 164q0 149-140 149-79 0-126.5-70t-47.5-164q0-70 34-109.5t106-39.5zm-67 550l11 65h295l-11-65h-295z"/><glyph glyph-name="Obreve" unicode="Ŏ" horiz-adv-x="754" d="M412 711q151 0 225.5-81t75.5-219q0-51-11.5-106t-38-112.5-66-102-101-73-136.5-28.5q-152 0-226 80.5t-74 218.5q0 52 11 107t38 112 66 102 100.5 73.5 136.5 28.5zm-55-630q62 0 111.5 33.5t77 85 42 106 14.5 104.5q0 208-186 208-62 0-112-33.5t-77.5-85-42-106-14.5-104.5q0-208 187-208zm101 666q-69 0-103.5 31t-26.5 82h70q-4-26 11-38t50-12q86 0 95 50h71q-9-52-53-82.5t-114-30.5z"/><glyph glyph-name="obreve" unicode="ŏ" horiz-adv-x="611" d="M313 536q117 0 182-61.5t65-169.5q0-135-75.5-225.5t-201.5-90.5q-116 0-181 61.5t-65 169.5q0 135 75 225.5t201 90.5zm-32-465q79 0 126.5 70t47.5 164q0 149-140 149-79 0-126.5-70t-47.5-164q0-70 34-109.5t106-39.5zm79 525q-69 0-103.5 31t-26.5 82h69q-4-26 11.5-38t50.5-12q85 0 95 50h70q-9-53-52.5-83t-113.5-30z"/><glyph glyph-name="Ohungarumlaut" unicode="Ő" horiz-adv-x="754" d="M412 711q151 0 225.5-81t75.5-219q0-51-11.5-106t-38-112.5-66-102-101-73-136.5-28.5q-152 0-226 80.5t-74 218.5q0 52 11 107t38 112 66 102 100.5 73.5 136.5 28.5zm-55-630q62 0 111.5 33.5t77 85 42 106 14.5 104.5q0 208-186 208-62 0-112-33.5t-77.5-85-42-106-14.5-104.5q0-208 187-208zm195 666h-66l98 133h111zm-159 0h-65l98 133h111z"/><glyph glyph-name="ohungarumlaut" unicode="ő" horiz-adv-x="611" d="M313 536q117 0 182-61.5t65-169.5q0-135-75.5-225.5t-201.5-90.5q-116 0-181 61.5t-65 169.5q0 135 75 225.5t201 90.5zm-32-465q79 0 126.5 70t47.5 164q0 149-140 149-79 0-126.5-70t-47.5-164q0-70 34-109.5t106-39.5zm171 525h-65l97 133h112zm-158 0h-65l96 133h113z"/><glyph glyph-name="OE" unicode="Œ" horiz-adv-x="1107" d="M1004 0h-462l8 49q-81-60-190-60-152 0-226 80.5t-74 218.5q0 52 11 107t38 112 66 102 100.5 73.5 136.5 28.5q160 0 238-96l15 85h456l-15-92h-349l-39-213h288l-15-90h-288l-39-213h355zm-647 81q62 0 111.5 33.5t77 85 42 106 14.5 104.5q0 208-186 208-62 0-112-33.5t-77.5-85-42-106-14.5-104.5q0-208 187-208z"/><glyph glyph-name="oe" unicode="œ" horiz-adv-x="976" d="M940 394q0-173-325-173h-59v-10q0-68 29-105t86-37q64 0 195 67l36-73q-145-74-247-74-121 0-173 89-76-89-199-89-116 0-181 61.5t-65 169.5q0 135 75 225.5t201 90.5q149 0 212-99 86 99 226 99 88 0 138.5-39.5t50.5-102.5zm-659-323q79 0 126.5 70t47.5 164q0 149-140 149-79 0-126.5-70t-47.5-164q0-70 34-109.5t106-39.5zm466 388q-67 0-115.5-49.5t-66.5-125.5h57q107 0 162 27.5t55 77.5q0 32-25.5 51t-66.5 19z"/><glyph glyph-name="Racute" unicode="Ŕ" horiz-adv-x="689" d="M476 0l-126 288h-154l-51-288h-108l123 700h274q116 0 180.5-44.5t64.5-136.5q0-90-61.5-152.5t-165.5-75.5l135-291h-111zm91 516q0 97-141 97h-173l-43-238h173q85 0 134.5 36.5t49.5 104.5zm-119 231h-92l142 133h138z"/><glyph glyph-name="racute" unicode="ŕ" horiz-adv-x="396" d="M218 525l-21-111q9 14 22 29.5t40 39.5 68 37.5 88 10.5l-17-98q-47 0-88-18t-65-43.5-41.5-50.5-24.5-43l-7-18-47-260h-104l93 525h104zm63 71h-91l141 133h138z"/><glyph glyph-name="Rcommaaccent" unicode="Ŗ" horiz-adv-x="689" d="M476 0l-127 288h-154l-51-288h-107l123 700h273q116 0 180.5-44.5t64.5-136.5q0-90-61.5-152.5t-164.5-75.5l135-291h-111zm90 516q0 97-140 97h-173l-44-238h173q85 0 134.5 36.5t49.5 104.5zm-349-681l17 104h90l-9-111-97-108-21 29 61 86h-41z"/><glyph glyph-name="rcommaaccent" unicode="ŗ" horiz-adv-x="396" d="M218 525l-20-111q6 10 14.5 21.5t28.5 31 43 34 58 24 73 6.5l-16-98q-35 0-66.5-9.5t-53.5-25-41-34-30.5-36.5-20-33.5-11.5-24.5l-4-10-47-260h-103l93 525h103zm-218-690l18 104h89l-10-111-96-108-22 29 62 86h-41z"/><glyph glyph-name="Rcaron" unicode="Ř" horiz-adv-x="689" d="M476 0l-126 288h-154l-51-288h-108l123 700h274q116 0 180.5-44.5t64.5-136.5q0-90-61.5-152.5t-165.5-75.5l135-291h-111zm91 516q0 97-141 97h-173l-43-238h173q85 0 134.5 36.5t49.5 104.5zm-178 231l-77 133h68l69-82 95 82h79l-123-133h-111z"/><glyph glyph-name="rcaron" unicode="ř" horiz-adv-x="396" d="M218 525l-21-111q9 14 22 29.5t40 39.5 68 37.5 88 10.5l-17-98q-47 0-88-18t-65-43.5-41.5-50.5-24.5-43l-7-18-47-260h-104l93 525h104zm4 71l-77 133h68l68-82 96 82h79l-123-133h-111z"/><glyph glyph-name="Sacute" unicode="Ś" d="M392 747h-90l141 133h138zm-11-351q32-13 54-23.5t47.5-28.5 41-36.5 26-46.5 10.5-61q0-95-75-153t-188-58q-149 0-293 95l59 75q131-79 232-79 64 0 108 29.5t44 78.5q0 18-8 33.5t-18 25.5-32.5 21.5-36.5 17.5-45.5 18-46.5 18q-39 16-64 30t-51 36-38.5 52-12.5 68q0 91 70 147t181 56q129 0 268-79l-58-73q-44 25-103 43t-104 18q-58 0-98.5-27t-40.5-76q0-19 6.5-33.5t26-26.5 33-18.5 50.5-20.5 56-22z"/><glyph glyph-name="sacute" unicode="ś" horiz-adv-x="519" d="M318 596h-92l141 133h139zm-28-290q81-26 122.5-60t41.5-95q0-75-60.5-118.5t-153.5-43.5q-125 0-242 74l52 70q107-62 191-62 45 0 76 19.5t31 52.5q0 8-2 15.5t-7 13.5-9 10.5-13.5 9.5-15.5 8-19 7.5-20 6.5-22.5 7-22.5 7q-33 10-55 19.5t-47.5 27-38.5 43.5-13 60q0 71 57 114.5t146 43.5q115 0 221-61l-50-68q-94 48-168 48-44 0-72.5-18.5t-28.5-49.5q0-10 3-19t11-16 14-11.5 20-10 22-8 26-8.5 26-8z"/><glyph glyph-name="Scircumflex" unicode="Ŝ" d="M468 880l77-133h-69l-67 82-96-82h-80l124 133h111zm-87-484q32-13 54-23.5t47.5-28.5 41-36.5 26-46.5 10.5-61q0-95-75-153t-188-58q-149 0-293 95l59 75q131-79 232-79 64 0 108 29.5t44 78.5q0 18-8 33.5t-18 25.5-32.5 21.5-36.5 17.5-45.5 18-46.5 18q-39 16-64 30t-51 36-38.5 52-12.5 68q0 91 70 147t181 56q129 0 268-79l-58-73q-44 25-103 43t-104 18q-58 0-98.5-27t-40.5-76q0-19 6.5-33.5t26-26.5 33-18.5 50.5-20.5 56-22z"/><glyph glyph-name="scircumflex" unicode="ŝ" horiz-adv-x="519" d="M393 729l78-133h-69l-69 82-95-82h-80l125 133h110zm-103-423q81-26 122.5-60t41.5-95q0-75-60.5-118.5t-153.5-43.5q-125 0-242 74l52 70q107-62 191-62 45 0 76 19.5t31 52.5q0 8-2 15.5t-7 13.5-9 10.5-13.5 9.5-15.5 8-19 7.5-20 6.5-22.5 7-22.5 7q-33 10-55 19.5t-47.5 27-38.5 43.5-13 60q0 71 57 114.5t146 43.5q115 0 221-61l-50-68q-94 48-168 48-44 0-72.5-18.5t-28.5-49.5q0-10 3-19t11-16 14-11.5 20-10 22-8 26-8.5 26-8z"/><glyph glyph-name="Scedilla" unicode="Ş" d="M382 396q40-17 66.5-31t55-37 42.5-55 14-73q0-92-69.5-149t-177.5-62q19-33 19-66 0-46-31.5-72t-84.5-26q-47 0-84 19l32 56q24-12 51-12 25 0 42 12.5t17 39.5q0 22-12 51-139 12-257 93l58 75q133-79 232-79 65 0 108.5 29.5t43.5 78.5q0 18-8 33.5t-18 25.5-32 21.5-36 17.5-46 18-46 18q-39 16-64 30t-51 36-38.5 52-12.5 68q0 90 69.5 146.5t180.5 56.5q130 0 269-79l-58-73q-45 25-103.5 43t-104.5 18q-58 0-98-27t-40-76q0-19 6.5-33.5t26-26.5 33-18.5 50.5-20.5 56-22z"/><glyph glyph-name="scedilla" unicode="ş" horiz-adv-x="519" d="M290 306q81-26 122.5-60t41.5-95q0-69-53-112t-137-49q19-33 19-67 0-46-31.5-72t-83.5-26q-48 0-85 19l32 56q24-12 52-12 24 0 40.5 12.5t16.5 39.5q0 24-11 50-115 9-215 73l52 70q107-62 191-62 45 0 76 19.5t31 52.5q0 8-2 15.5t-7 13.5-9 10.5-13.5 9.5-15.5 8-19 7.5-20 6.5-22.5 7-22.5 7q-33 10-55 19.5t-47.5 27-38.5 43.5-13 60q0 71 57 114.5t146 43.5q115 0 221-61l-50-68q-94 48-168 48-44 0-72.5-18.5t-28.5-49.5q0-10 3-19t11-16 14-11.5 20-10 22-8 26-8.5 26-8z"/><glyph glyph-name="Scaron" unicode="Š" d="M334 747l-77 133h69l68-82 95 82h80l-124-133h-111zm47-351q32-13 54-23.5t47.5-28.5 41-36.5 26-46.5 10.5-61q0-95-75-153t-188-58q-149 0-293 95l59 75q131-79 232-79 64 0 108 29.5t44 78.5q0 18-8 33.5t-18 25.5-32.5 21.5-36.5 17.5-45.5 18-46.5 18q-39 16-64 30t-51 36-38.5 52-12.5 68q0 91 70 147t181 56q129 0 268-79l-58-73q-44 25-103 43t-104 18q-58 0-98.5-27t-40.5-76q0-19 6.5-33.5t26-26.5 33-18.5 50.5-20.5 56-22z"/><glyph glyph-name="scaron" unicode="š" horiz-adv-x="519" d="M259 596l-78 133h69l69-82 95 82h79l-124-133h-110zm31-290q81-26 122.5-60t41.5-95q0-75-60.5-118.5t-153.5-43.5q-125 0-242 74l52 70q107-62 191-62 45 0 76 19.5t31 52.5q0 8-2 15.5t-7 13.5-9 10.5-13.5 9.5-15.5 8-19 7.5-20 6.5-22.5 7-22.5 7q-33 10-55 19.5t-47.5 27-38.5 43.5-13 60q0 71 57 114.5t146 43.5q115 0 221-61l-50-68q-94 48-168 48-44 0-72.5-18.5t-28.5-49.5q0-10 3-19t11-16 14-11.5 20-10 22-8 26-8.5 26-8z"/><glyph glyph-name="Tcedilla" unicode="Ţ" horiz-adv-x="575" d="M610 608h-214l-108-608h-30q25-35 25-77 0-46-31.5-72t-83.5-26q-47 0-84 19l32 56q24-12 51-12 24 0 41 12.5t17 39.5q0 25-15 60h-29l108 608h-214l15 92h535z"/><glyph glyph-name="tcedilla" unicode="ţ" horiz-adv-x="388" d="M55 447l12 78h72l24 132 106 20-27-152h143l-13-78h-144l-56-314q-9-54 36-54 32 0 97 26l27-81q-68-27-134-34 18-36 18-67 0-46-31.5-72t-83.5-26q-49 0-84 19l32 56q23-12 50-12 25 0 42 12.5t17 39.5q0 23-12 52-98 21-74 153l53 302h-70z"/><glyph glyph-name="Tcaron" unicode="Ť" horiz-adv-x="575" d="M311 747l-77 133h69l67-82 96 82h79l-123-133h-111zm299-139h-214l-108-608h-107l108 608h-214l15 92h535z"/><glyph glyph-name="tcaron" unicode="ť" horiz-adv-x="387" d="M54 447l13 78h71l24 132 106 20-27-152h143l-13-78h-144l-56-314q-9-54 37-54 29 0 97 26l26-81q-89-35-152-35-61 0-91.5 38.5t-16.5 117.5l53 302h-70zm278 239l17 104h90l-9-112-97-107-22 29 63 86h-42z"/><glyph glyph-name="Tbar" unicode="Ŧ" horiz-adv-x="585" d="M121 224l10 65h105l56 319h-213l15 92h535l-15-92h-214l-57-319h103l-11-65h-103l-40-224h-107l39 224h-103z"/><glyph glyph-name="tbar" unicode="ŧ" horiz-adv-x="388" d="M55 447l13 78h71l24 132 106 20-27-152h144l-13-78h-145l-19-111h112l-11-65h-113l-24-138q-10-54 36-54 32 0 97 26l26-81q-86-35-151-35-62 0-92.5 38.5t-16.5 117.5l22 126h-50l11 65h51l19 111h-70z"/><glyph glyph-name="Utilde" unicode="Ũ" horiz-adv-x="705" d="M324 756l-47 30q29 44 51.5 63.5t54.5 19.5q29 0 67-24t53-24q25 0 59 46l47-31q-29-43-51.5-62.5t-54.5-19.5q-29 0-67 24t-53 24q-25 0-59-46zm368-56l-78-447q-10-58-30.5-103t-55-83-90.5-58-131-20q-80 0-132.5 22t-75 60.5-29 91 6.5 113.5l75 424h108l-79-441q-7-51-3.5-90t36-63 94.5-24q167 0 199 177l78 441h107z"/><glyph glyph-name="utilde" unicode="ũ" horiz-adv-x="607" d="M376 0l12 66q-115-77-212-77-80 0-112 47t-19 126l64 363h103l-62-352q-18-101 63-101 44 0 98.5 25.5t91.5 53.5l66 374h103l-93-525h-103zm-125 605l-48 30q30 44 52 63.5t55 19.5q28 0 66.5-24t53.5-24q24 0 58 46l48-31q-30-44-52-63t-55-19q-29 0-67 24t-53 24q-24 0-58-46z"/><glyph glyph-name="Umacron" unicode="Ū" horiz-adv-x="705" d="M692 700l-78-447q-10-58-30.5-103t-55-83-90.5-58-131-20q-80 0-132.5 22t-75 60.5-29 91 6.5 113.5l75 424h108l-79-441q-7-51-3.5-90t36-63 94.5-24q167 0 199 177l78 441h107zm-404 72l11 66h295l-11-66h-295z"/><glyph glyph-name="umacron" unicode="ū" horiz-adv-x="607" d="M376 0l12 66q-115-77-212-77-80 0-112 47t-19 126l64 363h103l-62-352q-18-101 63-101 44 0 98.5 25.5t91.5 53.5l66 374h103l-93-525h-103zm-166 621l11 66h294l-11-66h-294z"/><glyph glyph-name="Ubreve" unicode="Ŭ" horiz-adv-x="705" d="M433 747q-69 0-103.5 31t-26.5 82h69q-4-26 11.5-38t50.5-12q86 0 95 50h70q-8-52-52-82.5t-114-30.5zm259-47l-78-447q-10-58-30.5-103t-55-83-90.5-58-131-20q-80 0-132.5 22t-75 60.5-29 91 6.5 113.5l75 424h108l-79-441q-7-51-3.5-90t36-63 94.5-24q167 0 199 177l78 441h107z"/><glyph glyph-name="ubreve" unicode="ŭ" horiz-adv-x="607" d="M376 0l12 66q-115-77-212-77-80 0-112 47t-19 126l64 363h103l-62-352q-18-101 63-101 44 0 98.5 25.5t91.5 53.5l66 374h103l-93-525h-103zm-21 596q-69 0-104 31t-26 81h69q-4-25 11.5-37.5t50.5-12.5q85 0 95 50h71q-10-52-53.5-82t-113.5-30z"/><glyph glyph-name="Uring" unicode="Ů" horiz-adv-x="705" d="M342 844q0 44 31.5 75.5t75.5 31.5 75.5-31.5 31.5-75.5-31.5-75.5-75.5-31.5-75.5 31.5-31.5 75.5zm55 0q0-22 15-37t37-15 37 15 15 37-15 37-37 15-37-15-15-37zm295-144l-78-447q-10-58-30.5-103t-55-83-90.5-58-131-20q-80 0-132.5 22t-75 60.5-29 91 6.5 113.5l75 424h108l-79-441q-7-51-3.5-90t36-63 94.5-24q167 0 199 177l78 441h107z"/><glyph glyph-name="uring" unicode="ů" horiz-adv-x="607" d="M376 0l12 66q-115-77-212-77-80 0-112 47t-19 126l64 363h103l-62-352q-18-101 63-101 44 0 98.5 25.5t91.5 53.5l66 374h103l-93-525h-103zm-112 693q0 44 31 75.5t75 31.5q45 0 76-31.5t31-75.5-31-75.5-76-31.5q-44 0-75 31.5t-31 75.5zm55 0q0-22 14.5-37t36.5-15 37.5 15 15.5 37-15.5 37-37.5 15-36.5-15-14.5-37z"/><glyph glyph-name="Uhungarumlaut" unicode="Ű" horiz-adv-x="705" d="M692 700l-78-447q-10-58-30.5-103t-55-83-90.5-58-131-20q-80 0-132.5 22t-75 60.5-29 91 6.5 113.5l75 424h108l-79-441q-7-51-3.5-90t36-63 94.5-24q167 0 199 177l78 441h107zm-165 47h-66l97 133h113zm-159 0h-65l97 133h113z"/><glyph glyph-name="uhungarumlaut" unicode="ű" horiz-adv-x="607" d="M376 0l12 66q-115-77-212-77-80 0-112 47t-19 126l64 363h103l-62-352q-18-101 63-101 44 0 98.5 25.5t91.5 53.5l66 374h103l-93-525h-103zm71 596h-65l98 133h112zm-158 0h-65l98 133h111z"/><glyph glyph-name="Uogonek" unicode="Ų" horiz-adv-x="705" d="M282-103q0-5 1.5-9.5t5-7 6.5-5 8.5-3.5 10-2 11-1h31.5l-20-55h-5q-124-1-124 72 0 59 91 103-77 1-128 23.5t-72.5 61-27.5 90.5 7 112l74 424h109l-79-441q-15-84 10-130.5t116-46.5q169 0 199 177l79 441h107l-79-447q-39-220-224-256-107-55-107-100z"/><glyph glyph-name="uogonek" unicode="ų" horiz-adv-x="607" d="M377 0l12 66q-113-77-212-77-80 0-112.5 47t-18.5 126l64 363h103l-63-352q-18-101 64-101 44 0 98.5 25.5t91.5 53.5l66 374h103l-93-525h-3q-115-57-115-103 0-5 1.5-9.5t4.5-7l6-5 9-3.5 9.5-2 10.5-1h32l-20-55h-5q-123-1-123 72 0 63 115 114h-25z"/><glyph glyph-name="Wcircumflex" unicode="Ŵ" horiz-adv-x="943" d="M559 0l-44 550-240-550h-110l-69 700h118l34-557 243 557h96l42-558 229 558h127l-316-700h-110zm69 880l77-133h-69l-68 82-96-82h-79l124 133h111z"/><glyph glyph-name="wcircumflex" unicode="ŵ" horiz-adv-x="814" d="M473 0l-47 399-191-399h-100l-70 525h107l35-416 193 416h91l42-415 181 415h113l-254-525h-100zm65 729l78-133h-70l-67 82-96-82h-79l123 133h111z"/><glyph glyph-name="ycircumflex" unicode="ŷ" horiz-adv-x="560" d="M59 525h107l75-401 221 401h114l-417-729h-118l130 212zm350 204l78-133h-69l-68 82-95-82h-80l123 133h111z"/><glyph glyph-name="Ydieresis" unicode="Ÿ" horiz-adv-x="638" d="M210 0l49 279-178 421h113l127-337 245 337h127l-327-424-48-276h-108zm226 757l18 104h96l-18-104h-96zm-174 0l17 104h96l-18-104h-95z"/><glyph glyph-name="Zacute" unicode="Ź" horiz-adv-x="620" d="M640 700l-13-84-485-524h396l-16-92h-538l14 84 483 524h-367l15 92h511zm-243 47h-91l141 133h139z"/><glyph glyph-name="zacute" unicode="ź" horiz-adv-x="521" d="M-14 0l13 76 366 363h-291l15 86h430l-12-76-366-363h300l-15-86h-440zm330 596h-91l140 133h139z"/><glyph glyph-name="Zdotaccent" unicode="Ż" horiz-adv-x="620" d="M640 700l-13-84-485-524h396l-16-92h-538l14 84 483 524h-367l15 92h511zm-293 57l18 104h96l-17-104h-97z"/><glyph glyph-name="zdotaccent" unicode="ż" horiz-adv-x="521" d="M-14 0l13 76 366 363h-291l15 86h430l-12-76-366-363h300l-15-86h-440zm279 606l18 104h96l-18-104h-96z"/><glyph glyph-name="Zcaron" unicode="Ž" horiz-adv-x="620" d="M640 700l-13-84-485-524h396l-16-92h-538l14 84 483 524h-367l15 92h511zm-302 47l-78 133h69l68-82 95 82h80l-123-133h-111z"/><glyph glyph-name="zcaron" unicode="ž" horiz-adv-x="521" d="M-14 0l13 76 366 363h-291l15 86h430l-12-76-366-363h300l-15-86h-440zm271 596l-77 133h68l69-82 96 82h79l-125-133h-110z"/><glyph glyph-name="longs" unicode="ſ" horiz-adv-x="299" d="M57 447l13 78h71l11 58q12 77 44 111.5t97 34.5q75 0 168-42l-47-69q-63 22-103 22-45 0-56-56l-98-554q-6-37-9.5-54t-10.5-43-13.5-37-18.5-28.5-26.5-26-36.5-20-49-19.5-64-17l-23 80q39 12 61.5 22t37.5 19.5 23.5 28 13 35 10.5 53.5l75 424h-70z"/><glyph glyph-name="florin" unicode="ƒ" horiz-adv-x="559" d="M145 447l30 78h73l25 60q33 80 69 112t98 32q67 0 170-46l-61-68q-70 25-104 23-45-2-66-54l-25-59h140l-31-78h-141l-269-651h-105l268 651h-71z"/><glyph glyph-name="AEacute" unicode="Ǽ" horiz-adv-x="1016" d="M530 700h499l-15-92h-349l-39-213h288l-16-90h-287l-40-213h356l-15-92h-462l28 160h-275l-132-160h-139zm-253-451h216l58 331zm355 498h-92l141 133h139z"/><glyph glyph-name="aeacute" unicode="ǽ" horiz-adv-x="935" d="M485 0h-103l13 76q-98-87-200-87-66 0-111.5 45.5t-45.5 143.5q0 157 69.5 257.5t179.5 100.5q84 0 175-81l12 70h103l-3-18q60 29 135 29 88 0 139-39.5t51-102.5q0-173-327-173h-57v-10q0-68 28.5-105t85.5-37q66 0 195 67l37-73q-145-74-248-74-76 0-124 35zm-255 73q47 0 89.5 24t91.5 68l1 8q-2 28-2 43 0 89 35 161-68 74-137 74-74 0-118.5-78.5t-44.5-183.5q0-54 22-85t63-31zm475 386q-66 0-114.5-49.5t-66.5-125.5h55q109 0 164 27.5t55 77.5q0 32-26 51t-67 19zm-173 137h-91l140 133h139z"/><glyph glyph-name="Oslashacute" unicode="Ǿ" horiz-adv-x="753" d="M751 700l-91-99q50-72 52-190 0-51-11-106t-38-112.5-66.5-102-101-73-136.5-28.5q-130 0-206 63l-48-52h-85l90 98q-51 75-51 190 0 52 11 107t38 112.5 66 102 101 73 137 28.5q131 0 206-64l49 53h84zm-395-619q62 0 111.5 33.5t77 85 42 106 14.5 104.5q0 62-18 108l-361-391q48-46 134-46zm-186 208q0-65 17-108l361 391q-46 46-133 46-62 0-111.5-33.5t-77.5-85-42-106-14-104.5zm290 458h-91l140 133h139z"/><glyph glyph-name="oslashacute" unicode="ǿ" horiz-adv-x="612" d="M512 525h74l-70-73q45-59 45-147 0-135-75.5-225.5t-201.5-90.5q-102 0-165 48l-35-37h-74l71 74q-43 58-43 146 0 135 75 225.5t201 90.5q100 0 164-47zm-230-454q79 0 126.5 70t47.5 164q0 41-12 72l-261-273q35-33 99-33zm-140 149q0-38 11-71l261 273q-37 32-98 32-79 0-126.5-70t-47.5-164zm403 509l-187-133h-91l141 133h137z"/><glyph glyph-name="Scommaaccent" unicode="Ș" d="M185-165l18 104h90l-9-111-97-108-22 29 62 86h-42zm196 561q40-17 66.5-31t55-37 42.5-55 14-73q0-95-74.5-153t-187.5-58q-81 0-158.5 28t-134.5 67l58 75q133-79 232-79 65 0 108.5 29.5t43.5 78.5q0 18-8 33.5t-18 25.5-32 21.5-36 17.5-46 18-46 18q-39 16-64 30t-51 36-38.5 52-12.5 68q0 90 69.5 146.5t180.5 56.5q130 0 269-79l-58-73q-45 25-103.5 43t-104.5 18q-58 0-98-27t-40-76q0-19 6.5-33.5t26-26.5 33-18.5 50.5-20.5 56-22z"/><glyph glyph-name="scommaaccent" unicode="ș" horiz-adv-x="519" d="M133-165l18 104h88l-8-111-96-108-22 29 60 86h-40zm157 471q81-26 122.5-60t41.5-95q0-75-60.5-118.5t-153.5-43.5q-125 0-242 74l52 70q107-62 191-62 45 0 76 19.5t31 52.5q0 8-2 15.5t-7 13.5-9 10.5-13.5 9.5-15.5 8-19 7.5-20 6.5-22.5 7-22.5 7q-33 10-55 19.5t-47.5 27-38.5 43.5-13 60q0 71 57 114.5t146 43.5q115 0 221-61l-50-68q-94 48-168 48-44 0-72.5-18.5t-28.5-49.5q0-10 3-19t11-16 14-11.5 20-10 22-8 26-8.5 26-8z"/><glyph glyph-name="uni021a" unicode="Ț" horiz-adv-x="575" d="M161-165l18 104h89l-9-111-97-108-22 29 62 86h-41zm448 773h-213l-108-608h-108l108 608h-213l15 92h534z"/><glyph glyph-name="uni021b" unicode="ț" horiz-adv-x="387" d="M54 447l13 78h71l24 132 106 20-27-152h143l-13-78h-144l-56-314q-10-54 37-54 29 0 97 26l27-81q-92-35-154-35-60 0-90.5 38.5t-16.5 117.5l53 302h-70zm-4-612l17 104h90l-10-111-96-108-22 29 62 86h-41z"/><glyph glyph-name="hsuperior" unicode="ʰ" horiz-adv-x="396" d="M216 822l-29-160q73 45 131 45 51 0 72-29t12-78l-38-215h-75l38 207q9 56-38 56-27 0-59.5-14.5t-52.5-31.5l-39-217h-75l77 437h76z"/><glyph glyph-name="jsuperior" unicode="ʲ" horiz-adv-x="253" d="M173 751l12 70h81l-13-70h-80zm69-51l-56-314q-6-35-10.5-49.5t-19-33.5-41.5-29.5-75-21.5l-18 57q55 17 69 29t19 43l57 319h75z"/><glyph glyph-name="wsuperior" unicode="ʷ" horiz-adv-x="471" d="M320 385l-30 226-112-226h-72l-46 315h78l20-238 113 238h66l26-237 104 237h82l-157-315h-72z"/><glyph glyph-name="ysuperior" unicode="ʸ" horiz-adv-x="370" d="M56 311q47 15 69 28t42 44l-74 317h79l45-230 127 230h86l-185-315q-19-33-28.5-47t-29.5-34-46.5-31.5-66.5-20.5z"/><glyph glyph-name="circumflex" unicode="ˆ" horiz-adv-x="282" d="M324 729l78-133h-69l-68 82-95-82h-80l124 133h110z"/><glyph glyph-name="caron" unicode="ˇ" horiz-adv-x="284" d="M191 596l-77 133h69l67-82 96 82h79l-123-133h-111z"/><glyph glyph-name="breve" unicode="˘" horiz-adv-x="274" d="M243 596q-69 0-103.5 31t-25.5 82h69q-4-26 11.5-38t49.5-12q86 0 95 50h71q-9-52-53-82.5t-114-30.5z"/><glyph glyph-name="dotaccent" unicode="˙" horiz-adv-x="88" d="M101 606l18 104h96l-17-104h-97z"/><glyph glyph-name="ring" unicode="˚" horiz-adv-x="219" d="M57 693q0 44 31 75.5t75 31.5 75.5-31.5 31.5-75.5-31.5-75.5-75.5-31.5-75 31.5-31 75.5zm54 0q0-22 15-37t37-15 37 15 15 37-15 37-37 15-37-15-15-37z"/><glyph glyph-name="ogonek" unicode="˛" horiz-adv-x="157" d="M41-103q0-5 1.5-9.5t4.5-7l6-5 9-3.5 9.5-2 10.5-1h32l-21-55h-5q-123-1-123 72 0 39 36.5 68.5t105.5 56.5l51-10q-58-29-87.5-53.5t-29.5-50.5z"/><glyph glyph-name="tilde" unicode="˜" horiz-adv-x="297" d="M143 605l-47 30q29 44 51.5 63.5t54.5 19.5q29 0 67-24t53-24q24 0 59 46l47-31q-29-43-51.5-62.5t-54.5-19.5q-29 0-67 24t-53 24q-25 0-59-46z"/><glyph glyph-name="hungarumlaut" unicode="˝" horiz-adv-x="320" d="M316 596h-65l97 133h112zm-158 0h-66l97 133h113z"/><glyph glyph-name="xsuperior" unicode="ˣ" horiz-adv-x="387" d="M306 385l-70 120-108-120h-99l162 158-99 157h82l64-118 105 118h94l-155-157 105-158h-81z"/><glyph glyph-name="pi" unicode="π" horiz-adv-x="567" d="M577 525l-15-88h-87l-78-437h-93l78 437h-150l-78-437h-93l78 437h-86l15 88h509z"/><glyph glyph-name="Wgrave" unicode="Ẁ" horiz-adv-x="943" d="M559 0l-44 550-240-550h-110l-69 700h118l34-557 243 557h96l42-558 229 558h127l-316-700h-110zm74 747h-81l-144 133h122z"/><glyph glyph-name="wgrave" unicode="ẁ" horiz-adv-x="814" d="M473 0l-47 399-191-399h-100l-70 525h107l35-416 193 416h91l42-415 181 415h113l-254-525h-100zm71 596h-80l-146 133h124z"/><glyph glyph-name="Wacute" unicode="Ẃ" horiz-adv-x="943" d="M559 0l-44 550-240-550h-110l-69 700h118l34-557 243 557h96l42-558 229 558h127l-316-700h-110zm-7 747h-91l141 133h138z"/><glyph glyph-name="wacute" unicode="ẃ" horiz-adv-x="814" d="M473 0l-47 399-191-399h-100l-70 525h107l35-416 193 416h91l42-415 181 415h113l-254-525h-100zm-9 596h-91l141 133h137z"/><glyph glyph-name="Wdieresis" unicode="Ẅ" horiz-adv-x="943" d="M559 0l-44 550-240-550h-110l-69 700h118l34-557 243 557h96l42-558 229 558h127l-316-700h-110zm-146 750l19 103h96l-18-103h-97zm176 0l18 103h96l-18-103h-96z"/><glyph glyph-name="wdieresis" unicode="ẅ" horiz-adv-x="814" d="M473 0l-47 399-191-399h-100l-70 525h107l35-416 193 416h91l42-415 181 415h113l-254-525h-100zm-147 606l18 104h97l-18-104h-97zm176 0l18 104h95l-19-104h-94z"/><glyph glyph-name="Ygrave" unicode="Ỳ" horiz-adv-x="638" d="M210 0l49 279-178 421h113l127-337 245 337h127l-327-424-48-276h-108zm270 747h-80l-145 133h122z"/><glyph glyph-name="ygrave" unicode="ỳ" horiz-adv-x="561" d="M-9-134q79 26 114.5 49t68.5 79l-114 531h107l75-406 220 406h115l-297-525q-53-92-80-121-57-63-179-94l-6-2zm425 730h-80l-145 133h123z"/><glyph glyph-name="endash" unicode="–" horiz-adv-x="562" d="M483 242h-423l15 86h422z"/><glyph glyph-name="emdash" unicode="—" horiz-adv-x="667" d="M587 242h-527l15 86h526z"/><glyph glyph-name="quoteleft" unicode="‘" horiz-adv-x="245" d="M226 577l-22-135h-113l14 146 119 132 26-37-75-106h51z"/><glyph glyph-name="quoteright" unicode="’" horiz-adv-x="235" d="M110 565l22 135h113l-14-146-119-132-26 37 75 106h-51z"/><glyph glyph-name="quotesinglbase" unicode="‚" horiz-adv-x="251" d="M16 0l23 135h113l-14-146-119-132-26 37 75 106h-52z"/><glyph glyph-name="quotedblleft" unicode="“" horiz-adv-x="441" d="M226 577l-22-135h-113l14 146 119 132 26-37-75-106h51zm197 0l-23-135h-113l14 146 119 132 26-37-75-106h52z"/><glyph glyph-name="quotedblright" unicode="”" horiz-adv-x="431" d="M306 565l23 135h112l-14-146-119-132-26 37 75 106h-51zm-196 0l22 135h113l-14-146-119-132-26 37 75 106h-51z"/><glyph glyph-name="quotedblbase" unicode="„" horiz-adv-x="447" d="M213 0l23 135h111l-13-146-119-132-26 37 75 106h-51zm-197 0l23 135h113l-14-146-119-132-26 37 75 106h-52z"/><glyph glyph-name="dagger" unicode="†" horiz-adv-x="583" d="M46 387l15 88 219-12 42 237h80l-42-237 223 12-14-88-220 12-106-603h-81l106 602z"/><glyph glyph-name="daggerdbl" unicode="‡" d="M65 387l15 88 219-12 42 237h80l-42-237 223 12-14-88-220 12-35-198 223 12-14-88-221 11-60-340h-80l60 340-222-11 15 88 219-12 35 197z"/><glyph glyph-name="bullet" unicode="•" horiz-adv-x="443" d="M80 284q0 58 40.5 99t98.5 41 98.5-41 40.5-99-40.5-98-98.5-40-98.5 40-40.5 98z"/><glyph glyph-name="ellipsis" unicode="…" horiz-adv-x="681" d="M17 0l24 135h113l-23-135h-114zm217 0l23 135h113l-22-135h-114zm215 0l24 135h113l-23-135h-114z"/><glyph glyph-name="perthousand" unicode="‰" horiz-adv-x="1420" d="M279 711q82 0 129-42t47-114q0-94-55-156.5t-146-62.5q-82 0-129.5 42t-47.5 114q0 94 55.5 156.5t146.5 62.5zm-22-309q51 0 83 45t32 102q0 96-95 96-52 0-84-45t-32-102q0-96 96-96zm502-38q81 0 128.5-42t47.5-114q0-94-55-156.5t-146-62.5q-82 0-129.5 42t-47.5 114q0 94 55.5 156.5t146.5 62.5zm-22-309q51 0 83 45t32 102q0 96-95 96-52 0-84.5-45t-32.5-102q0-96 97-96zm56 645l-487-700h-86l485 700h88zm392-336q82 0 129-42t47-114q0-95-54.5-157t-146.5-62q-81 0-128.5 42t-47.5 114q0 94 55.5 156.5t145.5 62.5zm-21-309q51 0 83 45t32 102q0 96-95 96-52 0-84.5-45t-32.5-102q0-96 97-96z"/><glyph glyph-name="guilsinglleft" unicode="‹" horiz-adv-x="396" d="M24 244l11 65 340 219-18-109-240-151 186-149-16-93z"/><glyph glyph-name="guilsinglright" unicode="›" horiz-adv-x="395" d="M362 309l-11-65-341-218 19 108 240 151-185 150 15 93z"/><glyph glyph-name="fraction" unicode="⁄" horiz-adv-x="174" d="M364 700l-448-700h-88l448 700h88z"/><glyph glyph-name="zerosuperior" unicode="⁰" horiz-adv-x="439" d="M288 812q86 0 125.5-50t39.5-122q0-38-10-79.5t-31.5-84.5-63.5-70.5-97-27.5q-86 0-125.5 50t-39.5 122q0 29 5.5 61.5t20.5 69 37 65 58 47.5 81 19zm-37-373q34 0 59.5 24t38.5 59.5 19 68 6 57.5q0 103-86 103-34 0-59.5-24t-38.5-59.5-19.5-68-6.5-57.5q0-103 87-103z"/><glyph glyph-name="foursuperior" unicode="⁴" horiz-adv-x="430" d="M270 385l15 85h-227l9 55 253 280h104l-49-271h66l-10-64h-67l-15-85h-79zm-115 149h141l35 200z"/><glyph glyph-name="fivesuperior" unicode="⁵" horiz-adv-x="392" d="M104 595l60 210h260l-10-65h-195l-23-92q27 9 61 9 64 0 100.5-36.5t36.5-90.5q0-63-48.5-107.5t-130.5-44.5q-84 0-161 56l42 50q54-39 112-39 41 0 73 22.5t32 61.5q0 30-19.5 47.5t-56.5 17.5q-43 0-90-26z"/><glyph glyph-name="sixsuperior" unicode="⁶" horiz-adv-x="412" d="M367 748q-63 0-114.5-34t-75.5-95q43 36 107 36 62 0 98-35t36-88q0-63-46-108.5t-125-45.5q-78 0-121 46t-43 111q0 116 80.5 196.5t200.5 80.5q20 0 38.5-3t26.5-5l8-3-27-57q-18 4-43 4zm-104-152q-33 0-60.5-15.5t-41.5-33.5v-16q0-38 21.5-63.5t61.5-25.5q45 0 70.5 26t25.5 63q0 27-19.5 46t-57.5 19z"/><glyph glyph-name="sevensuperior" unicode="⁷" horiz-adv-x="330" d="M396 745q-8-8-21-21.5t-47.5-54.5-62.5-82-55-97-36-105h-84q11 58 43.5 122t73 116 62.5 78 35 39h-206l9 65h297z"/><glyph glyph-name="eightsuperior" unicode="⁸" horiz-adv-x="418" d="M67 488q0 82 122 128-56 35-56 86 0 48 43 79t114 31q65 0 102.5-26.5t37.5-70.5q0-64-94-105 83-41 83-106 0-56-53.5-91t-136.5-35q-76 0-119 29t-43 81zm271 19q0 43-77 76-52-16-83-36t-31-53q0-27 22-41.5t60-14.5q44 0 76.5 19.5t32.5 49.5zm-128 188q0-34 52-56 42 12 66.5 27t24.5 40q0 21-17.5 34.5t-46.5 13.5q-33 0-56-17.5t-23-41.5z"/><glyph glyph-name="ninesuperior" unicode="⁹" horiz-adv-x="412" d="M148 442q63 0 114.5 33.5t75.5 93.5q-43-34-106-34-62 0-98 35t-36 87q0 64 46 109.5t124 45.5 121-46 43-112q0-115-80-195.5t-200-80.5q-20 0-38.5 3t-27.5 5l-8 3 27 57q18-4 43-4zm104 152q33 0 61.5 16t41.5 34v15q0 37-22 63t-61 26q-45 0-71-26t-26-63q0-27 20-46t57-19z"/><glyph glyph-name="plussuperior" unicode="⁺" horiz-adv-x="383" d="M237 725h59l-20-111h129l-9-57h-130l-19-112h-59l19 112h-129l9 57h130z"/><glyph glyph-name="parenleftsuperior" unicode="⁽" horiz-adv-x="222" d="M76 431l58 326q7 35 12 51t20.5 33.5 42 27 73.5 19.5l14-46q-48-14-61.5-27t-18.5-44l-64-355q-6-35 1-47.5t45-26.5l-19-43q-81 20-98 46t-5 86z"/><glyph glyph-name="parenrightsuperior" unicode="⁾" horiz-adv-x="224" d="M250 757l-59-327q-11-64-35-88t-111-43l-15 47q48 14 62 26.5t19 43.5l64 356q6 34-1 46.5t-46 26.5l20 43q80-19 97-45.5t5-85.5z"/><glyph glyph-name="nsuperior" unicode="ⁿ" horiz-adv-x="396" d="M194 700l-7-39q72 46 131 46 51 0 72-29t12-78l-37-215h-76l38 207q9 56-38 56-54 0-113-46l-38-217h-75l56 315h75z"/><glyph glyph-name="zeroinferior" unicode="₀" horiz-adv-x="439" d="M198 277q86 0 125.5-50t39.5-122q0-38-10-79.5t-31.5-84.5-63.5-70.5-97-27.5q-86 0-125.5 50t-39.5 122q0 29 5.5 61.5t20.5 69 37 65 58 47.5 81 19zm-37-373q34 0 59.5 24t38.5 59.5 19 68 6 57.5q0 103-86 103-34 0-59.5-24t-38.5-59.5-19.5-68-6.5-57.5q0-103 87-103z"/><glyph glyph-name="oneinferior" unicode="₁" horiz-adv-x="263" d="M123-150h-79l63 342-81-38-26 55 124 61h73z"/><glyph glyph-name="twoinferior" unicode="₂" horiz-adv-x="385" d="M277-85l-11-65h-316l7 39q6 34 20 60t43 49 46 33.5 59 33.5q37 21 50.5 29t34.5 23 28 26.5 7 25.5q-2 19-18.5 31t-46.5 12q-55 0-122-39l-30 55q83 49 160 49 64 0 100-29.5t36-76.5q0-28-11-51t-43.5-47-46-32.5-61.5-33.5q-9-5-14-8-50-27-69-43t-25-41h223z"/><glyph glyph-name="threeinferior" unicode="₃" horiz-adv-x="386" d="M-52-101l39 50q73-41 128-41 45 0 72 19.5t27 49.5q0 34-33.5 50t-83.5 16h-18l8 65h24q46 0 83 17.5t37 45.5q0 41-60 41-47 0-117-35l-27 54q83 46 157 46 60 0 93.5-26t33.5-66q0-72-98-107 35-9 58-37t23-65q0-53-43.5-93t-128.5-40q-86 0-174 56z"/><glyph glyph-name="fourinferior" unicode="₄" horiz-adv-x="416" d="M167-150l15 85h-227l9 55 253 280h104l-49-271h66l-10-64h-67l-15-85h-79zm-115 149h141l35 200z"/><glyph glyph-name="fiveinferior" unicode="₅" horiz-adv-x="390" d="M7 60l60 210h260l-10-65h-195l-23-92q27 9 61 9 65 0 101-36.5t36-90.5q0-63-48.5-107.5t-130.5-44.5q-84 0-161 56l42 50q54-39 112-39 41 0 73 22.5t32 61.5q0 30-19.5 47.5t-56.5 17.5q-43 0-90-26z"/><glyph glyph-name="sixinferior" unicode="₆" horiz-adv-x="412" d="M274 213q-63 0-114.5-34t-75.5-95q43 36 107 36 62 0 98-35t36-88q0-63-46-108.5t-125-45.5q-78 0-121 46t-43 111q0 116 80.5 196.5t200.5 80.5q20 0 38.5-2.5t26.5-5.5l8-3-27-57q-18 4-43 4zm-104-152q-33 0-60.5-15.5t-41.5-33.5v-16q0-38 21.5-63.5t61.5-25.5q45 0 70.5 26t25.5 63q0 27-19.5 46t-57.5 19z"/><glyph glyph-name="seveninferior" unicode="₇" horiz-adv-x="356" d="M312 210q-8-8-21-21.5t-47.5-54.5-62.5-82-55-97-36-105h-84q11 58 43.5 122t73 116 62.5 78 35 39h-206l9 65h297z"/><glyph glyph-name="eightinferior" unicode="₈" horiz-adv-x="411" d="M-28-47q0 82 122 128-56 35-56 86 0 48 43 79t114 31q65 0 102.5-26.5t37.5-70.5q0-64-94-105 83-41 83-106 0-56-53.5-91t-136.5-35q-75 0-118.5 29t-43.5 81zm271 19q0 43-77 76-52-16-83-36t-31-53q0-27 22-41.5t60-14.5q44 0 76.5 19.5t32.5 49.5zm-128 188q0-34 52-56 42 12 66.5 27t24.5 40q0 21-17.5 34.5t-46.5 13.5q-33 0-56-17.5t-23-41.5z"/><glyph glyph-name="nineinferior" unicode="₉" horiz-adv-x="415" d="M57-93q63 0 114.5 34t75.5 93q-43-34-106-34-62 0-98 35t-36 87q0 64 46 109.5t124 45.5 121-46 43-112q0-115-80-195.5t-200-80.5q-20 0-38.5 2.5t-26.5 5.5l-9 3 27 57q18-4 43-4zm104 152q33 0 61.5 16t41.5 34v15q0 37-22 63t-61 26q-45 0-71-26t-26-63q0-27 20-46t57-19z"/><glyph glyph-name="parenleftinferior" unicode="₍" horiz-adv-x="228" d="M-15-104l58 326q7 35 12 51t20.5 33.5 42 27 73.5 19.5l14-46q-48-14-61.5-27t-18.5-44l-64-355q-6-35 1-47.5t45-26.5l-19-43q-81 20-98 46t-5 86z"/><glyph glyph-name="parenrightinferior" unicode="₎" horiz-adv-x="227" d="M157 222l-59-327q-11-64-35-88t-111-43l-15 47q48 14 62 26.5t19 43.5l64 356q6 34-1 46.5t-46 26.5l20 43q80-19 97-45.5t5-85.5z"/><glyph glyph-name="colonmonetary" unicode="₡" horiz-adv-x="570" d="M165 0h-55l43 107q-86 55-86 189 0 78 23 142t61 103.5 84.5 61 95.5 21.5q11 0 31-2l32 78h55l-36-89q20-6 30-10l40 99h55l-49-120q10-6 68-41l-51-69q-6 3-22 14t-27 17l-133-330q38 9 130 55l38-79q-3-1-18.5-8.5t-22-10.5-23-10-27-10.5-27-9.5-29.5-9-28.5-6.5-30.5-4.5l-31-78h-55l32 79q-17 2-32 6zm9 305q0-59 22-94l130 321q-64-12-108-77t-44-150zm62-130q11-6 31-8l144 356q-20 6-31 8z"/><glyph glyph-name="lira" unicode="₤" horiz-adv-x="566" d="M78 329l10 60h68q-32 81-32 127 0 88 59.5 141.5t159.5 53.5q49 0 98.5-16t73-30 62.5-39l-56-66q-96 60-164 60-58 0-93-33t-35-79q0-16 4-33.5t7.5-27 12.5-31 12-27.5h189l-9-60h-164q2-16 2-26 0-14-4-36h154l-9-59h-164q-34-69-99-117h306l-14-91h-444l13 75q10 6 26.5 16.5t53 45.5 55.5 71h-100l10 59h110q2 16 2 24 0 14-4 38h-97z"/><glyph glyph-name="peseta" unicode="₧" horiz-adv-x="683" d="M95 456l8 50h30l34 194h245q118 0 183.5-47t65.5-144v-3h25l-9-50h-22q-18-87-92-139.5t-189-52.5h-175l-47-264h-108l80 456h-29zm455 51q0 102-138 102h-153l-18-103h309v1zm-189-153q68 0 116.5 26t64.5 76h-310l-18-102h147z"/><glyph glyph-name="uni20A9" unicode="₩" horiz-adv-x="1023" d="M600 0l-43 550-240-550h-110l-24 239h-138l12 66h119l-10 106h-90l11 66h72l-22 223h119l13-223h167l97 223h95l17-223h163l92 223h126l-101-223h74l-12-66h-91l-48-106h120l-11-66h-139l-107-239h-111zm-327 411l7-106h81l46 106h-134zm385-106h79l44 106h-131zm-326-66h-48l6-97zm378 0h-47l8-96z"/><glyph glyph-name="Euro" unicode="€" horiz-adv-x="713" d="M66 395l10 62h57q39 119 123.5 186.5t189.5 67.5q41 0 78.5-9t73.5-27.5 58-32.5 58-39l-60-75q-60 44-105 65t-92 21q-66 0-120.5-42.5t-85.5-114.5h270l-11-62h-280q-11-40-14-96h277l-11-61h-264q7-76 42.5-114t90.5-38q84 0 227 85l48-84q-172-98-297-98-96 0-155.5 61t-66.5 188h-70l11 61h58q3 58 11 96h-51z"/><glyph glyph-name="uni2116" unicode="№" horiz-adv-x="1154" d="M273 700l239-551 97 551h107l-123-700h-110l-239 551-97-551h-107l123 700h110zm680-9q87 0 137-45t50-122q0-100-58.5-169.5t-154.5-69.5q-87 0-137.5 45t-50.5 122q0 100 59 169.5t155 69.5zm-23-333q56 0 88 48.5t32 109.5q0 102-101 102-55 0-87.5-48.5t-32.5-109.5q0-102 101-102zm-204-189l11 64h316l-11-64h-316z"/><glyph glyph-name="uni2117" unicode="℗" horiz-adv-x="824" d="M610 450q0-72-46.5-109.5t-123.5-37.5h-90l-28-164h-49l74 421h139q57 0 90.5-28t33.5-82zm-49 0q0 68-82 68h-91l-30-172h91q47 0 79.5 28t32.5 76zm-497-137q0 167 102.5 282.5t279.5 115.5q152 0 241-89.5t89-234.5q0-108-43-197t-132-145-208-56q-151 0-240 90t-89 234zm39 1q0-127 78.5-207t215.5-80q156 0 248 103.5t92 255.5q0 127-78.5 207t-215.5 80q-156 0-248-103.5t-92-255.5z"/><glyph glyph-name="servicemark" unicode="℠" horiz-adv-x="646" d="M553 476l26 149-84-112h-33l-43 116-26-153h-51l39 224h53l51-137 104 137h53l-39-224h-50zm-301 130q66-22 67-65 0-31-29.5-50t-75.5-19q-58 0-119 33l28 34q52-26 90-26 19 0 34.5 6.5t15.5 18.5q0 9-8.5 14t-33.5 12-35 10q-62 19-62 64 0 29 27 47.5t70 18.5q59 0 110-29l-27-33q-49 21-79 21-43 0-43-24 0-5 3-9t10.5-7 14.5-5 19.5-5.5 22.5-6.5z"/><glyph glyph-name="trademark" unicode="™" horiz-adv-x="642" d="M546 476l26 149-84-112h-32l-43 116-26-153h-51l39 224h53l51-137 104 137h53l-39-224h-51zm-213 182h-80l-32-182h-50l32 182h-79l7 42h208z"/><glyph glyph-name="Omega" unicode="Ω" horiz-adv-x="755" d="M435 711q134 0 205.5-68.5t71.5-196.5q0-80-19-145.5t-50-106.5-60.5-65-61.5-38h111l-15-91h-246l16 91q93 30 154 121t61 236q0 170-168 170-74 0-128-36.5t-81-95.5-39-117-12-118q0-123 117-160l-14-91h-246l14 91h114q-94 61-94 187 0 70 14 133t44 118 73.5 95.5 104.5 63.5 134 23z"/><glyph glyph-name="onethird" unicode="⅓" horiz-adv-x="853" d="M429 49l39 50q71-41 128-41 45 0 72 19.5t27 49.5q0 34-33 50t-83 16h-20l10 65h23q46 0 82.5 17.5t36.5 45.5q0 41-58 41-49 0-119-35l-26 54q83 46 157 46 60 0 93.5-26t33.5-66q0-72-98-107 35-9 58-37t23-65q0-53-44-93t-128-40q-90 0-174 56zm-218 231h-79l62 342-81-38-25 55 124 61h73zm439 420l-452-700h-83l451 700h84z"/><glyph glyph-name="twothirds" unicode="⅔" horiz-adv-x="979" d="M558 49l39 50q73-41 128-41 45 0 72.5 19.5t27.5 49.5q0 34-33.5 50t-83.5 16h-19l9 65h23q46 0 83 17.5t37 45.5q0 19-16 30t-43 11q-51 0-118-35l-26 54q78 46 157 46 60 0 93-26.5t33-65.5q0-72-97-107 35-9 57.5-37t22.5-65q0-53-43.5-93t-127.5-40q-87 0-175 56zm-185 296l-10-65h-316l6 39q6 34 20 60t43 49 46 33.5 59 33.5q35 20 49.5 28.5t35 23 28 26.5 7.5 25q0 20-17.5 32t-47.5 12q-56 0-121-39l-31 55q83 49 161 49 64 0 99.5-29.5t35.5-76.5q0-28-11-51t-43.5-47-46-32.5-61.5-33.5q-9-5-14-8-49-26-68-42.5t-25-41.5h222zm409 355l-452-700h-84l452 700h84z"/><glyph glyph-name="oneeighth" unicode="⅛" horiz-adv-x="858" d="M431 103q0 83 122 129-56 33-56 85 0 49 42.5 79.5t113.5 30.5q65 0 103-26.5t38-70.5q0-63-95-105 82-40 82-106 0-56-53-91t-135-35q-75 0-118.5 29t-43.5 81zm217 597l-452-700h-84l452 700h84zm-438-420h-79l62 342-81-38-25 55 124 61h73zm491-158q0 43-77 76-52-16-82.5-36t-30.5-53q0-27 22-41.5t60-14.5q44 0 76 19.5t32 49.5zm-128 188q0-34 53-56 43 13 67 27.5t24 38.5q0 21-18 35t-46 14q-33 0-56.5-17.5t-23.5-41.5z"/><glyph glyph-name="threeeighths" unicode="⅜" horiz-adv-x="968" d="M542 103q0 84 122 129-56 33-56 85 0 49 42.5 79.5t113.5 30.5q65 0 103-26.5t38-70.5q0-64-94-105 81-41 81-106 0-56-52.5-91t-135.5-35q-75 0-118.5 29t-43.5 81zm-497 226l39 50q71-41 128-41 45 0 72 19.5t27 49.5q0 34-33.5 50t-83.5 16h-19l9 65h23q47 0 84 17.5t37 45.5q0 19-16.5 30t-43.5 11q-47 0-117-35l-27 54q78 46 157 46 60 0 93.5-26t33.5-66q0-72-98-107 35-9 58-37t23-65q0-53-43.5-93t-128.5-40q-86 0-174 56zm715 371l-452-700h-83l452 700h83zm53-578q0 43-76 76-34-11-55.5-20t-40.5-27.5-19-41.5q0-27 22-41.5t60-14.5q44 0 76.5 19.5t32.5 49.5zm-128 188q0-34 52-56 43 13 67 27.5t24 38.5q0 21-17.5 35t-45.5 14q-33 0-56.5-17.5t-23.5-41.5z"/><glyph glyph-name="fiveeighths" unicode="⅝" horiz-adv-x="953" d="M526 103q0 82 122 128-56 35-56 86 0 48 43.5 79t112.5 31q66 0 103.5-26.5t37.5-70.5q0-64-94-105 82-40 82-106 0-56-53-91t-136-35q-75 0-118.5 29t-43.5 81zm-429 387l61 210h260l-10-65h-196l-23-92q28 9 62 9 65 0 101-36.5t36-90.5q0-63-48.5-107.5t-130.5-44.5q-84 0-161 56l42 50q54-39 112-39 41 0 73 22.5t32 61.5q0 30-19.5 47.5t-56.5 17.5q-43 0-90-26zm647 210l-452-700h-83l453 700h82zm53-578q0 43-77 76-33-11-54-20t-40-27.5-19-41.5q0-27 21.5-41.5t59.5-14.5q44 0 76.5 19.5t32.5 49.5zm-128 188q0-34 53-56 43 13 66.5 27.5t23.5 38.5q0 21-18 35t-46 14q-33 0-56-17.5t-23-41.5z"/><glyph glyph-name="seveneighths" unicode="⅞" horiz-adv-x="853" d="M429 103q0 83 122 128-56 34-56 86 0 48 43 79t113 31q65 0 102.5-27t37.5-70q0-64-94-105 83-41 83-106 0-56-53.5-91t-136.5-35q-75 0-118 29t-43 81zm219 597l-452-700h-84l452 700h84zm-257-60q-8-8-21-21.5t-47.5-54.5-62.5-82-55-97-36-105h-84q11 58 43.5 122t73 116 62.5 78 35 39h-206l9 65h297zm308-518q0 43-76 76-34-11-55.5-20t-40.5-27.5-19-41.5q0-27 22.5-41.5t59.5-14.5q44 0 76.5 19.5t32.5 49.5zm-128 188q0-34 53-56 43 13 66.5 27.5t23.5 38.5q0 21-17.5 35t-45.5 14q-33 0-56.5-17.5t-23.5-41.5z"/><glyph glyph-name="partialdiff" unicode="∂" horiz-adv-x="631" d="M478 382q-3 46-16.5 86.5t-39 74.5-67.5 54-97 20q-20 0-40.5-2.5t-31.5-4.5l-11-2-2 82q40 10 91 10 146 0 227.5-96.5t81.5-260.5q0-162-82-258t-221-96q-108 0-171.5 57.5t-63.5 159.5q0 115 76.5 192.5t188.5 77.5q37 0 69-9.5t51.5-23.5 33-28 18.5-23zm-20-117q0 59-34 94t-99 35q-85 0-133.5-56.5t-48.5-135.5q0-59 31-95t99-36q91 0 138 60t47 134z"/><glyph glyph-name="Delta" unicode="∆" horiz-adv-x="700" d="M621 0h-649l390 700h116zm-110 91l-105 493-282-493h387z"/><glyph glyph-name="product" unicode="∏" horiz-adv-x="703" d="M738 700l-15-88h-101l-109-612h-107l109 612h-221l-109-612h-107l108 612h-100l14 88h638z"/><glyph glyph-name="summation" unicode="∑" horiz-adv-x="569" d="M119 700h465l-14-91h-326l206-259-286-259h312l-15-91h-465l10 63 324 289-222 285z"/><glyph glyph-name="minus" unicode="−" d="M58 293l14 80h501l-13-80h-502z"/><glyph glyph-name="radical" unicode="√" horiz-adv-x="595" d="M657 700l-416-700h-99l-115 340h106l70-220 340 580h114z"/><glyph glyph-name="infinity" unicode="∞" horiz-adv-x="921" d="M246 423q44 0 85-19t64.5-40 62.5-61q59 46 88 66.5t70 37 82 16.5q75 0 116.5-41.5t41.5-107.5q0-76-55.5-128.5t-141.5-52.5q-43 0-83.5 19t-64.5 40.5-62 60.5q-60-46-89.5-66.5t-70-37-81.5-16.5q-74 0-116 41.5t-42 106.5q0 77 55 129.5t141 52.5zm-29-257q40 0 80 22t106 72q-52 52-83.5 71t-64.5 19q-57 0-89.5-32.5t-32.5-76.5q0-32 22.5-53.5t61.5-21.5zm472 184q-39 0-78.5-21.5t-106.5-73.5q51-51 82-70t66-19q57 0 89 32.5t32 76.5q0 32-22.5 53.5t-61.5 21.5z"/><glyph glyph-name="integral" unicode="∫" horiz-adv-x="394" d="M107 88l94 542q21 119 69 164t163 45h39l-11-66h-22q-37 0-61.5-11.5t-38.5-39-19.5-49-13.5-65.5l-95-542q-21-119-69.5-164t-162.5-45h-40l11 66h23q25 0 44.5 5t33 18 22 24.5 15.5 35 10 37.5 9 45z"/><glyph glyph-name="approxequal" unicode="≈" d="M101 182l-58 25q72 113 160 113 47 0 111-33.5t96-33.5q49 0 93 62l58-25q-71-113-160-113-47 0-111 33.5t-97 33.5q-46 0-92-62zm33 182l-58 25q70 113 159 113 47 0 110.5-33.5t96.5-33.5q47 0 93 62l58-25q-72-113-160-113-47 0-111 33.5t-97 33.5q-47 0-91-62z"/><glyph glyph-name="notequal" unicode="≠" d="M74 386l12 80h263l95 159 68-29-78-130h154l-12-80h-189l-62-103h232l-14-81h-266l-93-157-67 29 76 128h-152l14 81h186l61 103h-228z"/><glyph glyph-name="lessequal" unicode="≤" d="M57 297l11 67 536 197-16-98-403-137 352-138-14-88zm-53-297l12 71h501l-11-71h-502z"/><glyph glyph-name="greaterequal" unicode="≥" d="M577 364l-12-67-536-197 16 98 403 137-352 138 15 88zm-52-293l-11-71h-502l12 71h501z"/><glyph glyph-name="uni2318" unicode="⌘" horiz-adv-x="792" d="M566 39q-63 0-105 43.5t-35 106.5q1 9 4 26t4 25h-96l-12-65q-24-136-141-136-61 0-103 39.5t-42 95.5q0 63 47.5 97.5t118.5 34.5h74l16 88h-48q-60 0-102.5 39.5t-42.5 95.5q0 55 41 94t100 39 103.5-40 36.5-111q-1-8-4-25t-4-26h97l11 65q21 118 120 134 20 4 34 1 55-5 93.5-43.5t38.5-91.5q0-62-48-96.5t-118-34.5h-75l-16-88h50q59 0 101-39.5t42-95.5q0-55-40.5-93.5t-99.5-38.5zm-2 201h-62l-9-48q-7-34 13.5-60.5t58.5-26.5q31 0 52.5 19.5t21.5 47.5-22 48-53 20zm-295 0h-87q-31 0-52.5-19.5t-21.5-47.5 22-48 54-20q61 0 71 61zm80 66h97l16 88h-97zm205 228l-13-74h87q31 0 53 19.5t22 47.5q0 29-22.5 49t-53.5 20q-30 0-49.5-19.5t-23.5-42.5zm-309 62q-31 0-52.5-20t-21.5-48q0-29 22-48.5t54-19.5h60l9 48q6 36-13.5 62t-57.5 26z"/><glyph glyph-name="lozenge" unicode="◊" horiz-adv-x="565" d="M295 700h114l126-350-250-350h-114l-125 350zm139-334l-89 248-198-279 88-252z"/><glyph glyph-name="commaaccent" unicode="" horiz-adv-x="103" d="M-14-165l18 104h89l-10-111-96-108-22 29 62 86h-41z"/><glyph glyph-name="centinferior" unicode="" horiz-adv-x="362" d="M153-150h-56l8 47q-51 5-81 39t-30 97q0 86 49.5 138.5t117.5 52.5h1l8 46h57l-10-55q34-10 90-42l-35-50q-54 29-65 32l-34-189q25 8 69 27l27-57q-75-30-107-36zm-82 189q0-65 45-76l34 193q-34-9-56.5-41.5t-22.5-75.5z"/><glyph glyph-name="centsuperior" unicode="" horiz-adv-x="364" d="M244 385h-56l8 46q-51 5-81 40t-30 97q0 87 49 139t118 52h1l8 46h57l-10-55q34-10 90-42l-35-50q-53 28-65 32l-34-189q19 5 69 27l27-56q-67-29-107-37zm-82 189q0-65 45-77l34 194q-34-9-56.5-41.5t-22.5-75.5z"/><glyph glyph-name="commainferior" unicode="" horiz-adv-x="196" d="M-23-150l15 90h81l-9-98-82-83-18 26 50 65h-37z"/><glyph glyph-name="commasuperior" unicode="" horiz-adv-x="184" d="M67 385l15 90h81l-9-98-82-83-18 26 50 65h-37z"/><glyph glyph-name="dollarinferior" unicode="" horiz-adv-x="406" d="M142-210h-56l10 58q-75 15-138 56l42 53q54-32 107-44l21 120-13 6q-48 19-75 44t-27 69q0 54 43.5 89t114.5 36l10 54h57l-11-60q56-11 123-45l-42-52q-43 22-92 33l-20-112 13-5q51-21 80-46.5t29-71.5q0-57-47-93t-120-36zm93 174q0 29-53 50l-19-105q31 3 51.5 18t20.5 37zm-138 194q0-28 45-44l17 97q-27-3-44.5-17t-17.5-36z"/><glyph glyph-name="dollarsuperior" unicode="" horiz-adv-x="408" d="M237 325h-56l10 58q-72 13-138 56l42 53q52-33 107-45l21 121-13 6q-48 19-75 44t-27 69q0 54 43.5 89t114.5 36l10 54h57l-11-60q56-11 123-45l-42-52q-43 22-92 33l-20-112 13-5q51-21 80-46.5t29-71.5q0-57-47-93t-120-36zm93 174q0 29-53 50l-19-106q31 3 51.5 18t20.5 38zm-138 194q0-28 45-44l17 97q-28-3-45-17t-17-36z"/><glyph glyph-name="periodinferior" unicode="" horiz-adv-x="190" d="M-24-150l15 90h80l-15-90h-80z"/><glyph glyph-name="periodsuperior" unicode="" horiz-adv-x="183" d="M67 385l15 90h80l-15-90h-80z"/><glyph glyph-name="asuperior" unicode="" horiz-adv-x="405" d="M367 385h-76l7 41q-59-48-121-48-43 0-72.5 28.5t-29.5 89.5q0 93 43.5 152t112.5 59q53 0 109-46l7 39h76zm-164 54q50 0 107 51l20 114q-42 42-82 42-43 0-69-42.5t-26-100.5q0-64 50-64z"/><glyph glyph-name="bsuperior" unicode="" horiz-adv-x="405" d="M67 385l77 437h76l-29-159q60 44 115 44 45 0 76.5-28.5t31.5-90.5q0-92-42.5-151t-109.5-59q-59 0-113 45l-7-38h-75zm213 261q-40 0-100-46l-21-119q40-42 86-42 41 0 66 42.5t25 99.5q0 65-56 65z"/><glyph glyph-name="dsuperior" unicode="" horiz-adv-x="405" d="M367 385h-76l7 41q-61-48-121-48-43 0-72.5 28.5t-29.5 89.5q0 93 43.5 152t112.5 59q54 0 108-45l29 160h76zm-164 54q48 0 106 50l20 116q-39 41-81 41-43 0-69-42.5t-26-100.5q0-64 50-64z"/><glyph glyph-name="esuperior" unicode="" horiz-adv-x="376" d="M389 616q0-101-202-101h-39q3-80 71-80 41 0 122 38l26-52q-97-43-161-43-62 0-97 34.5t-35 104.5q0 83 51.5 136.5t137.5 53.5q59 0 92.5-24.5t33.5-66.5zm-128 36q-41 0-71-26t-39-69h39q126 0 126 57 0 17-14.5 27.5t-40.5 10.5z"/><glyph glyph-name="isuperior" unicode="" horiz-adv-x="182" d="M143 385h-75l56 315h75zm-13 366l12 70h81l-12-70h-81z"/><glyph glyph-name="lsuperior" unicode="" horiz-adv-x="182" d="M143 385h-75l77 437h76z"/><glyph glyph-name="msuperior" unicode="" horiz-adv-x="600" d="M199 700l-8-41q62 48 117 48 70 0 84-56 64 56 127 56 51 0 71.5-28.5t11.5-76.5l-38-217h-75l38 207q9 56-36 56-49 0-100-49l-37-214h-77l38 207q11 56-35 56-48 0-99-49l-38-214h-75l56 315h75z"/><glyph glyph-name="osuperior" unicode="" horiz-adv-x="401" d="M251 707q75 0 117.5-37.5t42.5-104.5q0-79-48-133t-129-54q-75 0-117.5 37.5t-42.5 104.5q0 79 48 133t129 54zm-19-270q47 0 74 39.5t27 89.5q0 82-80 82-47 0-74-39.5t-27-89.5q0-82 80-82z"/><glyph glyph-name="rsuperior" unicode="" horiz-adv-x="274" d="M199 700l-12-67q7 12 20 27t46 31 70 13l-10-71q-30 0-55.5-11t-41-26.5-26.5-31-16-26.5l-4-11-27-142h-75l56 315h75z"/><glyph glyph-name="ssuperior" unicode="" horiz-adv-x="351" d="M247 571q50-14 76.5-34t26.5-59q0-46-37.5-73t-97.5-27q-84 0-160 47l37 49q70-37 123-37 25 0 42 9t17 26q0 4-1 8t-4 7l-6 6-8 5.5-9.5 4-11.5 4-12.5 3.5-14 3.5-14.5 4.5q-28 8-46.5 16.5t-35 28-16.5 46.5q0 43 35.5 70.5t94.5 27.5q70 0 144-38l-34-49q-60 29-108 29-25 0-40.5-9t-15.5-24q0-4 1-8t4-7l5.5-5.5 7.5-5 9-4.5 11-4 11.5-3.5 13-4 13.5-3.5z"/><glyph glyph-name="tsuperior" unicode="" horiz-adv-x="276" d="M81 644l10 56h42l14 79 78 12-16-91h90l-9-56h-91l-30-169q-6-32 23-32 19 0 58 15l20-58q-63-22-102-22-42 0-62 26.5t-11 77.5l28 162h-42z"/><glyph glyph-name="apple" unicode="" horiz-adv-x="904" d="M745 327q-9-4-10-11t7-12l28-20q8-5 7.5-10.5t-10.5-7.5l-34-6q-10-1-12-8t5-14l24-24q6-7 4-12t-12-5l-35 2q-10 0-13-6t3-14l18-30q5-8 2-12.5t-13-2.5l-34 9q-9 3-13.5-2.5t-1.5-14.5l11-33q4-9 0-12.5t-13 .5l-31 15q-8 5-14 .5t-5-14.5l5-33q1-10-3-12.5t-12 3.5l-28 21q-8 6-14 3t-7-13l-2-34q-1-10-6-11.5t-11 5.5l-23 27q-16 16-22-5l-10-33q-2-10-8-10t-10 8l-17 30q-10 20-23 0l-15-30q-4-8-10-8t-8 10l-10 33q-6 21-22 5l-23-27q-14-15-17 6l-2 34q-1 10-7.5 13t-14.5-3l-26-21q-8-6-13-3.5t-3 12.5l5 33q1 10-5 14.5t-15-.5l-30-15q-9-4-13-.5t0 12.5l11 33q4 9-1 14.5t-14 2.5l-34-9q-10-2-13 2.5t2 12.5l19 30q5 8 2 14t-13 6l-35-2q-10 0-12 5t4 12l25 24q6 7 4 14t-12 8l-33 6q-7 1-10 4t-1 7 7 7l28 20q1 1 2.5 2t2.5 2l1 2q9 8 18-6l16-31q5-9 10-8t8 10l9 34q2 6 5.5 8.5t8 1.5 8.5-6l23-26q7-7 11.5-5.5t5.5 11.5l2 34q2 10 7.5 12.5t13.5-3.5l28-21q8-6 12.5-3.5t2.5 12.5l-4 34q-1 10 4.5 14t13.5-1l31-14q9-4 13-.5t1 12.5l-11 33q-4 9 .5 14t13.5 2l7-1q20-38 34.5-99t14.5-106q-14-18-46-18h-4q0 22-16 35 9-10 9-27v-7q-16 1-16 19 0 21-13.5 35t-37.5 14q-20 0-33.5-15.5t-13.5-38.5q0-29 24.5-47t67.5-18q68 0 134.5 53t105 127 38.5 139q0 29-18 48t-46 19q-23 0-41.5-16.5t-18.5-41.5q0-52 58-58-15-60-29-85-13 102-58 150 44-58 52-161l-14-20q0 76-25 140t-64 84q-6 11 12 15l34 6q6 1 8.5 3.5t1 6.5-6.5 7l-29 19q-17 15 3 23l31 14q7 2 9.5 5.5t0 7-9.5 5.5l-31 13q-11 5-10 14 6 3 7 8l17 30q5 9 10.5 8.5t7.5-9.5l10-33q7-23 22-5l23 26q6 8 11 6.5t6-11.5l2-35q1-10 7.5-12.5t13.5 3.5l28 21q7 6 11.5 3t3.5-13l-5-34q-1-10 5-14t14 1l31 16q9 4 13 0t0-14l-11-31q-3-10 1.5-15t13.5-2l34 7q10 3 13-1t-2-13l-18-29q-6-8-3-14.5t13-5.5l35 2q10 0 12-5t-4-12l-24-26q-7-7-5-13.5t12-7.5l34-6q20-5 3-19l-28-19q-8-5-7.5-11.5t10.5-10.5l31-13q9-4 9-9t-9-9zm-381-203q69 0 135 52.5t104.5 127 38.5 139.5q0 31-20 49 12-18 12-41 0-103-85-210-92-113-196-113-29 0-49 9 20-13 60-13z"/><glyph glyph-name="s_t" unicode="ﬆ" horiz-adv-x="903" d="M660 553q22 124-88 124-61 0-99-37t-38-94q0-31 10-51 16-7 42-20l-50-68q-94 48-168 48-44 0-72.5-18.5t-28.5-49.5q0-10 3-19t11-16 14-11.5 20-10 22-8 26-8.5 26-8q81-26 122.5-60t41.5-95q0-75-60.5-118.5t-153.5-43.5q-125 0-242 74l52 70q107-62 191-62 45 0 76 19.5t31 52.5q0 8-2 15.5t-7 13.5-9 10.5-13.5 9.5-15.5 8-19 7.5-20 6.5-22.5 7-22.5 7q-33 10-55 19.5t-47.5 27-38.5 43.5-13 60q0 71 57 114.5t146 43.5q56 0 120-19-5 15-5 40 0 74 55.5 123t147.5 49q95 0 144-50t33-136l-4-18h143l-13-78h-144l-56-314q-9-54 37-54 29 0 97 26l26-81q-89-35-152-35-62 0-92 38.5t-16 117.5l54 302h-71l13 78h72z"/><glyph glyph-name="eight.numr" horiz-adv-x="423" d="M52 383q0 84 122 129-56 33-56 85 0 48 43 79t114 31q65 0 102.5-26.5t37.5-70.5q0-64-94-105 83-41 83-106 0-56-53.5-91t-136.5-35q-76 0-119 29t-43 81zm271 19q0 43-76 76-34-11-55.5-20t-40.5-27.5-19-41.5q0-27 22-41.5t60-14.5q44 0 76.5 19.5t32.5 49.5zm-128 188q0-34 52-56 43 13 67 27.5t24 38.5q0 21-17.5 35t-45.5 14q-33 0-56.5-17.5t-23.5-41.5z"/><glyph glyph-name="Qsuperior" horiz-adv-x="495" d="M314 812q97 0 145-48.5t49-133.5q1-44-12.5-89.5t-50-90-90.5-61.5l60-55-55-48-87 92q-91 2-136.5 50.5t-46.5 131.5q0 38 11.5 79t36 81.5 70.5 66 106 25.5zm-33-367q49 0 84.5 32t49 72 13.5 79q0 117-111 117-49 0-84.5-32.5t-49-72.5-13.5-79q0-116 111-116z"/><glyph glyph-name="f_f.calt" horiz-adv-x="725" d="M57 447l14 78h71l10 58q13 77 45 111.5t97 34.5q77 0 167-42l-40-69q-69 22-109 22-45 0-56-56l-11-59h129l-14-78h-128l-74-419q-7-38-10-53.5t-10-42.5-13.5-37.5-18.5-28.5-26.5-26.5-36.5-20-49-19.5-64-17l-23 81q38 11 60.5 21t37.5 19.5 23.5 28.5 13 35.5 10.5 53.5l76 425h-71zm363 0l13 78h72l10 58q12 77 44.5 111.5t94.5 34.5q54 0 137-34l-38-71q-53 16-79 16-45 0-56-56l-11-59h137l-14-78h-136l-74-419q-7-38-10-53.5t-10-42.5-13.5-37.5-18.5-28.5-26.5-26.5-36.5-20-49-19.5-64-17l-23 81q32 9 52 16.5t36 18 24 18.5 15 26.5 10 33 9 45.5l76 425h-71z"/><glyph glyph-name="f_f.ss01" horiz-adv-x="695" d="M57 447l13 78h71l9 48q14 78 52.5 112t102.5 34q82 0 212-39 34 49 109 49 78 0 168-42l-47-69q-63 22-104 22-44 0-55-56l-11-59h136l-14-78h-135l-74-419q-7-37-10-53.5t-10-43-13.5-37.5-19-28.5-26.5-26-36-20-49-19.5-64-17l-23 81q32 9 52 16.5t36 18 24 18.5 15 26.5 10 33 9 45.5l75 425h-229l-74-419q-7-38-10-53.5t-10-42.5-13.5-37.5-18.5-28.5-26.5-26.5-36.5-20-49-19.5-64-17l-23 81q32 9 52 16.5t36 18 24 18.5 15 26.5 10 33 9 45.5l75 425h-70zm197 127l-9-49h229l15 81q-123 24-166 24-60 0-69-56z"/><glyph glyph-name="f_f_b.ss01" horiz-adv-x="1302" d="M57 447l14 78h70l9 48q14 78 52.5 112t102.5 34q76 0 217-40 39 50 117 50 80 0 199-35l6 35h103l-48-269q96 76 186 76 70 0 119-46t49-143q0-157-67-257.5t-176-100.5q-39 0-76.5 14t-57.5 28.5-46 36.5l-12-68h-103l109 615q-106 25-166 25-61 0-70-56l-11-59h136l-14-78h-135l-74-419q-7-37-10-53.5t-10-43-13.5-37.5-19-28.5-26.5-26-36-20-49-19.5-64-17l-23 81q38 11 60.5 21t37.5 19.5 23.5 28.5 13 35.5 10.5 53.5l76 425h-229l-74-419q-7-38-10-53.5t-10-42.5-13.5-37.5-18.5-28.5-26.5-26.5-36.5-20-49-19.5-64-17l-23 81q32 9 52 16.5t36 18 24 18.5 15 26.5 10 33 9 45.5l75 425h-70zm993 4q-42 0-80.5-20.5t-86.5-59.5l-39-220q71-77 145-77 72 0 115 78.5t43 183.5q0 55-25 85t-72 30zm-805 74h229l15 81q-123 24-166 24-60 0-69-56z"/><glyph glyph-name="f_f_h.ss01" horiz-adv-x="1302" d="M57 447l14 78h70l9 48q14 78 52.5 112t102.5 34q76 0 217-40 39 50 117 50 80 0 199-35l6 35h103l-48-271q118 78 213 78 80 0 112.5-47t18.5-126l-64-363h-104l63 352q18 101-63 101-45 0-100.5-26t-90.5-55l-66-372h-103l109 615q-106 25-166 25-61 0-70-56l-11-59h136l-14-78h-135l-74-419q-7-37-10-53.5t-10-43-13.5-37.5-19-28.5-26.5-26-36-20-49-19.5-64-17l-23 81q38 11 60.5 21t37.5 19.5 23.5 28.5 13 35.5 10.5 53.5l76 425h-229l-74-419q-7-38-10-53.5t-10-42.5-13.5-37.5-18.5-28.5-26.5-26.5-36.5-20-49-19.5-64-17l-23 81q32 9 52 16.5t36 18 24 18.5 15 26.5 10 33 9 45.5l75 425h-70zm188 78h229l15 81q-123 24-166 24-60 0-69-56z"/><glyph glyph-name="f_f_i.ss01" horiz-adv-x="917" d="M872 687l-43-70q-99 23-167 23-33 0-51.5-15.5t-22.5-40.5l-11-59h306l-93-525h-103l79 447h-202l-74-419q-7-37-10-53.5t-10-43-13.5-37.5-19-28.5-26.5-26-36-20-49-19.5-64-17l-23 81q38 11 60.5 21t37.5 19.5 23.5 28.5 13 35.5 10.5 53.5l76 425h-229l-74-419q-7-38-10-53.5t-10-42.5-13.5-37.5-18.5-28.5-26.5-26.5-36.5-20-49-19.5-64-17l-23 81q32 9 52 16.5t36 18 24 18.5 15 26.5 10 33 9 45.5l75 425h-70l14 78h70l9 48q14 78 52.5 112t102.5 34q77 0 218-40 40 50 120 50 94 0 229-42zm-398-162l15 81q-123 24-166 24-60 0-69-56l-9-49h229z"/><glyph glyph-name="f_f_j.ss01" horiz-adv-x="917" d="M57 447l14 78h70l9 48q14 78 52.5 112t102.5 34q77 0 218-40 40 50 120 50 94 0 229-42l-43-70q-99 23-167 23-33 0-51.5-15.5t-22.5-40.5l-11-59h307l-96-534q-7-38-10.5-54t-13-41.5-22-36.5-36-27-57-26.5-81.5-22.5l-23 81q61 18 88.5 33.5t36 32 15.5 54.5l82 463h-203l-74-419q-7-37-10-53.5t-10-43-13.5-37.5-19-28.5-26.5-26-36-20-49-19.5-64-17l-23 81q38 11 60.5 21t37.5 19.5 23.5 28.5 13 35.5 10.5 53.5l76 425h-229l-74-419q-7-38-10-53.5t-10-42.5-13.5-37.5-18.5-28.5-26.5-26.5-36.5-20-49-19.5-64-17l-23 81q32 9 52 16.5t36 18 24 18.5 15 26.5 10 33 9 45.5l75 425h-70zm417 78l15 81q-123 24-166 24-60 0-69-56l-9-49h229z"/><glyph glyph-name="f_f_k.ss01" horiz-adv-x="1229" d="M57 447l14 78h70l9 48q14 78 52.5 112t102.5 34q76 0 217-40 39 50 117 50 80 0 199-35l6 35h103l-80-450 238 246h126l-218-215 157-310h-105l-121 242-101-99-25-143h-103l109 615q-106 25-166 25-61 0-70-56l-11-59h136l-14-78h-135l-74-419q-7-37-10-53.5t-10-43-13.5-37.5-19-28.5-26.5-26-36-20-49-19.5-64-17l-23 81q38 11 60.5 21t37.5 19.5 23.5 28.5 13 35.5 10.5 53.5l76 425h-229l-74-419q-7-38-10-53.5t-10-42.5-13.5-37.5-18.5-28.5-26.5-26.5-36.5-20-49-19.5-64-17l-23 81q32 9 52 16.5t36 18 24 18.5 15 26.5 10 33 9 45.5l75 425h-70zm188 78h229l15 81q-123 24-166 24-60 0-69-56z"/><glyph glyph-name="f.calt" horiz-adv-x="363" d="M57 447l14 78h71l10 58q13 77 45 111.5t94 34.5q57 0 137-34l-38-71q-51 16-78 16-45 0-56-56l-11-59h136l-13-78h-136l-74-419q-7-38-10-53.5t-10-42.5-13.5-37.5-18.5-28.5-26.5-26.5-36.5-20-49-19.5-64-17l-23 81q38 11 60.5 21t37.5 19.5 23.5 28.5 13 35.5 10.5 53.5l76 425h-71z"/><glyph glyph-name="f_f_l.ss01" horiz-adv-x="952" d="M57 447l14 78h70l9 48q14 78 52.5 112t102.5 34q76 0 217-40 39 50 117 50 80 0 199-35l6 35h103l-129-729h-103l109 615q-106 25-166 25-61 0-70-56l-11-59h136l-14-78h-135l-74-419q-7-37-10-53.5t-10-43-13.5-37.5-19-28.5-26.5-26-36-20-49-19.5-64-17l-23 81q38 11 60.5 21t37.5 19.5 23.5 28.5 13 35.5 10.5 53.5l76 425h-229l-74-419q-7-38-10-53.5t-10-42.5-13.5-37.5-18.5-28.5-26.5-26.5-36.5-20-49-19.5-64-17l-23 81q32 9 52 16.5t36 18 24 18.5 15 26.5 10 33 9 45.5l75 425h-70zm417 78l15 81q-123 24-166 24-60 0-69-56l-9-49h229z"/><glyph glyph-name="f_f_t.ss01" horiz-adv-x="1048" d="M793 687l-48-69q-60 22-103 22-44 0-55-56l-11-59h223l24 132 107 20-28-152h143l-13-78h-144l-56-314q-9-54 36-54 29 0 97 26l27-81q-89-35-152-35-61 0-92 38.5t-17 117.5l54 302h-222l-74-419q-7-37-10-53.5t-10-43-13.5-37.5-19-28.5-26.5-26-36-20-49-19.5-64-17l-23 81q48 14 72 24.5t40 30 21 39 13 64.5l76 425h-229l-74-419q-7-38-10-53.5t-10-42.5-13.5-37.5-18.5-28.5-26.5-26.5-36.5-20-49-19.5-64-17l-23 81q32 9 52 16.5t36 18 24 18.5 15 26.5 10 33 9 45.5l75 425h-70l13 78h71l9 48q14 78 52.5 112t102.5 34q82 0 212-39 33 49 108 49t168-42zm-548-162h229l15 81q-123 24-166 24-60 0-69-56z"/><glyph glyph-name="f_h.ss01" horiz-adv-x="970" d="M58 447l14 78h71l10 58q14 78 52.5 112t101.5 34q79 0 200-35l6 35h103l-48-271q116 78 213 78 80 0 112.5-47t18.5-126l-64-363h-104l62 352q18 101-63 101-45 0-99.5-26t-90.5-55l-66-372h-103l109 616q-123 24-167 24-60 0-69-56l-11-59h136l-13-78h-137l-74-419q-7-42-11-60.5t-12-46.5-17.5-40.5-25-29.5-38-27-52.5-20.5-72-20.5l-23 81q39 11 61.5 21t37.5 19.5 23.5 28.5 13 35.5 10.5 53.5l76 425h-71z"/><glyph glyph-name="exclamsuperior" horiz-adv-x="193" d="M71 385l14 84h81l-14-84h-81zm160 420l-74-288h-45l27 288h92z"/><glyph glyph-name="f_i.ss01" horiz-adv-x="585" d="M58 447l14 78h71l10 58q15 78 54 112t104 34q92 0 230-42l-43-70q-102 23-168 23-62 0-73-56l-11-59h307l-94-525h-103l79 447h-203l-74-419q-7-42-11-60.5t-12-46.5-17.5-40.5-25-29.5-38-27-52.5-20.5-72-20.5l-23 81q39 11 61.5 21t37.5 19.5 23.5 28.5 13 35.5 10.5 53.5l76 425h-71z"/><glyph glyph-name="f_j.ss01" horiz-adv-x="585" d="M58 447l14 78h71l10 58q15 78 54 112t104 34q92 0 230-42l-43-70q-102 23-168 23-62 0-73-56l-11-59h307l-96-534q-7-38-10.5-54t-13-41.5-22-36.5-36-27-57-26.5-81.5-22.5l-23 81q61 18 88.5 33.5t36 32 14.5 54.5l83 463h-204l-74-419q-7-42-11-60.5t-12-46.5-17.5-40.5-25-29.5-38-27-52.5-20.5-72-20.5l-23 81q39 11 61.5 21t37.5 19.5 23.5 28.5 13 35.5 10.5 53.5l76 425h-71z"/><glyph glyph-name="f_k.ss01" horiz-adv-x="896" d="M58 447l14 78h71l10 58q14 78 52.5 112t101.5 34q79 0 200-35l6 35h103l-80-449 237 245h126l-216-214 155-311h-105l-120 242-101-99-25-143h-103l109 616q-123 24-167 24-60 0-69-56l-11-59h136l-13-78h-137l-74-419q-7-42-11-60.5t-12-46.5-17.5-40.5-25-29.5-38-27-52.5-20.5-72-20.5l-23 81q48 14 72 24t40 30.5 21 39 13 64.5l76 425h-71z"/><glyph glyph-name="exclaminferior" horiz-adv-x="196" d="M-21-150l14 84h81l-14-84h-81zm160 420l-74-288h-45l27 288h92z"/><glyph glyph-name="f_l.ss01" horiz-adv-x="620" d="M58 447l14 78h71l10 58q14 78 52.5 112t101.5 34q79 0 200-35l6 35h103l-129-729h-103l109 616q-123 24-167 24-60 0-69-56l-11-59h136l-13-78h-137l-74-419q-7-42-11-60.5t-12-46.5-17.5-40.5-25-29.5-38-27-52.5-20.5-72-20.5l-23 81q48 14 72 24t40 30.5 21 39 13 64.5l76 425h-71z"/><glyph glyph-name="f_t.ss01" horiz-adv-x="717" d="M462 687l-46-69q-63 22-104 22-46 0-55-56l-11-59h218l24 132 108 20-28-152h144l-13-78h-145l-56-314q-9-54 36-54 30 0 98 26l26-81q-92-35-152-35-62 0-92 38.5t-16 117.5l53 302h-219l-74-419q-7-42-11-60.5t-12-46.5-17.5-40.5-25-29.5-38-27-52.5-20.5-72-20.5l-23 81q39 11 61.5 21t37.5 19.5 23.5 28.5 13 35.5 10.5 53.5l76 425h-71l14 78h71l10 58q13 77 45 111.5t97 34.5q77 0 167-42z"/><glyph glyph-name="finferior" horiz-adv-x="266" d="M-8 109l10 56h44l5 25q8 52 29.5 74.5t65.5 22.5q52 0 111-28l-35-48q-39 13-61 13-28 0-34-32l-5-27h83l-9-56h-84l-42-235q-8-44-13-62.5t-20.5-40-42-32-74.5-21.5l-18 58q55 16 68.5 30.5t22.5 62.5l43 240h-44z"/><glyph glyph-name="exclamdownsuperior" horiz-adv-x="197" d="M133 721l14 84h80l-14-84h-80zm54-48l-29-288h-91l74 288h46z"/><glyph glyph-name="five.dnom" horiz-adv-x="395" d="M37 210l61 210h260l-10-65h-196l-23-92q29 9 62 9 64 0 100-36.5t36-90.5q0-63-48-107.5t-130-44.5q-84 0-161 56l42 50q54-39 111-39 42 0 74 22.5t32 61.5q0 30-20 47.5t-56 17.5q-43 0-90-26z"/><glyph glyph-name="five.numr" horiz-adv-x="395" d="M87 490l60 210h260l-10-65h-195l-23-92q27 9 61 9 65 0 101-36.5t36-90.5q0-63-48.5-107.5t-130.5-44.5q-84 0-161 56l42 50q54-39 112-39 41 0 73 22.5t32 61.5q0 30-19.5 47.5t-56.5 17.5q-43 0-90-26z"/><glyph glyph-name="five.onum" horiz-adv-x="583" d="M57 227l98 347h399l-15-91h-310l-46-179q51 19 107 19 99 0 155-58.5t56-148.5q0-105-77-179t-207-74q-126 0-241 87l59 69q83-63 173-63 71 0 127 42.5t56 114.5q0 55-33.5 88t-96.5 33q-62 0-145-44z"/><glyph glyph-name="five.tnum" horiz-adv-x="645" d="M110 353l98 347h398l-14-91h-310l-45-179q49 19 106 19 99 0 155-58.5t56-148.5q0-105-77.5-179t-206.5-74-241 87l59 69q83-63 172-63 72 0 128 42.5t56 114.5q0 55-34 88t-96 33q-63 0-146-44z"/><glyph glyph-name="exclamdowninferior" horiz-adv-x="193" d="M37 186l14 84h80l-14-84h-80zm54-48l-29-288h-91l74 288h46z"/><glyph glyph-name="fiveeighths.onum" horiz-adv-x="836" d="M455 86q0 67 104 104-50 29-50 71 0 39 37.5 64t97.5 25q56 0 89-22t33-58q0-52-82-86 72-33 72-88 0-45-45.5-73.5t-116.5-28.5q-65 0-102 24t-37 68zm-375 316l51 172h224l-8-54h-171l-19-75q26 8 54 8 56 0 88-30t32-75q0-51-41.5-87.5t-112.5-36.5q-73 0-139 46l35 41q48-32 97-32 37 0 65.5 18t28.5 50q0 25-18 39.5t-51 14.5q-41 0-78-22zm557 172l-387-574h-69l386 574h70zm52-475q0 37-69 64-29-9-48-16.5t-35.5-22.5-16.5-34q0-46 74-46 39 0 67 15t28 40zm-116 155q0-27 47-46 26 8 40 13.5t27.5 16 13.5 24.5q0 18-16 29.5t-41 11.5q-30 0-50.5-14.5t-20.5-34.5z"/><glyph glyph-name="exclamdown.sc" horiz-adv-x="262" d="M109 462l17 112h104l-17-112h-104zm68-67l-41-395h-117l99 395h59z"/><glyph glyph-name="fivesixths" horiz-adv-x="931" d="M806 363q-63 0-114.5-34t-75.5-95q43 36 107 36 62 0 98-35t36-88q0-63-46-108.5t-125-45.5q-78 0-121 46t-43 111q0 116 80.5 196.5t200.5 80.5q20 0 38.5-2.5t26.5-5.5l8-3-27-57q-18 4-43 4zm-708 127l60 210h261l-11-65h-195l-23-92q34 9 61 9 65 0 101-36.5t36-90.5q0-63-48.5-107.5t-130.5-44.5q-84 0-161 56l42 50q54-39 112-39 41 0 73.5 22.5t32.5 61.5q0 30-20 47.5t-56 17.5q-44 0-91-26zm645 210l-452-700h-83l453 700h82zm-41-489q-33 0-60.5-15.5t-41.5-33.5v-16q0-38 21.5-63.5t61.5-25.5q45 0 70.5 26t25.5 63q0 27-19.5 46t-57.5 19z"/><glyph glyph-name="fivesixths.onum" horiz-adv-x="817" d="M693 298q-56 0-101-28t-65-77q40 28 93 28 55 0 86.5-28.5t31.5-72.5q0-52-39.5-89t-107.5-37-105 38-37 93q0 94 68.5 159.5t171.5 65.5q17 0 33-2t23-4l7-3-22-47q-16 4-37 4zm-613 104l51 172h223l-8-54h-170l-19-75q26 8 53 8 57 0 88.5-30t31.5-75q0-51-41.5-87.5t-111.5-36.5q-73 0-139 46l35 41q48-32 96-32 38 0 66 18t28 50q0 25-18 39.5t-50 14.5q-41 0-78-22zm556 172l-388-574h-69l387 574h70zm-32-401q-29 0-53.5-12.5t-36.5-26.5v-12q0-31 19-53t55-22q40 0 62.5 21t22.5 51q0 22-17.5 38t-51.5 16z"/><glyph glyph-name="exclam.sc" horiz-adv-x="261" d="M26 0l18 112h104l-18-112h-104zm211 574l-99-395h-58l40 395h117z"/><glyph glyph-name="einferior" horiz-adv-x="370" d="M295 81q0-101-202-101h-39q3-80 71-80 41 0 122 38l26-52q-97-43-161-43-62 0-97 34.5t-35 104.5q0 83 51.5 136.5t137.5 53.5q59 0 92.5-24.5t33.5-66.5zm-128 36q-41 0-71-26t-39-69h39q126 0 126 57 0 17-14.5 27.5t-40.5 10.5z"/><glyph glyph-name="eight.tnum" horiz-adv-x="645" d="M32 168q0 140 200 215-92 56-92 145 0 82 68 132.5t176 50.5q98 0 155.5-43t57.5-115q0-112-158-179 134-64 134-177 0-92-84.5-150t-211.5-58q-113 0-179 47t-66 132zm431 34q0 79-131 135-40-13-68.5-26t-59-32.5-46.5-45.5-16-57q0-48 36.5-75.5t98.5-27.5q75 0 130.5 36.5t55.5 92.5zm-219 316q0-62 92-101 155 46 155 123 0 37-29.5 63t-78.5 26q-57 0-98-33t-41-78z"/><glyph glyph-name="four.dnom" horiz-adv-x="428" d="M200 0l15 85h-227l9 55 253 280h103l-48-271h65l-9-64h-67l-15-85h-79zm-115 149h141l35 200z"/><glyph glyph-name="four.numr" horiz-adv-x="426" d="M249 280l15 85h-227l9 55 253 280h104l-49-271h66l-10-64h-67l-15-85h-79zm-115 149h141l36 201z"/><glyph glyph-name="four.onum" horiz-adv-x="634" d="M314-126l26 148h-361l14 78 410 474h142l-82-461h106l-16-91h-106l-26-148h-107zm-201 239h243l63 357z"/><glyph glyph-name="four.tnum" horiz-adv-x="645" d="M11 148l14 78 410 474h136l-82-461h102l-14-91h-104l-26-148h-105l26 148h-357zm133 91h240l62 353z"/><glyph glyph-name="fourfifths" horiz-adv-x="998" d="M259 280l15 85h-228l9 55 253 280h104l-49-271h66l-9-64h-68l-15-85h-78zm369-70l60 210h261l-11-65h-196l-23-93q32 10 63 10 64 0 100-36.5t36-90.5q0-63-48-107.5t-131-44.5q-84 0-161 56l43 50q54-39 111-39 42 0 74 22.5t32 61.5q0 30-20 47.5t-55 17.5q-43 0-93-26zm163 490l-451-700h-84l452 700h83zm-648-271h142l35 200z"/><glyph glyph-name="fourfifths.onum" horiz-adv-x="875" d="M222 230l12 69h-197l7 46 218 229h88l-40-222h57l-8-53h-59l-12-69h-66zm320-58l50 172h224l-8-53h-170l-21-77q31 9 55 9 57 0 88.5-30t31.5-74q0-52-41.5-88.5t-112.5-36.5q-68 0-139 46l35 41q48-32 96-32 38 0 66.5 18t28.5 50q0 25-17.5 40t-50.5 15q-35 0-79-22zm137 402l-388-574h-70l388 574h70zm-558-222h122l30 165z"/><glyph glyph-name="eight.onum" horiz-adv-x="637" d="M28 168q0 140 200 215-92 56-92 145 0 82 67.5 132.5t175.5 50.5q98 0 156-43t58-115q0-112-159-179 134-66 134-177 0-93-84-150.5t-212-57.5q-112 0-178 47t-66 132zm430 34q0 79-130 135-40-13-68.5-26t-59-32.5-46.5-45.5-16-57q0-48 36.5-75.5t97.5-27.5q75 0 130.5 36.5t55.5 92.5zm-218 316q0-63 92-101 154 46 154 123 0 37-29.5 63t-78.5 26q-57 0-97.5-33t-40.5-78z"/><glyph glyph-name="eight.dnom" horiz-adv-x="422" d="M2 103q0 83 122 128-56 34-56 86 0 48 43.5 79t112.5 31q65 0 102.5-26.5t37.5-70.5q0-64-94-105 83-41 83-106 0-56-53.5-91t-135.5-35q-75 0-118.5 29t-43.5 81zm270 19q0 43-76 76-34-11-55.5-20t-40.5-27.5-19-41.5q0-27 22-41.5t60-14.5q44 0 76.5 19.5t32.5 49.5zm-128 188q0-34 53-56 43 13 66.5 27.5t23.5 38.5q0 21-17.5 35t-45.5 14q-33 0-56.5-17.5t-23.5-41.5z"/><glyph glyph-name="dollar.onum" horiz-adv-x="573" d="M257-82h-72l14 80q-104 18-189 74l54 68q76-44 149-60l31 174-15 6q-69 26-107 60.5t-38 94.5q0 74 61 121t158 47l13 74h71l-14-81q79-13 168-61l-52-67q-64 32-131 45l-28-161 14-5q35-13 58-25t47.5-31 37-45.5 12.5-60.5q0-77-65-125t-164-49zm137 237q0 26-20.5 42.5t-61.5 32.5l-27-154q48 4 78.5 25t30.5 54zm-203 267q0-24 17-38.5t54-27.5l26 142q-42-4-69.5-24t-27.5-52z"/><glyph glyph-name="frenchfranc" horiz-adv-x="609" d="M19 123l11 65h61l91 512h455l-15-92h-348l-40-213h277l-14-91h-277l-21-116h177l-10-65h-179l-22-123h-107l22 123h-61z"/><glyph glyph-name="frenchfranc.onum" horiz-adv-x="547" d="M14 97l9 58h55l74 419h400l-13-85h-302l-30-161h239l-13-83h-240l-16-90h154l-9-58h-155l-17-97h-99l17 97h-54z"/><glyph glyph-name="frenchfrancinferior" horiz-adv-x="397" d="M-40-81l7 45h40l54 306h296l-11-66h-217l-22-112h172l-11-64h-171l-12-64h112l-6-45h-114l-12-69h-78l12 69h-39z"/><glyph glyph-name="frenchfrancsuperior" horiz-adv-x="393" d="M63 454l7 45h40l54 306h296l-11-66h-217l-22-112h172l-11-64h-171l-12-64h112l-6-45h-114l-12-69h-78l12 69h-39z"/><glyph glyph-name="fsuperior" horiz-adv-x="268" d="M97 644l10 56h44l5 25q8 52 29.5 74.5t65.5 22.5q52 0 111-28l-35-48q-39 13-61 13-28 0-34-32l-5-27h83l-9-56h-84l-42-235q-8-44-13-62.5t-20.5-40-42-32-74.5-21.5l-18 58q55 16 68.5 30.5t22.5 62.5l43 240h-44z"/><glyph glyph-name="dinferior" horiz-adv-x="400" d="M267-150h-76l7 41q-64-48-121-48-43 0-72.5 28.5t-29.5 89.5q0 93 43.5 152t112.5 59q54 0 108-45l29 160h76zm-164 54q44 0 106 50l20 116q-39 41-81 41-43 0-69-42.5t-26-100.5q0-64 50-64z"/><glyph glyph-name="csuperior" horiz-adv-x="355" d="M386 656l-36-50q-59 37-94 37-43 0-73.5-35t-30.5-87q0-38 17.5-58.5t47.5-20.5q28 0 104 33l27-56q-94-41-145-41-57 0-92.5 35t-35.5 102q0 87 50 139.5t117 52.5q28 0 60-11t44-17.5 40-22.5z"/><glyph glyph-name="copyright.sc" horiz-adv-x="726" d="M51 261q0 135 88 228.5t241 93.5q133 0 211-74.5t78-195.5q0-135-87.5-228.5t-240.5-93.5q-133 0-211.5 74.5t-78.5 195.5zm34 0q0-106 69-172.5t189-66.5q134 0 213.5 83.5t79.5 207.5q0 106-69 172.5t-189 66.5q-134 0-213.5-83.5t-79.5-207.5zm428 149l-28-27q-60 46-113 46-57 0-94.5-51t-33.5-127q3-50 24.5-78t58.5-28q60 0 129 44l24-30q-85-51-151-51-54 0-90 37t-38 103q-6 100 44.5 158.5t127.5 58.5q67 0 140-55z"/><glyph glyph-name="colonsuperior" horiz-adv-x="190" d="M104 579l16 90h80l-15-90h-81zm-34-194l16 90h80l-15-90h-81z"/><glyph glyph-name="colonmonetarysuperior" horiz-adv-x="367" d="M155 385h-36l26 63q-56 35-56 120 0 86 49.5 138.5t117.5 52.5q3 0 9-.5t9-.5l20 47h38l-23-54 18-6 25 60h37l-31-73 44-24-35-50q-20 12-32 18l-73-177q22 6 75 29l27-57q-87-35-130-39l-19-47h-38l19 47-20 3zm11 189q0-31 11-50l70 168q-35-9-58-41.5t-23-76.5zm37-74q6-3 20-5l81 195q-5 2-19 4z"/><glyph glyph-name="germandblsinferior" horiz-adv-x="439" d="M214 277q86 0 127-36t30-101l-1-9-52-39q-46 22-76 22-21 0-35.5-10t-14.5-26q0-6 2-10.5t6.5-8 8-6.5 11.5-5.5 13-4l15-4.5 14-4q90-27 90-93 0-45-34-72t-89-27q-77 0-146 48l35 50q60-40 107-40 20 0 36.5 10.5t16.5 27.5q0 15-15 24t-46 19q-6 2-10 3-42 14-65 33t-23 56q0 42 32 70t87 28q33 0 60-9-1 55-86 55-49 0-78.5-18.5t-37.5-65.5l-51-284h-75l52 293q13 69 59 101.5t133 32.5z"/><glyph glyph-name="germandblssuperior" horiz-adv-x="452" d="M311 812q86 0 127-36t30-101l-1-9-52-39q-46 22-76 22-21 0-35.5-10t-14.5-26q0-6 2-10.5t6.5-8 8-6.5 11.5-5.5 13-4l15-4.5 14-4q90-27 90-93 0-45-34-72t-89-27q-77 0-146 48l35 50q60-40 107-40 20 0 36.5 10.5t16.5 27.5q0 15-15 24t-46 19q-6 2-10 3-42 14-65 33t-23 56q0 42 32 70t87 28q33 0 60-9-1 55-86 55-49 0-78.5-18.5t-37.5-65.5l-51-284h-75l52 293q13 69 59 101.5t133 32.5z"/><glyph glyph-name="ginferior" horiz-adv-x="402" d="M251 165h76l-57-322q-12-69-49.5-95t-104.5-26q-77 0-163 24l23 61q79-24 133-24 75 0 85 57l9 52q-62-49-123-49-42 0-71 29t-29 89q0 93 43 152t112 59q53 0 109-46zm-143-261q45 0 106 51l20 113q-37 43-81 43t-70-42.5-26-100.5q0-64 51-64z"/><glyph glyph-name="colonmonetaryinferior" horiz-adv-x="366" d="M60-150h-36l26 64q-56 33-56 119t49.5 138.5 117.5 52.5q3 0 9-.5t9-.5l20 47h38l-23-54q3 0 6-1t6.5-2.5 5.5-2.5l25 60h37l-31-73 44-24-35-50q-20 12-32 18l-73-176q27 7 75 28l27-57q-4-2-24.5-10t-33.5-12.5-33.5-9.5-38.5-7l-19-47h-38l19 47q-12 2-20 4zm11 189q0-31 11-50l70 168q-35-9-58-41.5t-23-76.5zm37-74q12-4 20-4l81 194q-5 2-19 4z"/><glyph glyph-name="colonmonetary.onum" horiz-adv-x="508" d="M143 0h-49l36 87q-77 45-77 159 0 124 68.5 195t159.5 71q10 0 26-2l27 64h50l-31-73q9-2 27-8l34 81h49l-42-99q14-7 35-19.5t23-13.5l-45-64q-4 2-18.5 11t-24.5 14l-106-253q39 10 107 42l34-73q-110-49-177-55l-27-64h-49l27 64q-10 1-28 5zm8 253q0-46 18-73l103 247q-51-12-86-62t-35-112zm55-102q14-5 28-6l116 276q-9 3-27 7z"/><glyph glyph-name="coloninferior" horiz-adv-x="187" d="M9 44l16 90h80l-15-90h-81zm-34-194l16 90h80l-15-90h-81z"/><glyph glyph-name="gsuperior" horiz-adv-x="417" d="M353 700h76l-57-322q-12-69-49.5-95t-104.5-26q-77 0-163 24l23 61q79-24 133-24 75 0 85 57l9 51q-64-48-123-48-42 0-71 29t-29 89q0 93 43 152t112 59q53 0 109-46zm-143-261q46 0 106 50l20 114q-37 43-81 43t-70-42.5-26-100.5q0-64 51-64z"/><glyph glyph-name="cinferior" horiz-adv-x="350" d="M292 121l-36-50q-59 37-94 37-43 0-73.5-35t-30.5-87q0-38 17.5-58.5t47.5-20.5q28 0 104 33l27-56q-94-41-145-41-57 0-92.5 35t-35.5 102q0 87 49.5 139.5t117.5 52.5q56 0 144-51z"/><glyph glyph-name="cent.onum" horiz-adv-x="506" d="M263 0h-71l11 63q-70 6-111 53t-41 129q0 124 68.5 195t159.5 71h3l11 63h71l-13-74q43-11 127-59l-46-64q-60 36-95 46l-48-272q44 11 102 40l34-73q-94-42-151-52zm-113 252q0-91 67-106l49 279q-50-13-83-62.5t-33-110.5z"/><glyph glyph-name="c_t" horiz-adv-x="906" d="M573 447l14 78h71l5 28q21 124-81 124-56 0-93-37t-37-93q0-35 15-59l48-28-50-71q-3 2-16 10t-21 12.5-23 12-27 12-27.5 8-29.5 3.5q-72 0-125-67.5t-53-162.5q0-66 28-102.5t81-36.5q16 0 34.5 4t38.5 12 32.5 13.5 32.5 16 23 11.5l37-81q-139-65-218-65-87 0-141 57.5t-54 161.5q0 78 23 142t61 103.5 84.5 61 95.5 21.5q51 0 103-19-4 15-4 39 0 75 53.5 124t139.5 49q93 0 139.5-50t31.5-136l-3-18h143l-14-78h-143l-56-314q-10-54 36-54 29 0 97 26l28-81q-92-35-153-35t-91.5 38.5-16.5 117.5l53 302h-71z"/><glyph glyph-name="c_l" horiz-adv-x="779" d="M648 0h-103l120 677h-76q-58 0-95-36.5t-37-92.5q0-36 13-62 9-5 24-14t21-12l-50-71q-3 2-16 10t-21 12.5-23 12-27 12-27.5 8-29.5 3.5q-72 0-125-67.5t-53-162.5q0-66 28-102.5t81-36.5q16 0 34.5 4t38.5 12 32.5 13.5 32.5 16 23 11.5l37-81q-139-65-218-65-87 0-141 57.5t-54 161.5q0 78 23 142t61 103.5 84.5 61 95.5 21.5q52 0 108-21-5 20-5 41 0 74 49.5 123.5t133.5 49.5h190z"/><glyph glyph-name="c_k" horiz-adv-x="1054" d="M1057 525l-217-214 155-311h-105l-120 242-101-99-25-143h-103l120 677h-72q-58 0-95-36.5t-37-92.5q0-36 13-62 9-5 24-14t21-12l-50-71q-3 2-16 10t-21 12.5-23 12-27 12-27.5 8-29.5 3.5q-72 0-125-67.5t-53-162.5q0-66 28-102.5t81-36.5q16 0 34.5 4t38.5 12 32.5 13.5 32.5 16 23 11.5l37-81q-139-65-218-65-87 0-141 57.5t-54 161.5q0 78 23 142t61 103.5 84.5 61 95.5 21.5q52 0 108-21-5 20-5 41 0 74 49.5 123.5t133.5 49.5h186l-80-450 238 246h126z"/><glyph glyph-name="c_h" horiz-adv-x="1127" d="M773 729l-48-271q118 78 212 78 81 0 113.5-47t18.5-126l-64-363h-104l63 352q18 101-63 101-45 0-99.5-26t-91.5-55l-66-372h-103l120 677h-72q-58 0-95-36.5t-37-92.5q0-36 13-62 9-5 24-14t21-12l-50-71q-3 2-16 10t-21 12.5-23 12-27 12-27.5 8-29.5 3.5q-72 0-125-67.5t-53-162.5q0-66 28-102.5t81-36.5q16 0 34.5 4t38.5 12 32.5 13.5 32.5 16 23 11.5l37-81q-139-65-218-65-87 0-141 57.5t-54 161.5q0 78 23 142t61 103.5 84.5 61 95.5 21.5q52 0 108-21-5 20-5 41 0 74 49 123.5t134 49.5h186z"/><glyph glyph-name="hinferior" horiz-adv-x="395" d="M127 287l-29-160q72 45 131 45 51 0 72-29t12-78l-38-215h-75l38 207q9 56-38 56-27 0-59.5-14.5t-52.5-31.5l-39-217h-75l77 437h76z"/><glyph glyph-name="brokenbar.sc" horiz-adv-x="247" d="M165 332h-73l60 339h73zm-76-433h-73l60 339h73z"/><glyph glyph-name="bracketrightsuperior" horiz-adv-x="247" d="M187 299h-158l8 46h79l88 497h-79l8 46h158z"/><glyph glyph-name="bracketrightinferior" horiz-adv-x="250" d="M95-236h-158l8 46h79l88 497h-79l8 46h158z"/><glyph glyph-name="bracketright.sc" horiz-adv-x="335" d="M175-118h-211l11 61h110l122 685h-111l10 60h211z"/><glyph glyph-name="bracketleftsuperior" horiz-adv-x="246" d="M217 299h-158l104 589h158l-8-46h-79l-88-497h79z"/><glyph glyph-name="bracketleftinferior" horiz-adv-x="249" d="M124-236h-158l104 589h158l-8-46h-79l-88-497h79z"/><glyph glyph-name="bracketleft.sc" horiz-adv-x="335" d="M223-118h-211l142 806h211l-11-60h-110l-121-685h110z"/><glyph glyph-name="bracerightsuperior" horiz-adv-x="274" d="M304 619l-9-51q-66 1-71-69l-3-59q-3-72-43.5-106.5t-124.5-34.5h-23l7 45h12q86 0 92 85l2 56q1 53 24.5 78t71.5 31q-90 21-58 114l14 41q30 95-57 95h-12l8 44h12q78 0 114-38t13-108l-17-53q-22-70 48-70z"/><glyph glyph-name="bracerightinferior" horiz-adv-x="276" d="M211 84l-9-51q-66 1-71-69l-3-59q-3-72-43.5-106.5t-124.5-34.5h-23l7 45h12q86 0 92 85l2 56q1 53 24.5 78t71.5 31q-90 21-58 114l14 41q30 95-57 95h-12l8 44h12q78 0 114-38t13-108l-17-53q-22-70 48-70z"/><glyph glyph-name="iinferior" horiz-adv-x="183" d="M49-150h-75l56 315h75zm-13 366l12 70h81l-12-70h-81z"/><glyph glyph-name="braceright.sc" horiz-adv-x="376" d="M341 319l-11-67q-54 0-76.5-28.5t-23.5-67.5l-3-80q-4-99-59.5-146t-171.5-47h-30l9 58h16q125 0 133 121l3 76q3 71 34 105t94 44q-118 28-76 152l18 59q9 27 11 47.5t-4 41-28.5 31.5-61.5 11h-16l10 59h16q108 0 156-52t18-148l-24-73q-30-96 67-96z"/><glyph glyph-name="braceleftsuperior" horiz-adv-x="273" d="M71 568l7 51q40 0 56.5 20.5t17.5 48.5l2 59q3 72 44 106.5t125 34.5h23l-7-44h-12q-86 0-92-87l-3-55q-2-53-25.5-77.5t-70.5-31.5q89-19 58-113l-14-41q-30-95 57-95h12l-7-45h-12q-77 0-112.5 38t-15.5 108l16 54q11 36-.5 52.5t-46.5 16.5z"/><glyph glyph-name="braceleftinferior" horiz-adv-x="277" d="M-21 33l7 51q40 0 56.5 20.5t17.5 48.5l2 59q3 72 44 106.5t125 34.5h23l-7-44h-12q-86 0-92-87l-3-55q-2-53-25.5-77.5t-70.5-31.5q89-19 58-113l-14-41q-30-95 57-95h12l-7-45h-12q-77 0-112.5 38t-15.5 108l16 54q11 36-.5 52.5t-46.5 16.5z"/><glyph glyph-name="braceleft.sc" horiz-adv-x="376" d="M29 252l12 67q54-1 77 27.5t24 67.5l1 81q2 98 58.5 145.5t172.5 47.5h31l-11-59h-16q-125 0-131-121l-3-75q-4-72-35.5-106t-94.5-43q120-27 78-153l-19-58q-44-132 82-132h17l-9-58h-16q-108 0-156.5 52t-18.5 147l24 74q31 96-67 96z"/><glyph glyph-name="binferior" horiz-adv-x="398" d="M-26-150l77 437h76l-29-159q60 44 115 44 45 0 76.5-28.5t31.5-90.5q0-92-42.5-151t-109.5-59q-57 0-113 46l-7-39h-75zm213 261q-40 0-100-46l-21-119q42-42 86-42 41 0 66 42.5t25 99.5q0 65-56 65z"/><glyph glyph-name="bar.sc" horiz-adv-x="246" d="M89-101h-73l136 772h73z"/><glyph glyph-name="backslash.sc" horiz-adv-x="411" d="M252-74l-162 722h72l161-722h-71z"/><glyph glyph-name="at.sc" horiz-adv-x="795" d="M318-108q43 0 82.5 9t57.5 19l18 9 20-33q-8-5-22.5-12t-61-19-94.5-12q-131 0-208.5 84.5t-77.5 214.5q0 109 50.5 202.5t147 151 219.5 57.5q81 0 141.5-25.5t94-70 47-101 6.5-120.5q-5-36-13.5-69.5t-24.5-71-37-64.5-53.5-45-72.5-18q-94 0-91 98-70-57-142-57-44 0-73.5 28t-29.5 72q0 69 43 107t106 38q45 0 126-21 1 9 4 24t3 17q7 39-5.5 56t-52.5 17q-53 0-137-34l-17 55q101 37 173 37 134 0 111-129l-27-153q-12-41-7-73t38-32q45 0 85.5 60.5t51.5 157.5q7 54-2.5 102t-36.5 88-80 63.5-126 23.5q-170 0-273.5-109t-103.5-261q0-115 65-188t179-73zm137 240l14 72q-86 15-98 15-48 0-70.5-25.5t-22.5-62.5q0-54 56-54 54 0 121 55z"/><glyph glyph-name="asterisksuperior" horiz-adv-x="303" d="M165 583l36 89-86-51-22 59 99 13-88 46 41 48 63-77-4 96 63-11-36-89 85 52 22-60-97-13 86-45-41-48-61 74 3-93z"/><glyph glyph-name="jinferior" horiz-adv-x="185" d="M38 216l12 70h81l-13-70h-80zm69-51l-56-314q-6-35-10.5-49.5t-19-33.5-41.5-29.5-75-21.5l-18 57q55 17 69 29t19 43l57 319h75z"/><glyph glyph-name="asteriskinferior" horiz-adv-x="313" d="M80 48l36 89-86-51-22 59 99 13-88 46 41 48 63-77-4 96 63-11-36-89 85 52 22-60-97-13 86-45-41-48-61 74 3-93z"/><glyph glyph-name="ampersandsuperior" horiz-adv-x="463" d="M460 385h-82l-36 41q-67-48-142-48-61 0-98 28t-37 76q0 43 30 73.5t83 58.5q-41 50-41 92 0 48 37 77t91 29q49 0 81.5-24.5t32.5-64.5q0-37-28-64.5t-81-58.5l72-82q30 38 49 88h77q-24-75-81-139zm-258 50q51 0 98 39l-83 95q-75-45-75-85 0-19 14-34t46-15zm5 270q0-30 26-63 77 39 77 77t-46 38q-28 0-42.5-14.5t-14.5-37.5z"/><glyph glyph-name="ampersandinferior" horiz-adv-x="445" d="M364-150h-82l-36 42q-66-49-142-49-61 0-98 28t-37 76q0 43 30 73.5t83 58.5q-41 50-41 92 0 48 37 77t91 29q49 0 81.5-24.5t32.5-64.5q0-37-28-64.5t-81-58.5l72-81q30 37 49 87h77q-24-75-81-138zm-258 50q50 0 98 40l-83 94q-37-22-56-41.5t-19-43.5q0-19 14-34t46-15zm5 270q0-30 26-63 77 39 77 77t-46 38q-28 0-42.5-14t-14.5-38z"/><glyph glyph-name="ampersand.sc" horiz-adv-x="623" d="M558 0h-105l-53 59q-90-68-197-68-82 0-132.5 38.5t-50.5 103.5q0 59 41.5 100t115.5 80q-57 67-57 127 0 65 49.5 104t121.5 39q66 0 110-33t44-86q0-50-39-89t-110-80l104-117q46 58 70 125h99q-33-105-111-191zm-352 65q72 0 140 56l-118 134q-53-32-82-60t-29-61q0-28 21.5-48.5t67.5-20.5zm2 372q0-41 39-87 53 28 80.5 53t27.5 56q0 23-16.5 38t-47.5 15q-39 0-61-21.5t-22-53.5z"/><glyph glyph-name="kinferior" horiz-adv-x="357" d="M309 165l-135-128 99-187h-77l-73 139-60-56-14-83h-75l77 437h76l-46-258 136 136h92z"/><glyph glyph-name="ksuperior" horiz-adv-x="367" d="M403 700l-135-128 99-187h-77l-73 138-60-56-14-82h-75l77 437h76l-46-258 136 136h92z"/><glyph glyph-name="ainferior" horiz-adv-x="403" d="M272-150h-76l7 41q-62-48-121-48-43 0-72.5 28.5t-29.5 89.5q0 93 43.5 152t112.5 59q53 0 109-46l7 39h76zm-164 54q48 0 107 51l20 114q-42 42-82 42-43 0-69-42.5t-26-100.5q0-64 50-64z"/><glyph glyph-name="Zsuperior" horiz-adv-x="416" d="M464 805l-9-60-292-294h241l-11-66h-346l11 60 292 294h-225l11 66h328z"/><glyph glyph-name="Zinferior" horiz-adv-x="416" d="M370 270l-9-60-292-294h241l-11-66h-346l11 60 292 294h-225l11 66h328z"/><glyph glyph-name="Zdotaccent.sc" horiz-adv-x="555" d="M556 574l-13-77-412-412h342l-15-85h-474l14 78 409 411h-315l14 85h450zm-266 57l17 103h97l-18-103h-96z"/><glyph glyph-name="Zcaron.sc" horiz-adv-x="555" d="M556 574l-13-77-412-412h342l-15-85h-474l14 78 409 411h-315l14 85h450zm-275 47l-77 133h69l68-82 96 82h79l-124-133h-111z"/><glyph glyph-name="Zacute.sc" horiz-adv-x="555" d="M556 574l-13-77-412-412h342l-15-85h-474l14 78 409 411h-315l14 85h450zm-215 47h-91l140 133h138z"/><glyph glyph-name="Z.sc" horiz-adv-x="555" d="M555 574l-13-77-411-412h341l-14-85h-474l13 78 409 411h-315l14 85h450z"/><glyph glyph-name="linferior" horiz-adv-x="183" d="M49-150h-75l77 437h76z"/><glyph glyph-name="Ysuperior" horiz-adv-x="410" d="M181 385l29 167-114 253h83l76-193 144 193h93l-203-254-29-166h-79z"/><glyph glyph-name="lira.onum" horiz-adv-x="511" d="M65 270l8 51h58q-27 64-27 103 0 72 51 115.5t138 43.5q96 0 207-73l-50-60q-84 49-142 49-50 0-78-24.5t-28-60.5q0-12 3-25.5t6.5-22 10.5-23.5 10-22h165l-9-51h-141q2-14 2-22 0-9-2-25h132l-8-50h-142q-29-54-81-89h264l-15-84h-389l12 68q9 4 23.5 12.5t46 36 47.5 56.5h-89l8 50h97q1 4 1 13 0 12-4 34h-85z"/><glyph glyph-name="lirainferior" horiz-adv-x="368" d="M5 48l5 38h41q-19 42-19 74 0 53 37 85t101 32q71 0 156-55l-40-47q-59 37-103 37-33 0-53-17.5t-20-42.5q0-20 23-66h117l-7-38h-97q1-5 1-16 0-7-2-17h92l-6-38h-100q-6-10-15-21t-15.5-17-16-14.5-11.5-9.5h188l-10-65h-288l9 53q58 27 84 74h-64l6 38h70v8q0 13-3 25h-60z"/><glyph glyph-name="lirasuperior" horiz-adv-x="377" d="M103 583l5 38h41q-19 42-19 74 0 53 37 85t101 32q71 0 156-55l-40-47q-59 37-103 37-33 0-53-17.5t-20-42.5q0-20 23-66h117l-7-38h-97q1-5 1-16 0-7-2-17h92l-6-38h-100q-14-25-58-62h188l-10-65h-288l9 53q58 27 84 74h-64l6 38h70v8q0 13-3 25h-60z"/><glyph glyph-name="Yinferior" horiz-adv-x="409" d="M87-150l29 167-114 253h83l76-193 144 193h93l-203-254-29-166h-79z"/><glyph glyph-name="Ygrave.sc" horiz-adv-x="575" d="M183 0l40 227-159 347h106l110-270 204 270h119l-281-347-39-227h-100zm249 621h-80l-147 133h124z"/><glyph glyph-name="Ydieresis.sc" horiz-adv-x="575" d="M183 0l40 227-159 347h106l110-270 204 270h119l-281-347-39-227h-100zm25 631l19 103h96l-18-103h-97zm176 0l18 103h95l-19-103h-94z"/><glyph glyph-name="Yacute.sc" horiz-adv-x="575" d="M183 0l40 227-159 347h106l110-270 204 270h119l-281-347-39-227h-100zm164 621h-91l142 133h136z"/><glyph glyph-name="Y.sc" horiz-adv-x="575" d="M183 0l40 227-159 347h106l110-270 204 270h119l-281-347-39-227h-100z"/><glyph glyph-name="Xsuperior" horiz-adv-x="420" d="M112 805h86l69-163 124 163h95l-178-210 112-210h-89l-72 162-129-162h-100l185 210z"/><glyph glyph-name="Xinferior" horiz-adv-x="420" d="M18 270h86l69-163 124 163h95l-178-210 112-210h-89l-72 162-129-162h-100l185 210z"/><glyph glyph-name="minferior" horiz-adv-x="591" d="M103 165l-8-41q62 48 117 48 70 0 84-56 64 56 127 56 51 0 71.5-28.5t11.5-76.5l-38-217h-75l38 207q9 56-36 56-49 0-100-49l-37-214h-77l38 207q11 56-35 56-48 0-99-49l-38-214h-75l56 315h75z"/><glyph glyph-name="X.sc" horiz-adv-x="562" d="M76 574h109l99-231 178 231h123l-247-287 156-287h-112l-107 226-183-226h-127l255 288z"/><glyph glyph-name="Wsuperior" horiz-adv-x="608" d="M403 385l-28 315-140-315h-81l-47 420h86l22-316 142 316h69l27-319 133 319h92l-195-420h-80z"/><glyph glyph-name="Winferior" horiz-adv-x="607" d="M309-150l-28 315-140-315h-81l-47 420h86l22-316 142 316h69l27-318 133 318h92l-195-420h-80z"/><glyph glyph-name="Wgrave.sc" horiz-adv-x="842" d="M487 0l-41 445-202-445h-100l-67 574h110l34-448 201 448h87l40-450 191 450h117l-268-574h-102zm73 621h-79l-146 133h123z"/><glyph glyph-name="Wdieresis.sc" horiz-adv-x="842" d="M487 0l-41 445-202-445h-100l-67 574h110l34-448 201 448h87l40-450 191 450h117l-268-574h-102zm-146 631l18 103h97l-19-103h-96zm176 0l18 103h95l-19-103h-94z"/><glyph glyph-name="Wcircumflex.sc" horiz-adv-x="842" d="M487 0l-41 445-202-445h-100l-67 574h110l34-448 201 448h87l40-450 191 450h117l-268-574h-102zm67 754l78-133h-69l-68 82-96-82h-79l123 133h111z"/><glyph glyph-name="Wacute.sc" horiz-adv-x="842" d="M487 0l-41 445-202-445h-100l-67 574h110l34-448 201 448h87l40-450 191 450h117l-268-574h-102zm-8 621h-91l142 133h137z"/><glyph glyph-name="W.sc" horiz-adv-x="842" d="M487 0l-41 444-201-444h-101l-67 574h110l34-449 202 449h87l40-449 190 449h118l-269-574h-102z"/><glyph glyph-name="Vsuperior" horiz-adv-x="444" d="M190 805l59-339 177 339h95l-240-420h-86l-93 420h88z"/><glyph glyph-name="Vinferior" horiz-adv-x="444" d="M95 270l59-338 177 338h95l-240-420h-86l-93 420h88z"/><glyph glyph-name="nine.dnom" horiz-adv-x="415" d="M81 57q63 0 115 34t75 94q-44-35-107-35-62 0-98 35t-36 87q0 64 46 109.5t125 45.5q78 0 121-46t43-112q0-115-80.5-195.5t-200.5-80.5q-20 0-38.5 3t-26.5 6l-8 2 27 57q18-4 43-4zm104 152q32 0 60 15t41 33q1 6 1 17 0 38-21.5 63.5t-61.5 25.5q-45 0-70.5-26t-25.5-63q0-27 19.5-46t57.5-19z"/><glyph glyph-name="nine.numr" horiz-adv-x="415" d="M130 337q64 0 115.5 34t75.5 94q-44-35-107-35-62 0-98 35t-36 87q0 64 45.5 109.5t124.5 45.5q78 0 121-46t43-112q0-115-80.5-195.5t-200.5-80.5q-20 0-38.5 2.5t-26.5 5.5l-8 3 27 57q18-4 43-4zm104 152q33 0 61.5 16t41.5 34v15q0 38-22 63.5t-62 25.5q-44 0-70-26t-26-63q0-27 19.5-46t57.5-19z"/><glyph glyph-name="nine.onum" horiz-adv-x="617" d="M120-53q104 0 190.5 65t124.5 174q-73-66-178-66-97 0-153 58t-56 142q0 106 73 183t197 77q118 0 183-74t65-178q0-128-57.5-235.5t-159.5-171-225-63.5q-30 0-58 4t-40 8l-13 4 40 81q28-8 67-8zm164 256q56 0 104.5 30.5t69.5 64.5q1 11 1 35 0 65-36 111.5t-102 46.5q-76 0-120.5-50t-44.5-117q0-50 32.5-85.5t95.5-35.5z"/><glyph glyph-name="nine.tnum" horiz-adv-x="645" d="M155 78q104 0 190.5 65t124.5 174q-73-66-178-66-98 0-153.5 58t-55.5 142q0 106 72.5 183t196.5 77q119 0 184-74t65-178q0-128-57.5-235.5t-159.5-171-225-63.5q-31 0-58.5 4t-40.5 8l-12 4 39 81q29-8 68-8zm164 256q57 0 105.5 31.5t68.5 65.5q0 5 .5 16t.5 17q0 65-36.5 111.5t-102.5 46.5q-75 0-119.5-50t-44.5-117q0-50 32.5-85.5t95.5-35.5z"/><glyph glyph-name="V.sc" horiz-adv-x="617" d="M180 574l88-472 250 472h122l-330-574h-112l-128 574h110z"/><glyph glyph-name="Utilde.sc" horiz-adv-x="626" d="M260 629l-48 31q21 30 33 44.5t31.5 26.5 42.5 12q28 0 66.5-24.5t53.5-24.5q24 0 58 47l48-31q-21-30-33-44.5t-31.5-26.5-42.5-12q-29 0-67 24.5t-53 24.5q-24 0-58-47zm338-55l-64-363q-18-102-79.5-161t-188.5-59q-71 0-117.5 18.5t-67 51-26 77 5.5 95.5l60 341h100l-64-358q-12-66 10-102.5t99-36.5q144 0 169 139l63 358h100z"/><glyph glyph-name="ninferior" horiz-adv-x="397" d="M103 165l-7-39q72 46 131 46 51 0 72-29t12-78l-37-215h-76l38 207q9 56-38 56-54 0-113-46l-38-217h-75l56 315h75z"/><glyph glyph-name="Usuperior" horiz-adv-x="464" d="M494 805l-47-265q-27-162-195-162-101 0-133.5 48t-17.5 132l43 247h78l-46-262q-9-47 6.5-72.5t69.5-25.5q99 0 117 98l46 262h79z"/><glyph glyph-name="Uring.sc" horiz-adv-x="626" d="M275 717q0 44 31 75.5t75 31.5 75.5-31.5 31.5-75.5-31.5-75-75.5-31-75 31-31 75zm54 0q0-22 15-36.5t37-14.5 37 14.5 15 36.5-15 37-37 15-37-15-15-37zm269-143l-64-363q-18-102-79.5-161t-188.5-59q-71 0-117.5 18.5t-67 51-26 77 5.5 95.5l60 341h100l-64-358q-12-66 10-102.5t99-36.5q144 0 169 139l63 358h100z"/><glyph glyph-name="Uogonek.sc" horiz-adv-x="627" d="M599 574l-64-363q-32-178-184-211-57-29-85-53t-28-50q0-5 1.5-9.5t4.5-7l6-5 9-3.5 9.5-2 10.5-1h32l-20-55h-5q-123-1-123 72 0 60 94 105-89 2-138.5 34.5t-58 85.5 1.5 122l60 341h100l-64-358q-12-66 10-102.5t99-36.5q143 0 168 139l64 358h100z"/><glyph glyph-name="Umacron.sc" horiz-adv-x="626" d="M223 646l12 65h294l-11-65h-295zm375-72l-64-363q-18-102-79.5-161t-188.5-59q-71 0-117.5 18.5t-67 51-26 77 5.5 95.5l60 341h100l-64-358q-12-66 10-102.5t99-36.5q144 0 169 139l63 358h100z"/><glyph glyph-name="numbersign.onum" horiz-adv-x="660" d="M304 0l46 137h-147l-46-137h-77l46 137h-107l11 73h121l51 153h-107l11 73h121l47 138h77l-47-138h147l47 138h77l-47-138h108l-11-73h-122l-52-153h110l-12-73h-123l-46-137h-76zm-25 363l-51-153h147l51 153h-147z"/><glyph glyph-name="numbersigninferior" horiz-adv-x="478" d="M176-150l33 99h-103l-33-99h-60l33 99h-76l10 57h86l36 108h-76l9 57h86l34 99h60l-34-99h102l33 99h60l-33-99h78l-10-57h-87l-36-108h77l-9-57h-87l-33-99h-60zm-14 264l-36-108h102l36 108h-102z"/><glyph glyph-name="numbersignsuperior" horiz-adv-x="478" d="M273 385l33 99h-103l-33-99h-60l33 99h-76l10 57h86l36 108h-76l9 57h86l34 99h60l-34-99h102l33 99h60l-33-99h78l-10-57h-87l-36-108h77l-9-57h-87l-33-99h-60zm-14 264l-36-108h102l36 108h-102z"/><glyph glyph-name="Uinferior" horiz-adv-x="465" d="M401 270l-47-265q-27-162-195-162-101 0-133.5 48t-17.5 132l43 247h79l-47-262q-9-47 6.5-72.5t69.5-25.5q99 0 117 98l46 262h79z"/><glyph glyph-name="Uhungarumlaut.sc" horiz-adv-x="626" d="M462 621h-66l98 133h112zm-159 0h-66l98 133h112zm295-47l-64-363q-18-102-79.5-161t-188.5-59q-71 0-117.5 18.5t-67 51-26 77 5.5 95.5l60 341h100l-64-358q-12-66 10-102.5t99-36.5q144 0 169 139l63 358h100z"/><glyph glyph-name="Ugrave.sc" horiz-adv-x="626" d="M452 621h-80l-146 133h123zm146-47l-64-363q-18-102-79.5-161t-188.5-59q-71 0-117.5 18.5t-67 51-26 77 5.5 95.5l60 341h100l-64-358q-12-66 10-102.5t99-36.5q144 0 169 139l63 358h100z"/><glyph glyph-name="Udieresis.sc" horiz-adv-x="626" d="M233 631l17 103h97l-18-103h-96zm175 0l18 103h96l-18-103h-96zm190-57l-64-363q-18-102-79.5-161t-188.5-59q-71 0-117.5 18.5t-67 51-26 77 5.5 95.5l60 341h100l-64-358q-12-66 10-102.5t99-36.5q144 0 169 139l63 358h100z"/><glyph glyph-name="Ucircumflex.sc" horiz-adv-x="626" d="M445 754l77-133h-67l-69 82-96-82h-79l124 133h110zm153-180l-64-363q-18-102-79.5-161t-188.5-59q-71 0-117.5 18.5t-67 51-26 77 5.5 95.5l60 341h100l-64-358q-12-66 10-102.5t99-36.5q144 0 169 139l63 358h100z"/><glyph glyph-name="Ubreve.sc" horiz-adv-x="626" d="M368 621q-69 0-103.5 31t-26.5 81h70q-4-25 11-37.5t50-12.5q86 0 96 50h70q-9-52-52.5-82t-114.5-30zm230-47l-64-363q-18-102-79.5-161t-188.5-59q-71 0-117.5 18.5t-67 51-26 77 5.5 95.5l60 341h100l-64-358q-12-66 10-102.5t99-36.5q144 0 169 139l63 358h100z"/><glyph glyph-name="Uacute.sc" horiz-adv-x="626" d="M372 621h-92l141 133h138zm226-47l-64-363q-18-102-79.5-161t-188.5-59q-71 0-117.5 18.5t-67 51-26 77 5.5 95.5l60 341h100l-64-358q-12-66 10-102.5t99-36.5q144 0 169 139l63 358h100z"/><glyph glyph-name="U.sc" horiz-adv-x="627" d="M600 574l-64-363q-38-220-268-220-93 0-145 32.5t-61 86 1 123.5l60 341h100l-64-358q-12-66 10-102.5t99-36.5q143 0 168 139l64 358h100z"/><glyph glyph-name="Tsuperior" horiz-adv-x="384" d="M440 739h-131l-63-354h-79l63 354h-132l11 66h342z"/><glyph glyph-name="oinferior" horiz-adv-x="397" d="M158 172q75 0 117.5-37.5t42.5-104.5q0-79-48-133t-129-54q-75 0-117.5 37.5t-42.5 104.5q0 79 48 133t129 54zm-19-270q47 0 74 39.5t27 89.5q0 82-80 82-47 0-74-39.5t-27-89.5q0-82 80-82z"/><glyph glyph-name="Tinferior" horiz-adv-x="384" d="M346 204h-131l-63-354h-79l63 354h-132l11 66h342z"/><glyph glyph-name="Thorn.sc" horiz-adv-x="591" d="M551 316q0-86-66-143.5t-182-57.5h-154l-20-115h-100l101 574h100l-17-97h116q106 0 164-39.5t58-121.5zm-103-2q0 79-119 79h-130l-36-195h127q70 0 114 30t44 86z"/><glyph glyph-name="one.dnom" horiz-adv-x="262" d="M147 0h-79l63 342-81-38-26 55 124 61h73z"/><glyph glyph-name="one.numr" horiz-adv-x="263" d="M198 280h-80l63 342-81-38-26 55 125 61h73z"/><glyph glyph-name="one.onum" horiz-adv-x="376" d="M239 0h-107l83 463-131-64-35 78 192 97h99z"/><glyph glyph-name="one.tnum" horiz-adv-x="645" d="M28 0l15 91h204l89 498-171-82-34 77 231 116h99l-107-609h204l-15-91h-515z"/><glyph glyph-name="Tcedilla.sc" horiz-adv-x="513" d="M54-157l32 56q23-12 50-12 59 0 59 52 0 34-16 61h-26l87 489h-185l14 85h469l-15-85h-183l-86-489h-27q26-43 26-78 0-46-31.5-72t-83.5-26q-49 0-84 19z"/><glyph glyph-name="oneeighth.onum" horiz-adv-x="752" d="M369 86q0 67 104 104-49 28-49 71 0 39 37.5 64t96.5 25q57 0 89.5-22t32.5-58q0-52-81-86 72-33 72-88 0-45-46-73.5t-117-28.5q-64 0-101.5 24t-37.5 68zm183 488l-388-574h-70l388 574h70zm-377-344h-66l51 280-70-31-22 45 107 50h60zm428-131q0 37-68 64-46-13-73-29.5t-27-43.5q0-46 73-46 40 0 67.5 15t27.5 40zm-115 155q0-26 46-46 26 8 40 13.5t27.5 16 13.5 24.5q0 18-15 29.5t-41 11.5q-30 0-50.5-14.5t-20.5-34.5z"/><glyph glyph-name="onefifth" horiz-adv-x="859" d="M487 210l60 210h261l-10-65h-196l-24-93q32 10 63 10 65 0 100.5-36t35.5-91q0-63-48-107.5t-130-44.5q-84 0-161 56l42 50q54-39 111-39 42 0 74.5 22.5t32.5 61.5q0 30-20 47.5t-57 17.5q-44 0-91-26zm163 490l-452-700h-83l451 700h84zm-439-420h-79l62 342-81-38-25 55 124 61h73z"/><glyph glyph-name="onefifth.onum" horiz-adv-x="752" d="M417 172l50 172h224l-8-53h-170l-20-76q26 8 55 8 57 0 88-30t31-74q0-52-41-88.5t-112-36.5q-68 0-139 46l35 41q48-32 97-32 37 0 65 18t28 50q0 25-17.5 40t-50.5 15q-36 0-78-22zm137 402l-388-574h-71l388 574h71zm-378-344h-66l51 280-70-31-22 45 107 50h60z"/><glyph glyph-name="Tcaron.sc" horiz-adv-x="514" d="M525 489h-184l-86-489h-100l86 489h-185l14 85h469zm-267 132l-78 133h69l68-82 96 82h79l-124-133h-110z"/><glyph glyph-name="onehalf.onum" horiz-adv-x="754" d="M657 54l-9-54h-271l5 32q3 22 14.5 42t20.5 31 34 28 33.5 21.5 41.5 22.5q40 20 57 30t32 25 15 30q-2 35-58 35-44 0-106-32l-26 45q70 40 138 40 55 0 86.5-24.5t31.5-63.5q0-23-11-42.5t-35-36.5-42.5-27.5-51.5-27.5l-12-6q-44-21-60.5-34.5t-20.5-33.5h194zm-482 176h-66l51 280-70-31-22 45 107 50h60zm378 344l-387-574h-72l388 574h71z"/><glyph glyph-name="Tbar.sc" horiz-adv-x="523" d="M101 180l10 60h89l45 249h-185l14 85h469l-14-85h-184l-45-249h89l-10-60h-89l-32-180h-100l32 180h-89z"/><glyph glyph-name="T.sc" horiz-adv-x="514" d="M525 489h-184l-87-489h-100l87 489h-185l14 85h469z"/><glyph glyph-name="onequarter.onum" horiz-adv-x="730" d="M328 69l7 46 219 229h86l-40-222h57l-7-53h-59l-12-69h-66l12 69h-197zm225 505l-387-574h-72l388 574h71zm-378-344h-66l51 280-70-31-22 45 107 50h60zm236-108h123l30 165z"/><glyph glyph-name="onesixth" horiz-adv-x="840" d="M714 363q-63 0-114.5-34t-75.5-94q44 35 106 35 63 0 99-35t36-88q0-63-46-108.5t-125-45.5q-78 0-121 46t-43 111q0 116 80 196.5t200 80.5q20 0 38.5-2.5t27.5-5.5l8-3-27-57q-18 4-43 4zm-64 337l-452-700h-83l452 700h83zm-439-420h-79l62 342-81-38-26 55 125 61h73zm399-69q-33 0-60.5-15.5t-41.5-33.5v-16q0-38 21.5-63.5t60.5-25.5q45 0 71 26t26 63q0 27-20 46t-57 19z"/><glyph glyph-name="onesixth.onum" horiz-adv-x="735" d="M611 298q-56 0-101-28t-65-77q40 28 93 28 55 0 86.5-28.5t31.5-72.5q0-52-39.5-89t-107.5-37-105 38-37 93q0 94 68.5 159.5t171.5 65.5q17 0 33-2t23-4l7-3-22-47q-16 4-37 4zm-57 276l-387-574h-71l388 574h70zm-378-344h-65l51 280-71-31-22 45 107 50h60zm346-57q-29 0-53.5-12.5t-36.5-26.5v-12q0-31 19-53t55-22q40 0 62.5 21t22.5 51q0 22-17.5 38t-51.5 16z"/><glyph glyph-name="Ssuperior" horiz-adv-x="417" d="M309 625q51-21 80-46.5t29-71.5q0-57-47-93t-120-36q-99 0-193 61l42 53q82-49 149-49 36 0 61 15.5t25 40.5q0 12-6 21t-19.5 16.5-25.5 12.5-34 12.5-35 12.5q-48 19-75 44t-27 69q0 55 43.5 90t116.5 35q81 0 177-51l-42-52q-70 38-133 38-33 0-55.5-14t-22.5-40q0-11 5-18.5t16.5-14 22.5-10.5 32-11.5 36-13.5z"/><glyph glyph-name="Sinferior" horiz-adv-x="417" d="M215 90q51-21 80-46.5t29-71.5q0-57-47-93t-120-36q-99 0-193 61l42 53q82-49 149-49 36 0 61 15.5t25 40.5q0 12-6 21t-19.5 16.5-25.5 12.5-34 12.5-35 12.5q-48 19-75 44t-27 69q0 55 43.5 90t116.5 35q81 0 177-51l-42-52q-70 38-133 38-33 0-55.5-14t-22.5-40q0-11 5-18.5t16.5-14 22.5-10.5 32-11.5 36-13.5z"/><glyph glyph-name="onethird.onum" horiz-adv-x="746" d="M366 40l33 41q58-33 111-33 40 0 64 16t24 40q0 28-29.5 41t-73.5 13h-16l7 54h20q40 0 72.5 14t32.5 37q0 16-14.5 25t-39.5 9q-41 0-102-29l-22 44q63 38 134 38 53 0 81.5-22t28.5-55q0-58-85-86 32-8 52.5-31t20.5-54q0-43-38.5-75.5t-110.5-32.5-150 46zm-191 190h-66l51 280-70-31-22 45 107 50h60zm378 344l-388-574h-71l388 574h71z"/><glyph glyph-name="Scommaaccent.sc" horiz-adv-x="554" d="M152-165l18 104h89l-9-111-97-108-21 29 61 86h-41zm182 492q35-14 57.5-25.5t47.5-30.5 37.5-45 12.5-60q0-78-65.5-126.5t-165.5-48.5q-130 0-259 81l54 69q118-67 205-67 52 0 88.5 22.5t36.5 59.5q0 16-8 28.5t-27 23-34 17-47 18-49 18.5q-70 28-106.5 60.5t-36.5 92.5q0 75 60.5 122t158.5 47q114 0 238-68l-53-67q-100 51-184 51-47 0-80-20.5t-33-57.5q0-14 6.5-25t23-20 30.5-15 43.5-16 48.5-18z"/><glyph glyph-name="Scircumflex.sc" horiz-adv-x="554" d="M413 754l77-133h-68l-69 82-95-82h-79l124 133h110zm-78-427q35-14 57.5-25.5t47.5-30.5 37-45 12-60q0-78-65.5-126.5t-164.5-48.5q-131 0-260 81l54 69q118-67 205-67 52 0 89 22.5t37 59.5q0 16-8 28.5t-27 23-34.5 17.5-47.5 18-49 18q-70 28-106.5 60.5t-36.5 92.5q0 75 60.5 122t158.5 47q113 0 239-68l-53-67q-102 51-185 51-47 0-80-20.5t-33-57.5q0-14 6.5-25t23-20 30.5-15 44-16 49-18z"/><glyph glyph-name="Scedilla.sc" horiz-adv-x="555" d="M334 327q35-14 57.5-25.5t47.5-30.5 37.5-45 12.5-60q0-75-60.5-122.5t-154.5-51.5q21-34 21-71 0-46-31.5-72t-82.5-26-85 20l32 56q25-13 51-13 24 0 41 13t17 40q0 25-13 54-114 9-225 79l54 69q118-67 205-67 52 0 88.5 22.5t36.5 59.5q0 16-8 28.5t-27 23-34 17-47 18-49 18.5q-70 28-106.5 60.5t-36.5 92.5q0 75 60.5 122t158.5 47q114 0 238-68l-53-67q-100 51-184 51-47 0-80-20.5t-33-57.5q0-14 6.5-25t23-20 30.5-15 43.5-16 48.5-18z"/><glyph glyph-name="Scaron.sc" horiz-adv-x="554" d="M280 621l-79 133h69l68-82 97 82h78l-123-133h-110zm55-294q35-14 57.5-25.5t47.5-30.5 37-45 12-60q0-78-65.5-126.5t-164.5-48.5q-131 0-260 81l54 69q118-67 205-67 52 0 89 22.5t37 59.5q0 16-8 28.5t-27 23-34.5 17.5-47.5 18-49 18q-70 28-106.5 60.5t-36.5 92.5q0 75 60.5 122t158.5 47q113 0 239-68l-53-67q-102 51-185 51-47 0-80-20.5t-33-57.5q0-14 6.5-25t23-20 30.5-15 44-16 49-18z"/><glyph glyph-name="Sacute.sc" horiz-adv-x="554" d="M339 621h-91l140 133h138zm-4-294q35-14 57.5-25.5t47.5-30.5 37-45 12-60q0-78-65.5-126.5t-164.5-48.5q-131 0-260 81l54 69q118-67 205-67 52 0 89 22.5t37 59.5q0 16-8 28.5t-27 23-34.5 17.5-47.5 18-49 18q-70 28-106.5 60.5t-36.5 92.5q0 75 60.5 122t158.5 47q113 0 239-68l-53-67q-102 51-185 51-47 0-80-20.5t-33-57.5q0-14 6.5-25t23-20 30.5-15 44-16 49-18z"/><glyph glyph-name="S.sc" horiz-adv-x="554" d="M334 327q35-14 57.5-25.5t47.5-30.5 37.5-45 12.5-60q0-78-65.5-126.5t-165.5-48.5q-130 0-259 81l54 69q118-67 205-67 52 0 88.5 22.5t36.5 59.5q0 16-8 28.5t-27 23-34 17-47 18-49 18.5q-70 28-106.5 60.5t-36.5 92.5q0 75 60.5 122t158.5 47q114 0 238-68l-53-67q-100 51-184 51-47 0-80-20.5t-33-57.5q0-14 6.5-25t23-20 30.5-15 43.5-16 48.5-18z"/><glyph glyph-name="Rsuperior" horiz-adv-x="457" d="M353 385l-80 168h-88l-30-168h-78l74 420h177q159 0 159-115 0-53-37-90t-101-45l84-170h-80zm54 305q0 54-84 54h-104l-23-130h103q50 0 79 20t29 56z"/><glyph glyph-name="Rinferior" horiz-adv-x="456" d="M258-150l-80 168h-88l-30-168h-78l74 420h177q159 0 159-115 0-53-37-90t-101-45l84-170h-80zm54 305q0 54-84 54h-104l-23-130h103q50 0 79 20t29 56z"/><glyph glyph-name="paragraph.sc" horiz-adv-x="597" d="M302 574h88l-128-726h-84l64 351q-89 0-141.5 40t-52.5 119q0 103 71.5 159.5t182.5 56.5zm45-727l128 727h84l-128-727h-84z"/><glyph glyph-name="Rcommaaccent.sc" horiz-adv-x="614" d="M411 0l-112 232h-129l-41-232h-100l101 574h241q104 0 160.5-38t56.5-115q0-71-52.5-123t-141.5-63l119-235h-102zm74 419q0 75-121 75h-147l-34-182h147q72 0 113.5 27.5t41.5 79.5zm-308-584l18 104h89l-10-111-95-108-22 29 62 86h-42z"/><glyph glyph-name="parenleft.sc" horiz-adv-x="308" d="M35 58l82 455q8 46 15.5 67.5t28 44.5 56 36 97.5 27l20-61q-68-19-87-36.5t-26-59.5l-89-491q-9-49 1.5-65.5t66.5-35.5l-27-56q-75 18-107.5 40.5t-36 54.5 5.5 80z"/><glyph glyph-name="Rcaron.sc" horiz-adv-x="614" d="M411 0l-112 232h-128l-42-232h-100l101 574h241q104 0 160.5-38t56.5-115q0-71-52-123t-141-63l118-235h-102zm74 419q0 75-121 75h-147l-34-182h147q72 0 113.5 27.5t41.5 79.5zm-161 202l-78 133h69l68-82 97 82h78l-123-133h-111z"/><glyph glyph-name="Racute.sc" horiz-adv-x="614" d="M411 0l-112 232h-128l-42-232h-100l101 574h241q104 0 160.5-38t56.5-115q0-71-52-123t-141-63l118-235h-102zm74 419q0 75-121 75h-147l-34-182h147q72 0 113.5 27.5t41.5 79.5zm-101 202h-92l141 133h138z"/><glyph glyph-name="R.sc" horiz-adv-x="614" d="M411 0l-112 232h-129l-41-232h-100l101 574h241q104 0 160.5-38t56.5-115q0-71-52.5-123t-141.5-63l119-235h-102zm74 419q0 75-121 75h-147l-34-182h147q72 0 113.5 27.5t41.5 79.5z"/><glyph glyph-name="parenright.sc" horiz-adv-x="306" d="M266 513l-82-455q-7-37-12-55.5t-17-40-32-33-52.5-23.5-82.5-23l-20 60q67 19 86 36.5t27 60.5l88 490q9 49-1 65.5t-66 36.5l27 56q74-18 107-40.5t36.5-55-6.5-79.5z"/><glyph glyph-name="f_b.ss01" horiz-adv-x="970" d="M57 447l14 78h71l10 58q14 78 52.5 112t101.5 34q79 0 200-35l6 35h103l-48-269q96 76 185 76 70 0 119-46t49-143q0-157-66.5-257.5t-175.5-100.5q-92 0-180 79l-12-68h-103l109 616q-123 24-167 24-60 0-69-56l-11-59h136l-13-78h-137l-74-419q-7-42-11-60.5t-12-46.5-17.5-40.5-25-29.5-38-27-52.5-20.5-72-20.5l-23 81q48 14 72 24t40 30.5 21 39 13 64.5l76 425h-71zm661 4q-70 0-166-79l-40-222q69-76 145-76 71 0 114 78t43 183q0 116-96 116z"/><glyph glyph-name="Qinferior" horiz-adv-x="495" d="M220 277q97 0 145-48.5t49-133.5q1-71-37-143t-116-98l60-55-55-48-87 92q-91 3-136.5 51t-46.5 131q0 38 11.5 79t36 81.5 70.5 66 106 25.5zm-33-367q49 0 84.5 32t49 72 13.5 79q0 117-111 117-49 0-84.5-32.5t-49-72.5-13.5-79q0-116 111-116z"/><glyph glyph-name="Q.sc" horiz-adv-x="667" d="M351 583q133 0 199-66.5t67-182.5q0-44-11.5-92t-35.5-96-68-86.5-101-55.5l84-75-72-63-116 125q-126 4-188.5 69.5t-63.5 178.5q0 41 9 85.5t32 91.5 57 83.5 88 60 120 23.5zm-44-507q53 0 95 26t65 66.5 35 83 12 81.5q0 164-159 164-53 0-95-26t-65-66-35-82.5-12-81.5q0-165 159-165z"/><glyph glyph-name="Psuperior" horiz-adv-x="435" d="M473 687q0-66-48-107t-131-41h-111l-28-154h-78l74 420h161q77 0 119-29.5t42-88.5zm-81-3q0 56-83 56h-91l-24-138h88q48 0 79 21t31 61z"/><glyph glyph-name="percent.onum" horiz-adv-x="880" d="M236 583q72 0 114-35t42-95q0-76-47-126.5t-127-50.5q-73 0-115 35t-42 95q0 76 48 126.5t127 50.5zm-16-248q43 0 69.5 35t26.5 78q0 76-81 76-44 0-70.5-35t-26.5-78q0-76 82-76zm438-37q72 0 113.5-35t41.5-95q0-76-47-126.5t-127-50.5q-72 0-114 35.5t-42 94.5q0 76 48 126.5t127 50.5zm-16-248q43 0 69 35t26 78q0 76-80 76-44 0-71-35t-27-78q0-76 83-76zm43 524l-417-574h-78l416 574h79z"/><glyph glyph-name="percentinferior" horiz-adv-x="624" d="M135 277q52 0 82-25.5t30-68.5q0-56-35-93.5t-94-37.5q-52 0-82.5 25.5t-30.5 68.5q0 55 35.5 93t94.5 38zm-14-179q30 0 49 25t19 55q0 53-56 53-31 0-50-25t-19-56q0-52 57-52zm318-30q52 0 82.5-25.5t30.5-68.5q0-55-35-93t-94-38q-52 0-82.5 25.5t-30.5 68.5q0 56 35.5 93.5t93.5 37.5zm-14-179q31 0 50 25t19 56q0 52-57 52-30 0-49-25t-19-55q0-53 56-53zm35 381l-306-427h-62l307 427h61z"/><glyph glyph-name="percentsuperior" horiz-adv-x="626" d="M216 812q52 0 82-25.5t30-68.5q0-56-35-93.5t-94-37.5q-52 0-82.5 25.5t-30.5 68.5q0 55 35.5 93t94.5 38zm-14-179q30 0 49 25t19 55q0 53-56 53-31 0-50-25t-19-56q0-52 57-52zm318-30q52 0 82.5-25.5t30.5-68.5q0-55-35-93t-94-38q-52 0-82.5 25.5t-30.5 68.5q0 56 35.5 93.5t93.5 37.5zm-14-179q31 0 50 25t19 56q0 52-57 52-30 0-49-25t-19-55q0-53 56-53zm35 381l-306-427h-62l307 427h61z"/><glyph glyph-name="Pinferior" horiz-adv-x="434" d="M378 152q0-66-48-107t-131-41h-111l-28-154h-78l74 420h161q77 0 119-29.5t42-88.5zm-81-3q0 56-83 56h-91l-24-138h88q48 0 79 21t31 61z"/><glyph glyph-name="P.sc" horiz-adv-x="582" d="M567 412q0-86-65.5-143t-181.5-57h-153l-38-212h-100l101 574h215q222 0 222-162zm-103-1q0 79-118 79h-130l-35-195h125q71 0 114.5 30t43.5 86z"/><glyph glyph-name="Otilde.sc" horiz-adv-x="667" d="M351 583q133 0 199-66.5t67-182.5q0-52-16-108t-50-110.5-97-89.5-144-35q-133 0-198.5 66t-66.5 182q0 41 9 85.5t32 91.5 57 83.5 88 60 120 23.5zm-44-507q53 0 95 26t65 66.5 35 83 12 81.5q0 164-159 164-53 0-95-26t-65-66-35-82.5-12-81.5q0-165 159-165zm-25 553l-47 31q29 44 51.5 63.5t54.5 19.5q29 0 67-24.5t53-24.5q25 0 59 47l47-31q-29-44-51.5-63.5t-54.5-19.5q-29 0-67 24.5t-53 24.5q-25 0-59-47z"/><glyph glyph-name="Osuperior" horiz-adv-x="495" d="M314 812q97 0 145-48.5t49-133.5q0-38-11.5-79t-36-81.5-70.5-66-106-25.5q-97 0-145 48.5t-49 133.5q0 38 11.5 79t36 81.5 70.5 66 106 25.5zm-33-367q49 0 84.5 32t49 72 13.5 79q0 117-111 117-49 0-84.5-32.5t-49-72.5-13.5-79q0-116 111-116z"/><glyph glyph-name="Oslashacute.sc" horiz-adv-x="666" d="M642 574l-75-77q48-62 50-163 0-52-16-108t-50-110.5-97-89.5-144-35q-117 0-184 53l-43-44h-75l81 83q-44 62-44 156 0 41 9 85.5t32 91.5 57 83.5 88 60 120 23.5q112 0 178-49l39 40h74zm-335-498q53 0 95 26t65 66.5 35 83 12 81.5q0 54-18 91l-304-312q41-36 115-36zm-159 165q0-52 14-84l301 309q-41 31-108 31-53 0-95-26t-65-66-35-82.5-12-81.5zm240 380h-92l142 133h138z"/><glyph glyph-name="perthousand.onum" horiz-adv-x="1251" d="M236 583q72 0 114-35t42-95q0-76-47-126.5t-127-50.5q-73 0-115 35t-42 95q0 76 48 126.5t127 50.5zm-16-248q43 0 69.5 35t26.5 78q0 76-81 76-44 0-70.5-35t-26.5-78q0-76 82-76zm438-37q72 0 113.5-35t41.5-95q0-76-47-126.5t-127-50.5q-72 0-114 35.5t-42 94.5q0 76 48 126.5t127 50.5zm-16-248q43 0 69 35t26 78q0 76-80 76-44 0-71-35t-27-78q0-76 83-76zm43 524l-417-574h-78l416 574h79zm346-276q72 0 113.5-35t41.5-95q0-76-47.5-126.5t-126.5-50.5q-72 0-114.5 35.5t-42.5 94.5q0 75 48.5 126t127.5 51zm-17-248q43 0 70 35.5t27 77.5q0 76-82 76-44 0-70.5-35t-26.5-78q0-76 82-76z"/><glyph glyph-name="Omacron.sc" horiz-adv-x="667" d="M351 583q133 0 199-66.5t67-182.5q0-52-16-108t-50-110.5-97-89.5-144-35q-133 0-198.5 66t-66.5 182q0 41 9 85.5t32 91.5 57 83.5 88 60 120 23.5zm-44-507q53 0 95 26t65 66.5 35 83 12 81.5q0 164-159 164-53 0-95-26t-65-66-35-82.5-12-81.5q0-165 159-165zm-62 570l12 65h295l-12-65h-295z"/><glyph glyph-name="peseta.onum" horiz-adv-x="614" d="M77 374l6 36h26l29 164h214q222 0 222-162v-2h22l-6-36h-20q-14-72-77.5-117t-165.5-45h-153l-38-212h-99l66 374h-26zm395 37q0 79-119 79h-130l-15-80h264v1zm-158-116q57 0 97.5 20t54.5 59h-264l-14-79h126z"/><glyph glyph-name="pesetainferior" horiz-adv-x="446" d="M13 121l6 30h17l21 119h161q77 0 119-29.5t42-88.5v-1h14l-4-30h-13q-11-54-57-85.5t-118-31.5h-112l-27-154h-79l47 271h-17zm112 84l-10-54h183q-1 54-83 54h-90zm63-138q86 0 105 54h-183l-10-54h88z"/><glyph glyph-name="pesetasuperior" horiz-adv-x="440" d="M106 656l6 30h17l21 119h161q77 0 119-29.5t42-88.5v-1h14l-4-30h-13q-11-54-57-85.5t-118-31.5h-112l-27-154h-79l47 271h-17zm112 84l-10-54h183q-1 54-83 54h-90zm63-138q86 0 105 54h-183l-10-54h88z"/><glyph glyph-name="Oinferior" horiz-adv-x="494" d="M219 277q97 0 145-48.5t49-133.5q0-38-11.5-79t-36-81.5-70.5-66-106-25.5q-97 0-145 48.5t-49 133.5q0 38 11.5 79t36 81.5 70.5 66 106 25.5zm-33-367q49 0 84.5 32t49 72 13.5 79q0 117-111 117-49 0-84.5-32.5t-49-72.5-13.5-79q0-116 111-116z"/><glyph glyph-name="pinferior" horiz-adv-x="400" d="M-49-272l77 437h76l-7-37q60 44 115 44 45 0 76-28.5t31-90.5q0-92-42-151t-110-59q-56 0-113 45l-28-160h-75zm233 383q-39 0-98-45l-21-119q41-43 86-43 41 0 66 42.5t25 99.5q0 65-58 65z"/><glyph glyph-name="Ohungarumlaut.sc" horiz-adv-x="667" d="M351 583q133 0 199-66.5t67-182.5q0-52-16-108t-50-110.5-97-89.5-144-35q-133 0-198.5 66t-66.5 182q0 41 9 85.5t32 91.5 57 83.5 88 60 120 23.5zm-44-507q53 0 95 26t65 66.5 35 83 12 81.5q0 164-159 164-53 0-95-26t-65-66-35-82.5-12-81.5q0-165 159-165zm177 545h-65l97 133h113zm-158 0h-65l97 133h112z"/><glyph glyph-name="plusinferior" horiz-adv-x="386" d="M145 190h59l-20-111h129l-9-57h-130l-19-112h-59l19 112h-129l9 57h130z"/><glyph glyph-name="Ograve.sc" horiz-adv-x="667" d="M351 583q133 0 199-66.5t67-182.5q0-52-16-108t-50-110.5-97-89.5-144-35q-133 0-198.5 66t-66.5 182q0 41 9 85.5t32 91.5 57 83.5 88 60 120 23.5zm-44-507q53 0 95 26t65 66.5 35 83 12 81.5q0 164-159 164-53 0-95-26t-65-66-35-82.5-12-81.5q0-165 159-165zm168 545h-81l-145 133h123z"/><glyph glyph-name="Odieresis.sc" horiz-adv-x="667" d="M351 583q133 0 199-66.5t67-182.5q0-52-16-108t-50-110.5-97-89.5-144-35q-133 0-198.5 66t-66.5 182q0 41 9 85.5t32 91.5 57 83.5 88 60 120 23.5zm-44-507q53 0 95 26t65 66.5 35 83 12 81.5q0 164-159 164-53 0-95-26t-65-66-35-82.5-12-81.5q0-165 159-165zm-51 555l19 103h96l-18-103h-97zm174 0l18 104h95l-18-104h-95z"/><glyph glyph-name="Ocircumflex.sc" horiz-adv-x="667" d="M351 583q133 0 199-66.5t67-182.5q0-52-16-108t-50-110.5-97-89.5-144-35q-133 0-198.5 66t-66.5 182q0 41 9 85.5t32 91.5 57 83.5 88 60 120 23.5zm-44-507q53 0 95 26t65 66.5 35 83 12 81.5q0 164-159 164-53 0-95-26t-65-66-35-82.5-12-81.5q0-165 159-165zm161 678l78-133h-69l-68 82-95-82h-80l124 133h110z"/><glyph glyph-name="psuperior" horiz-adv-x="411" d="M52 263l77 437h76l-7-37q60 44 115 44 45 0 76-28.5t31-90.5q0-92-42-151t-110-59q-56 0-113 45l-28-160h-75zm233 383q-39 0-98-45l-21-120q42-42 86-42 41 0 66 42.5t25 99.5q0 65-58 65z"/><glyph glyph-name="Obreve.sc" horiz-adv-x="667" d="M351 583q133 0 199-66.5t67-182.5q0-52-16-108t-50-110.5-97-89.5-144-35q-133 0-198.5 66t-66.5 182q0 41 9 85.5t32 91.5 57 83.5 88 60 120 23.5zm-44-507q53 0 95 26t65 66.5 35 83 12 81.5q0 164-159 164-53 0-95-26t-65-66-35-82.5-12-81.5q0-165 159-165zm84 545q-69 0-103.5 31t-25.5 81h69q-4-25 11.5-37.5t49.5-12.5q86 0 95 50h71q-9-52-52.5-82t-114.5-30z"/><glyph glyph-name="qinferior" horiz-adv-x="402" d="M250-272h-75l29 164q-62-49-122-49-43 0-72.5 28.5t-29.5 89.5q0 93 43.5 152t112.5 59q53 0 109-46l7 39h75zm-142 176q49 0 107 52l20 113q-42 42-82 42-43 0-69-42.5t-26-100.5q0-64 50-64z"/><glyph glyph-name="qsuperior" horiz-adv-x="411" d="M346 263h-75l29 163q-64-48-122-48-43 0-72.5 28.5t-29.5 89.5q0 93 43.5 152t112.5 59q53 0 109-46l7 39h75zm-142 176q48 0 107 51l20 114q-42 42-82 42-43 0-69-42.5t-26-100.5q0-64 50-64z"/><glyph glyph-name="Oacute.sc" horiz-adv-x="667" d="M351 583q133 0 199-66.5t67-182.5q0-52-16-108t-50-110.5-97-89.5-144-35q-133 0-198.5 66t-66.5 182q0 41 9 85.5t32 91.5 57 83.5 88 60 120 23.5zm-44-507q53 0 95 26t65 66.5 35 83 12 81.5q0 164-159 164-53 0-95-26t-65-66-35-82.5-12-81.5q0-165 159-165zm86 545h-91l142 133h137z"/><glyph glyph-name="question.sc" horiz-adv-x="463" d="M81 0l19 112h105l-19-112h-105zm363 448q0-74-62.5-118.5t-160.5-63.5l-24-87h-63l17 143q193 34 193 115 0 30-24 46t-64 16q-61 0-151-46l-36 72q105 58 203 58 75 0 123.5-35.5t48.5-99.5z"/><glyph glyph-name="OE.sc" horiz-adv-x="972" d="M870 0h-407l6 34q-67-43-158-43-133 0-198.5 66t-66.5 182q0 41 9 85.5t32 91.5 57 83.5 88 60 120 23.5q137 0 205-73l12 64h401l-13-85h-303l-30-160h248l-14-84h-249l-31-160h306zm-562 76q53 0 95 26t65 66.5 35 83 12 81.5q0 164-159 164-53 0-95-26t-65-66-35-82.5-12-81.5q0-165 159-165z"/><glyph glyph-name="questiondown.sc" horiz-adv-x="465" d="M376 574l-19-112h-104l20 112h103zm-362-448q0 74 63 118t163 63l22 88h64l-19-143q-192-35-192-115 0-30 24-46t64-16q60 0 152 46l36-72q-105-58-202-58-76 0-125.5 35.5t-49.5 99.5z"/><glyph glyph-name="questiondowninferior" horiz-adv-x="318" d="M230 270l-14-84h-81l14 84h81zm-269-327q0 54 46.5 87t118.5 46l16 62h49l-12-104q-71-13-105.5-30t-34.5-50q0-46 62-46 44 0 108 34l29-56q-81-43-149-43-56 0-92 26.5t-36 73.5z"/><glyph glyph-name="questiondownsuperior" horiz-adv-x="337" d="M331 805l-14-84h-81l14 84h81zm-269-327q0 54 46.5 87t118.5 46l16 62h49l-12-104q-71-13-105.5-30t-34.5-50q0-46 62-46 44 0 108 34l29-56q-81-43-149-43-56 0-92 26.5t-36 73.5z"/><glyph glyph-name="questioninferior" horiz-adv-x="338" d="M15-150l14 84h81l-14-84h-81zm269 327q0-54-46.5-87t-118.5-46l-16-62h-49l13 104q71 13 105.5 30t34.5 50q0 46-63 46-45 0-109-34l-27 56q75 43 148 43 56 0 92-26.5t36-73.5z"/><glyph glyph-name="questionsuperior" horiz-adv-x="321" d="M98 385l14 84h81l-14-84h-81zm269 327q0-54-46.5-87t-118.5-46l-16-62h-49l13 104q71 13 105.5 30t34.5 50q0 46-63 46-45 0-109-34l-27 56q75 43 148 43 56 0 92-26.5t36-73.5z"/><glyph glyph-name="O.sc" horiz-adv-x="667" d="M351 583q133 0 199-66.5t67-182.5q0-52-16-108t-50-110.5-97-89.5-144-35q-133 0-198.5 66t-66.5 182q0 41 9 85.5t32 91.5 57 83.5 88 60 120 23.5zm-44-507q53 0 95 26t65 66.5 35 83 12 81.5q0 164-159 164-53 0-95-26t-65-66-35-82.5-12-81.5q0-165 159-165z"/><glyph glyph-name="Ntilde.sc" horiz-adv-x="651" d="M232 574l207-442 78 442h101l-101-574h-103l-207 444-78-444h-100l101 574h102zm48 55l-47 31q29 44 51.5 63.5t54.5 19.5q29 0 67.5-24.5t53.5-24.5q24 0 58 47l48-31q-21-30-33-44.5t-31.5-26.5-42.5-12q-29 0-67 24.5t-53 24.5q-23 0-59-47z"/><glyph glyph-name="Nsuperior" horiz-adv-x="481" d="M355 385l-145 316-55-316h-78l74 420h80l144-316 55 316h78l-73-420h-80z"/><glyph glyph-name="Ninferior" horiz-adv-x="481" d="M260-150l-145 316-55-316h-78l74 420h80l144-315 55 315h78l-73-420h-80z"/><glyph glyph-name="Ncommaaccent.sc" horiz-adv-x="651" d="M232 574l207-444 78 444h101l-101-574h-103l-207 444-78-444h-100l101 574h102zm-30-739l18 104h90l-9-111-97-108-22 29 62 86h-42z"/><glyph glyph-name="Ncaron.sc" horiz-adv-x="651" d="M232 574l207-442 78 442h101l-101-574h-103l-207 444-78-444h-100l101 574h102zm101 47l-78 133h69l68-82 95 82h80l-123-133h-111z"/><glyph glyph-name="Nacute.sc" horiz-adv-x="651" d="M414 0l-207 444-78-444h-100l101 574h102l207-442 78 442h101l-101-574h-103zm-9 621h-91l141 133h137z"/><glyph glyph-name="N.sc" horiz-adv-x="651" d="M232 574l207-444 78 444h101l-101-574h-103l-207 444-78-444h-100l101 574h102z"/><glyph glyph-name="Msuperior" horiz-adv-x="553" d="M426 385l52 292-153-222h-43l-74 234-53-304h-78l74 420h80l83-266 184 266h82l-74-420h-80z"/><glyph glyph-name="Minferior" horiz-adv-x="552" d="M331-150l52 292-153-222h-43l-74 234-53-304h-78l74 420h80l83-266 184 266h82l-74-420h-80z"/><glyph glyph-name="M.sc" horiz-adv-x="748" d="M514 0l73 416-221-320h-55l-106 335-76-431h-100l101 574h104l118-370 258 370h105l-101-574h-100z"/><glyph glyph-name="Lsuperior" horiz-adv-x="368" d="M365 385h-288l74 420h78l-62-355h208z"/><glyph glyph-name="Lslash.sc" horiz-adv-x="504" d="M313 323l-129-63-31-176h292l-14-84h-392l36 206-66-32 15 90 67 33 49 277h100l-40-224 127 63z"/><glyph glyph-name="Linferior" horiz-adv-x="369" d="M271-150h-289l74 420h78l-63-355h209z"/><glyph glyph-name="rinferior" horiz-adv-x="281" d="M103 165l-12-67q7 12 20 27t46 31 70 13l-10-71q-30 0-55.5-11t-41-26.5-26.5-31-16-26.5l-4-11-27-142h-75l56 315h75z"/><glyph glyph-name="Ldot.sc" horiz-adv-x="496" d="M421 0h-392l101 574h100l-87-490h291zm-96 252l19 103h97l-19-103h-97z"/><glyph glyph-name="Lcommaaccent.sc" horiz-adv-x="493" d="M421 0h-392l101 574h100l-87-490h291zm-269-165l17 104h90l-11-111-95-108-22 29 62 86h-41z"/><glyph glyph-name="Lcaron.sc" horiz-adv-x="494" d="M421 0h-392l101 574h100l-87-490h291zm-163 470l18 104h89l-9-111-97-108-20 29 61 86h-42z"/><glyph glyph-name="s_h" horiz-adv-x="1126" d="M290 306q81-26 122.5-60t41.5-95q0-75-60.5-118.5t-153.5-43.5q-125 0-242 74l52 70q107-62 191-62 45 0 76 19.5t31 52.5q0 8-2 15.5t-7 13.5-9 10.5-13.5 9.5-15.5 8-19 7.5-20 6.5-22.5 7-22.5 7q-33 10-55 19.5t-47.5 27-38.5 43.5-13 60q0 71 57 114.5t146 43.5q60 0 125-20-6 19-6 43 0 75 51.5 122.5t138.5 47.5h197l-48-272q114 79 213 79 80 0 112.5-47t18.5-126l-64-363h-104l63 352q18 101-63 101-45 0-100-26t-91-55l-66-372h-103l120 677h-86q-61 0-98.5-36.5t-37.5-92.5q0-29 10-54 16-6 39-19l-50-68q-94 48-168 48-44 0-72.5-18.5t-28.5-49.5q0-10 3-19t11-16 14-11.5 20-10 22-8 26-8.5 26-8z"/><glyph glyph-name="s_k" horiz-adv-x="1054" d="M1056 525l-217-215 155-310h-105l-120 241-101-99-25-142h-103l120 677h-86q-61 0-98.5-36.5t-37.5-92.5q0-29 10-54 16-6 39-19l-50-68q-94 48-168 48-44 0-72.5-18.5t-28.5-49.5q0-10 3-19t11-16 14-11.5 20-10 22-8 26-8.5 26-8q81-26 122.5-60t41.5-95q0-75-60.5-118.5t-153.5-43.5q-125 0-242 74l52 70q107-62 191-62 45 0 76 19.5t31 52.5q0 8-2 15.5t-7 13.5-9 10.5-13.5 9.5-15.5 8-19 7.5-20 6.5-22.5 7-22.5 7q-33 10-55 19.5t-47.5 27-38.5 43.5-13 60q0 71 57 114.5t146 43.5q60 0 125-20-6 19-6 43 0 75 51.5 122.5t138.5 47.5h197l-80-450 238 246h126z"/><glyph glyph-name="s_l" horiz-adv-x="778" d="M647 0h-103l120 677h-90q-61 0-98.5-36.5t-37.5-92.5q0-29 10-54 16-6 39-19l-50-68q-94 48-168 48-44 0-72.5-18.5t-28.5-49.5q0-10 3-19t11-16 14-11.5 20-10 22-8 26-8.5 26-8q81-26 122.5-60t41.5-95q0-75-60.5-118.5t-153.5-43.5q-125 0-242 74l52 70q107-62 191-62 45 0 76 19.5t31 52.5q0 8-2 15.5t-7 13.5-9 10.5-13.5 9.5-15.5 8-19 7.5-20 6.5-22.5 7-22.5 7q-33 10-55 19.5t-47.5 27-38.5 43.5-13 60q0 71 57 114.5t146 43.5q60 0 125-20-6 19-6 43 0 75 51.5 122.5t138.5 47.5h201z"/><glyph glyph-name="Lacute.sc" horiz-adv-x="493" d="M421 0h-392l101 574h100l-87-490h291zm-233 621h-92l142 133h138z"/><glyph glyph-name="L.sc" horiz-adv-x="493" d="M421 0h-392l101 574h100l-87-490h291z"/><glyph glyph-name="Ksuperior" horiz-adv-x="442" d="M77 385l74 420h78l-37-207 214 207h101l-211-201 150-219h-86l-117 169-70-66-18-103h-78z"/><glyph glyph-name="Kinferior" horiz-adv-x="442" d="M-18-150l74 420h78l-37-207 214 207h101l-211-201 150-219h-86l-117 169-70-66-18-103h-78z"/><glyph glyph-name="Kcommaaccent.sc" horiz-adv-x="593" d="M29 0l101 574h100l-51-290 303 290h128l-291-275 212-299h-112l-167 236-98-93-25-143h-100zm144-165l17 104h89l-9-111-96-108-22 29 62 86h-41z"/><glyph glyph-name="K.sc" horiz-adv-x="593" d="M29 0l101 574h100l-51-290 303 290h128l-291-275 212-299h-112l-167 236-98-93-25-143h-100z"/><glyph glyph-name="Jsuperior" horiz-adv-x="202" d="M229 805l-68-386q-6-35-10.5-50t-19-33.5-42-29.5-75.5-21l-19 61q54 14 68 26.5t20 43.5l68 389h78z"/><glyph glyph-name="Jinferior" horiz-adv-x="202" d="M135 270l-68-386q-6-35-10.5-50t-19-33.5-42-29.5-75.5-21l-19 61q54 14 68 26.5t20 43.5l68 389h78z"/><glyph glyph-name="semicoloninferior" horiz-adv-x="193" d="M10 44l16 90h81l-15-90h-82zm-34-194l16 90h81l-10-98-82-83-18 26 50 65h-37z"/><glyph glyph-name="semicolonsuperior" horiz-adv-x="196" d="M106 579l16 90h81l-15-90h-82zm-34-194l16 90h81l-10-98-82-83-18 26 50 65h-37z"/><glyph glyph-name="Jcircumflex.sc" horiz-adv-x="264" d="M231 574l-93-529q-6-33-9-46.5t-11.5-35.5-20-32-32.5-23.5-51-22.5-73-19l-24 79q74 20 93 37t26 59l95 533h100zm35 180l77-133h-69l-68 82-96-82h-79l124 133h111z"/><glyph glyph-name="J.sc" horiz-adv-x="264" d="M231 574l-93-529q-6-33-9-46.5t-11.5-35.5-20-32-32.5-23.5-51-22.5-73-19l-24 79q74 20 93 37t26 59l95 533h100z"/><glyph glyph-name="seven.dnom" horiz-adv-x="344" d="M333 360q-8-8-21-21.5t-47.5-54.5-62.5-82-55-97-36-105h-84q11 58 43.5 122t73 116 62.5 78 35 39h-206l9 65h297z"/><glyph glyph-name="seven.numr" horiz-adv-x="343" d="M382 640q-8-8-21-21.5t-47.5-54.5-62.5-82-55-97-36-105h-84q11 58 43.5 122t73 116 62.5 78 35 39h-206l10 65h296z"/><glyph glyph-name="seven.onum" horiz-adv-x="508" d="M522 492q-13-13-34-36t-77-93.5-101.5-140.5-90.5-166.5-60-181.5h-115q14 80 54 171t82 158 94.5 136.5 75.5 96.5 42 47h-335l14 91h463z"/><glyph glyph-name="seven.tnum" horiz-adv-x="645" d="M612 618q-13-13-34-36t-77-93.5-101.5-140.5-90-166.5-59.5-181.5h-115q14 80 54 171t82 158 94.5 136.5 75.5 96 42 47.5h-336l15 91h463z"/><glyph glyph-name="Itilde.sc" horiz-adv-x="263" d="M80 629l-48 31q21 30 33 44.5t31.5 26.5 42.5 12q29 0 67-24.5t53-24.5q24 0 58 47l48-31q-21-30-33-44.5t-31.5-26.5-42.5-12q-28 0-66 24.5t-53 24.5q-25 0-59-47zm49-629h-100l101 574h100z"/><glyph glyph-name="seveneighths.onum" horiz-adv-x="748" d="M369 86q0 67 104 104-48 28-48 71 0 39 36.5 64t97.5 25q56 0 88.5-22t32.5-58q0-52-81-86 73-33 73-88 0-45-46.5-73.5t-116.5-28.5q-65 0-102.5 24t-37.5 68zm183 488l-387-574h-70l387 574h70zm-219-49q-7-6-18-17t-41-45-54.5-67.5-48-79.5-30.5-86h-70q24 131 183 290h-180l8 54h257zm271-426q0 37-69 64-99-29-99-73 0-46 72-46 39 0 67.5 15t28.5 40zm-117 155q0-26 48-46 26 8 40 13.5t27.5 16 13.5 24.5q0 18-16 29.5t-41 11.5q-30 0-51-14.5t-21-34.5z"/><glyph glyph-name="Isuperior" horiz-adv-x="203" d="M155 385h-78l74 420h78z"/><glyph glyph-name="Iogonek.sc" horiz-adv-x="264" d="M12-103q0-5 1.5-9.5t4.5-7l6-5 9-3.5 9.5-2 10.5-1h32l-21-55h-5q-123-1-123 72 0 64 115 114h-22l101 574h101l-101-574h-4q-114-56-114-103z"/><glyph glyph-name="sinferior" horiz-adv-x="343" d="M151 36q50-14 76.5-34t26.5-59q0-46-37.5-73t-97.5-27q-84 0-160 47l37 49q70-37 123-37 25 0 42 9t17 26q0 4-1 8t-4 7l-6 6-8 5.5-9.5 4-11.5 4-12.5 3.5-14 3.5-14.5 4.5q-28 8-46.5 16.5t-35 28-16.5 46.5q0 43 35.5 70.5t94.5 27.5q70 0 144-38l-34-49q-60 29-108 29-25 0-40.5-9t-15.5-24q0-4 1-8t4-7l5.5-5.5 7.5-5 9-4.5 11-4 11.5-3.5 13-4 13.5-3.5z"/><glyph glyph-name="Imacron.sc" horiz-adv-x="263" d="M129 0h-100l101 574h100zm-85 646l11 65h295l-11-65h-295z"/><glyph glyph-name="six.dnom" horiz-adv-x="416" d="M302 363q-63 0-114.5-34t-75.5-95q43 36 107 36 62 0 98-35t36-88q0-63-46-108.5t-125-45.5q-78 0-121 46t-43 111q0 116 80.5 196.5t200.5 80.5q20 0 38.5-2.5t26.5-5.5l8-3-27-57q-18 4-43 4zm-104-152q-33 0-60.5-15.5t-41.5-33.5v-16q0-38 21.5-63.5t61.5-25.5q45 0 70.5 26t25.5 63q0 27-19.5 46t-57.5 19z"/><glyph glyph-name="six.numr" horiz-adv-x="416" d="M351 643q-63 0-114.5-34t-75.5-95q43 36 107 36 62 0 98-35t36-88q0-63-46-108.5t-125-45.5q-78 0-121 46t-43 111q0 116 80.5 196.5t200.5 80.5q20 0 38.5-2.5t26.5-5.5l8-3-27-57q-18 4-43 4zm-104-152q-33 0-60.5-15.5t-41.5-33.5v-16q0-38 21.5-63.5t61.5-25.5q45 0 70.5 26t25.5 63q0 27-19.5 46t-57.5 19z"/><glyph glyph-name="six.onum" horiz-adv-x="627" d="M498 622q-104 0-190-65t-124-174q73 66 177 66 98 0 153.5-58t55.5-142q0-106-72.5-183t-196.5-77q-119 0-183.5 74t-64.5 178q0 128 57.5 235.5t159 171 224.5 63.5q31 0 58.5-4t39.5-8l13-4-39-81q-29 8-68 8zm-164-256q-56 0-104-30.5t-69-64.5q-1-11-1-35 0-65 36-111.5t102-46.5q75 0 119.5 50t44.5 117q0 50-32.5 85.5t-95.5 35.5z"/><glyph glyph-name="six.tnum" horiz-adv-x="645" d="M507 622q-105 0-190.5-65.5t-123.5-174.5q72 67 178 67 97 0 152.5-58t55.5-142q0-106-72.5-183t-196.5-77q-119 0-183.5 74t-64.5 178q0 128 57.5 235.5t159 171 224.5 63.5q31 0 58.5-4t40.5-8l12-4-39-81q-29 8-68 8zm-163-256q-57 0-105-30.5t-69-64.5q-1-11-1-35 0-65 36-111.5t102-46.5q76 0 120 50t44 117q0 50-32.5 85.5t-94.5 35.5z"/><glyph glyph-name="Iinferior" horiz-adv-x="202" d="M60-150h-78l74 420h78z"/><glyph glyph-name="Igrave.sc" horiz-adv-x="263" d="M129 0h-100l101 574h100zm143 621h-79l-146 133h122z"/><glyph glyph-name="Idieresis.sc" horiz-adv-x="263" d="M129 0h-100l101 574h100zm-74 631l18 103h96l-19-103h-95zm174 0l19 103h95l-18-103h-96z"/><glyph glyph-name="slash.sc" horiz-adv-x="426" d="M453 648l-410-722h-80l411 722h79z"/><glyph glyph-name="Icircumflex.sc" horiz-adv-x="263" d="M129 0h-100l101 574h100zm136 754l78-133h-69l-68 82-95-82h-80l124 133h110z"/><glyph glyph-name="spaceinferior" horiz-adv-x="185"/><glyph glyph-name="spacesuperior" horiz-adv-x="185"/><glyph glyph-name="Ibreve.sc" horiz-adv-x="263" d="M189 621q-69 0-103.5 31t-26.5 81h69q-4-25 11.5-37.5t50.5-12.5q86 0 95 50h70q-9-52-52.5-82t-113.5-30zm-60-621h-100l101 574h100z"/><glyph glyph-name="Iacute.sc" horiz-adv-x="263" d="M129 0h-100l101 574h100zm62 621h-91l141 133h138z"/><glyph glyph-name="sterling.onum" horiz-adv-x="509" d="M51 208l11 61h85q-3 12-24.5 65t-21.5 90q0 72 51 115.5t138 43.5q96 0 207-73l-50-60q-84 49-142 49-50 0-78-24.5t-28-60.5q0-28 20.5-73t24.5-72h141l-11-61h-134q-11-41-39.5-73.5t-55.5-50.5h264l-15-84h-389l12 68q4 2 11.5 6t27.5 18 36.5 29 32.5 38.5 22 48.5h-96z"/><glyph glyph-name="IJ.sc" horiz-adv-x="527" d="M484 574l-94-529q-7-39-11-55t-16-39.5-31-35-53-25-86-24.5l-24 79q74 20 93 37t27 59l94 533h101zm-355-574h-100l101 574h100z"/><glyph glyph-name="I.sc" horiz-adv-x="263" d="M129 0h-100l101 574h100z"/><glyph glyph-name="Hsuperior" horiz-adv-x="473" d="M346 385l33 188h-191l-33-188h-78l74 420h78l-30-167h191l30 167h80l-74-420h-80z"/><glyph glyph-name="Hinferior" horiz-adv-x="472" d="M251-150l33 188h-191l-33-188h-78l74 420h78l-30-167h191l30 167h80l-74-420h-80z"/><glyph glyph-name="Hbar.sc" horiz-adv-x="650" d="M409 0l45 259h-273l-45-259h-100l74 424h-64l10 59h65l16 91h100l-16-91h273l16 91h101l-16-91h64l-10-59h-65l-74-424h-101zm-199 424l-14-81h273l14 81h-273z"/><glyph glyph-name="H.sc" horiz-adv-x="636" d="M402 0l45 259h-273l-45-259h-100l101 574h100l-41-231h272l41 231h101l-100-574h-101z"/><glyph glyph-name="Gsuperior" horiz-adv-x="464" d="M356 385l8 45q-68-52-131-52t-103 43.5-40 126.5q0 124 62.5 194t152.5 70q81 0 182-68l-43-55q-79 52-131 52-62 0-102.5-54t-40.5-133q0-109 80-109 61 0 126 54l11 61h-108l11 62h182l-41-237h-75z"/><glyph glyph-name="three.dnom" horiz-adv-x="398" d="M-19 49l39 50q73-41 128-41 46 0 73 19.5t27 49.5q0 34-34 50t-84 16h-18l9 65h23q46 0 83 17.5t37 45.5q0 19-16 30t-43 11q-48 0-118-35l-26 54q78 46 156 46 60 0 93.5-26t33.5-66q0-72-97-107 35-9 58-37t23-65q0-53-44-93t-129-40q-87 0-174 56z"/><glyph glyph-name="three.numr" horiz-adv-x="398" d="M31 329l39 50q71-41 128-41 45 0 72 19.5t27 49.5q0 34-33.5 50t-83.5 16h-19l9 65h24q46 0 83 17.5t37 45.5q0 19-16.5 30t-43.5 11q-47 0-117-35l-27 54q83 46 157 46 60 0 93.5-26t33.5-66q0-72-98-107 35-9 58-37t23-65q0-53-43.5-93t-128.5-40q-87 0-174 56z"/><glyph glyph-name="three.onum" horiz-adv-x="590" d="M-34-53l55 70q107-65 198-65 78 0 125.5 37t47.5 93q0 62-55 92t-135 30h-30l15 92h35q74 0 136 34.5t62 87.5q0 34-27.5 54t-75.5 20q-85 0-184-58l-35 75q113 74 238 74 92 0 143-42.5t51-107.5q0-55-41-103.5t-120-76.5q57-15 94.5-62.5t37.5-110.5q0-88-70.5-153.5t-203.5-65.5q-137 0-261 86z"/><glyph glyph-name="three.tnum" horiz-adv-x="645" d="M15 76l56 70q105-66 198-66 78 0 125.5 37t47.5 93q0 62-55 92.5t-135 30.5h-31l16 92h35q74 0 135.5 34t61.5 88q0 34-27 53.5t-75 19.5q-85 0-184-58l-36 75q111 74 238 74 92 0 143.5-42.5t51.5-106.5q0-56-41-104.5t-121-76.5q57-15 95-62t38-111q0-88-70.5-153.5t-203.5-65.5q-136 0-262 87z"/><glyph glyph-name="Ginferior" horiz-adv-x="464" d="M262-150l8 45q-71-52-131-52-63 0-103 43.5t-40 126.5q0 124 62.5 194t152.5 70q81 0 182-68l-43-55q-79 52-131 52-62 0-102.5-54t-40.5-133q0-109 80-109 57 0 126 54l11 61h-108l11 62h182l-41-237h-75z"/><glyph glyph-name="threeeighths.onum" horiz-adv-x="849" d="M467 86q0 66 105 104-49 28-49 71 0 39 37 64t97 25q57 0 89-22t32-58q0-52-81-86 73-33 73-88 0-45-46-73.5t-117-28.5q-64 0-102 24t-38 68zm-432 184l33 41q57-34 110-34 41 0 65 16t24 40q0 54-104 54h-17l8 55h20q41 0 73 14t32 37q0 15-14.5 24t-38.5 9q-43 0-102-28l-23 43q65 39 135 39 52 0 81-22t29-55q0-59-85-87 31-7 51.5-30t20.5-54q0-44-37.5-76t-110.5-32q-72 0-150 46zm616 304l-387-574h-71l388 574h70zm52-475q0 36-69 64-46-13-73-29.5t-27-43.5q0-46 73-46 39 0 67.5 15t28.5 40zm-116 155q0-28 46-46 25 7 40 12.5t28.5 16.5 13.5 25q0 18-16 29.5t-42 11.5q-29 0-49.5-14.5t-20.5-34.5z"/><glyph glyph-name="threefifths" horiz-adv-x="967" d="M600 210l60 210h260l-10-65h-196l-23-93q32 10 62 10 64 0 100-36.5t36-90.5q0-63-48-107.5t-131-44.5q-86 0-160 56l42 50q54-39 111-39 41 0 73.5 22.5t32.5 61.5q0 30-19.5 47.5t-56.5 17.5q-44 0-91-26zm-555 119l39 50q71-41 128-41 45 0 72 19.5t27 49.5q0 34-33.5 50t-83.5 16h-19l9 65h23q47 0 84 17.5t37 45.5q0 19-16.5 30t-43.5 11q-47 0-117-35l-27 54q78 46 157 46 60 0 93.5-26t33.5-66q0-72-98-107 35-9 58-37t23-65q0-53-43.5-93t-128.5-40q-86 0-174 56zm717 371l-451-700h-84l452 700h83z"/><glyph glyph-name="threefifths.onum" horiz-adv-x="850" d="M516 172l51 172h224l-8-53h-170l-21-76q26 8 54 8 57 0 89-30t32-74q0-52-41.5-88.5t-112.5-36.5q-68 0-139 46l36 41q45-32 96-32 38 0 66 18t28 50q0 25-17.5 40t-50.5 15q-36 0-80-22zm-480 98l33 41q57-34 110-34 40 0 64 16t24 40q0 54-103 54h-17l8 55h20q40 0 72 14t32 37q0 33-52 33-46 0-102-28l-24 43q69 39 136 39 52 0 81-22t29-55q0-58-86-87 31-7 52-30t21-54q0-44-38-76t-111-32q-71 0-149 46zm618 304l-389-574h-70l389 574h70z"/><glyph glyph-name="Gdotaccent.sc" horiz-adv-x="624" d="M416 0l11 63q-98-72-186-72-86 0-140.5 59t-54.5 173q0 170 85.5 265t208.5 95q114 0 247-94l-56-69q-34 22-53.5 33.5t-57 25.5-69.5 14q-87 0-144-75t-57-186q0-73 28.5-114t87.5-41q74 0 176 75l16 90h-152l13 80h248l-57-322h-94zm-94 631l18 103h96l-18-103h-96z"/><glyph glyph-name="Gcommaaccent.sc" horiz-adv-x="624" d="M416 0l11 63q-98-72-186-72-86 0-140.5 59t-54.5 173q0 170 85.5 265t208.5 95q114 0 247-94l-56-69q-34 22-53.5 33.5t-57 25.5-69.5 14q-87 0-144-75t-57-186q0-73 28.5-114t87.5-41q74 0 176 75l16 90h-152l13 80h248l-57-322h-94zm-216-165l18 104h90l-10-111-96-108-23 29 63 86h-42z"/><glyph glyph-name="threequarters.onum" horiz-adv-x="829" d="M429 69l6 46 219 229h86l-40-222h57l-7-53h-59l-12-69h-66l12 69h-196zm-394 201l33 41q57-34 110-34 40 0 64 16t24 40q0 54-103 54h-17l8 55h20q40 0 72 14t32 37q0 15-14 24t-38 9q-46 0-102-28l-24 43q69 39 136 39 52 0 81-22t29-55q0-58-86-87 31-7 52-30t21-54q0-44-38-76t-111-32q-71 0-149 46zm618 304l-387-574h-72l389 574h70zm-141-452h122l30 165z"/><glyph glyph-name="Gbreve.sc" horiz-adv-x="624" d="M416 0l11 63q-98-72-186-72-86 0-140.5 59t-54.5 173q0 170 85.5 265t208.5 95q114 0 247-94l-56-69q-34 22-53.5 33.5t-57 25.5-69.5 14q-87 0-144-75t-57-186q0-73 28.5-114t87.5-41q74 0 176 75l16 90h-152l13 80h248l-57-322h-94zm-47 621q-69 0-103.5 31t-26.5 81h69q-4-25 11.5-37.5t50.5-12.5q86 0 95 50h70q-9-52-52.5-82t-113.5-30z"/><glyph glyph-name="G.sc" horiz-adv-x="624" d="M416 0l11 63q-98-72-186-72-86 0-140.5 59t-54.5 173q0 170 85.5 265t208.5 95q114 0 247-94l-56-69q-34 22-53.5 33.5t-57 25.5-69.5 14q-87 0-144-75t-57-186q0-73 28.5-114t87.5-41q74 0 176 75l16 90h-152l13 80h248l-57-322h-94z"/><glyph glyph-name="tinferior" horiz-adv-x="273" d="M-8 109l10 56h42l14 79 78 12-16-91h90l-9-56h-91l-30-169q-6-32 23-32 19 0 58 15l20-58q-63-22-102-22-42 0-62 26.5t-11 77.5l28 162h-42z"/><glyph glyph-name="Fsuperior" horiz-adv-x="385" d="M436 739h-218l-20-112h171l-11-64h-171l-32-178h-78l74 420h295z"/><glyph glyph-name="Finferior" horiz-adv-x="385" d="M341 204h-218l-20-112h171l-11-64h-171l-32-178h-78l74 420h295z"/><glyph glyph-name="F.sc" horiz-adv-x="515" d="M518 489h-303l-28-161h239l-13-83h-241l-43-245h-100l101 574h401z"/><glyph glyph-name="two.dnom" horiz-adv-x="395" d="M310 65l-11-65h-316l7 39q4 27 17 51t24.5 38.5 39 34 40 26.5 47.5 26q37 21 50.5 29t34.5 23 28 26.5 7 25.5q-2 19-18.5 31t-46.5 12q-55 0-122-39l-30 55q83 49 160 49 64 0 100-29.5t36-76.5q0-28-11-51t-43.5-47-46-32.5-61.5-33.5q-9-5-14-8-50-26-69-42.5t-25-41.5h223z"/><glyph glyph-name="two.numr" horiz-adv-x="395" d="M359 345l-10-65h-316l6 39q6 34 20 60t43 49 46 33.5 59 33.5q85 48 104 67 16 18 16 37-1 19-17.5 31t-46.5 12q-57 0-122-39l-30 55q83 49 160 49 64 0 99.5-29.5t35.5-76.5q0-28-13.5-52.5t-39.5-45-51-35.5-60-33l-12-6q-49-26-68-42.5t-25-41.5h222z"/><glyph glyph-name="two.onum" horiz-adv-x="584" d="M-6 0l10 59q14 78 76.5 128.5t173.5 96.5q44 19 64.5 28t50.5 24.5 42.5 27.5 23 28.5 10.5 34.5q0 33-27.5 50.5t-75.5 17.5q-99 0-201-62l-40 75q118 75 247 75 96 0 149-40t53-110q0-43-19.5-77.5t-60-63-81-48.5-103.5-45q-70-29-107.5-53.5t-51.5-57.5h362l-15-88h-480z"/><glyph glyph-name="two.tnum" horiz-adv-x="645" d="M522 91l-14-91h-487l11 60q7 44 25.5 81t38.5 62.5 56 53.5 61 44 71 43q11 7 17 10 53 31 79 47.5t57.5 41.5 44.5 48 13 49q0 36-29 58t-81 22q-92 0-194-63l-41 76q121 78 245 78 98 0 153-46t55-123q0-46-18.5-84.5t-66-77-74.5-55.5-97-57q-19-11-29-17-79-45-112-77.5t-42-82.5h358z"/><glyph glyph-name="twofifths" horiz-adv-x="985" d="M618 210l61 210h260l-11-65h-196l-22-92q27 9 61 9 65 0 101-36.5t36-90.5q0-63-48.5-107.5t-130.5-44.5q-84 0-161 56l43 50q51-39 111-39 41 0 73.5 22.5t32.5 61.5q0 30-20 47.5t-56 17.5q-44 0-91-26zm-245 135l-10-65h-317l7 39q6 34 20 60t43 49 46 33.5 59 33.5q35 20 49.5 28.5t35 23 28 26.5 7.5 25q0 20-17.5 32t-47.5 12q-55 0-122-39l-30 55q83 49 161 49 64 0 99.5-29.5t35.5-76.5q0-28-11-51t-43.5-47-46-32.5-61.5-33.5q-9-5-14-8-50-27-69-43t-25-41h223zm408 355l-451-700h-84l452 700h83z"/><glyph glyph-name="twofifths.onum" horiz-adv-x="863" d="M531 172l51 172h224l-9-53h-169l-20-76q26 8 54 8 56 0 88-30t32-74q0-52-41.5-88.5t-112.5-36.5q-68 0-139 46l36 41q45-32 96-32 37 0 65.5 18t28.5 50q0 25-18 40t-50 15q-34 0-80-22zm-213 111l-8-53h-273l5 32q3 22 14 41.5t21 31.5 34.5 27.5 35 21.5 41.5 22q76 41 91 58 12 13 12 27-2 35-58 35-48 0-106-32l-26 45q72 41 138 41 55 0 86-25t31-64q0-22-11-41.5t-34-36.5-41.5-27-51.5-27q-9-5-14-7-43-21-60-35t-21-34h195zm351 291l-388-574h-70l388 574h70z"/><glyph glyph-name="Eurosuperior" horiz-adv-x="457" d="M89 622l6 37h36q24 72 77 112.5t120 40.5q34 0 69-11.5t55-22.5 51-31l-42-54q-74 48-124 48-37 0-69-22t-52-60h162l-6-37h-171q-8-27-8-55h169l-6-36h-162q6-42 28-62.5t53-20.5q53 0 142 49l34-62q-108-57-191-57-62 0-101 38t-44 115h-42l7 36h35q2 33 7 55h-33z"/><glyph glyph-name="Euroinferior" horiz-adv-x="458" d="M-3 87l6 37h36q24 72 77 112.5t120 40.5q34 0 69-11.5t55-22.5 51-31l-42-54q-74 48-124 48-37 0-69-22t-52-60h162l-6-37h-171q-8-27-8-55h169l-6-36h-162q6-42 28-62.5t53-20.5q53 0 142 49l34-62q-108-57-191-57-62 0-101 38t-44 115h-42l7 36h35q2 33 7 55h-33z"/><glyph glyph-name="Euro.onum" horiz-adv-x="638" d="M52 323l8 50h51q33 99 106.5 154.5t165.5 55.5q46 0 93.5-16t72.5-30 70-43l-55-70q-104 69-171 69-55 0-100.5-32.5t-71.5-87.5h228l-8-50h-238q-10-36-12-76h236l-9-50h-225q13-117 113-117 75 0 195 68l47-78q-154-79-261-79-84 0-137 51t-60 155h-60l9 50h50q1 40 9 76h-46z"/><glyph glyph-name="twothirds.onum" horiz-adv-x="857" d="M479 40l32 41q60-33 112-33 40 0 64 15.5t24 40.5q0 54-103 54h-16l7 54h20q41 0 73 14t32 37q0 34-54 34-38 0-102-29l-23 44q68 38 135 38 53 0 81.5-22t28.5-55q0-58-85-86 32-8 52.5-31t20.5-54q0-43-38-75.5t-110-32.5q-70 0-151 46zm-163 243l-8-53h-272l5 32q4 27 16 48.5t38 40.5 39.5 27 51.5 28q77 41 92 58 12 13 11 27 0 35-58 35-50 0-105-32l-26 45q72 41 138 41 54 0 85.5-25t31.5-64q0-22-11-41.5t-34-36.5-41.5-27-51.5-27q-9-5-14-7-43-21-60-35t-21-34h194zm351 291l-388-574h-69l388 574h69z"/><glyph glyph-name="Eth.sc" horiz-adv-x="638" d="M590 346q0-64-21-124t-61-110.5-107.5-81-152.5-30.5h-210l43 248h-64l13 79h65l44 247h174q136 0 206.5-60t70.5-168zm-273-98h-136l-28-163h80q118 0 186.5 73.5t68.5 188.5q0 75-48 108.5t-141 33.5h-75l-29-162h135z"/><glyph glyph-name="Esuperior" horiz-adv-x="399" d="M375 385h-298l74 420h295l-10-66h-218l-20-112h178l-11-64h-178l-20-112h219z"/><glyph glyph-name="Eogonek.sc" horiz-adv-x="535" d="M318-103q0-5 1.5-9.5t4.5-7 6.5-5 9-3.5 9.5-2 10.5-1h30.5l-21-55q-81 0-108 24-20 18-20 48 0 64 115 114h-327l101 574h401l-13-85h-303l-28-160h248l-14-84h-249l-28-160h304l-13-85h-3q-114-55-114-103z"/><glyph glyph-name="Eng.sc" horiz-adv-x="651" d="M618 574l-95-542q-8-41-15-61t-27-42-56.5-35.5-98.5-27.5l-23 79q55 16 78 27.5t31 31.5l-205 440-78-444h-100l101 574h102l207-444 78 444h101z"/><glyph glyph-name="Emacron.sc" horiz-adv-x="535" d="M435 0h-406l101 574h402l-14-85h-303l-28-160h248l-14-84h-249l-28-160h304zm-238 646l11 65h295l-12-65h-294z"/><glyph glyph-name="Einferior" horiz-adv-x="398" d="M280-150h-298l74 420h295l-10-66h-218l-20-112h178l-11-64h-178l-20-112h219z"/></font>
</defs>
</svg>
